<?xml version="1.0" encoding="utf-8"?>
<!DOCTYPE svg PUBLIC "-//W3C//DTD SVG 1.1//EN" "http://www.w3.org/Graphics/SVG/1.1/DTD/svg11.dtd">
<svg version="1.1" id="Ebene_1" xmlns="http://www.w3.org/2000/svg" xmlns:xlink="http://www.w3.org/1999/xlink" x="0px" y="0px"
	 width="420px" height="90.09px" viewBox="383.446 82.255 420 90.09" enable-background="new 383.446 82.255 420 90.09"
	 xml:space="preserve">
<g>
	<path fill="#820202" d="M536.42,106.769c-2.145-1.451-4.416-2.338-6.747-2.637c-0.424-0.061-0.862-0.123-1.294-0.123
		c-0.001,0-0.002,0-0.002,0c-3.147-0.121-6.067,0.704-8.673,2.463c-1.747,1.197-3.146,2.688-4.245,4.53V89.91h-1.608v42.71
		c0,4.367-0.253,7.839-0.773,10.613l-0.079,0.42h1.624l0.052-0.293c0.312-1.76,0.528-3.658,0.661-5.771
		c0.783,1.221,1.716,2.28,2.778,3.157c1.813,1.58,4.073,2.575,6.719,2.962c0.735,0.109,1.475,0.167,2.2,0.167
		c1.685,0,3.385-0.304,5.055-0.905c2.287-0.865,4.348-2.205,6.127-3.984c3.236-3.297,5.187-7.666,5.799-12.988
		c0.551-5.27-0.353-9.945-2.688-13.896C540.06,109.992,538.412,108.2,536.42,106.769z M542.411,125.804
		c-0.524,4.889-2.328,8.936-5.367,12.034c-1.495,1.606-3.347,2.827-5.506,3.632c-2.043,0.772-4.23,1.004-6.479,0.699
		c-2.267-0.357-4.212-1.234-5.942-2.678c-1.704-1.471-2.901-3.189-3.656-5.254v-19.149c0.814-3.043,2.56-5.503,5.188-7.315
		c2.061-1.431,4.456-2.156,7.117-2.156c0.594,0,1.189,0.061,1.693,0.117c2.167,0.293,4.192,1.099,6.021,2.396
		c1.821,1.293,3.281,2.869,4.459,4.813C542.134,116.683,542.943,120.888,542.411,125.804z"/>
	<path fill="#820202" d="M580.56,125.649l0.656-0.11v-0.576c0.12-0.921,0.183-1.864,0.239-2.715
		c0.063-2.808-0.196-5.218-0.792-7.363c-0.732-2.62-1.972-4.852-3.685-6.626c-2.183-2.308-4.763-3.639-7.903-4.068
		c-0.655-0.061-1.332-0.123-2.023-0.123c-1.96,0.062-3.846,0.482-5.77,1.289c-2.352,1.024-4.376,2.588-6.191,4.778
		c-3.137,3.802-4.759,8.699-4.821,14.563c0,5.89,1.566,10.592,4.65,13.973c3.246,3.66,8.328,5.76,13.943,5.76
		c3.645,0,7.191-0.881,10.543-2.619l0.318-0.164l-0.758-1.408l-0.312,0.168c-3.021,1.628-6.225,2.418-9.791,2.418
		c-5.024,0-9.771-1.951-12.694-5.221c-2.604-2.943-4.042-6.902-4.276-11.77h25.369C578.528,125.835,579.634,125.772,580.56,125.649z
		 M579.849,122.212l-0.155,1.918c-0.689,0.051-1.489,0.096-2.432,0.096h-25.377c0.119-5.213,1.604-9.6,4.413-13.039
		c1.602-1.957,3.493-3.418,5.63-4.342c1.616-0.724,3.298-1.105,5.142-1.169c0.628,0,1.216,0.06,1.802,0.117
		c2.808,0.418,5.096,1.599,6.991,3.61c1.547,1.67,2.599,3.604,3.219,5.916C579.756,117.681,580.007,119.937,579.849,122.212z"/>
	<path fill="#820202" d="M608.634,132.62v-14.158c0-2.553-0.181-4.484-0.552-5.906c-0.54-2.107-1.554-3.85-3.098-5.328
		c-1.514-1.453-3.347-2.432-5.454-2.912c-0.927-0.186-1.976-0.248-3.01-0.308c-0.988,0-2.012,0-3.063,0.187
		c-1.629,0.302-3.029,0.721-4.279,1.283c-1.456,0.641-2.658,1.578-3.67,2.859c-1.668,2.04-2.211,5.043-1.383,7.65l0.104,0.328
		l1.518-0.434l-0.105-0.344c-0.641-2.1-0.205-4.482,1.144-6.223c0.752-0.982,1.775-1.773,3.05-2.354
		c1.134-0.536,2.491-0.941,3.92-1.169c2.104-0.312,3.897-0.274,5.447,0.114c3.729,0.873,6.318,3.382,7.296,7.056
		c0.242,1.015,0.53,2.791,0.53,5.498v4.666c-2.547-0.505-5.068-0.761-7.506-0.761c-0.899,0-1.868,0.061-2.806,0.119l-0.044,0.002
		c-4.6,0.38-8.114,1.521-10.74,3.488c-1.59,1.178-2.872,2.717-3.708,4.451c-0.933,1.926-1.246,3.895-0.93,5.855
		c0.31,1.734,1.064,3.307,2.239,4.666c1.188,1.388,2.653,2.398,4.221,2.92c1.491,0.585,3.048,0.882,4.629,0.882
		c1.732,0,3.55-0.358,5.398-1.058c3.843-1.387,7.228-4.41,9.279-8.229c0.102,3.087,0.349,5.684,0.75,7.898l0.054,0.291h1.622
		l-0.079-0.42C608.887,140.456,608.634,136.983,608.634,132.62z M607.025,124.748v6.331c-1.182,4.962-5.021,9.344-9.784,11.167
		c-1.648,0.599-3.264,0.901-4.804,0.901c-1.378,0-2.749-0.242-4.063-0.719c-1.491-0.596-2.684-1.41-3.636-2.474
		c-1.023-1.263-1.627-2.542-1.848-3.916c-0.275-1.606-0.029-3.205,0.748-4.881c0.773-1.544,1.838-2.818,3.254-3.894
		c2.454-1.812,5.783-2.877,9.893-3.17c0.894-0.061,1.842-0.121,2.735-0.121C601.961,123.974,604.485,124.235,607.025,124.748z"/>
	<polygon fill="#820202" points="640.136,104.31 626.159,141.104 612.214,104.537 612.127,104.31 610.409,104.31 625.377,143.651 
		626.886,143.651 641.854,104.31 	"/>
	<path fill="#820202" d="M667.994,108.257c-2.182-2.309-4.763-3.638-7.903-4.068c-0.655-0.06-1.33-0.123-2.022-0.123
		c-1.958,0.063-3.847,0.483-5.771,1.291c-2.35,1.025-4.375,2.588-6.189,4.778c-3.137,3.802-4.758,8.702-4.82,14.563
		c0,5.89,1.566,10.592,4.648,13.973c3.245,3.66,8.328,5.76,13.943,5.76c3.646,0,7.192-0.881,10.543-2.621l0.319-0.166l-0.759-1.406
		l-0.313,0.168c-3.019,1.627-6.222,2.418-9.79,2.418c-5.022,0-9.769-1.952-12.694-5.221c-2.603-2.945-4.042-6.902-4.274-11.771
		h25.368c1.265,0,2.369-0.062,3.297-0.185l0.655-0.11v-0.575c0.121-0.91,0.181-1.82,0.239-2.715
		c0.063-2.809-0.195-5.217-0.792-7.363C670.945,112.26,669.705,110.028,667.994,108.257z M670.866,122.212l-0.156,1.918
		c-0.688,0.051-1.49,0.096-2.431,0.096h-25.378c0.12-5.213,1.604-9.599,4.413-13.041c1.6-1.957,3.491-3.416,5.629-4.34
		c1.617-0.725,3.299-1.107,5.142-1.17c0.626,0.001,1.214,0.059,1.783,0.116l0.018,0.001c2.81,0.418,5.097,1.6,6.992,3.609
		c1.546,1.67,2.598,3.604,3.22,5.918C670.773,117.685,671.024,119.94,670.866,122.212z"/>
	<path fill="#820202" d="M697.725,104.192c-0.505-0.064-1.049-0.123-1.6-0.123c-0.002,0-0.003,0-0.005,0h-0.42
		c-0.367,0-0.746,0-1.171,0.061c-3.503,0.307-6.779,1.584-10.012,3.902c-1.827,1.273-3.438,2.753-4.797,4.404
		c-0.261-2.899-0.713-5.481-1.38-7.869l-0.07-0.258h-1.702l0.134,0.453c1.064,3.611,1.604,8.342,1.604,14.059v24.83h1.608
		l0.002-24.828c0-1.469,0-2.742-0.055-3.973c1.603-2.176,3.488-4.031,5.604-5.519c2.962-2.091,6.052-3.302,9.193-3.597
		c1.131-0.127,2-0.11,2.778,0.057c0.893,0.156,1.687,0.516,2.365,1.07c1.444,1.123,1.952,3.107,1.266,4.937l-0.123,0.329
		l1.424,0.547l0.135-0.313c1.002-2.314,0.338-5.033-1.656-6.77C700.072,104.935,699.031,104.465,697.725,104.192z"/>
	<path fill="#820202" d="M728.19,90.901c-1.314-0.623-2.861-0.986-4.477-1.051c-0.281-0.074-0.601-0.082-0.956-0.068
		c-0.098,0.004-0.197,0.008-0.299,0.008c-1.314,0-2.543,0.188-3.64,0.553c-1.639,0.487-3.024,1.342-4.237,2.617
		c-1.075,1.137-1.851,2.602-2.304,4.348c-0.296,1.065-0.434,2.582-0.434,4.775v6.186h-8.04v1.607h8.04v33.775h1.607h0.002v-33.777
		h13.198v-1.607h-13.198v-6.187c0-1.927,0.115-3.353,0.347-4.345c0.428-1.523,1.085-2.766,1.95-3.686
		c1.029-1.029,2.18-1.746,3.516-2.193c1.041-0.332,2.169-0.498,3.354-0.498c0.314,0,0.633,0.012,0.965,0.035
		c1.409,0.055,2.679,0.357,3.88,0.926c1.359,0.65,2.311,1.468,2.909,2.502c0.666,1.109,0.905,2.291,0.732,3.611l-0.043,0.324
		l1.517,0.326l0.065-0.357c0.309-1.668,0.019-3.201-0.888-4.689C730.929,92.694,729.729,91.64,728.19,90.901z"/>
	<rect x="737.944" y="89.55" fill="#820202" width="1.606" height="8.508"/>
	<rect x="737.944" y="104.31" fill="#820202" width="1.606" height="39.342"/>
	<path fill="#820202" d="M748.851,128.899v-38.99h-1.606v38.99c0,5.949,0.568,10.828,1.693,14.502l0.077,0.25h1.642l-0.143-0.457
		C749.395,139.541,748.851,134.864,748.851,128.899z"/>
	<path fill="#820202" d="M801.71,109.749c-1.378-2.13-3.156-3.645-5.447-4.637c-1.563-0.612-3.081-0.924-4.497-0.924h-0.001
		c-1.959-0.061-3.807,0.383-5.696,1.361c-2.437,1.305-4.155,3.143-5.233,5.602c-0.202-0.475-0.433-0.948-0.718-1.396
		c-1.277-2.068-3.107-3.628-5.452-4.643c-1.584-0.62-3.057-0.922-4.496-0.922h-0.001c-1.977-0.061-3.814,0.384-5.636,1.359
		c-2.104,1.104-3.727,2.684-4.837,4.701c-0.254-2.02-0.635-3.926-1.138-5.686l-0.072-0.256h-1.7l0.134,0.453
		c1.064,3.609,1.604,8.34,1.604,14.059v24.832h1.606v-24.832c0-1.758-0.055-3.32-0.118-4.897c0.801-4.555,5.272-8.118,10.196-8.118
		c1.343,0,2.63,0.27,3.823,0.801c2.045,0.901,3.583,2.211,4.706,4.008c0.607,0.939,1.02,1.949,1.263,3.086v0.434h0.121
		c0.121,0.717,0.181,1.528,0.181,2.467v27.051h1.606V116.66c0-1.126-0.072-2.052-0.232-2.988c0.658-2.83,2.623-5.399,5.146-6.717
		c1.421-0.759,3.059-1.157,4.734-1.157c1.396,0,2.808,0.28,4.083,0.813c3.767,1.551,6.2,5.473,6.2,9.992v27.051h1.606V116.66
		C803.446,113.864,802.896,111.67,801.71,109.749z"/>
	<path fill="#820202" d="M491.699,112.144c-0.008-0.279-0.018-0.596-0.055-0.959l-0.019-0.162l-0.173-0.539l-0.229-0.478
		c-0.148-0.28-0.301-0.507-0.443-0.711l-0.021-0.03c-0.592-0.805-1.271-1.471-1.867-2.025c-1.07-0.979-2.259-1.943-3.863-3.137
		c-2.665-1.947-5.174-3.656-7.659-5.217c-0.635-0.988-1.29-2.002-1.991-2.98c-0.779-1.096-1.639-2.178-2.555-3.215
		c-1.863-2.113-3.944-3.971-6.182-5.519c-1.073-0.748-2.262-1.444-3.622-2.126c-1.384-0.703-2.835-1.207-3.976-1.576
		c-1.361-0.412-2.753-0.723-4.15-0.928c-1.403-0.193-2.665-0.287-3.861-0.287c-0.126,0-0.253,0.001-0.367,0.003
		c-0.67,0.007-1.393,0.022-2.123,0.093c-0.113,0.01-0.223,0.019-0.334,0.026c-0.234,0.017-0.47,0.034-0.734,0.065l-0.971,0.123
		l-3.935,0.595l-3.842,0.599l-1.227,0.176c-0.493-0.164-1.079-0.353-1.688-0.494c-1.669-0.389-3.409-0.392-5.007,0.004
		c-1.06,0.268-2.051,0.644-2.953,1.121l0.498-2.092l-1.428,2.639c-0.156,0.103-0.31,0.207-0.459,0.316
		c-1.418,0.998-2.582,2.403-3.271,3.948c-0.578,1.269-0.87,2.692-0.871,4.237l-0.995,1.838c-0.298,0.574-0.628,1.128-0.979,1.714
		c-0.111,0.187-0.223,0.374-0.336,0.565l-2.744,4.689c-0.371,0.652-0.793,1.344-1.373,2.245c-0.395,0.616-0.914,1.429-1.459,2.241
		c-1.104,1.656-2.106,3.064-3.069,4.309c-0.569,0.741-1.104,1.401-1.62,2c-0.572,0.645-1.135,1.27-1.751,1.84
		c-0.606,0.582-1.216,1.075-1.808,1.465c-0.071,0.045-0.145,0.094-0.217,0.142c-0.076,0.049-0.148,0.101-0.225,0.14l-1.798,0.963
		l-0.038,0.021c-0.316,0.181-0.656,0.334-1.085,0.523l-1.192,0.547c-0.589,0.254-1.191,0.485-1.828,0.729l-0.601,0.231
		c-0.491,0.17-0.819,0.285-1.083,0.375c-0.641,0.22-0.907,0.311-2.12,0.766l-12.557,4.704l33.065-4.101l-9.719-0.812l0.781-0.38
		c0.21-0.104,0.379-0.204,0.527-0.293c0.059-0.035,0.117-0.07,0.178-0.105l0.039-0.021c0.838-0.504,1.648-1.107,2.457-1.823
		c0.763-0.649,1.431-1.334,2.121-2.054c0.687-0.737,1.303-1.44,1.887-2.152c1.068-1.314,2.137-2.738,3.357-4.477
		c0.586-0.83,1.146-1.656,1.564-2.28c0.631-0.933,1.102-1.661,1.517-2.351l1.558-2.521l0.16,2.885l1.22-5.119
		c0.093-0.154,0.186-0.306,0.279-0.457c0.37-0.604,0.751-1.228,1.084-1.853l1.313-2.36l0.342-0.6l-0.025-0.693
		c-0.044-1.025,0.111-1.924,0.469-2.682c0.361-0.786,0.923-1.449,1.693-1.991c0.688-0.503,1.576-0.887,2.692-1.169
		c0.762-0.182,1.686-0.152,2.807,0.089l0.2,0.044c0.151,0.032,0.312,0.067,0.478,0.104l-0.641,1.146l2.788-0.326l1.929,1.017
		l-0.229-1.845l3.981-0.676l3.812-0.629l0.93-0.131c0.173-0.021,0.358-0.037,0.543-0.053c0.118-0.01,0.234-0.02,0.373-0.034
		c0.58-0.065,1.188-0.086,1.759-0.099l0.06-0.002c0.364-0.022,0.729-0.01,1.091,0.002c0.223,0.007,0.443,0.014,0.664,0.015
		c0.57,0.035,1.174,0.075,1.756,0.146c1.171,0.144,2.349,0.377,3.476,0.689c1.333,0.395,2.401,0.785,3.37,1.232
		c1.204,0.551,2.24,1.109,3.175,1.711c2.02,1.289,3.905,2.861,5.602,4.674c0.858,0.913,1.664,1.863,2.407,2.842
		c0.605,0.777,1.146,1.596,1.716,2.461c0.144,0.217,0.288,0.436,0.435,0.655l0.224,0.336l0.354,0.215
		c0.785,0.478,1.59,0.979,2.404,1.502l6.731,6.181l-1.816-2.828c0.157,0.115,0.313,0.23,0.463,0.346
		c1.112,0.844,2.392,1.834,3.496,2.91c0.419,0.408,0.951,0.947,1.33,1.492c0.101,0.148,0.152,0.242,0.174,0.285l0.021,0.043
		l-0.006,0.877v0.039c0.007,0.426-0.02,0.901-0.048,1.403c-0.016,0.292-0.031,0.583-0.041,0.839
		c-0.013,0.241-0.023,0.482-0.034,0.723c-0.025,0.556-0.05,1.078-0.098,1.615l-0.178,2.354l-0.003,0.043
		c-0.023,0.477-0.091,0.979-0.163,1.509c-0.034,0.247-0.067,0.496-0.095,0.726l-0.136,1.041c-0.037,0.117-0.073,0.244-0.111,0.373
		c-0.044,0.153-0.09,0.313-0.14,0.463l-0.397,0.986l-0.471,1c-0.7,1.402-1.438,2.75-2.19,4.008l-0.104,0.176l-0.135,0.461
		c-0.258,0.662-0.491,1.281-0.708,1.875l-1.26,0.019c-0.558,0.009-1.111,0.065-1.807,0.183c-0.196,0.035-0.392,0.08-0.586,0.125
		l-0.236,0.056l-0.894,0.276l-0.374,0.154c-0.199,0.087-0.397,0.174-0.6,0.275l-0.266,0.156c-0.246,0.151-0.524,0.324-0.771,0.526
		l-0.465,0.429l-0.316,0.344c-0.18,0.218-0.343,0.426-0.501,0.632l-0.241,0.313c-1.113,1.452-2.164,2.821-3.285,4.188
		c-0.976,1.202-2.275,2.769-3.674,4.198c-0.609,0.625-1.256,1.222-1.923,1.777l-0.734,0.543l-0.2,0.115
		c-0.085,0.045-0.171,0.096-0.255,0.148c-0.052,0.031-0.101,0.063-0.121,0.076l-2.637,0.994l0.415,0.899l-2.418,1.782l2.453,0.055
		l10.45,21.803l-3.493-14.865h2.228l-2.766-2.297c-0.054-0.236-0.109-0.472-0.168-0.705l-0.816-2.686
		c-0.056-0.186-0.119-0.395-0.203-0.607l-0.465-1.252l1.14-0.758l0.069-0.051c0.817-0.628,1.611-1.309,2.361-2.025
		c1.297-1.234,2.599-2.619,4.104-4.361c1.163-1.36,2.291-2.768,3.383-4.129l0.316-0.396c0.133-0.166,0.265-0.327,0.402-0.487
		l0.258-0.229c0.019-0.009,0.036-0.019,0.053-0.028c0.021-0.012,0.042-0.023,0.063-0.035l0.305,0.166l0.035,3.16l2.792-0.947
		l-1.129,3.893l2.477-4.35l1.848-0.627l1.449-4.043c0.304-0.86,0.611-1.776,0.919-2.729c0.909-1.604,1.616-2.989,2.229-4.367
		l0.478-1.121l0.449-1.245l0.03-0.092c0.114-0.393,0.198-0.736,0.294-1.137l0.047-0.196l0.149-1.435
		c0.019-0.233,0.042-0.465,0.063-0.698c0.057-0.567,0.114-1.155,0.123-1.778l0.088-2.378c0.03-0.599,0.034-1.187,0.038-1.756
		c0.002-0.231,0.003-0.465,0.007-0.729c-0.001-0.272,0.004-0.541,0.009-0.809c0.008-0.533,0.018-1.084-0.016-1.682
		C491.707,112.399,491.703,112.271,491.699,112.144z"/>
</g>
</svg>
