<?xml version="1.0" encoding="utf-8"?>
<!-- Generator: Adobe Illustrator 15.1.0, SVG Export Plug-In . SVG Version: 6.00 Build 0)  -->
<!DOCTYPE svg PUBLIC "-//W3C//DTD SVG 1.1//EN" "http://www.w3.org/Graphics/SVG/1.1/DTD/svg11.dtd">
<svg version="1.1" id="Ebene_1" xmlns="http://www.w3.org/2000/svg" xmlns:xlink="http://www.w3.org/1999/xlink" x="0px" y="0px"
	 width="300px" height="69.403px" viewBox="0 0 300 69.403" enable-background="new 0 0 300 69.403" xml:space="preserve">
<g>
	<g>
		<defs>
			<rect id="SVGID_1_" width="300" height="69.403"/>
		</defs>
		<defs>
			<path id="SVGID_2_" d="M156.938,69.403h-8.955V41.324c0-3.369-2.73-6.101-6.099-6.101H111.3c-3.18,0-11.89,2.757-13.563,6.097
				v28.083h-8.955V26.268h8.955v3.722c4.574-2.409,9.926-3.722,13.563-3.722h30.584c7.976,0,14.502,6.201,15.021,14.045l0.033,1.011
				V69.403"/>
		</defs>
		<clipPath id="SVGID_3_">
			<use xlink:href="#SVGID_1_"  overflow="visible"/>
		</clipPath>
		<clipPath id="SVGID_4_" clip-path="url(#SVGID_3_)">
			<use xlink:href="#SVGID_2_"  overflow="visible"/>
		</clipPath>
		<rect x="85.051" y="22.537" clip-path="url(#SVGID_4_)" fill="#647788" width="75.619" height="50.597"/>
	</g>
	<g>
		<defs>
			<rect id="SVGID_5_" width="300" height="69.403"/>
		</defs>
		<defs>
			<path id="SVGID_6_" d="M53.102,26.268c8.315,0,15.055,6.74,15.055,15.056v13.024c0,8.313-6.74,15.055-15.055,15.055H15.054
				C6.74,69.403,0,62.662,0,54.348V11.465l8.955,0l0.001,14.804H53.102L53.102,26.268z M53.102,35.223H8.956v19.125
				c0,3.368,2.73,6.1,6.098,6.1h38.047c3.369,0,6.1-2.731,6.1-6.1V41.324C59.202,37.955,56.47,35.223,53.102,35.223L53.102,35.223z"
				/>
		</defs>
		<clipPath id="SVGID_7_">
			<use xlink:href="#SVGID_5_"  overflow="visible"/>
		</clipPath>
		<clipPath id="SVGID_8_" clip-path="url(#SVGID_7_)">
			<use xlink:href="#SVGID_6_"  overflow="visible"/>
		</clipPath>
		<rect x="-3.731" y="7.733" clip-path="url(#SVGID_8_)" fill="#647788" width="75.62" height="65.401"/>
	</g>
	<g>
		<defs>
			<rect id="SVGID_9_" width="300" height="69.403"/>
		</defs>
		<defs>
			<path id="SVGID_10_" d="M258.775,29.919h9.223c2.222,0,3.088,0.632,3.088,3.043v2.292c0,2.411-0.866,3.043-3.088,3.043h-9.223
				V29.919L258.775,29.919z M253.58,42.651h15.681c5.195,0,7.02-1.708,7.02-5.897v-5.148c0-4.19-1.824-5.899-7.02-5.899H253.58
				V42.651L253.58,42.651z"/>
		</defs>
		<clipPath id="SVGID_11_">
			<use xlink:href="#SVGID_9_"  overflow="visible"/>
		</clipPath>
		<clipPath id="SVGID_12_" clip-path="url(#SVGID_11_)">
			<use xlink:href="#SVGID_10_"  overflow="visible"/>
		</clipPath>
		<rect x="249.85" y="21.976" clip-path="url(#SVGID_12_)" fill="#647788" width="30.162" height="24.407"/>
	</g>
	<g>
		<defs>
			<rect id="SVGID_13_" width="300" height="69.403"/>
		</defs>
		<defs>
			<polyline id="SVGID_14_" points="280.769,42.651 299.607,42.651 299.607,38.579 285.964,38.579 285.964,35.865 298.602,35.865 
				298.602,32.354 285.964,32.354 285.964,29.64 299.304,29.64 299.304,25.707 280.769,25.707 280.769,42.651 			"/>
		</defs>
		<clipPath id="SVGID_15_">
			<use xlink:href="#SVGID_13_"  overflow="visible"/>
		</clipPath>
		<clipPath id="SVGID_16_" clip-path="url(#SVGID_15_)">
			<use xlink:href="#SVGID_14_"  overflow="visible"/>
		</clipPath>
		<rect x="277.038" y="21.976" clip-path="url(#SVGID_16_)" fill="#647788" width="26.301" height="24.407"/>
	</g>
	<g>
		<defs>
			<rect id="SVGID_17_" width="300" height="69.403"/>
		</defs>
		<defs>
			<polyline id="SVGID_18_" points="232.92,0.127 246.833,5.193 241.77,19.106 227.856,14.041 232.92,0.127 			"/>
		</defs>
		<clipPath id="SVGID_19_">
			<use xlink:href="#SVGID_17_"  overflow="visible"/>
		</clipPath>
		<clipPath id="SVGID_20_" clip-path="url(#SVGID_19_)">
			<use xlink:href="#SVGID_18_"  overflow="visible"/>
		</clipPath>
		<rect x="224.125" y="-3.604" clip-path="url(#SVGID_20_)" fill="#647788" width="26.439" height="26.442"/>
	</g>
	<g>
		<defs>
			<rect id="SVGID_21_" width="300" height="69.403"/>
		</defs>
		<defs>
			<path id="SVGID_22_" d="M190.299,26.268h22.984v8.955h-22.984v19.125c0,3.368,2.731,6.1,6.099,6.1h16.012
				c3.127,0,5.705-2.355,6.058-5.387l8.511,3.097c-1.688,6.47-7.571,11.245-14.568,11.245h-16.012
				c-8.313,0-15.054-6.741-15.054-15.055V35.223h-11.199v-8.955h11.199V11.47h8.955V26.268"/>
		</defs>
		<clipPath id="SVGID_23_">
			<use xlink:href="#SVGID_21_"  overflow="visible"/>
		</clipPath>
		<clipPath id="SVGID_24_" clip-path="url(#SVGID_23_)">
			<use xlink:href="#SVGID_22_"  overflow="visible"/>
		</clipPath>
		<rect x="166.413" y="7.738" clip-path="url(#SVGID_24_)" fill="#647788" width="64.296" height="65.396"/>
	</g>
</g>
</svg>
