<?xml version="1.0" encoding="utf-8"?>
<!-- Generator: Adobe Illustrator 15.1.0, SVG Export Plug-In . SVG Version: 6.00 Build 0)  -->
<!DOCTYPE svg PUBLIC "-//W3C//DTD SVG 1.1//EN" "http://www.w3.org/Graphics/SVG/1.1/DTD/svg11.dtd">
<svg version="1.1" id="Ebene_1" xmlns="http://www.w3.org/2000/svg" xmlns:xlink="http://www.w3.org/1999/xlink" x="0px" y="0px"
	 width="150px" height="81.247px" viewBox="0 0 150 81.247" enable-background="new 0 0 150 81.247" xml:space="preserve">
<g id="Ebene_1_1_" display="none">
	<rect x="-33.006" y="-31.818" display="inline" fill="#FFE60B" width="283.464" height="181.417"/>
	<path display="inline" d="M86.759,78.411h25.931v6.857H94.445V94.5h15.539v6.856H94.445v9.565h18.244v6.856H86.759V78.411z
		 M53.307,117.781h25.931v-6.856H60.994v-9.565h15.533v-6.856H60.994V85.27h18.244v-6.857H53.307V117.781z M34.23,103.24
		l-7.191-24.829h-5.746l-7.191,24.829L8.018,78.411H0l10.509,39.37h6.414l7.239-23.887l7.248,23.887h6.412l10.564-39.37h-8.018
		L34.23,103.24z M151.125,78.411h-9.346l-13.881,17.144V78.411h-7.688v39.37h7.688v-11.833l5.084-6.084l10.117,17.917h8.961
		L138.068,94.06L151.125,78.411z M131.381,74.319h6.744l15.759-47.553h-6.743L131.381,74.319z M34.23,55.685l-7.191-24.827h-5.746
		l-7.191,24.827L8.018,30.857H0l10.509,39.371h6.413l7.24-23.888l7.248,23.888h6.414l10.563-39.371h-8.018L34.23,55.685z
		 M79.236,37.716v-6.858H53.307v39.371h25.931v-6.855H60.994v-9.566h15.531V46.95H60.994v-9.232h18.242V37.716z M115.292,58.892
		c0,7.356-5.03,11.337-12.058,11.337H86.759V30.857h15.815c7.688,0,12.166,4.312,12.166,11.06c0,4.367-2.877,7.188-4.872,8.127
		C112.25,51.152,115.292,53.641,115.292,58.892z M94.445,46.782h7.516c3.27,0,5.094-1.824,5.094-4.535
		c0-2.708-1.824-4.531-5.094-4.531h-7.516V46.782z M107.604,58.506c0-2.653-1.658-4.812-5.142-4.812h-8.017v9.677h8.017
		C105.945,63.372,107.604,61.159,107.604,58.506z M56.947,19.138h-3.709V0.158h7.439c3.867,0,6.159,2.639,6.159,5.812
		c0,2.667-1.624,4.319-3.47,4.986l4.24,8.182H63.32l-3.709-7.57h-2.664V19.138z M56.947,8.475h3.489
		c1.632,0,2.698-1.039,2.698-2.505c0-1.466-1.066-2.505-2.698-2.505h-3.489V8.475z M81.502,11.782L73.979,0.158h-3.303v18.979h3.702
		V7.486L81.9,19.138h3.303V0.158h-3.701V11.782L81.502,11.782z M147.085,11.675h3.488v0.719c0,1.04-0.296,1.894-0.853,2.533
		c-0.668,0.719-1.55,1.067-2.637,1.067c-1.02,0-1.816-0.321-2.374-0.985c-0.75-0.881-0.907-1.627-0.907-5.361
		c0-3.757,0.213-4.452,0.907-5.33c0.585-0.667,1.384-1.015,2.374-1.015c1.838,0,2.959,0.933,3.407,2.774h3.735
		C153.719,2.77,151.398,0,147.085,0c-2.03,0-3.737,0.691-5.12,2.079c-0.826,0.824-1.335,1.758-1.548,2.852
		c-0.214,1.067-0.317,2.639-0.317,4.717c0,2.079,0.104,3.655,0.317,4.722c0.213,1.066,0.722,2.023,1.548,2.853
		c1.383,1.386,3.09,2.078,5.12,2.078c2.127,0,3.89-0.667,5.36-2.161c1.302-1.387,1.811-3.011,1.811-5.784V8.582h-7.171V11.675z
		 M107.171,19.138h12.504v-3.303h-8.795v-4.614h7.488V7.917h-7.488V3.465h8.795V0.158h-12.504V19.138z M4.054,7.486l7.515,11.651
		h3.312V0.158h-3.71v11.624L3.654,0.158h-3.31v18.979h3.709L4.054,7.486L4.054,7.486z M127.012,19.138h-3.709V0.158h7.438
		c3.866,0,6.157,2.639,6.157,5.812c0,2.667-1.631,4.319-3.467,4.986l4.238,8.182h-4.294l-3.703-7.57h-2.663v7.57H127.012z
		 M127.012,8.475h3.488c1.624,0,2.689-1.039,2.689-2.505c0-1.466-1.065-2.505-2.689-2.505h-3.488V8.475z M97.578,19.138h-7.949
		V0.158h7.625c3.71,0,5.863,2.078,5.863,5.334c0,2.105-1.383,3.465-2.34,3.916c1.143,0.532,2.607,1.733,2.607,4.266
		C103.387,17.222,100.964,19.138,97.578,19.138z M93.338,7.835h3.627c1.568,0,2.449-0.877,2.449-2.186
		c0-1.307-0.881-2.185-2.449-2.185h-3.627V7.835z M97.199,15.835c1.686,0,2.482-1.066,2.482-2.347c0-1.279-0.798-2.319-2.482-2.319
		h-3.861v4.666H97.199z M25.994,19.3c3.894,0,6.984-2.639,6.984-6.665V0.158h-3.675v12.343c0,2.185-1.308,3.493-3.31,3.493
		c-1.996,0-3.276-1.309-3.276-3.493V0.158h-3.71v12.477C19.008,16.661,22.104,19.3,25.994,19.3z M37.113,19.138h12.498v-3.303
		h-8.795v-4.614h7.494V7.917h-7.494V3.465h8.795V0.158H37.113V19.138z M217.451,0.11v117.671h-57.305V0.11H217.451z M172.827,24.358
		l19.103,11.601h5.049V22.208h7.602v-6.851h-7.602v-3.649h-5.601v3.649h-18.551V24.358z M172.827,47.758
		c1.351,2.25,2.25,4.451,2.899,7.9h4.549v-5.949h18.353v6.899h5.951V36.408h-5.951v5.95h-25.801V47.758z M204.579,84.409h-6.201
		v6.399c0,1.5,0.201,3.7,0.399,5.3c-5.399-5.15-11.102-10.15-16.45-10.15c-6.101,0-10.101,4.25-10.101,10.502
		c0,4.549,1.699,7.5,5.049,10.649l3.951-4c-1.701-1.601-3.25-3.351-3.25-5.649c0-2.75,1.699-4.502,4.799-4.502
		c4.502,0,9.951,5.701,17.603,13.801h4.201V84.409L204.579,84.409z M205.18,70.758c0-6.801-5.802-11.352-16.603-11.352
		c-10.802,0-16.351,4.551-16.351,11.352s5.549,11.351,16.351,11.351C199.378,82.109,205.18,77.559,205.18,70.758z M179.128,21.908
		v0.2c1.75,0.8,3.55,1.7,5.351,2.6l6.899,4.201v-6.701h-5.149C184.178,22.208,181.128,22.008,179.128,21.908z M188.577,66.358
		c-8.699,0-10.649,1.898-10.649,4.398c0,2.451,1.95,4.4,10.649,4.4c8.649,0,10.899-1.949,10.899-4.4
		C199.479,68.258,197.229,66.358,188.577,66.358z"/>
	<path display="inline" d="M86.759,78.411h25.931v6.857H94.445V94.5h15.539v6.856H94.445v9.565h18.244v6.856H86.759V78.411z
		 M53.307,117.781h25.931v-6.856H60.994v-9.565h15.533v-6.856H60.994V85.27h18.244v-6.857H53.307V117.781z M34.23,103.24
		l-7.191-24.829h-5.746l-7.191,24.829L8.018,78.411H0l10.509,39.37h6.414l7.239-23.887l7.248,23.887h6.412l10.564-39.37h-8.018
		L34.23,103.24z M151.125,78.411h-9.346l-13.881,17.144V78.411h-7.688v39.37h7.688v-11.833l5.084-6.084l10.117,17.917h8.961
		L138.068,94.06L151.125,78.411z M131.381,74.319h6.744l15.759-47.553h-6.743L131.381,74.319z M34.23,55.685l-7.191-24.827h-5.746
		l-7.191,24.827L8.018,30.857H0l10.509,39.371h6.413l7.24-23.888l7.248,23.888h6.414l10.563-39.371h-8.018L34.23,55.685z
		 M79.236,37.716v-6.858H53.307v39.371h25.931v-6.855H60.994v-9.566h15.531V46.95H60.994v-9.232h18.242V37.716z M115.292,58.892
		c0,7.356-5.03,11.337-12.058,11.337H86.759V30.857h15.815c7.688,0,12.166,4.312,12.166,11.06c0,4.367-2.877,7.188-4.872,8.127
		C112.25,51.152,115.292,53.641,115.292,58.892z M94.445,46.782h7.516c3.27,0,5.094-1.824,5.094-4.535
		c0-2.708-1.824-4.531-5.094-4.531h-7.516V46.782z M107.604,58.506c0-2.653-1.658-4.812-5.142-4.812h-8.017v9.677h8.017
		C105.945,63.372,107.604,61.159,107.604,58.506z M56.947,19.138h-3.709V0.158h7.439c3.867,0,6.159,2.639,6.159,5.812
		c0,2.667-1.624,4.319-3.47,4.986l4.24,8.182H63.32l-3.709-7.57h-2.664V19.138z M56.947,8.475h3.489
		c1.632,0,2.698-1.039,2.698-2.505c0-1.466-1.066-2.505-2.698-2.505h-3.489V8.475z M81.502,11.782L73.979,0.158h-3.303v18.979h3.702
		V7.486L81.9,19.138h3.303V0.158h-3.701V11.782L81.502,11.782z M147.085,11.675h3.488v0.719c0,1.04-0.296,1.894-0.853,2.533
		c-0.668,0.719-1.55,1.067-2.637,1.067c-1.02,0-1.816-0.321-2.374-0.985c-0.75-0.881-0.907-1.627-0.907-5.361
		c0-3.757,0.213-4.452,0.907-5.33c0.585-0.667,1.384-1.015,2.374-1.015c1.838,0,2.959,0.933,3.407,2.774h3.735
		C153.719,2.77,151.398,0,147.085,0c-2.03,0-3.737,0.691-5.12,2.079c-0.826,0.824-1.335,1.758-1.548,2.852
		c-0.214,1.067-0.317,2.639-0.317,4.717c0,2.079,0.104,3.655,0.317,4.722c0.213,1.066,0.722,2.023,1.548,2.853
		c1.383,1.386,3.09,2.078,5.12,2.078c2.127,0,3.89-0.667,5.36-2.161c1.302-1.387,1.811-3.011,1.811-5.784V8.582h-7.171V11.675z
		 M107.171,19.138h12.504v-3.303h-8.795v-4.614h7.488V7.917h-7.488V3.465h8.795V0.158h-12.504V19.138z M4.054,7.486l7.515,11.651
		h3.312V0.158h-3.71v11.624L3.654,0.158h-3.31v18.979h3.709L4.054,7.486L4.054,7.486z M127.012,19.138h-3.709V0.158h7.438
		c3.866,0,6.157,2.639,6.157,5.812c0,2.667-1.631,4.319-3.467,4.986l4.238,8.182h-4.294l-3.703-7.57h-2.663v7.57H127.012z
		 M127.012,8.475h3.488c1.624,0,2.689-1.039,2.689-2.505c0-1.466-1.065-2.505-2.689-2.505h-3.488V8.475z M97.578,19.138h-7.949
		V0.158h7.625c3.71,0,5.863,2.078,5.863,5.334c0,2.105-1.383,3.465-2.34,3.916c1.143,0.532,2.607,1.733,2.607,4.266
		C103.387,17.222,100.964,19.138,97.578,19.138z M93.338,7.835h3.627c1.568,0,2.449-0.877,2.449-2.186
		c0-1.307-0.881-2.185-2.449-2.185h-3.627V7.835z M97.199,15.835c1.686,0,2.482-1.066,2.482-2.347c0-1.279-0.798-2.319-2.482-2.319
		h-3.861v4.666H97.199z M25.994,19.3c3.894,0,6.984-2.639,6.984-6.665V0.158h-3.675v12.343c0,2.185-1.308,3.493-3.31,3.493
		c-1.996,0-3.276-1.309-3.276-3.493V0.158h-3.71v12.477C19.008,16.661,22.104,19.3,25.994,19.3z M37.113,19.138h12.498v-3.303
		h-8.795v-4.614h7.494V7.917h-7.494V3.465h8.795V0.158H37.113V19.138z"/>
	<rect x="279.781" y="87.528" display="inline" fill="none" width="27.5" height="10"/>
	<text transform="matrix(1 0 0 1 279.7813 96.0483)" display="inline" font-family="'ArialMT'" font-size="12">2014</text>
	<rect x="271.367" y="9.415" display="inline" fill="none" width="35.914" height="99.634"/>
	
		<text transform="matrix(0 -1 1 1.000000e-005 306.9658 109.0024)" display="inline" fill="#00A5DF" font-family="'ArialMT'" font-size="50.1538" letter-spacing="-1">2014</text>
	<g display="inline">
		<g>
			<path d="M194.794,17.668c-3.36,0-4.614,1.755-4.614,4.163c0,1.605,0.854,3.36,3.159,4.815c5.017-0.652,6.621-2.758,6.621-4.965
				S198.404,17.668,194.794,17.668z M160.146,0.11v117.671h57.305V0.11H160.146z M204.875,107.194l-4.213-0.001
				c-7.674-8.126-13.141-13.843-17.655-13.843c-3.108,0-4.813,1.755-4.813,4.514c0,2.307,1.555,4.063,3.26,5.667l-3.962,4.013
				c-3.36-3.158-5.066-6.119-5.066-10.683c0-6.271,4.013-10.532,10.132-10.532c5.367,0,11.084,5.016,16.502,10.182
				c-0.201-1.604-0.401-3.813-0.401-5.316v-6.42l6.22,0.001v22.419H204.875z M188.825,82.718c-10.834,0-16.401-4.564-16.401-11.386
				c0-6.822,5.567-11.386,16.401-11.386s16.651,4.564,16.651,11.386C205.477,78.155,199.659,82.718,188.825,82.718z M180.499,49.667
				v5.969h-4.563c-0.651-3.461-1.556-5.668-2.908-7.924v-5.418h25.88v-5.968h5.969v20.263h-5.969v-6.922H180.499z M189.678,33.567
				c-11.887,0-17.254-6.169-17.254-12.89c0-4.213,1.756-7.272,3.813-9.279l4.414,3.862c-1.203,1.104-2.258,3.11-2.258,4.965
				c0,3.511,2.508,6.32,9.932,6.571c-2.106-1.655-3.36-4.414-3.36-6.37c0-5.467,3.11-9.479,9.831-9.479
				c6.62,0,10.684,4.815,10.684,10.583C205.477,27.699,200.861,33.567,189.678,33.567z M188.825,66.918
				c-8.728,0-10.685,1.906-10.685,4.414c0,2.457,1.957,4.414,10.685,4.414c8.677,0,10.934-1.957,10.934-4.414
				C199.759,68.825,197.502,66.918,188.825,66.918z"/>
		</g>
	</g>
</g>
<g id="RZ">
	<path fill="#808080" d="M75.788,34.521c1.377-0.648,3.36-2.594,3.36-5.606c0-4.654-3.09-7.628-8.393-7.628h-10.91v27.159h11.365
		c4.848,0,8.316-2.746,8.316-7.82C79.529,37.002,77.432,35.286,75.788,34.521z M65.149,26.017h5.185
		c2.254,0,3.512,1.258,3.512,3.125c0,1.87-1.258,3.129-3.512,3.129h-5.185V26.017z M70.681,43.715H65.15V37.04h5.531
		c2.401,0,3.546,1.487,3.546,3.318C74.227,42.188,73.082,43.715,70.681,43.715z M36.771,54.088H54.66v4.73H42.074v6.369H52.79v4.729
		H42.074v6.6h12.585v4.73H36.771V54.088z M73.928,0.109h8.625V2.39h-6.066v3.071h5.166V7.74h-5.166v3.183h6.066v2.279h-8.625V0.109z
		 M56.221,0.109h2.553v13.093h-2.277l-5.188-8.037v8.037h-2.555V0.109h2.279l5.188,8.019V0.109z M59.847,54.088h17.887v4.73H65.149
		v6.369h10.719v4.729H65.149v6.6h12.585v4.73H59.847V54.088z M95.242,64.883l9.65,16.363h-6.181l-6.979-12.358l-3.508,4.196v8.162
		h-5.303V54.088h5.303v11.826L97.8,54.088h6.447L95.242,64.883z M106.407,5.919v1.913c0,1.913-0.351,3.033-1.249,3.99
		c-1.016,1.031-2.23,1.491-3.697,1.491c-1.4,0-2.578-0.478-3.533-1.434c-0.568-0.572-0.92-1.232-1.066-1.968
		c-0.147-0.735-0.219-1.822-0.219-3.257c0-1.434,0.07-2.518,0.219-3.253c0.146-0.755,0.498-1.398,1.066-1.967
		C98.883,0.477,100.061,0,101.461,0c2.977,0,4.576,1.91,4.928,4.192h-2.578c-0.309-1.271-1.082-1.914-2.35-1.914
		c-0.684,0-1.234,0.24-1.639,0.7c-0.479,0.605-0.627,1.085-0.627,3.677c0,2.576,0.109,3.091,0.627,3.698
		c0.385,0.458,0.936,0.68,1.639,0.68c0.749,0,1.357-0.24,1.818-0.736c0.384-0.441,0.588-1.03,0.588-1.748V8.053h-2.406V5.919
		H106.407z M101.498,18.464h4.652L95.279,51.266h-4.652L101.498,18.464z M71.316,9.433c0-1.747-1.012-2.576-1.799-2.942
		c0.66-0.312,1.613-1.25,1.613-2.702c0-2.246-1.484-3.679-4.044-3.679h-5.26v13.093h5.483C69.646,13.202,71.316,11.879,71.316,9.433
		z M64.386,2.39h2.501c1.083,0,1.689,0.605,1.689,1.507s-0.606,1.507-1.689,1.507h-2.501V2.39z M64.386,10.923V7.704h2.663
		c1.163,0,1.713,0.718,1.713,1.6c0,0.883-0.55,1.619-1.713,1.619H64.386z M2.796,13.202H0.237V0.109h2.284l5.184,8.019V0.109h2.56
		v13.093H7.98L2.796,5.165V13.202z M13.112,8.715V0.109h2.559v8.514c0,1.507,0.884,2.41,2.261,2.41c1.38,0,2.282-0.902,2.282-2.41
		V0.109h2.535v8.606c0,2.778-2.132,4.598-4.817,4.598S13.112,11.493,13.112,8.715z M27.847,54.088h5.531l-7.287,27.158h-4.423
		L16.667,64.77l-4.994,16.479H7.248L0,54.088h5.53l4.197,17.127l4.961-17.127h3.963l4.961,17.127L27.847,54.088z M87.613,7.979
		h1.837l2.554,5.222h2.963l-2.924-5.644c1.268-0.46,2.393-1.6,2.393-3.44c0-2.188-1.582-4.009-4.248-4.009h-5.133v13.093h2.559
		V7.979L87.613,7.979z M87.613,2.39h2.406c1.121,0,1.856,0.717,1.856,1.728c0,1.011-0.735,1.728-1.856,1.728h-2.406V2.39z
		 M27.847,21.286h5.531l-7.286,27.159h-4.424l-5.001-16.478l-4.995,16.478H7.248L0,21.286h5.53l4.197,17.126l4.961-17.126h3.963
		l4.961,17.126L27.847,21.286z M39.283,7.979h1.838l2.558,5.222h2.958l-2.925-5.644c1.272-0.46,2.393-1.6,2.393-3.44
		c0-2.188-1.581-4.009-4.248-4.009h-5.132v13.093h2.559L39.283,7.979L39.283,7.979z M39.283,2.39h2.406
		c1.125,0,1.862,0.717,1.862,1.728c0,1.011-0.737,1.728-1.862,1.728h-2.406V2.39z M42.074,26.017v6.368h10.715v4.731H42.074v6.599
		h12.584v4.729H36.771V21.286h17.888v4.731H42.074z M25.602,0.109h8.62V2.39h-6.065v3.071h5.169V7.74h-5.169v3.183h6.065v2.279
		h-8.62V0.109z M134.371,12.188c-2.318,0-3.184,1.211-3.184,2.872c0,1.107,0.588,2.318,2.18,3.321
		c3.46-0.45,4.566-1.903,4.566-3.425C137.934,13.433,136.861,12.188,134.371,12.188z M130.253,46.161
		c-6.021,0-7.37,1.314-7.37,3.045c0,1.694,1.352,3.043,7.37,3.043c5.985,0,7.542-1.349,7.542-3.043
		C137.795,47.476,136.238,46.161,130.253,46.161z M110.471,0.076v81.17H150V0.076H110.471z M141.325,73.943l-2.906-0.001
		c-5.294-5.604-9.063-9.548-12.179-9.548c-2.146,0-3.322,1.21-3.322,3.112c0,1.592,1.074,2.803,2.25,3.91l-2.732,2.768
		c-2.318-2.18-3.496-4.221-3.496-7.369c0-4.324,2.77-7.266,6.99-7.266c3.701,0,7.646,3.459,11.383,7.022
		c-0.14-1.106-0.277-2.63-0.277-3.667v-4.429h4.291L141.325,73.943L141.325,73.943z M130.253,57.059
		c-7.474,0-11.313-3.148-11.313-7.854c0-4.707,3.842-7.854,11.313-7.854c7.474,0,11.487,3.149,11.487,7.854
		S137.727,57.059,130.253,57.059z M124.51,34.26v4.117h-3.146c-0.451-2.387-1.072-3.91-2.008-5.466v-3.736h17.854v-4.117h4.117
		v13.978l-4.117-0.001V34.26H124.51z M130.842,23.155c-8.199,0-11.902-4.256-11.902-8.892c0-2.907,1.211-5.017,2.631-6.401
		l3.043,2.664c-0.829,0.762-1.555,2.146-1.555,3.425c0,2.422,1.729,4.36,6.85,4.533c-1.452-1.142-2.317-3.045-2.317-4.394
		c0-3.771,2.146-6.539,6.781-6.539c4.565,0,7.369,3.321,7.369,7.3C141.74,19.107,138.557,23.155,130.842,23.155z"/>
</g>
</svg>
