<?xml version="1.0" encoding="utf-8"?>
<!-- Generator: Adobe Illustrator 15.1.0, SVG Export Plug-In . SVG Version: 6.00 Build 0)  -->
<!DOCTYPE svg PUBLIC "-//W3C//DTD SVG 1.1//EN" "http://www.w3.org/Graphics/SVG/1.1/DTD/svg11.dtd">
<svg version="1.1" id="Ebene_1" xmlns="http://www.w3.org/2000/svg" xmlns:xlink="http://www.w3.org/1999/xlink" x="0px" y="0px"
	 width="300px" height="85.589px" viewBox="0 0 300 85.589" enable-background="new 0 0 300 85.589" xml:space="preserve">
<g>
	<path fill-rule="evenodd" clip-rule="evenodd" fill="#1266A6" d="M56.179,48.387c0.002,0,0.004-0.001,0.006-0.001
		c1.187-0.479,2.536,0.109,3.015,1.296l0.003,0.007c0.198,0.492,0.231,1.012,0.105,1.486C55.101,61.609,47.045,73.13,30.205,85.589
		l-8.736-5.044C0.472,68.422-6.278,40.804,6.393,18.857l0.747-1.294c0.46-0.723,1.267-1.205,2.188-1.205
		c1.321,0,2.539,0.988,2.702,2.265C12.416,36.313,26.745,50.57,44.526,50.57C48.632,50.57,52.56,49.772,56.179,48.387L56.179,48.387
		z"/>
	<path fill-rule="evenodd" clip-rule="evenodd" fill="#1266A6" d="M57.143,5.227c6.969,6.969,6.969,18.268,0,25.237
		c-6.968,6.969-18.267,6.969-25.236,0c-6.969-6.969-6.969-18.268,0-25.237C38.876-1.742,50.175-1.742,57.143,5.227L57.143,5.227z"/>
	<path fill="#231F20" d="M110.218,33.413c-2.292,1.821-5.789,2.731-10.492,2.731h-4.233v8.876h-7.101V13.202h11.243
		c4.885,0,8.443,0.949,10.674,2.845c2.23,1.897,3.346,4.811,3.346,8.74C113.655,28.717,112.509,31.592,110.218,33.413
		L110.218,33.413z M104.71,20.462c-1.108-0.774-2.83-1.161-5.166-1.161h-4.052v10.697h4.779c2.367,0,3.976-0.478,4.825-1.434
		c0.85-0.956,1.274-2.351,1.274-4.188C106.372,22.541,105.818,21.236,104.71,20.462L104.71,20.462z M136.277,41.743
		c-2.458,2.428-5.546,3.641-9.263,3.641c-3.718,0-6.805-1.213-9.264-3.641c-2.457-2.428-3.687-5.417-3.687-8.967
		c0-3.551,1.229-6.547,3.687-8.99c2.459-2.442,5.546-3.664,9.264-3.664c3.717,0,6.805,1.222,9.263,3.664
		c2.458,2.443,3.687,5.439,3.687,8.99C139.963,36.326,138.735,39.315,136.277,41.743L136.277,41.743z M131.383,27.859
		c-1.138-1.274-2.595-1.912-4.369-1.912c-1.775,0-3.232,0.637-4.37,1.912s-1.707,2.913-1.707,4.916s0.569,3.634,1.707,4.894
		s2.595,1.889,4.37,1.889c1.774,0,3.231-0.629,4.369-1.889c1.139-1.259,1.707-2.891,1.707-4.894S132.522,29.134,131.383,27.859
		L131.383,27.859z M148.543,17.413c-0.774,0.773-1.723,1.161-2.845,1.161c-1.124,0-2.071-0.387-2.846-1.161
		c-0.773-0.774-1.16-1.722-1.16-2.845s0.387-2.071,1.16-2.845c0.774-0.774,1.722-1.161,2.846-1.161c1.122,0,2.07,0.387,2.845,1.161
		c0.773,0.774,1.16,1.723,1.16,2.845S149.317,16.639,148.543,17.413L148.543,17.413z M149.112,45.02h-6.827V20.531h6.827V45.02
		L149.112,45.02z M168.912,45.02V31.182c0-3.762-1.381-5.645-4.142-5.645c-1.365,0-2.558,0.494-3.573,1.479
		c-1.018,0.986-1.524,2.435-1.524,4.347V45.02h-6.828V20.531h6.828v2.731c2.063-2.094,4.384-3.141,6.964-3.141
		c2.578,0,4.741,0.91,6.486,2.731c1.744,1.821,2.617,4.249,2.617,7.283V45.02H168.912L168.912,45.02z M186.982,36.417
		c0,0.941,0.243,1.677,0.729,2.208c0.485,0.531,1.062,0.796,1.729,0.796c1.274,0,2.352-0.576,3.232-1.729l2.549,4.779
		c-2.125,1.942-4.363,2.913-6.714,2.913c-2.353,0-4.34-0.773-5.963-2.321c-1.624-1.547-2.436-3.656-2.436-6.327V25.447h-2.867
		v-4.916h2.867v-7.329h6.873v7.329h5.918v4.916h-5.918V36.417L186.982,36.417z M228.357,45.02L213.2,25.083V45.02h-7.101V13.202
		h6.646l15.612,20.484V13.202h7.101V45.02H228.357L228.357,45.02z M246.131,17.413c-0.774,0.773-1.723,1.161-2.846,1.161
		c-1.122,0-2.07-0.387-2.845-1.161c-0.773-0.774-1.16-1.722-1.16-2.845s0.387-2.071,1.16-2.845c0.774-0.774,1.723-1.161,2.845-1.161
		c1.123,0,2.071,0.387,2.846,1.161c0.773,0.774,1.16,1.723,1.16,2.845S246.905,16.639,246.131,17.413L246.131,17.413z M246.7,45.02
		h-6.827V20.531h6.827V45.02L246.7,45.02z M266.5,45.02V31.182c0-3.762-1.381-5.645-4.142-5.645c-1.366,0-2.557,0.494-3.573,1.479
		c-1.018,0.986-1.525,2.435-1.525,4.347V45.02h-6.827V20.531h6.827v2.731c2.063-2.094,4.385-3.141,6.965-3.141
		c2.578,0,4.74,0.91,6.486,2.731c1.744,1.821,2.616,4.249,2.616,7.283V45.02H266.5L266.5,45.02z M282.158,35.188
		c0.212,1.335,0.91,2.428,2.094,3.277c1.183,0.85,2.518,1.274,4.005,1.274c2.397,0,4.37-0.804,5.918-2.413l3.823,4.142
		c-2.762,2.611-6.001,3.915-9.718,3.915c-3.718,0-6.79-1.145-9.218-3.437c-2.428-2.291-3.642-5.363-3.642-9.218
		c0-3.854,1.236-6.918,3.71-9.194c2.473-2.276,5.394-3.414,8.763-3.414c3.368,0,6.228,1.017,8.58,3.05
		c2.351,2.033,3.527,4.825,3.527,8.375v3.642H282.158L282.158,35.188z M291.443,26.949c-0.94-0.789-2.087-1.184-3.437-1.184
		c-1.351,0-2.587,0.41-3.71,1.229s-1.774,1.928-1.957,3.323h10.742C292.929,28.861,292.383,27.738,291.443,26.949L291.443,26.949z"
		/>
	<path fill="#828282" d="M123.609,64.793v9.898h-2.738v-9.898h-3.475v-2.369h9.688v2.369H123.609L123.609,64.793z M139.333,74.691
		v-4.826h-4.879v4.826h-2.737V62.424h2.737v5.125h4.879v-5.125h2.737v12.268H139.333L139.333,74.691z M156.758,72.27v2.422h-9.037
		V62.424h8.845v2.439h-6.107v2.527h5.493v2.334h-5.493v2.545H156.758L156.758,72.27z M177.834,74.691l-1.141-2.65h-5.142
		l-1.141,2.65h-2.913l5.3-12.268h2.65l5.3,12.268H177.834L177.834,74.691z M174.132,66.074l-1.545,3.563h3.071L174.132,66.074
		L174.132,66.074z M193.383,74.691l-5.844-7.688v7.688h-2.737V62.424h2.562l6.02,7.897v-7.897h2.738v12.268H193.383L193.383,74.691z
		 M212.495,68.443v4.353c-1.218,1.357-2.902,2.035-5.055,2.035c-1.802,0-3.314-0.597-4.536-1.79
		c-1.223-1.193-1.834-2.699-1.834-4.519s0.623-3.337,1.869-4.554s2.749-1.825,4.51-1.825s3.29,0.578,4.589,1.737l-1.421,2.053
		c-0.551-0.479-1.056-0.81-1.519-0.991c-0.462-0.182-0.962-0.272-1.5-0.272c-1.041,0-1.919,0.354-2.633,1.062
		c-0.714,0.709-1.07,1.642-1.07,2.8s0.343,2.086,1.026,2.781c0.685,0.696,1.501,1.044,2.448,1.044c0.948,0,1.737-0.181,2.369-0.543
		v-3.37H212.495L212.495,68.443z M226.604,72.27v2.422h-9.038V62.424h8.845v2.439h-6.107v2.527h5.493v2.334h-5.493v2.545H226.604
		L226.604,72.27z M231.675,74.691V62.424h2.737v9.828h5.229v2.439H231.675L231.675,74.691z M257.226,74.691h-2.316l-4.931-12.268
		h2.966l3.124,7.81l3.123-7.81h2.966L257.226,74.691L257.226,74.691z M275.302,66.373c-0.866-1.077-1.942-1.615-3.229-1.615
		c-1.029,0-1.91,0.337-2.641,1.01c-0.731,0.673-1.097,1.579-1.097,2.72s0.345,2.057,1.035,2.747s1.526,1.035,2.51,1.035
		c1.345,0,2.444-0.532,3.299-1.598l1.755,1.808c-1.393,1.568-3.033,2.352-4.922,2.352c-1.89,0-3.446-0.597-4.669-1.79
		s-1.834-2.699-1.834-4.519s0.623-3.337,1.869-4.554s2.77-1.825,4.572-1.825c2.012,0,3.696,0.767,5.054,2.299L275.302,66.373
		L275.302,66.373z"/>
</g>
</svg>
