<?xml version="1.0" encoding="utf-8"?>
<!-- Generator: Adobe Illustrator 15.1.0, SVG Export Plug-In . SVG Version: 6.00 Build 0)  -->
<!DOCTYPE svg PUBLIC "-//W3C//DTD SVG 1.1//EN" "http://www.w3.org/Graphics/SVG/1.1/DTD/svg11.dtd">
<svg version="1.1" id="Ebene_1" xmlns="http://www.w3.org/2000/svg" xmlns:xlink="http://www.w3.org/1999/xlink" x="0px" y="0px"
	 width="300px" height="80px" viewBox="0 0 300 80" enable-background="new 0 0 300 80" xml:space="preserve">
<g>
	<polyline fill-rule="evenodd" clip-rule="evenodd" fill="#E3F0FA" points="9.073,43.964 300,43.964 300,55.833 9.073,55.833 	"/>
	<path fill-rule="evenodd" clip-rule="evenodd" fill="#96C7EB" d="M223.437,50.792c-1.682,2.177-3.703,3.846-6.075,5.032
		c-2.359,1.186-4.889,1.773-7.587,1.773c-4.159,0-7.405-1.082-9.765-3.246c-2.36-2.164-3.533-5.163-3.533-8.97
		c0-4.185,1.264-7.327,3.781-9.425c2.516-2.099,7.092-3.572,13.714-4.407c0.196-0.026,0.495-0.065,0.874-0.117
		c5.527-0.717,8.292-2.294,8.292-4.732c0-1.995-0.691-3.455-2.06-4.406c-1.382-0.938-3.507-1.408-6.375-1.408
		c-2.672,0-4.732,0.561-6.153,1.682c-1.421,1.122-2.138,2.725-2.138,4.811v0.3h-8.291v-0.691c0-4.093,1.512-7.339,4.523-9.712
		c3.025-2.385,7.131-3.572,12.359-3.572c5.475,0,9.595,1.03,12.384,3.077c2.79,2.047,4.185,5.084,4.185,9.1v20.455
		c0,1.578,0.183,2.607,0.548,3.09c0.378,0.482,1.03,0.73,1.968,0.73c0.183,0,0.378-0.013,0.6-0.026
		c0.209-0.013,0.587-0.039,1.122-0.091v6.375c-0.795,0.209-1.565,0.352-2.308,0.456c-0.756,0.104-1.473,0.157-2.164,0.157
		c-2.647,0-4.602-0.508-5.893-1.525C224.153,54.481,223.488,52.917,223.437,50.792 M223.059,35.59
		c-1.838,0.952-4.746,1.708-8.748,2.294c-1.447,0.235-2.517,0.404-3.208,0.535c-2.034,0.378-3.559,1.095-4.55,2.125
		c-0.991,1.03-1.486,2.386-1.486,4.067c0,1.877,0.586,3.337,1.76,4.367c1.173,1.03,2.829,1.552,4.967,1.552
		c3.233,0,5.919-0.913,8.057-2.751c2.138-1.838,3.208-4.172,3.208-7.027V35.59z"/>
	<polyline fill-rule="evenodd" clip-rule="evenodd" fill="#96C7EB" points="250.667,0 259.259,0 259.259,31.849 275.451,15.044 
		286.115,15.044 271.252,30.206 286.415,56.254 276.259,56.254 265.139,36.542 259.259,42.5 259.259,56.254 250.667,56.254 	"/>
	<path fill-rule="evenodd" clip-rule="evenodd" fill="#96C7EB" d="M33.448,47.248c-0.829,0-1.533-0.29-2.113-0.87
		s-0.87-1.284-0.87-2.113s0.29-1.533,0.87-2.113s1.285-0.87,2.113-0.87s1.533,0.29,2.113,0.87c0.58,0.58,0.87,1.285,0.87,2.113
		s-0.29,1.533-0.87,2.113C34.981,46.958,34.276,47.248,33.448,47.248 M23.006,47.248c-0.828,0-1.533-0.29-2.113-0.87
		s-0.87-1.284-0.87-2.113s0.29-1.533,0.87-2.113s1.285-0.87,2.113-0.87c0.829,0,1.533,0.29,2.113,0.87s0.87,1.285,0.87,2.113
		s-0.29,1.533-0.87,2.113S23.835,47.248,23.006,47.248z M23.006,78.571c-0.464,0-0.928-0.148-1.392-0.447
		c-0.464-0.298-0.845-0.68-1.144-1.144c-0.298-0.464-0.447-0.928-0.447-1.392c0-0.763,0.323-1.451,0.969-2.063
		c0.646-0.613,1.318-0.92,2.014-0.92c0.763,0,1.45,0.307,2.063,0.92c0.613,0.613,0.92,1.301,0.92,2.063
		c0,0.762-0.315,1.441-0.945,2.038C24.449,78.256,23.769,78.571,23.006,78.571z M23.006,68.13c-0.464,0-0.928-0.149-1.392-0.448
		c-0.464-0.298-0.845-0.68-1.144-1.144c-0.298-0.464-0.447-0.928-0.447-1.392c0-0.763,0.323-1.45,0.969-2.063
		c0.646-0.613,1.318-0.92,2.014-0.92c0.763,0,1.45,0.307,2.063,0.92c0.613,0.613,0.92,1.301,0.92,2.063s-0.315,1.442-0.945,2.039
		C24.449,67.815,23.769,68.13,23.006,68.13z M23.006,57.689c-0.464,0-0.928-0.149-1.392-0.447c-0.464-0.298-0.845-0.68-1.144-1.144
		c-0.298-0.464-0.447-0.928-0.447-1.392c0-0.762,0.315-1.45,0.945-2.063c0.629-0.613,1.309-0.92,2.038-0.92
		c0.763,0,1.442,0.315,2.039,0.945c0.63,0.597,0.945,1.276,0.945,2.039s-0.307,1.45-0.92,2.063S23.769,57.689,23.006,57.689z"/>
	<path fill-rule="evenodd" clip-rule="evenodd" fill="#96C7EB" d="M190.917,47.169c-0.829,0-1.533-0.29-2.113-0.87
		c-0.58-0.58-0.871-1.285-0.871-2.113s0.291-1.533,0.871-2.113c0.58-0.58,1.284-0.87,2.113-0.87s1.533,0.29,2.113,0.87
		c0.581,0.58,0.871,1.284,0.871,2.113s-0.29,1.533-0.871,2.113C192.45,46.879,191.745,47.169,190.917,47.169 M180.475,78.493
		c-0.463,0-0.928-0.149-1.392-0.448c-0.464-0.298-0.845-0.679-1.144-1.144c-0.298-0.464-0.447-0.928-0.447-1.392
		c0-0.762,0.323-1.45,0.969-2.063c0.646-0.614,1.318-0.92,2.013-0.92c0.763,0,1.451,0.306,2.064,0.92
		c0.613,0.613,0.919,1.301,0.919,2.063c0,0.762-0.314,1.442-0.944,2.039C181.917,78.178,181.238,78.493,180.475,78.493z
		 M180.475,68.051c-0.463,0-0.928-0.149-1.392-0.447c-0.464-0.298-0.845-0.679-1.144-1.144c-0.298-0.464-0.447-0.928-0.447-1.392
		c0-0.762,0.323-1.45,0.969-2.063c0.646-0.613,1.318-0.92,2.013-0.92c0.763,0,1.451,0.307,2.064,0.92
		c0.613,0.613,0.919,1.301,0.919,2.063s-0.314,1.442-0.944,2.039C181.917,67.736,181.238,68.051,180.475,68.051z M190.917,57.61
		c-0.464,0-0.936-0.149-1.417-0.447c-0.48-0.298-0.862-0.68-1.144-1.144s-0.423-0.928-0.423-1.392c0-0.763,0.315-1.442,0.945-2.039
		c0.597-0.63,1.276-0.945,2.039-0.945c0.763,0,1.442,0.315,2.039,0.945c0.629,0.597,0.945,1.276,0.945,2.039
		c0,0.729-0.307,1.409-0.92,2.038C192.367,57.296,191.679,57.61,190.917,57.61z M180.475,57.61c-0.463,0-0.928-0.149-1.392-0.447
		c-0.464-0.298-0.845-0.68-1.144-1.144c-0.298-0.464-0.447-0.928-0.447-1.392c0-0.763,0.314-1.45,0.944-2.063s1.309-0.92,2.038-0.92
		c0.763,0,1.442,0.315,2.039,0.945c0.63,0.597,0.944,1.276,0.944,2.039c0,0.762-0.306,1.45-0.919,2.063
		C181.926,57.304,181.238,57.61,180.475,57.61z"/>
	<path fill-rule="evenodd" clip-rule="evenodd" fill="#96C7EB" d="M292.583,47.209c-0.829,0-1.533-0.29-2.113-0.871
		c-0.58-0.58-0.87-1.284-0.87-2.113s0.291-1.533,0.87-2.113c0.581-0.58,1.285-0.87,2.113-0.87s1.533,0.29,2.113,0.87
		c0.58,0.58,0.87,1.285,0.87,2.113s-0.291,1.533-0.87,2.113C294.116,46.919,293.411,47.209,292.583,47.209 M292.583,68.091
		c-0.464,0-0.928-0.149-1.392-0.448s-0.845-0.679-1.144-1.144c-0.298-0.464-0.448-0.928-0.448-1.392c0-0.762,0.323-1.45,0.97-2.063
		s1.317-0.92,2.014-0.92c0.762,0,1.45,0.307,2.063,0.92s0.92,1.301,0.92,2.063c0,0.763-0.315,1.442-0.945,2.039
		C294.024,67.776,293.345,68.091,292.583,68.091z"/>
	<path fill-rule="evenodd" clip-rule="evenodd" fill="#96C7EB" d="M241.427,47.04c-0.829,0-1.533-0.29-2.114-0.87
		c-0.58-0.58-0.87-1.285-0.87-2.113s0.29-1.533,0.87-2.113c0.581-0.58,1.285-0.87,2.114-0.87c0.828,0,1.533,0.29,2.113,0.87
		c0.58,0.58,0.87,1.284,0.87,2.113s-0.29,1.533-0.87,2.113C242.96,46.75,242.255,47.04,241.427,47.04"/>
	<path fill-rule="evenodd" clip-rule="evenodd" fill="#96C7EB" d="M145.75,47.165c-0.829,0-1.533-0.29-2.113-0.87
		c-0.58-0.58-0.87-1.284-0.87-2.113s0.291-1.533,0.87-2.113c0.581-0.58,1.285-0.87,2.113-0.87s1.533,0.29,2.113,0.87
		c0.581,0.58,0.871,1.285,0.871,2.113s-0.29,1.533-0.871,2.113C147.282,46.875,146.578,47.165,145.75,47.165 M145.75,68.047
		c-0.464,0-0.928-0.149-1.392-0.448c-0.464-0.298-0.845-0.679-1.144-1.144c-0.298-0.464-0.448-0.928-0.448-1.392
		c0-0.763,0.323-1.451,0.97-2.063c0.646-0.613,1.318-0.92,2.014-0.92c0.763,0,1.45,0.307,2.063,0.92
		c0.613,0.613,0.92,1.301,0.92,2.063c0,0.762-0.315,1.441-0.945,2.038C147.191,67.732,146.512,68.047,145.75,68.047z M156.19,57.606
		c-0.463,0-0.936-0.149-1.417-0.448c-0.481-0.298-0.862-0.68-1.144-1.144c-0.281-0.464-0.422-0.928-0.422-1.392
		c0-0.763,0.315-1.442,0.945-2.039c0.597-0.63,1.276-0.944,2.038-0.944s1.442,0.314,2.039,0.944c0.63,0.597,0.945,1.276,0.945,2.039
		c0,0.729-0.307,1.409-0.92,2.039S156.953,57.606,156.19,57.606z"/>
	<path fill-rule="evenodd" clip-rule="evenodd" fill="#96C7EB" d="M2.265,0h21.433c3.455,0,6.023,0.156,7.692,0.482
		c1.668,0.313,3.168,0.847,4.484,1.577c2.582,1.382,4.524,3.351,5.854,5.945c1.317,2.582,1.982,5.684,1.982,9.295
		c0,2.985-0.548,5.645-1.643,8.004c-1.095,2.347-2.686,4.302-4.771,5.854c-1.434,1.056-3.103,1.799-5.006,2.255
		c-1.917,0.457-4.55,0.691-7.913,0.691h-12.75v22.15h-9.36 M11.625,8.135v17.756h12.15c3.781,0,6.492-0.691,8.109-2.06
		c1.617-1.382,2.425-3.624,2.425-6.766c0-3.077-0.808-5.332-2.412-6.779c-1.604-1.434-4.133-2.151-7.587-2.151H11.625z"/>
	<path fill-rule="evenodd" clip-rule="evenodd" fill="#96C7EB" d="M82.191,14.158v9.009h-2.334c-3.507,0-6.153,0.887-7.913,2.659
		c-1.773,1.76-2.66,4.419-2.66,7.966v22.462h-8.669V15.044h8.213v7.249c1.199-2.751,2.75-4.811,4.654-6.167
		c1.916-1.369,4.159-2.047,6.766-2.047c0.026,0,0.092,0,0.222,0C81.083,14.132,81.657,14.158,82.191,14.158"/>
	<path fill-rule="evenodd" clip-rule="evenodd" fill="#96C7EB" d="M115.146,13.702c6.323,0,11.277,1.942,14.875,5.84
		c3.611,3.898,5.41,9.269,5.41,16.126c0,6.845-1.786,12.216-5.371,16.101c-3.572,3.885-8.526,5.828-14.836,5.828
		c-6.336,0-11.303-1.93-14.875-5.802c-3.585-3.872-5.371-9.256-5.371-16.126c0-6.883,1.786-12.254,5.345-16.14
		C103.895,15.644,108.836,13.702,115.146,13.702 M115.224,21.185c-3.638,0-6.44,1.251-8.396,3.742
		c-1.969,2.503-2.946,6.075-2.946,10.742c0,4.667,0.978,8.226,2.92,10.703c1.942,2.464,4.758,3.703,8.422,3.703
		c3.637,0,6.427-1.238,8.356-3.703c1.942-2.477,2.907-6.036,2.907-10.703c0-4.667-0.965-8.239-2.907-10.742
		C121.651,22.436,118.861,21.185,115.224,21.185z"/>
	<polyline fill-rule="evenodd" clip-rule="evenodd" fill="#96C7EB" points="147.748,0 191.708,0 191.708,8.252 174.448,8.252 
		174.448,56.254 165.126,56.254 165.126,8.252 147.748,8.252 	"/>
	<path fill-rule="evenodd" clip-rule="evenodd" fill="#0078BF" d="M0,0h21.433c3.455,0,6.023,0.156,7.691,0.482
		c1.669,0.313,3.168,0.847,4.485,1.577c2.581,1.382,4.524,3.351,5.854,5.945c1.317,2.582,1.981,5.684,1.981,9.295
		c0,2.985-0.547,5.645-1.643,8.004c-1.095,2.347-2.686,4.302-4.771,5.854c-1.434,1.056-3.103,1.799-5.006,2.255
		c-1.917,0.457-4.55,0.691-7.914,0.691H9.36v22.15H0 M9.36,8.135v17.756h12.15c3.781,0,6.492-0.691,8.109-2.06
		c1.617-1.382,2.425-3.624,2.425-6.766c0-3.077-0.808-5.332-2.412-6.779c-1.604-1.434-4.133-2.151-7.588-2.151H9.36z"/>
	<path fill-rule="evenodd" clip-rule="evenodd" fill="#0078BF" d="M79.926,14.158v9.009h-2.333c-3.507,0-6.153,0.887-7.913,2.659
		c-1.773,1.76-2.66,4.419-2.66,7.966v22.462H58.35V15.044h8.213v7.249c1.2-2.751,2.751-4.811,4.654-6.167
		c1.917-1.369,4.159-2.047,6.766-2.047c0.026,0,0.091,0,0.222,0C78.818,14.132,79.392,14.158,79.926,14.158"/>
	<path fill-rule="evenodd" clip-rule="evenodd" fill="#0078BF" d="M112.88,13.702c6.323,0,11.277,1.942,14.875,5.84
		c3.611,3.898,5.41,9.269,5.41,16.126c0,6.845-1.786,12.216-5.371,16.101c-3.572,3.885-8.526,5.828-14.835,5.828
		c-6.336,0-11.303-1.93-14.875-5.802c-3.585-3.872-5.371-9.256-5.371-16.126c0-6.883,1.786-12.254,5.345-16.14
		C101.63,15.644,106.57,13.702,112.88,13.702 M112.959,21.185c-3.638,0-6.44,1.251-8.396,3.742
		c-1.969,2.503-2.946,6.075-2.946,10.742c0,4.667,0.978,8.226,2.92,10.703c1.942,2.464,4.758,3.703,8.422,3.703
		c3.637,0,6.427-1.238,8.356-3.703c1.942-2.477,2.907-6.036,2.907-10.703c0-4.667-0.964-8.239-2.907-10.742
		C119.386,22.436,116.596,21.185,112.959,21.185z"/>
	<polyline fill-rule="evenodd" clip-rule="evenodd" fill="#0078BF" points="145.483,0 189.443,0 189.443,8.252 172.182,8.252 
		172.182,56.254 162.861,56.254 162.861,8.252 145.483,8.252 	"/>
	<path fill-rule="evenodd" clip-rule="evenodd" fill="#1F1A17" d="M31.023,48.319c-0.829,0-1.533-0.29-2.113-0.87
		c-0.58-0.58-0.87-1.284-0.87-2.113s0.29-1.533,0.87-2.113c0.581-0.58,1.285-0.87,2.113-0.87s1.533,0.29,2.113,0.87
		c0.581,0.58,0.871,1.285,0.871,2.113s-0.29,1.533-0.871,2.113C32.556,48.029,31.852,48.319,31.023,48.319 M20.582,48.319
		c-0.828,0-1.533-0.29-2.113-0.87s-0.87-1.284-0.87-2.113s0.29-1.533,0.87-2.113s1.285-0.87,2.113-0.87
		c0.829,0,1.533,0.29,2.114,0.87c0.58,0.58,0.87,1.285,0.87,2.113s-0.29,1.533-0.87,2.113
		C22.115,48.029,21.411,48.319,20.582,48.319z M20.582,79.642c-0.464,0-0.928-0.149-1.392-0.447
		c-0.464-0.298-0.845-0.68-1.144-1.144c-0.298-0.464-0.447-0.928-0.447-1.392c0-0.763,0.323-1.45,0.97-2.064
		c0.646-0.613,1.317-0.919,2.013-0.919c0.763,0,1.451,0.307,2.064,0.919c0.613,0.614,0.919,1.301,0.919,2.064
		c0,0.762-0.315,1.441-0.944,2.038C22.024,79.327,21.344,79.642,20.582,79.642z M20.582,69.201c-0.464,0-0.928-0.149-1.392-0.448
		c-0.464-0.298-0.845-0.679-1.144-1.144c-0.298-0.464-0.447-0.928-0.447-1.392c0-0.762,0.323-1.45,0.97-2.063
		c0.646-0.613,1.317-0.92,2.013-0.92c0.763,0,1.451,0.307,2.064,0.92c0.613,0.613,0.919,1.301,0.919,2.063
		c0,0.763-0.315,1.442-0.944,2.039C22.024,68.886,21.344,69.201,20.582,69.201z M20.582,58.76c-0.464,0-0.928-0.149-1.392-0.447
		c-0.464-0.298-0.845-0.68-1.144-1.144c-0.298-0.464-0.447-0.928-0.447-1.392c0-0.762,0.315-1.45,0.945-2.063
		c0.629-0.613,1.309-0.92,2.038-0.92c0.763,0,1.442,0.315,2.039,0.945c0.629,0.597,0.944,1.276,0.944,2.039s-0.307,1.45-0.919,2.063
		C22.032,58.454,21.344,58.76,20.582,58.76z"/>
	<path fill-rule="evenodd" clip-rule="evenodd" fill="#1F1A17" d="M188.492,48.24c-0.829,0-1.533-0.29-2.113-0.87
		s-0.87-1.285-0.87-2.113s0.29-1.533,0.87-2.113s1.284-0.87,2.113-0.87c0.829,0,1.533,0.29,2.113,0.87s0.87,1.284,0.87,2.113
		s-0.29,1.533-0.87,2.113S189.321,48.24,188.492,48.24 M178.051,79.563c-0.464,0-0.928-0.149-1.392-0.448
		c-0.464-0.298-0.845-0.679-1.143-1.144c-0.299-0.464-0.448-0.928-0.448-1.392c0-0.762,0.323-1.451,0.969-2.063
		c0.646-0.614,1.318-0.92,2.014-0.92c0.763,0,1.45,0.306,2.063,0.92c0.613,0.613,0.919,1.301,0.919,2.063
		c0,0.762-0.314,1.441-0.944,2.038C179.493,79.249,178.813,79.563,178.051,79.563z M178.051,69.123
		c-0.464,0-0.928-0.149-1.392-0.448c-0.464-0.298-0.845-0.679-1.143-1.144c-0.299-0.464-0.448-0.928-0.448-1.392
		c0-0.762,0.323-1.45,0.969-2.063c0.646-0.613,1.318-0.92,2.014-0.92c0.763,0,1.45,0.307,2.063,0.92s0.919,1.301,0.919,2.063
		s-0.314,1.442-0.944,2.039C179.493,68.807,178.813,69.123,178.051,69.123z M188.492,58.681c-0.464,0-0.936-0.149-1.417-0.447
		c-0.48-0.298-0.861-0.68-1.144-1.144c-0.282-0.464-0.422-0.928-0.422-1.392c0-0.763,0.315-1.442,0.944-2.039
		c0.597-0.63,1.276-0.945,2.039-0.945c0.763,0,1.442,0.315,2.039,0.945c0.63,0.597,0.944,1.276,0.944,2.039
		c0,0.729-0.307,1.409-0.919,2.039C189.942,58.367,189.254,58.681,188.492,58.681z M178.051,58.681
		c-0.464,0-0.928-0.149-1.392-0.447c-0.464-0.298-0.845-0.68-1.143-1.144c-0.299-0.464-0.448-0.928-0.448-1.392
		c0-0.763,0.314-1.45,0.944-2.063s1.31-0.92,2.039-0.92c0.763,0,1.442,0.315,2.039,0.945c0.63,0.597,0.944,1.276,0.944,2.039
		c0,0.762-0.306,1.45-0.919,2.063C179.501,58.375,178.813,58.681,178.051,58.681z"/>
	<path fill-rule="evenodd" clip-rule="evenodd" fill="#1F1A17" d="M290.158,48.28c-0.829,0-1.533-0.29-2.113-0.871
		c-0.58-0.58-0.871-1.284-0.871-2.113s0.291-1.533,0.871-2.113c0.58-0.581,1.284-0.871,2.113-0.871s1.533,0.29,2.113,0.871
		c0.58,0.58,0.87,1.284,0.87,2.113s-0.29,1.533-0.87,2.113C291.691,47.99,290.986,48.28,290.158,48.28 M290.158,69.162
		c-0.464,0-0.928-0.149-1.392-0.448c-0.464-0.298-0.845-0.679-1.144-1.144c-0.298-0.464-0.448-0.928-0.448-1.392
		c0-0.762,0.323-1.45,0.97-2.063s1.317-0.92,2.014-0.92c0.763,0,1.45,0.307,2.063,0.92s0.92,1.301,0.92,2.063
		c0,0.763-0.315,1.442-0.945,2.039C291.6,68.847,290.92,69.162,290.158,69.162z"/>
	<path fill-rule="evenodd" clip-rule="evenodd" fill="#1F1A17" d="M239.002,48.11c-0.829,0-1.533-0.29-2.113-0.87
		s-0.87-1.285-0.87-2.113s0.29-1.533,0.87-2.113s1.285-0.87,2.113-0.87s1.533,0.29,2.113,0.87s0.871,1.284,0.871,2.113
		s-0.291,1.533-0.871,2.113S239.831,48.11,239.002,48.11"/>
	<path fill-rule="evenodd" clip-rule="evenodd" fill="#1F1A17" d="M143.325,48.236c-0.829,0-1.533-0.29-2.113-0.87
		s-0.87-1.285-0.87-2.113s0.29-1.533,0.87-2.113c0.58-0.58,1.284-0.87,2.113-0.87c0.829,0,1.533,0.29,2.113,0.87
		c0.58,0.58,0.87,1.284,0.87,2.113s-0.29,1.533-0.87,2.113S144.154,48.236,143.325,48.236 M143.325,69.118
		c-0.464,0-0.928-0.149-1.392-0.447c-0.464-0.298-0.845-0.68-1.144-1.144s-0.447-0.928-0.447-1.392c0-0.763,0.323-1.45,0.969-2.063
		c0.646-0.613,1.318-0.92,2.014-0.92c0.763,0,1.45,0.307,2.063,0.92s0.92,1.301,0.92,2.063c0,0.762-0.315,1.442-0.944,2.038
		C144.767,68.803,144.087,69.118,143.325,69.118z M153.766,58.677c-0.463,0-0.936-0.149-1.417-0.447
		c-0.48-0.299-0.862-0.68-1.144-1.144c-0.281-0.464-0.422-0.928-0.422-1.393c0-0.762,0.315-1.442,0.945-2.038
		c0.597-0.63,1.276-0.945,2.038-0.945c0.763,0,1.442,0.315,2.039,0.945c0.63,0.596,0.944,1.276,0.944,2.038
		c0,0.729-0.307,1.409-0.919,2.039C155.216,58.362,154.528,58.677,153.766,58.677z"/>
	<path fill-rule="evenodd" clip-rule="evenodd" fill="#0078BF" d="M221.171,50.792c-1.682,2.177-3.703,3.846-6.075,5.032
		c-2.359,1.186-4.889,1.773-7.587,1.773c-4.159,0-7.405-1.082-9.765-3.246s-3.533-5.163-3.533-8.97c0-4.185,1.264-7.327,3.78-9.425
		c2.517-2.099,7.092-3.572,13.715-4.407c0.196-0.026,0.496-0.065,0.874-0.117c5.527-0.717,8.292-2.294,8.292-4.732
		c0-1.995-0.691-3.455-2.06-4.406c-1.381-0.938-3.507-1.408-6.375-1.408c-2.672,0-4.732,0.561-6.153,1.682
		c-1.421,1.122-2.138,2.725-2.138,4.811v0.3h-8.292v-0.691c0-4.093,1.512-7.339,4.524-9.712c3.024-2.385,7.131-3.572,12.359-3.572
		c5.475,0,9.595,1.03,12.384,3.077c2.79,2.047,4.186,5.084,4.186,9.1v20.455c0,1.578,0.182,2.607,0.547,3.09
		c0.378,0.482,1.03,0.73,1.968,0.73c0.183,0,0.378-0.013,0.6-0.026c0.209-0.013,0.587-0.039,1.122-0.091v6.375
		c-0.795,0.209-1.564,0.352-2.308,0.456c-0.756,0.104-1.473,0.157-2.164,0.157c-2.647,0-4.603-0.508-5.893-1.525
		C221.888,54.481,221.224,52.917,221.171,50.792 M220.793,35.59c-1.838,0.952-4.746,1.708-8.748,2.294
		c-1.447,0.235-2.516,0.404-3.207,0.535c-2.034,0.378-3.559,1.095-4.55,2.125s-1.486,2.386-1.486,4.067
		c0,1.877,0.587,3.337,1.76,4.367c1.173,1.03,2.83,1.552,4.967,1.552c3.233,0,5.919-0.913,8.057-2.751
		c2.138-1.838,3.208-4.172,3.208-7.027V35.59z"/>
	<polyline fill-rule="evenodd" clip-rule="evenodd" fill="#0078BF" points="248.403,0 256.994,0 256.994,31.849 273.186,15.044 
		283.85,15.044 268.988,30.206 284.149,56.254 273.994,56.254 262.873,36.542 256.994,42.5 256.994,56.254 248.403,56.254 	"/>
	<path fill-rule="evenodd" clip-rule="evenodd" fill="#96C7EB" d="M81.23,47.124c-0.829,0-1.533-0.29-2.113-0.87
		c-0.58-0.58-0.87-1.285-0.87-2.113s0.291-1.533,0.87-2.113c0.58-0.58,1.285-0.87,2.113-0.87s1.533,0.29,2.113,0.87
		s0.87,1.284,0.87,2.113s-0.29,1.533-0.87,2.113S82.059,47.124,81.23,47.124 M81.23,68.006c-0.464,0-0.928-0.149-1.392-0.447
		c-0.464-0.298-0.845-0.68-1.144-1.144s-0.448-0.928-0.448-1.392c0-0.763,0.323-1.45,0.97-2.063c0.646-0.613,1.317-0.92,2.014-0.92
		c0.762,0,1.45,0.307,2.063,0.92c0.613,0.613,0.919,1.301,0.919,2.063c0,0.762-0.315,1.442-0.944,2.039
		C82.672,67.691,81.992,68.006,81.23,68.006z M91.671,57.565c-0.464,0-0.937-0.149-1.417-0.447s-0.862-0.68-1.144-1.144
		c-0.282-0.464-0.422-0.928-0.422-1.392c0-0.762,0.314-1.441,0.944-2.038c0.597-0.63,1.276-0.945,2.039-0.945
		s1.442,0.315,2.039,0.945c0.63,0.597,0.944,1.276,0.944,2.038c0,0.729-0.306,1.409-0.919,2.039
		C93.121,57.25,92.433,57.565,91.671,57.565z M81.23,57.565c-0.464,0-0.928-0.149-1.392-0.447c-0.464-0.298-0.845-0.68-1.144-1.144
		c-0.298-0.464-0.448-0.928-0.448-1.392c0-0.762,0.315-1.45,0.945-2.063s1.309-0.92,2.039-0.92c0.762,0,1.442,0.315,2.039,0.945
		c0.629,0.597,0.944,1.276,0.944,2.038c0,0.763-0.307,1.451-0.919,2.063C82.68,57.258,81.992,57.565,81.23,57.565z"/>
	<path fill-rule="evenodd" clip-rule="evenodd" fill="#1F1A17" d="M78.408,48.195c-0.829,0-1.533-0.29-2.113-0.87
		s-0.87-1.285-0.87-2.113s0.29-1.533,0.87-2.113s1.284-0.87,2.113-0.87s1.533,0.29,2.113,0.87s0.87,1.284,0.87,2.113
		s-0.29,1.533-0.87,2.113S79.237,48.195,78.408,48.195 M78.408,69.077c-0.464,0-0.928-0.149-1.392-0.448s-0.845-0.68-1.144-1.144
		s-0.447-0.928-0.447-1.392c0-0.763,0.323-1.45,0.97-2.063c0.646-0.613,1.317-0.92,2.013-0.92c0.763,0,1.45,0.307,2.063,0.92
		s0.92,1.301,0.92,2.063c0,0.762-0.315,1.442-0.945,2.039C79.85,68.762,79.171,69.077,78.408,69.077z M88.85,58.636
		c-0.464,0-0.937-0.149-1.417-0.447c-0.48-0.298-0.861-0.68-1.144-1.144c-0.281-0.464-0.422-0.928-0.422-1.393
		c0-0.762,0.315-1.441,0.945-2.038c0.597-0.63,1.276-0.945,2.039-0.945c0.762,0,1.441,0.315,2.038,0.945
		c0.63,0.597,0.945,1.276,0.945,2.038c0,0.729-0.307,1.409-0.92,2.039C90.3,58.321,89.612,58.636,88.85,58.636z M78.408,58.636
		c-0.464,0-0.928-0.149-1.392-0.447s-0.845-0.68-1.144-1.144c-0.298-0.464-0.447-0.928-0.447-1.393c0-0.762,0.315-1.45,0.945-2.063
		c0.629-0.613,1.309-0.92,2.038-0.92c0.763,0,1.442,0.315,2.039,0.945c0.63,0.597,0.945,1.276,0.945,2.038
		c0,0.763-0.307,1.451-0.92,2.064C79.858,58.329,79.171,58.636,78.408,58.636z"/>
</g>
</svg>
