<?xml version="1.0" encoding="utf-8"?>
<!-- Generator: Adobe Illustrator 15.1.0, SVG Export Plug-In . SVG Version: 6.00 Build 0)  -->
<!DOCTYPE svg PUBLIC "-//W3C//DTD SVG 1.1//EN" "http://www.w3.org/Graphics/SVG/1.1/DTD/svg11.dtd">
<svg version="1.1" id="Ebene_1" xmlns="http://www.w3.org/2000/svg" xmlns:xlink="http://www.w3.org/1999/xlink" x="0px" y="0px"
	 width="300px" height="71.068px" viewBox="0 0 300 71.068" enable-background="new 0 0 300 71.068" xml:space="preserve">
<g>
	<path fill="#78BDE8" d="M95.552,21.015c0,0.283,0.282,0.452,0.508,0.452c0.338,0,0.621-0.113,0.79-0.113
		c0.226,0,0.396,0.113,0.396,0.396c0,0.789-1.468,0.959-1.468,1.749c0,0.17,0.113,0.339,0.282,0.339
		c0.226,0,0.395-0.169,0.621-0.169c0.169,0,0.226,0.169,0.226,0.282c0,0.282-0.678,0.395-0.678,0.621
		c0,0.226,0.114,0.394,0.396,0.394c0.338,0,0.621-0.282,1.016-0.282c0.225,0,0.282,0.17,0.282,0.339c0,0.226-1.186,0.734-3.894,2.54
		c-3.16,2.088-11.286,9.028-11.286,12.132c0,0.791,1.016,1.298,1.694,1.298c1.071,0,5.586-1.523,8.182-1.523
		c1.411,0,2.934,2.539,3.047,3.16c0.113,0.451,0.169,1.242,0.169,1.918c0,10.778-19.976,23.362-21.217,23.362
		c-0.96,0-1.072-0.902-1.072-1.411c0-1.185,1.297-1.185,1.297-1.918c0-0.17-0.057-0.339-0.057-0.509c0-0.225,0.17-0.282,0.17-0.62
		c0-0.169-0.282-0.226-0.395-0.226c-0.226,0-0.395,0.112-0.508,0.112c-0.226,0-0.282-0.112-0.338-0.338
		c0-1.071,1.58-1.637,1.58-1.975c0-0.114-0.056-0.227-0.225-0.227c-0.226,0-0.565,0.396-0.79,0.396c-0.113,0-0.564-0.113-0.564-0.62
		c0-1.242,2.257-2.145,5.926-4.629c0.846-0.563,7.73-5.924,7.73-8.578c0-0.394-0.226-0.619-1.073-0.619
		c-1.128,0-3.216,1.017-5.135,1.017c-3.781,0-5.53-3.557-5.53-6.829c0-9.085,12.697-19.411,19.693-22.684
		c0.621-0.282,1.017-0.396,1.524-0.396c0.734,0,0.96,0.452,0.96,1.129C97.81,19.999,95.552,20.168,95.552,21.015"/>
	<path fill="#78BDE8" d="M99.334,43.249c0.338-1.354,1.185-3.781,1.523-4.854c0.169-0.564,0.564-1.015,0.789-1.015
		c0.396,0,0.622,0.394,0.622,0.903c0,0.282-0.17,1.128-0.17,1.466c0,0.17,0.057,0.452,0.226,0.452c0.395,0,0.508-2.031,1.806-2.031
		c1.185,0,0.903,1.637,1.468,1.637c0.564,0,0.733-1.468,1.298-1.468c0.338,0,0.451,0.283,0.451,0.621
		c0,0.621-2.822,10.271-3.16,11.286c-0.621,1.806-1.016,3.669-1.016,4.29c0,0.507,0.112,0.902,0.395,0.902
		c1.185,0,4.401-3.048,4.514-3.048c0.112,0,0.226,0,0.226,0.169c0,0.226-1.129,1.298-1.129,1.638c0,0.169,0.112,0.169,0.226,0.169
		c0.226,0,0.451-0.339,0.62-0.339c0.113,0,0.226,0.057,0.226,0.227c0,0.169-0.903,0.733-0.903,1.128
		c0,0.227,0.452,0.227,0.564,0.282c0.112,0.057,0.056,0.508,0.225,0.678c0.17,0.112,0.226,0.169,0.226,0.451
		c0,0.79-5.756,6.771-7.675,6.771c-1.467,0-3.611-2.145-3.611-5.53c0-3.047,0.056-6.434,0.508-8.126L99.334,43.249z M103.735,32.752
		c0-0.226,0.113-0.395,0.113-0.677c0-0.17,0-0.678-0.282-0.678c-0.565,0-0.621,0.621-0.621,1.072
		c-0.056,0.283-0.338,0.565-0.621,0.565c-0.564,0-0.903-1.242-0.903-2.032c0-0.846,0.113-1.862,0.282-2.878
		c0.169-1.127,1.016-3.835,2.708-3.835c0.621,0,1.128,0.282,1.128,0.789c0,0.396-0.113,0.847-0.113,1.128
		c0,0.226,0.056,0.339,0.226,0.339c0.339,0,0.733-1.636,1.073-1.636c1.072,0,1.466,1.297,1.466,2.143
		c0,2.483-0.394,6.376-3.555,6.376C103.904,33.429,103.735,33.035,103.735,32.752"/>
	<path fill="#78BDE8" d="M119.591,59.838c0-1.637,0.282-2.877,0.282-4.176c0-0.903,0.113-3.499-0.677-3.499
		c-0.903,0-5.304,10.496-6.941,10.496c-1.016,0-1.242-1.75-1.242-3.047c0-0.058,0-0.451-0.282-0.451
		c-0.395,0-0.282,1.862-0.338,2.145c-1.298-0.113-1.354-3.218-1.354-5.53c0-9.029,2.765-19.863,3.555-19.863
		c0.903,0,0.903,0.338,0.903,0.958c0,0.339,0,0.96,0.169,0.96c0.226,0,0.395-0.113,0.564-0.113c0.734,0,0.283,1.071,0.621,1.071
		c0.564,0,0.395-1.354,1.186-1.354c0.338,0,0.79,0.169,0.903,0.508c0.169,0.622,0.959,1.073,0.959,1.863
		c0,1.128-2.371,8.633-2.371,9.48c0,0.225,0.057,0.507,0.283,0.507c0.677,0,7.166-11.286,8.069-11.286
		c1.412,0,0.96,0.96,1.806,1.412c1.017,0.621,1.298,1.072,1.298,3.273c0,2.369-0.62,5.529-0.62,6.207
		c0,0.621,0.056,1.072,0.282,1.072c0.621,0,5.7-10.271,7.223-10.271c1.073,0,2.483,2.145,3.104,3.894
		c0.283,0.79,0.226,1.467,0.226,2.314c0,2.03-0.169,3.047-0.169,6.207c0,1.298,0.226,1.637,0.507,1.637
		c1.072,0,2.766-2.54,3.047-2.54c0.17,0,0.283,0.113,0.283,0.283c0,0.451-1.186,1.691-1.186,2.029c0,0.282,0.114,0.282,0.17,0.282
		c0.113,0,0.339-0.111,0.452-0.111c0.112,0,0.169,0.111,0.169,0.111c0,0.396-0.565,0.734-0.565,0.903
		c0,0.17,0.114,0.282,0.283,0.339c0.169,0.113,0.62,0.339,0.62,0.564c0,0.281-5.868,8.014-6.828,8.014
		c-1.354,0-1.975-0.791-1.975-1.58c0-0.396,0.169-0.678,0.169-1.017c0-0.225-0.056-0.451-0.226-0.451
		c-0.225,0-0.225,1.016-0.903,1.016c-0.338,0-0.451-1.298-0.451-2.709c0-1.467,0.339-3.667,0.339-5.19
		c0-0.96-0.226-1.976-0.734-1.976c-0.734,0-4.515,9.48-8.013,9.48C120.325,61.701,119.591,61.193,119.591,59.838"/>
	<path fill="#78BDE8" d="M150.572,62.04c-0.79,0-1.411-0.452-1.806-0.452c-0.169,0-0.282,0.17-0.282,0.282
		c0,0.226,0.959,0.282,1.411,0.564c-0.564,0.113-1.185,0.227-2.596,0.227c-1.016,0-2.708-0.96-4.006-2.653
		c-1.299-1.692-1.863-2.765-1.863-5.304c0-7.506,3.555-12.979,9.762-17.042c0.508,0.112,1.58,0.564,1.976,0.564
		c0.112,0,0.112-0.056,0.112-0.112c0-0.282-1.072-0.847-1.241-0.96c0.733-0.621,1.975-1.241,2.427-1.241
		c2.144,0,4.175,2.257,5.134,3.78c1.468,2.256,1.468,4.797,1.468,6.433C161.067,53.123,153.9,62.04,150.572,62.04 M154.127,44.207
		c-0.564-0.676-1.411-1.467-1.976-1.467c-2.652,0-4.289,6.433-4.289,8.577c0,1.806,0.226,5.305,2.766,5.305
		c3.499,0,4.345-6.771,4.345-9.255C154.974,46.182,154.804,44.998,154.127,44.207"/>
	<path fill="#78BDE8" d="M165.244,35.912c0.452,0,0.62,0.565,0.62,1.241v0.564c0,0.847,0.17,1.186,0.339,1.186
		c0.339,0,0.396-1.298,1.128-1.298c0.848,0,1.13,0.282,1.13,1.411c0,0.395-0.113,0.677-0.113,0.903c0,0.169,0.113,0.339,0.226,0.339
		c0.17,0,0.451-1.242,1.072-1.242c0.395,0,0.733,0.508,0.733,1.073c0,1.185-2.539,8.803-2.539,9.987
		c0,0.282,0.056,0.451,0.282,0.451c0.282,0,0.621-0.733,1.128-1.523c3.048-4.966,6.038-10.213,6.489-10.213
		c0.734,0,0.847,0.565,1.523,0.902c0.621,0.283,0.282,0.678,0.621,1.017c1.072,0.395,1.692,1.409,1.692,2.539
		c0,3.385-0.958,6.433-0.958,9.649c0,0.395,0.338,0.507,0.677,0.507c0.733,0,2.031-2.539,2.426-2.539
		c0.17,0,0.282,0.112,0.282,0.282c0,0.339-0.621,0.621-0.621,1.129c0,0.226,0,0.452,0.171,0.621c0.112-0.114,0.338-0.282,0.45-0.282
		c0.171,0,0.226,0.168,0.226,0.282c0,0.169-0.732,1.071-0.732,1.523c0,0.226,0.169,0.226,0.169,0.451
		c0,0.451-0.564,0.846-0.564,1.071c0,0.114,0.056,0.283,0.226,0.283c0.282,0,0.621-0.678,0.902-0.678
		c0.113,0,0.227,0.113,0.227,0.339c0,0.677-5.248,6.151-5.587,6.546c-0.451,0.451-0.903,0.564-1.24,0.564
		c-1.299,0-3.104-3.725-3.104-4.91c0-1.806,0.339-4.626,0.281-5.529c0-0.451-0.112-0.79-0.338-0.79
		c-0.733,0-5.19,10.326-6.489,10.326c-1.016,0-2.427-1.637-2.822-2.313c-0.79-1.354-1.41-2.652-1.41-3.78
		C161.745,53.405,163.269,35.912,165.244,35.912"/>
	<path fill="#78BDE8" d="M183.641,57.976c-0.395-0.79-0.508-2.427-0.508-4.458c0-6.32,6.264-17.041,13.092-17.041
		c1.354,0,4.4,2.99,4.4,6.207c0,5.642-4.005,7.223-11.397,9.593c0.056,2.258,0.79,3.95,3.385,3.95c1.75,0,6.659-2.652,7.28-3.611
		c0.169-0.227,0.339-0.396,0.564-0.396c0.168,0,0.395,0.112,0.395,0.281c0,0.509-1.241,1.524-1.241,1.751
		c0,0.112,0.169,0.169,0.282,0.169c0.169,0,0.564-0.565,0.732-0.565c0.114,0,0.171,0.113,0.171,0.282
		c0,0.396-1.073,1.411-1.073,1.806c0,0.114,0.057,0.114,0.17,0.114c0.169,0,0.396-0.451,0.621-0.451
		c0.111,0,0.282,0.112,0.282,0.395c0,0.395-0.113,0.902-5.305,4.571c-0.395,0.281-4.176,2.426-5.306,2.426
		C187.195,62.999,184.713,60.121,183.641,57.976 M192.839,42.232c-1.523,0-3.611,7.562-3.611,9.029
		c0.282-0.057,1.749-0.451,1.749-0.79c0-0.508-1.072-0.227-1.072-0.621c0-0.508,1.975-0.902,1.975-1.298
		c0-0.169-0.452-0.169-0.79-0.169c-0.395,0-0.564-0.113-0.564-0.339c0-0.79,4.007-1.636,4.007-2.991
		C194.531,44.038,193.741,42.232,192.839,42.232"/>
	<path fill="#78BDE8" d="M228.445,48.497c0-0.227-0.17-0.282-0.339-0.282c-0.733,0-6.49,1.918-7.336,1.918
		c-0.339,0-0.508-0.112-0.508-0.451c0-0.452,0.451-0.395,0.451-0.678c0-0.168-0.17-0.282-0.338-0.282
		c-0.396,0-1.073,0.17-1.354,0.17c-0.169,0-0.283-0.113-0.34-0.17c-0.056-0.282,0.057-0.507,0.057-0.789
		c-0.057-0.734-0.677-1.129-1.354-1.129c-0.395,0-0.62,0.169-0.903,0.169c-0.564,0-0.508-0.96-0.508-1.016
		c0.056-0.281,0.395-0.508,0.902-0.678c5.361-1.806,10.215-3.047,11.795-3.611c0.395-0.112,1.015-0.225,1.129-0.789
		c0.339-1.298,0.395-3.047,0.507-4.683c0.113-1.3,0.847-4.854,0.847-7.337c0-0.451-0.056-0.564-0.508-0.564
		c-1.241,0-9.479,2.426-10.325,2.426c-0.396,0-0.847-0.057-0.847-0.394c0-0.339,0.45-0.396,0.45-0.847
		c0-0.226-0.169-0.451-0.396-0.451c-0.226,0-0.902,0.338-1.523,0.338c-0.394,0-0.563-0.17-0.563-0.452
		c0-0.282,0.281-0.903,0.281-1.297c0-0.283-0.281-0.283-0.563-0.283c-1.016,0-1.468-0.508-1.468-1.186
		c0-0.564,0.338-0.958,0.734-1.072c4.569-1.523,20.991-5.303,23.981-5.53c1.13-0.113,4.402-1.128,5.417-1.128
		c0.452,0,0.735,0.733,0.735,1.128c0,1.072-1.017,0.79-1.017,1.467c0,0.396,0.79,0.168,0.79,1.129c0,1.297-1.129,1.128-1.129,1.918
		c0,0.509,1.241,0.113,1.241,0.791c0,0.507-1.071,0.845-4.344,1.185c-0.903,0.057-2.483,0.226-2.879,0.621
		c-0.282,0.282-0.564,0.902-0.621,1.411c-0.111,0.846-1.523,10.1-1.523,10.496c0,0.394,0,0.507,0.452,0.507
		c0.678,0,7.899-3.385,8.973-3.385c0.394,0,0.677,0.564,0.677,0.903c0,1.467-1.411,0.959-1.298,1.693
		c0,0.451,1.186,0.451,1.186,1.467c0,1.129-1.129,0.902-1.129,1.354c0,0.451,0.395,0.451,0.789,0.451
		c0.227,0,0.396,0.17,0.396,0.563c0,0.34-0.563,0.509-1.016,0.621c-0.903,0.17-2.2,0.733-8.803,3.048
		c-1.073,0.339-1.299,0.621-1.412,0.902c-0.394,1.016-3.046,15.292-3.384,18.565c-0.058,0.79-0.283,1.523-0.679,2.089
		c-0.225,0.395-0.282,1.522-0.282,2.2c0,0.677-0.338,1.523-1.071,1.523c-0.282,0-0.677-0.282-0.677-0.733s0.112-1.241,0.112-1.636
		c0-0.396,0-0.848-0.508-0.848c-0.395,0-0.678,0.396-0.959,0.396c-0.678,0-0.733-0.848-0.733-1.354c0-0.283,0.168-1.13-0.396-1.13
		c-0.563,0-0.676,0.621-1.128,0.621c-0.339,0-0.508-0.395-0.508-0.677c0-2.484,1.411-7.167,1.636-9.594
		C227.43,54.535,228.445,49.342,228.445,48.497"/>
	<path fill="#78BDE8" d="M256.548,38.169c2.144-1.298,4.006-2.258,4.628-2.258c0.563,0,1.297,0.226,1.297,0.79
		c0,0.734-0.959,1.412-0.959,1.524c0,0.113,0.057,0.169,0.112,0.169c0.17,0,0.339-0.169,0.565-0.169
		c0.281,0,0.847,0.282,0.847,0.791c0,0.507-0.678,0.621-0.678,0.959c0,0.169,0.057,0.226,0.112,0.226
		c0.451,0,0.791-0.339,1.241-0.339c0.227,0,0.395,0.227,0.395,0.564c0,0.678-8.689,5.022-12.47,12.584
		c-0.508,1.016-0.904,1.919-0.904,2.991c0,0.395,0.452,0.563,1.018,0.563c1.128,0,3.78-2.709,9.141-10.947
		c0.339-0.563,0.621-0.902,1.072-0.902c0.79,0,1.129,0.96,1.354,1.354c0.339,0.677,1.579,1.636,1.579,2.087
		c0,1.693-1.014,4.515-1.014,6.265c0,0.451,0.111,0.62,0.507,0.62c0.169,0,2.201-1.806,3.047-3.442
		c0.113-0.169,0.169-0.282,0.226-0.282c0.17,0,0.282,0.058,0.282,0.227c0,0.338-0.678,1.41-2.032,2.821
		c0.058,0.112,0.17,0.17,0.227,0.17c0.113,0,0.959-0.679,1.072-0.679c0.169,0,0.283,0.113,0.283,0.282
		c0,0.396-1.355,1.411-1.355,1.693c0,0.112,0.113,0.227,0.226,0.227c0.339,0,1.298-1.186,1.58-1.186
		c0.113,0,0.226,0.057,0.226,0.169c-0.056,0.396-0.847,1.072-0.847,1.299c0,0.056,0.057,0.112,0.171,0.112
		c0.168,0,0.338-0.17,0.62-0.17c0.112,0,0.169,0.058,0.169,0.17c0,0.677-5.756,6.546-7.393,6.546
		c-1.185-0.113-3.104-2.709-3.104-4.684c0-0.733,0.283-1.354,0.283-1.862c0-0.339-0.056-0.621-0.339-0.621
		c-0.338,0-5.248,7.167-7.618,7.167c-1.974-0.169-4.458-2.709-4.458-7.562C245.656,47.706,252.823,40.483,256.548,38.169"/>
	<path fill="#78BDE8" d="M276.299,40.201c5.361-3.442,6.15-4.288,6.941-4.288c0.337,0,0.563,0.338,0.563,0.734
		c0,0.62-1.297,1.297-1.297,1.467c0,0.225,0.055,0.339,0.225,0.339c0.227,0,0.451-0.169,0.621-0.169
		c0.225,0,0.508,0.112,0.508,0.451c0,0.564-1.919,0.903-1.919,1.467c0,0.226,0.339,0.282,0.62,0.282
		c0.396,0,0.733,0.057,0.733,0.282c0,0.339-0.169,0.508-0.169,1.016c0,0.62,0.509-0.056,0.509,1.129s-8.973,6.038-8.973,7.561
		c0,0.227,0.396,0.396,0.847,0.396c0.507,0,2.99-0.451,4.119-0.451c2.427,0,3.33,2.088,3.33,3.781
		c0,6.714-10.327,12.188-13.995,12.188c-0.507,0-0.678-0.733-0.678-1.467c0.057-0.564,1.862-0.96,1.862-1.185
		c0-0.114-0.057-0.17-0.112-0.17c-0.112,0-0.395,0.056-0.677,0.056c-0.621,0-1.017-0.338-1.017-0.733
		c0-1.185,0.282-1.241,0.282-1.637c0-0.225-0.112-0.563-0.112-0.902c0-0.733,6.658-2.37,6.658-4.063c0-0.676-5.926,0-6.264-0.902
		c-0.227-0.621-0.339-2.539-0.339-4.966C268.567,46.578,274.888,41.104,276.299,40.201"/>
	<path fill="#78BDE8" d="M292.438,40.201c5.36-3.442,6.15-4.288,6.94-4.288c0.337,0,0.564,0.338,0.564,0.734
		c0,0.62-1.298,1.297-1.298,1.467c0,0.225,0.056,0.339,0.226,0.339c0.226,0,0.451-0.169,0.62-0.169c0.225,0,0.509,0.112,0.509,0.451
		c0,0.564-1.92,0.903-1.92,1.467c0,0.226,0.339,0.282,0.621,0.282c0.396,0,0.733,0.057,0.733,0.282c0,0.339-0.169,0.508-0.169,1.016
		c0,0.62,0.508-0.056,0.508,1.129s-8.973,6.038-8.973,7.561c0,0.227,0.396,0.396,0.847,0.396c0.509,0,2.991-0.451,4.12-0.451
		c2.427,0,3.329,2.088,3.329,3.781c0,6.714-10.327,12.188-13.994,12.188c-0.509,0-0.678-0.733-0.678-1.467
		c0.057-0.564,1.862-0.96,1.862-1.185c0-0.114-0.057-0.17-0.113-0.17c-0.113,0-0.395,0.056-0.677,0.056
		c-0.621,0-1.016-0.338-1.016-0.733c0-1.185,0.282-1.241,0.282-1.637c0-0.225-0.112-0.563-0.112-0.902
		c0-0.733,6.657-2.37,6.657-4.063c0-0.676-5.924,0-6.263-0.902c-0.227-0.621-0.339-2.539-0.339-4.966
		C284.707,46.578,291.026,41.104,292.438,40.201"/>
	<path fill="#78BDE8" d="M70.68,9.098c-0.431-0.426-1.174-0.486-1.855-0.249c-0.067,0.011-0.136,0.028-0.26,0.075
		c0,0-0.07,0.037-0.108,0.057l-0.067,0.034c-0.046,0.024-0.072,0.051-0.069,0.042L44.635,20.303L32.571,32.458
		c2.535-6.009,6.521-14.929,11.224-24.067c-1-3.664-4.303-5.941-6.395-6.463c-2.048,13.264-6.364,28.447-6.364,28.447
		s-5.456-16.501-8.415-30.164c-4.751-1.087-7.47,2.347-8.45,3.022C21.704,14.954,28.809,31.33,28.809,31.33
		S15.41,23.446,4.153,13.379C1.279,16.989,0.572,18.85,0,23.008c14.194,3.55,28.059,10.863,28.059,10.863
		s-14.521,2.014-27.224,4.477c0.911,3.513,2.018,6.355,4.476,8.49c7.743-4.85,19.568-9.576,24.282-11.38l-16.773,16.9l-0.175,0.151
		c-0.592,0.601-0.905,1.442-0.901,2.437c0.014,2.462,1.971,5.857,5.239,9.083c3.187,3.146,6.597,5.023,9.123,5.023
		c0.994,0,1.807-0.288,2.421-0.858c0,0,10.549-10.634,18.878-19.033c6.194-6.241,10.657-10.76,12.911-13.07
		c0.106-0.111,0.181-0.236,0.22-0.366c0.012-0.041,0.021-0.077,0.03-0.129L70.854,11.08C71.188,10.218,71.128,9.551,70.68,9.098z
		 M45.83,22.076c0.328-0.106,1.026-0.573,1.994-0.573c0.872,0,1.64,0.187,2.281,0.554c1.174,0.675,1.956,1.99,2.329,3.906
		c-1.108,1.181-4.278,4.408-9.43,9.602c-7.007,7.063-15.877,15.945-19.564,19.631c-2.668-2.816-5.101-3.446-7.24-3.389L45.83,22.076
		z M27.462,67.433c-1.402,0.771-3.863,1.118-9.517-4.106c-2.778-2.922-4.784-5.982-4.796-8.029c-0.003-0.597,0.155-1.06,0.51-1.418
		c0,0,0-0.003,0.001-0.004c1.352-1.258,5.813-0.4,9.731,3.806C27.373,61.955,29.623,65.918,27.462,67.433z M58.553,34.987
		C56.177,37.416,29.691,63.99,29.691,63.99c-1.3-3.854-3.228-5.962-5.179-7.554l28.444-28.927
		C54.872,27.119,60.388,28.534,58.553,34.987z M60.397,33.463c0.648-5.648-3.049-7.263-6.14-7.806
		c0.043-3.312-3.386-5.776-7.219-5.104l10.757-4.381c0.013,0.034,0.04,0.057,0.051,0.096c-0.406,0.438-0.567,2.035,1.039,1.806
		c2.694-0.889,2.428-0.22,1.634,0.76c-0.439,0.683-0.206,1.435,0.717,1.192c2.62-1.28,1.933-0.031,1.413,1.368
		c-0.347,0.924,0.367,1.559,1.162,1.667L60.397,33.463z"/>
</g>
</svg>
