<?xml version="1.0" encoding="utf-8"?>
<!-- Generator: Adobe Illustrator 15.1.0, SVG Export Plug-In . SVG Version: 6.00 Build 0)  -->
<!DOCTYPE svg PUBLIC "-//W3C//DTD SVG 1.1//EN" "http://www.w3.org/Graphics/SVG/1.1/DTD/svg11.dtd">
<svg version="1.1" id="Ebene_1" xmlns="http://www.w3.org/2000/svg" xmlns:xlink="http://www.w3.org/1999/xlink" x="0px" y="0px"
	 width="300px" height="68.214px" viewBox="-2.398 215.851 300 68.214" enable-background="new -2.398 215.851 300 68.214"
	 xml:space="preserve">
<title>S2_Black_RGB</title>
<g>
	<path d="M7.466,256.283c-6.364,0-9.664-3.415-9.839-10.299c0-0.345,0.115-0.581,0.465-0.636l4.86-0.81
		c0.266-0.074,0.542,0.08,0.616,0.346c0.015,0.049,0.021,0.102,0.019,0.154c0.176,4.165,1.39,5.79,4.05,5.79
		c2.5,0,3.704-1.331,3.704-5.616s-0.81-5.614-3.88-6.829l-2.375-0.926c-5.438-2.139-7.059-5-7.059-11.108
		c0-6.769,3.07-10.5,9.55-10.5c6.479,0,9.32,3.47,9.664,9.605c0,0.345-0.175,0.5-0.5,0.634l-4.628,0.695
		c-0.345,0.055-0.636-0.114-0.636-0.465c-0.114-3.239-1.16-5.035-3.704-5.035c-2.431,0-3.591,1.5-3.591,4.745
		c0,3.646,0.695,4.744,3.82,5.96l2.375,0.924c5.149,2.024,7.175,4.804,7.175,11.499C17.535,252.229,14.935,256.283,7.466,256.283z"
		/>
	<path d="M19.39,216.987c-0.021-0.3,0.207-0.56,0.508-0.581c0.023-0.001,0.048-0.001,0.071,0h5.035
		c0.301-0.02,0.56,0.207,0.58,0.508c0.002,0.025,0.002,0.048,0,0.073v38.196c0.021,0.301-0.207,0.56-0.506,0.581
		c-0.025,0.001-0.048,0.001-0.073,0h-5.035c-0.301,0.02-0.56-0.207-0.579-0.508c-0.003-0.025-0.003-0.049,0-0.073V216.987z"/>
	<path d="M28.809,216.987c-0.02-0.3,0.207-0.56,0.508-0.581c0.024-0.001,0.048-0.001,0.073,0h6.134
		c0.383-0.055,0.739,0.202,0.81,0.581l7.29,27.197h0.29v-27.197c-0.02-0.3,0.207-0.56,0.508-0.581c0.023-0.001,0.048-0.001,0.072,0
		h4.315c0.3-0.02,0.56,0.207,0.581,0.508c0.001,0.025,0.001,0.048,0,0.073v38.196c0.02,0.301-0.207,0.56-0.508,0.581
		c-0.025,0.001-0.048,0.001-0.073,0h-5.75c-0.381,0.055-0.738-0.202-0.81-0.581l-7.639-27.197h-0.345v27.197
		c0.02,0.301-0.207,0.56-0.508,0.581c-0.024,0.001-0.048,0.001-0.073,0h-4.285c-0.3,0.02-0.56-0.207-0.58-0.508
		c-0.001-0.025-0.001-0.049,0-0.073L28.809,216.987z"/>
	<path d="M52.608,216.987c-0.021-0.3,0.207-0.56,0.506-0.581c0.025-0.001,0.049-0.001,0.073,0h6.12
		c0.381-0.055,0.739,0.202,0.81,0.581l7.29,27.197h0.29v-27.197c-0.022-0.3,0.205-0.561,0.504-0.583
		c0.035-0.002,0.07-0.001,0.105,0.002h4.285c0.301-0.02,0.56,0.207,0.581,0.508c0.001,0.025,0.001,0.048,0,0.073v38.196
		c0.02,0.301-0.208,0.56-0.508,0.581c-0.025,0.001-0.048,0.001-0.073,0h-5.75c-0.382,0.055-0.738-0.202-0.81-0.581l-7.639-27.197
		h-0.345v27.197c0.02,0.301-0.208,0.56-0.508,0.581c-0.024,0.001-0.048,0.001-0.073,0h-4.285c-0.299,0.02-0.56-0.207-0.58-0.508
		c-0.001-0.025-0.001-0.049,0-0.073v-38.196H52.608z"/>
	<path d="M76.391,216.987c-0.021-0.3,0.207-0.56,0.506-0.581c0.025-0.001,0.048-0.001,0.073,0h16.143
		c0.301-0.02,0.56,0.207,0.581,0.508c0.001,0.025,0.001,0.048,0,0.073v4.454c0.017,0.301-0.212,0.559-0.513,0.576
		c-0.022,0.001-0.045,0.001-0.067,0H82.929c-0.167-0.025-0.32,0.091-0.345,0.259c-0.004,0.027-0.004,0.057,0,0.086v10.358
		c-0.023,0.167,0.093,0.321,0.259,0.345c0.029,0.004,0.057,0.004,0.086,0h8.795c0.299-0.02,0.56,0.207,0.579,0.508
		c0.001,0.023,0.001,0.048,0,0.073v4.454c0.021,0.301-0.207,0.56-0.508,0.579c-0.023,0.003-0.048,0.003-0.071,0h-8.795
		c-0.167-0.023-0.32,0.093-0.345,0.259c-0.004,0.029-0.004,0.057,0,0.086v10.765c-0.023,0.167,0.093,0.322,0.259,0.345
		c0.029,0.004,0.057,0.004,0.086,0h10.184c0.301-0.02,0.56,0.207,0.581,0.508c0.001,0.023,0.001,0.048,0,0.071v4.455
		c0.02,0.3-0.207,0.561-0.508,0.58c-0.025,0.001-0.048,0.001-0.073,0H76.97c-0.301,0.021-0.56-0.207-0.58-0.508
		c-0.002-0.023-0.002-0.049,0-0.072V216.987z"/>
	<path d="M111.633,255.758c-0.282,0.038-0.551-0.134-0.635-0.404l-4.804-15.684h-2.95c-0.167-0.023-0.322,0.093-0.345,0.259
		c-0.004,0.029-0.004,0.057,0,0.086v15.163c0.021,0.301-0.207,0.561-0.508,0.58c-0.023,0.002-0.048,0.002-0.071,0h-5.016
		c-0.299,0.02-0.56-0.207-0.579-0.508c-0.001-0.023-0.001-0.048,0-0.072v-38.191c-0.021-0.3,0.207-0.56,0.508-0.581
		c0.023-0.001,0.048-0.001,0.071,0h7.929c7,0,11.225,3.065,11.225,11.689c0,5.149-1.734,8.39-4.69,10.069l5.556,16.999
		c0.114,0.29,0,0.579-0.291,0.579h-5.399V255.758z M110.242,228.095c0-4.63-1.5-6.074-5-6.074h-2.024
		c-0.167-0.025-0.321,0.091-0.345,0.258c-0.004,0.028-0.004,0.059,0,0.087v11.459c-0.023,0.167,0.092,0.321,0.259,0.345
		c0.029,0.004,0.057,0.004,0.086,0h2.024C108.737,234.176,110.242,232.785,110.242,228.095z"/>
	<path d="M128.761,256.283c-6.365,0-9.665-3.415-9.835-10.299c0-0.345,0.116-0.581,0.465-0.636l4.86-0.81
		c0.266-0.074,0.542,0.08,0.616,0.346c0.014,0.049,0.021,0.102,0.02,0.154c0.174,4.165,1.389,5.79,4.049,5.79
		c2.5,0,3.704-1.331,3.704-5.616s-0.81-5.614-3.879-6.829l-2.371-0.926c-5.44-2.139-7.06-5-7.06-11.108
		c0-6.769,3.065-10.5,9.55-10.5c6.483,0,9.314,3.47,9.663,9.605c0,0.345-0.174,0.5-0.5,0.634l-4.628,0.695
		c-0.345,0.055-0.635-0.114-0.635-0.465c-0.115-3.239-1.16-5.035-3.706-5.035c-2.43,0-3.59,1.5-3.59,4.745
		c0,3.646,0.695,4.744,3.82,5.96l2.375,0.924c5.149,2.024,7.174,4.804,7.174,11.499C138.83,252.229,136.226,256.283,128.761,256.283
		z"/>
	<path d="M141.145,236.084c0-10.938,0.23-12.559,0.75-14.179c1.215-3.759,4.11-6,8.91-6c5.613,0,9.144,2.896,9.499,9.434
		c0.06,0.345-0.06,0.636-0.405,0.695l-4.689,0.81c-0.266,0.076-0.542-0.08-0.616-0.346c-0.014-0.05-0.021-0.102-0.02-0.154
		c-0.174-3.359-1.329-4.804-3.589-4.804c-1.734,0-2.66,0.75-3.125,2.2c-0.289,0.924-0.405,1.734-0.405,12.383
		s0.116,11.458,0.405,12.384c0.465,1.445,1.391,2.199,3.125,2.199c2.255,0,3.415-1.444,3.589-4.805
		c-0.009-0.276,0.206-0.508,0.482-0.518c0.052-0.001,0.104,0.004,0.153,0.018l4.689,0.81c0.346,0.06,0.465,0.345,0.405,0.695
		c-0.345,6.54-3.875,9.434-9.499,9.434c-4.805,0-7.695-2.255-8.91-6C141.375,248.644,141.145,247.014,141.145,236.084z"/>
	<path d="M163.659,216.987c-0.021-0.3,0.207-0.56,0.508-0.581c0.023-0.001,0.048-0.001,0.071,0h5.034
		c0.301-0.02,0.561,0.207,0.58,0.508c0.002,0.025,0.002,0.048,0,0.073v15.499c-0.023,0.167,0.092,0.32,0.259,0.345
		c0.028,0.004,0.059,0.004,0.086,0h6.654c0.168,0.023,0.321-0.092,0.345-0.259c0.006-0.029,0.006-0.057,0-0.086v-15.499
		c-0.021-0.3,0.206-0.561,0.507-0.582c0.031-0.003,0.063-0.001,0.094,0.001h5c0.301-0.02,0.56,0.207,0.58,0.508
		c0.002,0.025,0.002,0.048,0,0.073v38.196c0.02,0.301-0.207,0.56-0.508,0.581c-0.024,0.001-0.048,0.001-0.072,0h-5
		c-0.3,0.02-0.56-0.207-0.579-0.508c-0.002-0.025-0.002-0.049,0-0.073v-16.379c0.023-0.167-0.093-0.32-0.26-0.345
		c-0.028-0.004-0.057-0.004-0.086,0h-6.679c-0.167-0.023-0.321,0.092-0.345,0.259c-0.004,0.029-0.004,0.059,0,0.086v16.379
		c0.02,0.301-0.209,0.56-0.508,0.581c-0.025,0.001-0.049,0.001-0.073,0h-5.035c-0.299,0.02-0.56-0.207-0.579-0.508
		c-0.001-0.025-0.001-0.049,0-0.073L163.659,216.987z"/>
	<path d="M201.56,255.758c-0.282,0.038-0.551-0.134-0.636-0.404l-4.799-15.684h-2.95c-0.167-0.027-0.323,0.086-0.349,0.253
		c-0.006,0.03-0.006,0.061-0.002,0.092v15.163c0.021,0.301-0.207,0.561-0.507,0.58c-0.023,0.002-0.049,0.002-0.072,0h-5.034
		c-0.301,0.02-0.561-0.207-0.58-0.508c-0.002-0.023-0.002-0.048,0-0.072v-38.191c-0.021-0.3,0.207-0.56,0.507-0.581
		c0.024-0.001,0.048-0.001,0.073,0h7.929c6.999,0,11.225,3.065,11.225,11.689c0,5.149-1.734,8.39-4.69,10.069l5.555,16.999
		c0.116,0.29,0,0.579-0.289,0.579h-5.38V255.758z M200.17,228.095c0-4.63-1.5-6.074-4.999-6.074h-2
		c-0.166-0.027-0.323,0.086-0.35,0.252c-0.005,0.03-0.005,0.061-0.001,0.092v11.459c-0.023,0.167,0.093,0.321,0.259,0.345
		c0.03,0.005,0.062,0.005,0.092,0h2C198.665,234.176,200.17,232.785,200.17,228.095z"/>
	<path d="M217.413,216.987c0.116-0.345,0.291-0.581,0.636-0.581h4.86c0.331-0.004,0.608,0.25,0.634,0.581l8.336,38.196
		c0.075,0.234-0.054,0.485-0.287,0.562c-0.059,0.018-0.118,0.024-0.18,0.02h-4.919c-0.328,0.021-0.611-0.227-0.634-0.554
		c0-0.009-0.001-0.019-0.001-0.027l-1.565-7.929h-7.804l-1.56,7.929c-0.008,0.329-0.28,0.589-0.608,0.582
		c-0.009,0-0.019-0.001-0.027-0.001h-4.919c-0.245,0.021-0.462-0.158-0.485-0.402c-0.006-0.061,0.001-0.12,0.021-0.179
		L217.413,216.987z M223.293,242.045l-2.779-14.645h-0.175l-2.896,14.645H223.293z"/>
	<path d="M233.908,216.987c-0.021-0.3,0.207-0.56,0.507-0.581c0.024-0.001,0.048-0.001,0.072,0h9.084c5.149,0,8.16,2.086,9.55,6.31
		c0.694,2.14,1,4.806,1,13.369c0,8.564-0.29,11.229-1,13.37c-1.39,4.224-4.4,6.31-9.55,6.31h-9.084
		c-0.301,0.02-0.56-0.207-0.579-0.508c-0.003-0.025-0.003-0.049,0-0.073V216.987z M240.447,250.148h2.499
		c2.2,0,3.476-0.87,4.165-2.834c0.465-1.445,0.695-3.355,0.695-11.229s-0.23-9.779-0.695-11.229
		c-0.695-1.97-1.965-2.834-4.165-2.834h-2.499c-0.167-0.025-0.32,0.091-0.346,0.258c-0.004,0.028-0.004,0.059,0,0.087v27.433
		c-0.025,0.166,0.088,0.322,0.254,0.349C240.385,250.154,240.417,250.154,240.447,250.148z"/>
	<path d="M256.651,216.987c-0.021-0.3,0.207-0.56,0.508-0.581c0.023-0.001,0.048-0.001,0.071,0h16.145
		c0.3-0.02,0.56,0.207,0.579,0.508c0.002,0.025,0.002,0.048,0,0.073v4.454c0.018,0.301-0.212,0.559-0.513,0.576
		c-0.022,0.001-0.044,0.001-0.066,0h-10.186c-0.165-0.027-0.321,0.086-0.349,0.252c-0.005,0.03-0.005,0.062,0,0.093v10.358
		c-0.024,0.167,0.091,0.321,0.258,0.346c0.03,0.004,0.062,0.004,0.091-0.001h8.795c0.301-0.02,0.561,0.207,0.58,0.508
		c0.002,0.023,0.002,0.048,0,0.073v4.454c0.021,0.301-0.207,0.56-0.507,0.579c-0.024,0.003-0.048,0.003-0.073,0h-8.795
		c-0.165-0.026-0.321,0.087-0.349,0.254c-0.005,0.03-0.005,0.062,0,0.091v10.765c-0.024,0.167,0.091,0.322,0.258,0.345
		c0.03,0.005,0.062,0.005,0.091,0h10.186c0.3-0.02,0.56,0.207,0.579,0.508c0.002,0.023,0.002,0.048,0,0.071v4.455
		c0.02,0.3-0.207,0.561-0.508,0.58c-0.023,0.001-0.048,0.001-0.071,0H257.23c-0.3,0.021-0.56-0.207-0.579-0.508
		c-0.001-0.023-0.001-0.049,0-0.072V216.987z"/>
	<path d="M291.893,255.758c-0.283,0.038-0.55-0.134-0.636-0.404l-4.805-15.684h-2.95c-0.166-0.023-0.32,0.093-0.345,0.259
		c-0.004,0.029-0.004,0.057,0,0.086v15.163c0.021,0.301-0.207,0.561-0.507,0.58c-0.024,0.002-0.049,0.002-0.072,0h-5.04
		c-0.3,0.02-0.561-0.207-0.58-0.508c-0.001-0.023-0.001-0.048,0-0.072v-38.191c-0.021-0.3,0.207-0.56,0.508-0.581
		c0.023-0.001,0.049-0.001,0.072,0h7.929c7,0,11.225,3.065,11.225,11.689c0,5.149-1.734,8.39-4.689,10.069l5.555,16.999
		c0.115,0.29,0,0.579-0.29,0.579h-5.374V255.758z M290.503,228.095c0-4.63-1.5-6.074-5-6.074h-2.024
		c-0.167-0.025-0.321,0.091-0.345,0.258c-0.004,0.028-0.004,0.059,0,0.087v11.459c-0.023,0.167,0.092,0.321,0.259,0.345
		c0.028,0.004,0.058,0.004,0.086,0h2.024C288.999,234.176,290.503,232.785,290.503,228.095z"/>
	<path d="M-2.393,267.462h4.655c3.139,0,5.729,1.375,5.729,4.79v0.09c0,3.499-2.614,4.834-5.729,4.834h-2.66v6.67h-2L-2.393,267.462
		z M2.397,275.602c2.34,0,3.599-1.146,3.599-3.255v-0.09c0-2.315-1.375-3.185-3.599-3.185h-2.795v6.534L2.397,275.602z"/>
	<path d="M9.525,280.512c0-2.774,2.935-3.715,6-3.715h1.72v-0.871c0-1.904-0.734-2.704-2.568-2.704c-1.651,0-2.57,0.69-2.75,2.154
		h-1.905c0.25-2.729,2.43-3.733,4.744-3.733c2.315,0,4.38,0.938,4.38,4.283v7.909H17.24v-1.5c-0.874,1.168-2.279,1.814-3.734,1.721
		C11.31,284.061,9.525,282.982,9.525,280.512z M17.25,279.642v-1.5H15.6c-2.405,0-4.174,0.595-4.174,2.359c0,1.239,0.595,2,2.27,2
		c2.019,0.045,3.554-0.989,3.554-2.845V279.642z"/>
	<path d="M22.73,271.863h1.905v2.149c0.755-1.355,1.791-2.295,3.945-2.36v1.79c-2.405,0.115-3.945,0.87-3.945,3.829v6.58H22.73
		V271.863z"/>
	<path d="M31.714,280.852v-7.385h-1.72v-1.604h1.72v-2.73h1.905v2.73h2.795v1.604h-2.795v7.199c0,1.17,0.526,1.739,1.5,1.739
		c0.5,0.011,0.998-0.074,1.465-0.249v1.604c-0.523,0.183-1.075,0.268-1.629,0.25C32.769,284.011,31.714,282.732,31.714,280.852z"/>
	<path d="M44.307,277.961v-0.185c0-3.601,2.5-6.12,5.89-6.12c3.389,0,5.889,2.5,5.889,6.101v0.185c0,3.619-2.5,6.119-5.914,6.119
		C46.758,284.061,44.307,281.471,44.307,277.961z M54.116,277.961v-0.16c0-2.774-1.535-4.56-3.919-4.56
		c-2.385,0-3.92,1.79-3.92,4.54v0.185c0,2.73,1.5,4.5,3.92,4.5c2.419,0,3.91-1.8,3.91-4.505H54.116z"/>
	<path d="M59.306,273.467h-1.72v-1.604h1.72v-1.95c0-2.43,1.19-3.85,3.575-3.85c0.483-0.014,0.965,0.064,1.419,0.229v1.604
		c-0.432-0.165-0.891-0.251-1.354-0.25c-1.241,0-1.741,0.851-1.741,2.065v2.154h2.936v1.605h-2.936v10.385h-1.899V273.467z"/>
	<path d="M77.095,267.462h2.615l5.55,16.389h-1.956l-1.604-4.725h-6.779l-1.581,4.725h-1.885L77.095,267.462z M75.465,277.551h5.689
		l-2.85-8.438L75.465,277.551z"/>
	<path d="M86.609,277.987v-0.186c0-3.669,2.616-6.145,5.825-6.145c2.5,0,4.839,1.145,5.205,4.195h-1.88
		c-0.301-1.904-1.676-2.614-3.325-2.614c-2.18,0-3.85,1.739-3.85,4.56v0.185c0,2.935,1.605,4.5,3.92,4.5c1.695,0,3.234-1,3.44-2.935
		h1.764c-0.25,2.59-2.34,4.499-5.225,4.499C89.129,284.061,86.609,281.697,86.609,277.987z"/>
	<path d="M99.514,277.987v-0.186c0-3.669,2.614-6.145,5.824-6.145c2.5,0,4.839,1.145,5.206,4.195h-1.88
		c-0.301-1.904-1.675-2.614-3.325-2.614c-2.18,0-3.85,1.739-3.85,4.56v0.185c0,2.935,1.605,4.5,3.92,4.5c1.695,0,3.234-1,3.44-2.935
		h1.764c-0.25,2.59-2.34,4.499-5.224,4.499C102.038,284.061,99.514,281.697,99.514,277.987z"/>
	<path d="M112.418,277.987v-0.186c0-3.619,2.314-6.145,5.614-6.145c2.774,0,5.389,1.675,5.389,5.96v0.62h-9.029
		c0.09,2.729,1.401,4.239,3.85,4.239c1.855,0,2.935-0.689,3.185-2.084h1.905c-0.414,2.404-2.404,3.669-5.114,3.669
		C114.802,284.061,112.418,281.676,112.418,277.987z M121.472,276.702c-0.185-2.5-1.465-3.461-3.44-3.461s-3.255,1.33-3.575,3.461
		H121.472z"/>
	<path d="M126.171,271.863h1.905v1.905c0.551-1.125,1.88-2.111,3.85-2.111c2.5,0,4.22,1.355,4.22,4.835v7.359h-1.905v-7.499
		c0-2.11-0.895-3.051-2.82-3.051c-1.764,0-3.345,1.125-3.345,3.28v7.27h-1.905V271.863z"/>
	<path d="M140.131,280.852v-7.385h-1.72v-1.604h1.72v-2.73h1.905v2.73h2.794v1.604h-2.794v7.199c0,1.17,0.53,1.739,1.5,1.739
		c0.5,0.011,0.996-0.074,1.465-0.249v1.604c-0.522,0.182-1.073,0.266-1.625,0.25C141.185,284.011,140.131,282.732,140.131,280.852z"
		/>
	<path d="M147.579,279.451v-7.589h1.905v7.499c0,2.109,0.896,3.05,2.776,3.05c1.739,0.082,3.218-1.263,3.298-3.004
		c0.006-0.093,0.006-0.184,0.002-0.276v-7.269h1.904v11.999h-1.904v-1.906c-0.55,1.125-1.881,2.11-3.805,2.11
		C149.369,284.061,147.579,282.751,147.579,279.451z"/>
	<path d="M161.148,271.863h1.905v2.149c0.755-1.355,1.79-2.295,3.944-2.36v1.79c-2.404,0.115-3.944,0.87-3.944,3.829v6.58h-1.905
		V271.863z"/>
	<path d="M168.373,277.987v-0.186c0-3.619,2.315-6.145,5.614-6.145c2.774,0,5.385,1.675,5.385,5.96v0.62h-9.029
		c0.09,2.729,1.4,4.239,3.851,4.239c1.854,0,2.935-0.689,3.185-2.084h1.919c-0.414,2.404-2.405,3.669-5.109,3.669
		C170.798,284.061,168.373,281.676,168.373,277.987z M177.427,276.702c-0.185-2.5-1.464-3.461-3.439-3.461
		c-1.975,0-3.255,1.33-3.574,3.461H177.427z"/>
	<path d="M188.296,267.462h2v16.389h-2V267.462z"/>
	<path d="M194.225,271.863h1.906v1.905c0.549-1.125,1.878-2.111,3.849-2.111c2.499,0,4.22,1.355,4.22,4.835v7.359h-1.905v-7.499
		c0-2.11-0.895-3.051-2.82-3.051c-1.764,0-3.343,1.125-3.343,3.28v7.27h-1.906V271.863z"/>
	<path d="M208.185,280.852v-7.385h-1.721v-1.604h1.721v-2.73h1.904v2.73h2.794v1.604h-2.794v7.199c0,1.17,0.53,1.739,1.5,1.739
		c0.5,0.011,0.997-0.074,1.465-0.249v1.604c-0.522,0.182-1.073,0.266-1.625,0.25C209.239,284.011,208.185,282.732,208.185,280.852z"
		/>
	<path d="M214.853,277.987v-0.186c0-3.619,2.315-6.145,5.615-6.145c2.775,0,5.384,1.675,5.384,5.96v0.62h-9.023
		c0.09,2.729,1.399,4.239,3.85,4.239c1.855,0,2.935-0.689,3.185-2.084h1.93c-0.414,2.404-2.41,3.669-5.109,3.669
		C217.263,284.061,214.853,281.676,214.853,277.987z M223.909,276.702c-0.187-2.5-1.466-3.461-3.44-3.461s-3.255,1.33-3.575,3.461
		H223.909z"/>
	<path d="M228.607,271.863h1.905v2.149c0.755-1.355,1.79-2.295,3.945-2.36v1.79c-2.405,0.115-3.945,0.87-3.945,3.829v6.58h-1.905
		V271.863z"/>
	<path d="M235.968,280.512c0-2.774,2.935-3.715,6-3.715h1.72v-0.871c0-1.904-0.735-2.704-2.57-2.704c-1.649,0-2.57,0.69-2.75,2.154
		h-1.904c0.25-2.729,2.43-3.733,4.744-3.733c2.315,0,4.38,0.938,4.38,4.283v7.909h-1.896v-1.5c-0.874,1.168-2.278,1.814-3.734,1.721
		C237.732,284.061,235.968,282.982,235.968,280.512z M243.691,279.642v-1.5h-1.649c-2.405,0-4.169,0.595-4.169,2.359
		c0,1.239,0.595,2,2.27,2c2.015,0.045,3.549-0.989,3.549-2.845V279.642z"/>
	<path d="M248.291,277.987v-0.186c0-3.669,2.616-6.145,5.825-6.145c2.5,0,4.834,1.145,5.204,4.195h-1.88
		c-0.3-1.904-1.675-2.614-3.324-2.614c-2.18,0-3.85,1.739-3.85,4.56v0.185c0,2.935,1.605,4.5,3.92,4.5c1.694,0,3.229-1,3.439-2.935
		h1.765c-0.25,2.59-2.34,4.499-5.225,4.499C250.791,284.061,248.291,281.697,248.291,277.987z"/>
	<path d="M262.485,280.852v-7.385h-1.695v-1.604h1.72v-2.73h1.905v2.73h2.795v1.604h-2.819v7.199c0,1.17,0.529,1.739,1.499,1.739
		c0.5,0.011,0.998-0.074,1.465-0.249v1.604c-0.521,0.182-1.072,0.266-1.625,0.25C263.54,284.011,262.485,282.732,262.485,280.852z"
		/>
	<path d="M269.754,268.103c0-0.697,0.565-1.261,1.261-1.261s1.261,0.563,1.261,1.261c0,0.695-0.565,1.26-1.261,1.26
		C270.32,269.357,269.76,268.796,269.754,268.103z M270.099,271.863h1.904v11.999h-1.904V271.863z"/>
	<path d="M274.384,271.863h2.065l3.555,10.063l3.499-10.063h1.97l-4.31,11.999h-2.424L274.384,271.863z"/>
	<path d="M286.578,277.987v-0.186c0-3.619,2.315-6.145,5.614-6.145c2.774,0,5.385,1.675,5.385,5.96v0.62h-9.028
		c0.09,2.729,1.399,4.239,3.85,4.239c1.854,0,2.935-0.689,3.185-2.084h1.904c-0.415,2.404-2.404,3.669-5.109,3.669
		C288.983,284.061,286.578,281.676,286.578,277.987z M295.633,276.702c-0.186-2.5-1.465-3.461-3.44-3.461
		c-1.975,0-3.255,1.33-3.573,3.461H295.633z"/>
</g>
</svg>
