<?xml version="1.0" encoding="utf-8"?>
<!-- Generator: Adobe Illustrator 15.1.0, SVG Export Plug-In . SVG Version: 6.00 Build 0)  -->
<!DOCTYPE svg PUBLIC "-//W3C//DTD SVG 1.1//EN" "http://www.w3.org/Graphics/SVG/1.1/DTD/svg11.dtd">
<svg version="1.1" id="Ebene_1" xmlns="http://www.w3.org/2000/svg" xmlns:xlink="http://www.w3.org/1999/xlink" x="0px" y="0px"
	 width="294.803px" height="90.851px" viewBox="0 0 294.803 90.851" enable-background="new 0 0 294.803 90.851"
	 xml:space="preserve">
<rect x="89" y="15.988" width="2.931" height="26.171"/>
<rect x="94.694" y="12.639" width="2.932" height="29.468"/>
<rect x="100.388" y="12.639" width="2.931" height="29.468"/>
<rect x="106.081" y="12.639" width="2.931" height="29.468"/>
<rect x="111.774" y="12.639" width="2.932" height="29.468"/>
<rect x="117.469" y="12.639" width="2.931" height="29.468"/>
<rect x="123.162" y="5.688" width="2.931" height="36.42"/>
<rect x="128.855" y="2.717" width="2.932" height="39.391"/>
<rect x="134.549" y="0" width="2.931" height="42.107"/>
<rect x="140.243" y="0" width="2.931" height="42.107"/>
<rect x="145.936" y="0" width="2.932" height="42.107"/>
<rect x="151.63" y="0" width="2.931" height="42.107"/>
<rect x="157.323" y="0" width="2.933" height="42.107"/>
<rect x="163.017" y="2.717" width="2.931" height="39.391"/>
<rect x="168.711" y="5.688" width="2.931" height="36.42"/>
<rect x="174.403" y="12.639" width="2.933" height="29.468"/>
<rect x="180.098" y="12.639" width="2.931" height="29.468"/>
<rect x="185.791" y="12.639" width="2.931" height="29.468"/>
<rect x="191.484" y="12.639" width="2.933" height="29.468"/>
<rect x="197.178" y="12.639" width="2.931" height="29.468"/>
<rect x="202.872" y="15.988" width="2.931" height="26.171"/>
<polygon points="102.481,57.135 98.575,57.135 100.798,54.793 104.527,54.793 "/>
<polygon points="149.354,57.135 145.448,57.135 145.538,54.793 149.266,54.793 "/>
<polygon points="157.167,57.135 153.261,57.135 152.994,54.793 156.722,54.793 "/>
<polygon points="92.131,52.656 88.565,52.656 91.021,50.697 94.438,50.697 "/>
<polygon points="106.394,52.656 102.828,52.656 104.689,50.697 108.105,50.697 "/>
<polygon points="120.658,52.656 117.092,52.656 118.356,50.697 121.773,50.697 "/>
<polygon points="134.921,52.656 131.355,52.656 132.025,50.697 135.442,50.697 "/>
<polygon points="142.053,52.656 138.486,52.656 138.858,50.697 142.275,50.697 "/>
<polygon points="149.185,52.656 145.618,52.656 145.693,50.697 149.11,50.697 "/>
<polygon points="156.316,52.656 152.75,52.656 152.527,50.697 155.944,50.697 "/>
<polygon points="163.448,52.656 159.882,52.656 159.36,50.697 162.777,50.697 "/>
<polygon points="177.711,52.656 174.146,52.656 173.029,50.697 176.446,50.697 "/>
<polygon points="180.604,57.135 176.697,57.135 175.363,54.793 179.091,54.793 "/>
<polygon points="184.843,52.656 181.277,52.656 179.863,50.697 183.28,50.697 "/>
<polygon points="206.238,52.656 202.672,52.656 200.365,50.697 203.782,50.697 "/>
<polygon points="89.999,48.894 86.719,48.894 89.057,47.231 92.21,47.231 "/>
<polygon points="96.56,48.894 93.279,48.894 95.364,47.231 98.518,47.231 "/>
<polygon points="103.12,48.894 99.84,48.894 101.672,47.231 104.826,47.231 "/>
<polygon points="109.68,48.894 106.4,48.894 107.979,47.231 111.133,47.231 "/>
<polygon points="116.24,48.894 112.96,48.894 114.287,47.231 117.44,47.231 "/>
<polygon points="122.8,48.894 119.521,48.894 120.594,47.231 123.749,47.231 "/>
<polygon points="129.361,48.894 126.081,48.894 126.902,47.231 130.056,47.231 "/>
<polygon points="135.921,48.894 132.641,48.894 133.21,47.231 136.363,47.231 "/>
<polygon points="142.481,48.894 139.201,48.894 139.517,47.231 142.67,47.231 "/>
<polygon points="149.041,48.894 145.761,48.894 145.824,47.231 148.979,47.231 "/>
<polygon points="155.602,48.894 152.321,48.894 152.132,47.231 155.286,47.231 "/>
<polygon points="162.162,48.894 158.882,48.894 158.439,47.231 161.593,47.231 "/>
<polygon points="168.723,48.894 165.442,48.894 164.747,47.231 167.901,47.231 "/>
<polygon points="175.282,48.894 172.002,48.894 171.055,47.231 174.208,47.231 "/>
<polygon points="181.843,48.894 178.563,48.894 177.362,47.231 180.516,47.231 "/>
<polygon points="194.963,48.894 191.684,48.894 189.978,47.231 193.131,47.231 "/>
<polygon points="201.523,48.894 198.243,48.894 196.285,47.231 199.438,47.231 "/>
<polygon points="208.084,48.894 204.804,48.894 202.593,47.231 205.747,47.231 "/>
<polygon points="88.184,45.691 85.147,45.691 87.374,44.261 90.302,44.261 "/>
<polygon points="94.257,45.691 91.221,45.691 93.23,44.261 96.159,44.261 "/>
<polygon points="100.331,45.691 97.294,45.691 99.086,44.261 102.014,44.261 "/>
<polygon points="106.405,45.691 103.368,45.691 104.943,44.261 107.871,44.261 "/>
<polygon points="112.479,45.691 109.441,45.691 110.799,44.261 113.727,44.261 "/>
<polygon points="118.552,45.691 115.515,45.691 116.656,44.261 119.584,44.261 "/>
<polygon points="124.625,45.691 121.588,45.691 122.513,44.261 125.44,44.261 "/>
<polygon points="130.699,45.691 127.662,45.691 128.368,44.261 131.296,44.261 "/>
<polygon points="136.772,45.691 133.736,45.691 134.225,44.261 137.153,44.261 "/>
<polygon points="142.846,45.691 139.809,45.691 140.081,44.261 143.009,44.261 "/>
<polygon points="148.92,45.691 145.883,45.691 145.938,44.261 148.866,44.261 "/>
<polygon points="154.993,45.691 151.956,45.691 151.793,44.261 154.722,44.261 "/>
<polygon points="161.067,45.691 158.03,45.691 157.65,44.261 160.578,44.261 "/>
<polygon points="167.141,45.691 164.104,45.691 163.507,44.261 166.435,44.261 "/>
<polygon points="173.214,45.691 170.177,45.691 169.363,44.261 172.291,44.261 "/>
<polygon points="179.288,45.691 176.251,45.691 175.22,44.261 178.147,44.261 "/>
<polygon points="185.361,45.691 182.324,45.691 181.075,44.261 184.003,44.261 "/>
<polygon points="191.435,45.691 188.398,45.691 186.932,44.261 189.86,44.261 "/>
<polygon points="197.509,45.691 194.472,45.691 192.789,44.261 195.717,44.261 "/>
<polygon points="203.582,45.691 200.545,45.691 198.646,44.261 201.573,44.261 "/>
<polygon points="209.656,45.691 206.619,45.691 204.501,44.261 207.429,44.261 "/>
<path d="M0,88.193l1.629-2.255c1.151,1.229,2.957,2.306,5.287,2.306c2.404,0,3.356-1.179,3.356-2.28c0-3.508-9.747-1.327-9.747-7.49
	c0-2.758,2.432-4.888,6.09-4.888c2.605,0,4.711,0.827,6.264,2.33L11.2,78.097c-1.304-1.304-3.082-1.904-4.835-1.904
	c-1.729,0-2.832,0.826-2.832,2.079c0,3.106,9.722,1.178,9.722,7.417c0,2.781-1.954,5.161-6.465,5.161
	C3.708,90.85,1.478,89.772,0,88.193"/>
<path d="M34.533,79.073c0-1.604-1.202-2.656-2.856-2.656h-4.009v5.313h4.009C33.331,81.729,34.533,80.677,34.533,79.073
	 M24.736,90.549V73.837h7.343c3.507,0,5.462,2.405,5.462,5.236c0,2.832-1.98,5.237-5.462,5.237h-4.41v6.237L24.736,90.549
	L24.736,90.549z"/>
<path d="M58.543,79.073c0-1.604-1.203-2.656-2.857-2.656h-4.009v5.313h4.009C57.34,81.729,58.543,80.677,58.543,79.073
	 M58.292,90.549l-3.708-6.237h-2.907v6.237h-2.932V73.837h7.342c3.307,0,5.462,2.154,5.462,5.236c0,2.981-1.954,4.585-3.958,4.911
	l4.083,6.563L58.292,90.549L58.292,90.549z"/>
<polygon points="73.256,90.549 73.256,73.837 84.708,73.837 84.708,76.417 76.188,76.417 76.188,80.752 84.532,80.752 
	84.532,83.333 76.188,83.333 76.188,87.969 84.708,87.969 84.708,90.549 "/>
<polygon points="96.489,90.549 96.489,73.837 107.94,73.837 107.94,76.417 99.421,76.417 99.421,80.752 107.765,80.752 
	107.765,83.333 99.421,83.333 99.421,87.969 107.94,87.969 107.94,90.549 "/>
<path d="M118.644,88.193l1.629-2.255c1.152,1.229,2.957,2.306,5.287,2.306c2.405,0,3.357-1.179,3.357-2.28
	c0-3.508-9.747-1.327-9.747-7.49c0-2.758,2.431-4.888,6.089-4.888c2.605,0,4.711,0.827,6.264,2.33l-1.679,2.182
	c-1.303-1.304-3.082-1.904-4.836-1.904c-1.729,0-2.831,0.826-2.831,2.079c0,3.106,9.722,1.178,9.722,7.417
	c0,2.781-1.954,5.161-6.465,5.161C122.352,90.85,120.122,89.772,118.644,88.193"/>
<path d="M153.177,79.073c0-1.604-1.202-2.656-2.855-2.656h-4.009v5.313h4.009C151.975,81.729,153.177,80.677,153.177,79.073
	 M143.38,90.549V73.837h7.342c3.508,0,5.462,2.405,5.462,5.236c0,2.832-1.979,5.237-5.462,5.237h-4.41v6.237L143.38,90.549
	L143.38,90.549z"/>
<polygon points="167.39,90.549 167.39,73.837 178.841,73.837 178.841,76.417 170.321,76.417 170.321,80.752 178.665,80.752 
	178.665,83.333 170.321,83.333 170.321,87.969 178.841,87.969 178.841,90.549 "/>
<rect x="191.475" y="73.837" width="2.931" height="16.712"/>
<path d="M205.134,82.206c0-5.138,3.834-8.646,8.77-8.646c3.383,0,5.463,1.754,6.717,3.759l-2.507,1.278
	c-0.802-1.379-2.404-2.432-4.21-2.432c-3.307,0-5.763,2.53-5.763,6.039c0,3.508,2.456,6.038,5.763,6.038
	c1.806,0,3.408-1.027,4.21-2.431l2.507,1.277c-1.278,2.006-3.334,3.759-6.717,3.759C208.968,90.85,205.134,87.342,205.134,82.206"/>
<polygon points="243.376,90.549 243.376,83.257 234.683,83.257 234.683,90.549 231.749,90.549 231.749,73.837 234.683,73.837 
	234.683,80.677 243.376,80.677 243.376,73.837 246.308,73.837 246.308,90.549 "/>
<polygon points="258.641,90.549 258.641,73.837 270.091,73.837 270.091,76.417 261.572,76.417 261.572,80.752 269.916,80.752 
	269.916,83.333 261.572,83.333 261.572,87.969 270.091,87.969 270.091,90.549 "/>
<path d="M291.671,79.073c0-1.604-1.203-2.656-2.856-2.656h-4.009v5.313h4.009C290.468,81.729,291.671,80.677,291.671,79.073
	 M291.42,90.549l-3.708-6.237h-2.906v6.237h-2.932V73.837h7.341c3.307,0,5.463,2.154,5.463,5.236c0,2.981-1.955,4.585-3.959,4.911
	l4.084,6.563L291.42,90.549L291.42,90.549z"/>
</svg>
