<?xml version="1.0" encoding="utf-8"?>
<!-- Generator: Adobe Illustrator 15.1.0, SVG Export Plug-In . SVG Version: 6.00 Build 0)  -->
<!DOCTYPE svg PUBLIC "-//W3C//DTD SVG 1.1//EN" "http://www.w3.org/Graphics/SVG/1.1/DTD/svg11.dtd">
<svg version="1.1" id="Ebene_1" xmlns="http://www.w3.org/2000/svg" xmlns:xlink="http://www.w3.org/1999/xlink" x="0px" y="0px"
	 width="300px" height="71px" viewBox="0 0 300 71" enable-background="new 0 0 300 71" xml:space="preserve">
<g>
	<path fill="#003565" d="M43.217,52.124c0,1.998,0.688,3.583,2.067,4.763c1.378,1.177,3.292,1.767,5.744,1.767
		c2.859,0,5.235-0.98,7.124-2.94l2.528-2.63l-2.298-2.167l-1.227,1.225c-1.632,1.634-2.961,2.452-3.981,2.452
		c-1.53,0-2.298-0.842-2.298-2.528V29.854h7.87v4.443h2.663l1.11-8.042H32.11v3.6h11.107V52.124L43.217,52.124z M0,35.155
		c0-0.758,0.025-1.512,0.072-2.259l10.896-10.688c1.607-1.607,2.41-3.131,2.41-4.568c0-1.523-0.802-3.087-2.41-4.695l-1.655-1.625
		c1.926-2.088,4.1-3.941,6.479-5.513l6.492,11.704l-9.009,16.374l2.154,1.269l13.199-12.946c1.607-1.607,2.412-3.131,2.412-4.568
		c0-1.523-0.805-3.087-2.412-4.695l-9.344-9.168C24.051,1.361,29.446,0,35.157,0c19.417,0,35.157,15.74,35.157,35.155
		c0,19.417-15.74,35.156-35.157,35.156S0,54.573,0,35.155L0,35.155z"/>
	<path fill-rule="evenodd" clip-rule="evenodd" fill="#003565" d="M102.558,42.379c0,4.563-1.479,8.417-4.438,11.561
		c-2.959,3.142-6.537,4.714-10.737,4.714c-4.195,0-7.773-1.572-10.732-4.714c-2.959-3.143-4.441-6.998-4.441-11.561
		c0-4.561,1.493-8.425,4.479-11.595c2.981-3.169,6.549-4.754,10.694-4.754c4.15,0,7.713,1.585,10.699,4.754
		C101.066,33.954,102.558,37.818,102.558,42.379L102.558,42.379z M94.591,42.304c0-3.805-0.757-6.999-2.275-9.586
		c-1.416-2.385-3.061-3.576-4.933-3.576c-1.87,0-3.514,1.191-4.93,3.576c-1.516,2.538-2.275,5.732-2.275,9.586
		c0,3.855,0.759,7.076,2.275,9.662c1.367,2.385,3.009,3.577,4.93,3.577c1.924,0,3.606-1.244,5.046-3.728
		C93.872,49.33,94.591,46.159,94.591,42.304L94.591,42.304z"/>
	<polygon fill="#003565" points="118.221,58.046 110.634,58.046 110.634,10.707 104.716,10.707 104.716,8.05 118.221,5.851 
		118.221,58.046 	"/>
	<polygon fill="#003565" points="187.268,26.562 175.052,58.046 172.625,58.046 164.962,38.474 157.222,58.046 154.795,58.046 
		142.58,26.562 150.622,26.562 158.439,45.908 165.949,26.562 168.453,26.562 176.112,45.908 183.473,26.562 187.268,26.562 	"/>
	<path fill="#003565" d="M246.994,28.914l-5.538,5.614l-1.213-1.291c-0.911-0.96-1.67-1.44-2.278-1.44
		c-1.466,0-3.212,1.998-5.232,5.992l-1.52,3.035v17.222h-7.587V31.343h-5.918v-2.657l13.505-2.201v8.345l1.141-2.048
		c2.477-4.502,5.358-6.753,8.646-6.753C242.822,26.029,244.82,26.993,246.994,28.914L246.994,28.914z"/>
	<path fill-rule="evenodd" clip-rule="evenodd" fill="#003565" d="M235.684,44.239c-0.409-0.41-0.813-0.764-1.213-1.061h8.547
		c1.436,1.52,2.791,3.744,4.064,6.674l3.568,8.193h-8.314l-2.947-7.739C238.383,47.729,237.146,45.705,235.684,44.239
		L235.684,44.239z"/>
	<polygon fill="#003565" points="136.742,5.851 136.742,43.031 129.155,43.029 129.155,10.707 123.237,10.707 123.237,8.05 
		136.742,5.851 	"/>
	<path fill="#003565" d="M203.613,30.346c-0.636,0-1.374,0.368-1.867,0.836c-0.907,0.863-1.432,1.818-1.432,3.01
		s0.451,2.177,1.362,2.958c0.581,0.498,1.274,0.836,2.079,1.016h4.307c-0.088-2.792-0.135-3.931-1.037-5.563
		C206.209,31.098,204.773,30.346,203.613,30.346L203.613,30.346z M196.292,28.732c1.928-1.434,4.424-2.157,7.321-2.17
		c3.15,0.019,5.762,1.336,7.832,3.95c2.082,2.634,3.123,6.152,3.123,10.554h-6.212h-3.163c-1.879,0-3.563,0.674-5.052,2.016
		c-1.493,1.342-2.233,2.848-2.233,4.516c0,1.761,0.81,3.322,2.438,4.688c1.625,1.367,3.609,2.048,5.947,2.048
		c2.749,0,5.225-1.213,7.422-3.642l2.201,2.081c-3.207,3.516-7.173,5.274-11.893,5.274c-3.801,0-6.977-0.987-9.52-2.963
		c-2.541-1.975-3.814-4.249-3.814-6.821c0-3.902,2.406-6.773,7.219-8.609c-3.025-1.332-4.537-3.262-4.537-5.788
		C193.371,31.891,194.344,30.18,196.292,28.732L196.292,28.732z"/>
	<polygon fill="#003565" points="285.894,58.046 276.563,58.046 265.258,41.887 265.258,58.046 257.67,58.046 257.67,10.707 
		251.754,10.707 251.754,8.05 265.258,5.851 265.258,40.141 278.383,26.562 283.238,26.562 272.01,38.17 285.894,58.046 	"/>
	<path fill-rule="evenodd" clip-rule="evenodd" fill="#003565" d="M300,21.406c0,1.439-0.524,2.657-1.578,3.658
		c-1.051,0.999-2.354,1.499-3.898,1.499c-1.547,0-2.846-0.5-3.898-1.499c-1.052-1.001-1.58-2.219-1.58-3.658s0.528-2.666,1.58-3.679
		c1.053-1.014,2.352-1.52,3.898-1.52c1.545,0,2.848,0.505,3.898,1.52C299.476,18.74,300,19.967,300,21.406L300,21.406z
		 M298.963,21.406c0-1.227-0.432-2.266-1.303-3.12c-0.863-0.853-1.91-1.278-3.137-1.278s-2.271,0.425-3.14,1.278
		c-0.866,0.854-1.298,1.893-1.298,3.12c0,1.225,0.425,2.258,1.279,3.097c0.852,0.84,1.905,1.259,3.158,1.259
		c1.255,0,2.307-0.419,3.16-1.259C298.533,23.664,298.963,22.63,298.963,21.406L298.963,21.406z M297.164,24.443h-1.321
		l-0.521-1.518c-0.344-1.042-0.799-1.563-1.359-1.563h-0.118v3.08h-1.241v-5.557h-0.757v-0.521h2.718
		c0.533,0,0.973,0.153,1.316,0.459c0.349,0.307,0.521,0.661,0.521,1.061c0,0.559-0.36,0.986-1.08,1.279
		c0.402,0.106,0.789,0.627,1.159,1.559L297.164,24.443L297.164,24.443z M294.162,20.845c0.639,0,0.961-0.319,0.961-0.959
		c0-0.666-0.322-0.999-0.961-0.999h-0.317v1.958H294.162L294.162,20.845z"/>
</g>
</svg>
