<?xml version="1.0" encoding="utf-8"?>
<!-- Generator: Adobe Illustrator 15.1.0, SVG Export Plug-In . SVG Version: 6.00 Build 0)  -->
<!DOCTYPE svg PUBLIC "-//W3C//DTD SVG 1.1//EN" "http://www.w3.org/Graphics/SVG/1.1/DTD/svg11.dtd">
<svg version="1.1" id="Ebene_1" xmlns="http://www.w3.org/2000/svg" xmlns:xlink="http://www.w3.org/1999/xlink" x="0px" y="0px"
	 width="160px" height="130.68px" viewBox="0 0 160 130.68" enable-background="new 0 0 160 130.68" xml:space="preserve">
<g>
	<g>
		<defs>
			<rect id="SVGID_1_" y="0" width="160.188" height="130.833"/>
		</defs>
		<clipPath id="SVGID_2_">
			<use xlink:href="#SVGID_1_"  overflow="visible"/>
		</clipPath>
		<path clip-path="url(#SVGID_2_)" fill="#E5232D" d="M155.378,127.889c0,1.799,1.032,2.943,2.903,2.943
			c0.712,0,1.266-0.073,1.763-0.214l-0.072-1.864c-0.251,0.156-0.66,0.245-1.084,0.245c-0.909,0-1.121-0.722-1.121-1.492v-4.226
			h2.118v-1.727h-2.118v-2.565l-2.389,0.754v1.812h-1.761v1.727h1.761V127.889z M145.892,127.999c0-1.393,1.586-1.566,2.652-1.566
			h1.029c0,0.703-0.102,1.353-0.497,1.864c-0.374,0.493-0.941,0.811-1.671,0.811C146.549,129.107,145.892,128.771,145.892,127.999
			 M144.681,124.056c0.798-0.599,1.814-0.987,2.827-0.987c1.411,0,2.064,0.494,2.064,1.957h-1.314c-0.999,0-2.174,0.086-3.079,0.522
			c-0.909,0.441-1.568,1.235-1.568,2.588c0,1.726,1.584,2.695,3.204,2.695c1.086,0,2.279-0.563,2.831-1.568h0.036
			c0.019,0.282,0.019,0.884,0.106,1.354h2.103c-0.055-0.702-0.09-1.335-0.109-2.021c-0.015-0.671-0.032-1.358-0.032-2.271v-1.162
			c0-2.676-1.159-3.817-3.952-3.817c-1.019,0-2.264,0.262-3.188,0.685L144.681,124.056z M136.83,130.619h2.389v-3.328
			c0-1.299,0-3.694,1.938-3.694c0.43,0,0.855,0.071,1.072,0.194v-2.375c-0.251-0.069-0.497-0.069-0.731-0.069
			c-1.425,0-2.404,1.421-2.511,2.27h-0.037v-2.063h-2.117v9.066H136.83z M128.072,125.202c0.106-1.219,0.784-2.132,2.122-2.132
			c1.335,0,1.868,0.987,1.939,2.132H128.072z M133.736,128.19c-0.891,0.495-1.886,0.916-3.045,0.916
			c-1.48,0-2.513-0.829-2.619-2.292h6.342c0-3.166-0.962-5.469-4.364-5.469c-2.85,0-4.257,2.165-4.257,4.788
			c0,2.973,1.766,4.698,4.792,4.698c1.281,0,2.28-0.249,3.151-0.726V128.19z M119.833,130.619h2.384v-7.339h2.084v-1.726h-2.084
			v-1.124c0-0.704,0.249-1.392,1.052-1.392c0.517,0,0.819,0.194,1.032,0.316l0.196-1.951c-0.464-0.104-1.139-0.196-1.747-0.196
			c-1.884,0-2.917,1.27-2.917,3.082v1.265h-1.763v1.726h1.763V130.619z M110.253,125.202c0.112-1.219,0.786-2.132,2.121-2.132
			c1.339,0,1.871,0.987,1.94,2.132H110.253z M115.918,128.19c-0.892,0.495-1.888,0.916-3.046,0.916
			c-1.479,0-2.507-0.829-2.619-2.292h6.342c0-3.166-0.962-5.469-4.361-5.469c-2.853,0-4.259,2.165-4.259,4.788
			c0,2.973,1.763,4.698,4.791,4.698c1.281,0,2.279-0.249,3.152-0.726V128.19z M101.513,130.619h2.387v-3.328
			c0-1.299,0-3.694,1.94-3.694c0.43,0,0.855,0.071,1.071,0.194v-2.375c-0.25-0.069-0.501-0.069-0.73-0.069
			c-1.422,0-2.405,1.421-2.515,2.27h-0.029v-2.063h-2.122v9.066H101.513z M98.67,121.677c-0.75-0.155-1.479-0.33-2.603-0.33
			c-1.868,0-3.595,0.859-3.595,2.815c0,3.275,4.15,2.058,4.15,3.837c0,0.88-0.962,1.108-1.568,1.108
			c-0.818,0-1.603-0.229-2.353-0.603l-0.145,1.939c0.875,0.227,1.8,0.389,2.707,0.389c1.943,0,3.849-0.847,3.849-2.959
			c0-3.271-4.15-2.358-4.15-3.8c0-0.777,0.764-1.005,1.407-1.005c0.875,0,1.41,0.141,2.139,0.389L98.67,121.677z M86.421,127.889
			c0,1.799,1.031,2.943,2.902,2.943c0.713,0,1.268-0.073,1.766-0.214l-0.075-1.864C90.766,128.911,90.357,129,89.93,129
			c-0.907,0-1.124-0.722-1.124-1.492v-4.226h2.121v-1.727h-2.121v-2.565l-2.385,0.754v1.812h-1.765v1.727h1.765V127.889z
			 M79.087,130.619h2.389v-7.339h2.081v-1.726h-2.081v-1.124c0-0.704,0.248-1.392,1.049-1.392c0.515,0,0.819,0.194,1.032,0.316
			l0.196-1.951c-0.463-0.104-1.14-0.196-1.745-0.196c-1.888,0-2.921,1.27-2.921,3.082v1.265h-1.763v1.726h1.763V130.619z
			 M69.511,127.999c0-1.393,1.585-1.566,2.653-1.566h1.032c0,0.703-0.105,1.353-0.499,1.864c-0.374,0.493-0.942,0.811-1.674,0.811
			C70.171,129.107,69.511,128.771,69.511,127.999 M68.3,124.056c0.802-0.599,1.817-0.987,2.832-0.987
			c1.405,0,2.065,0.494,2.065,1.957h-1.316c-1,0-2.173,0.086-3.083,0.522c-0.908,0.441-1.567,1.235-1.567,2.588
			c0,1.726,1.585,2.695,3.205,2.695c1.086,0,2.28-0.563,2.831-1.568h0.037c0.018,0.282,0.018,0.884,0.107,1.354h2.102
			c-0.053-0.702-0.089-1.335-0.107-2.021c-0.019-0.671-0.035-1.358-0.035-2.271v-1.162c0-2.676-1.157-3.817-3.952-3.817
			c-1.018,0-2.264,0.262-3.19,0.685L68.3,124.056z M56.444,130.619h2.387v-4.436c0-1.156,0.375-3.008,2.1-3.008
			c1.533,0,1.552,1.497,1.552,2.606v4.837h2.386v-5.72c0-2.043-0.943-3.553-3.116-3.553c-1.247,0-2.28,0.561-2.887,1.446h-0.034
			v-5.374h-2.387V130.619z M54.205,121.644c-0.661-0.194-1.355-0.298-2.312-0.298c-2.869,0-4.438,2.071-4.438,4.698
			c0,2.763,1.515,4.788,4.525,4.788c0.979,0,1.692-0.092,2.388-0.3l-0.109-1.952C53.85,128.755,53.102,129,52.423,129
			c-1.672,0-2.475-1.284-2.475-2.954c0-1.71,0.942-2.87,2.424-2.87c0.729,0,1.191,0.141,1.619,0.337L54.205,121.644z
			 M45.252,121.677c-0.748-0.155-1.477-0.33-2.599-0.33c-1.871,0-3.599,0.859-3.599,2.815c0,3.275,4.151,2.058,4.151,3.837
			c0,0.88-0.964,1.108-1.567,1.108c-0.821,0-1.604-0.229-2.352-0.603l-0.144,1.939c0.873,0.227,1.8,0.389,2.707,0.389
			c1.942,0,3.848-0.847,3.848-2.959c0-3.271-4.147-2.358-4.147-3.8c0-0.777,0.762-1.005,1.404-1.005c0.872,0,1.41,0.141,2.138,0.389
			L45.252,121.677z M33.002,127.889c0,1.799,1.034,2.943,2.905,2.943c0.711,0,1.263-0.073,1.761-0.214l-0.07-1.864
			c-0.25,0.156-0.657,0.245-1.084,0.245c-0.911,0-1.123-0.722-1.123-1.492v-4.226h2.121v-1.727H35.39v-2.565l-2.387,0.754v1.812
			h-1.765v1.727h1.763V127.889z M24.85,130.619h2.387v-3.328c0-1.299,0-3.694,1.941-3.694c0.427,0,0.853,0.071,1.068,0.194v-2.375
			c-0.251-0.069-0.499-0.069-0.732-0.069c-1.422,0-2.401,1.421-2.509,2.27H26.97v-2.063h-2.12V130.619z M19.402,130.619h2.387
			v-9.064h-2.387V130.619z M19.402,119.901h2.387v-2.254h-2.387V119.901z M3.292,130.619h3.225l2.209-9.819h0.036l2.244,9.819h3.205
			l3.241-12.284h-2.421l-2.332,9.822h-0.038l-2.191-9.822H7.089l-2.12,9.822H4.933l-2.313-9.822h-2.621L3.292,130.619z
			 M110.475,80.219h-4.108v1.737h1.932v4.276c-0.519,0.127-1.124,0.209-1.932,0.209c-2.98,0-4.272-2.515-4.272-5.645
			c0-3.279,1.532-5.311,4.35-5.311c1.45,0,2.742,0.289,3.791,0.993l-0.164-2.157c-0.963-0.56-2.013-0.831-3.706-0.831
			c-4.677,0-6.693,3.342-6.693,7.386c0,4.105,2.28,7.388,6.535,7.388c1.408,0,3.837-0.447,4.104-0.837
			C110.583,87.049,110.475,80.219,110.475,80.219 M98.395,87.98l-4.209-6.038c2.317-0.741,3.096-2.228,3.096-4.152
			c0-2.832-2.492-4.026-5.349-4.026H88.74v14.299h2.323V75.487h0.87c1.975,0,3.036,0.903,3.036,2.382c0,1.646-0.72,2.877-3.57,3.203
			h-0.101v0.166l4.546,6.824h2.551V87.98z M86.249,86.331h-6.225V81.65h4.864v-1.726h-4.864v-4.436h5.585l-0.314-1.724h-7.589
			v14.298h8.304L86.249,86.331z M74.691,83.956c0-1.359-0.84-2.794-2.338-3.496c0.979-0.783,1.54-1.727,1.54-3.002
			c0-2.282-1.72-3.692-5.029-3.692h-3.593v14.298h4.233C72.613,88.063,74.691,86.618,74.691,83.956 M61.839,73.765h-2.074v9.182
			l-7.661-9.182h-0.48v14.298h2.08v-9.43l7.659,9.43h0.477V73.765L61.839,73.765z M49.288,87.98l-4.21-6.038
			c2.321-0.741,3.095-2.228,3.095-4.152c0-2.832-2.493-4.026-5.35-4.026H39.63v14.299h2.317V75.487h0.875
			c1.98,0,3.036,0.903,3.036,2.382c0,1.646-0.717,2.877-3.575,3.203h-0.097v0.166l4.554,6.824h2.548V87.98z M36.149,73.765h-2.078
			v8.945c0,2.39-0.697,3.786-3.274,3.786c-2.394,0-3.271-1.576-3.271-3.696v-9.037h-2.312v9.198c0,3.6,2.195,5.265,5.507,5.265
			s5.43-1.686,5.43-5.345v-9.116H36.149z M21.728,73.765h-2.081v9.182l-7.657-9.182h-0.479v14.298h2.075v-9.43l7.661,9.43h0.481
			V73.765z M27.417,70.586c0,0.863,0.517,1.316,1.194,1.316c0.676,0,1.192-0.453,1.192-1.316c0-0.86-0.516-1.313-1.192-1.313
			C27.932,69.273,27.417,69.725,27.417,70.586 M31.481,70.586c0,0.863,0.517,1.316,1.198,1.316c0.674,0,1.194-0.453,1.194-1.316
			c0-0.86-0.52-1.313-1.194-1.313C32,69.273,31.481,69.725,31.481,70.586 M160.188,47.12v50.972H1.378V0h158.81v39.735l-2.356,3.691
			c0,0-0.196,0.351-0.357-0.021l-5.837-13.23c0,0-0.162-0.368-0.326,0.004l-6.092,14.304c0,0-0.155,0.37-0.416,0.059l-2.397-2.875
			c0,0-0.252-0.309-0.394,0.07l-1.97,5.451c0,0-0.131,0.382-0.131,0.78v8.052c0,0,0,0.4,0.26,0.706l1.893,2.171
			c0,0,0.268,0.303,0.268,0.705v6.308c0,0,0,0.399-0.409,0.399l-12.066,0.005c0,0-0.409,0-0.409-0.396l-0.008-7.094
			c0,0,0-0.402-0.275-0.694l-6.133-6.659c0,0-0.281-0.295-0.684-0.295l-5.658,0.017c0,0-0.405,0-0.681,0.299l-2.869,3.069
			c0,0-0.279,0.289-0.279-0.107V48.92c0,0,0-0.404,0.203-0.746l1.269-2.12c0,0,0.204-0.345,0.204-0.751l0.03-7.797
			c0,0,0-0.402-0.281-0.691l-4.312-4.516c0,0-0.278-0.288-0.278-0.688l0.004-3.037c0,0,0-0.401-0.213-0.742l-5.144-8.112
			c0,0-0.22-0.343-0.433,0l-5.193,8.214c0,0-0.213,0.341-0.213,0.741v2.782c0,0,0,0.402-0.297,0.679l-4.493,4.248
			c0,0-0.298,0.278-0.298,0.678l-0.004,8.206c0,0,0,0.406,0.248,0.724l1.351,1.765c0,0,0.248,0.319,0.248,0.723l0.005,8.427
			c0,0,0,0.402-0.399,0.402c0,0-82.786,0.434-83.003,0.434c-0.214,0-0.404,0.151-0.404,0.358v0.391c0,0.207-0.049,0.346,0.408,0.346
			h84.812c0,0,0.405,0,0.405-0.399V47.688c0,0,0-0.401-0.244-0.719l-1.162-1.505c0,0-0.245-0.322-0.245-0.724v-6.902
			c0,0,0-0.405,0.294-0.679l4.45-4.19c0,0,0.292-0.271,0.292-0.674v-2.652c0,0,0-0.4,0.213-0.741l3.238-5.261
			c0,0,0.205-0.344,0.412,0.004l3.116,5.253c0,0,0.203,0.345,0.203,0.745v2.782c0,0,0,0.401,0.278,0.69l3.819,4.027
			c0,0,0.274,0.294,0.274,0.698v7.012c0,0,0,0.402-0.202,0.751l-1.132,1.981c0,0-0.204,0.351-0.204,0.751l-0.008,11.816
			c0,0,0,0.396,0.286,0.107l5.883-6.083c0,0,0.278-0.291,0.684-0.291h3.723c0,0,0.413,0,0.686,0.298l4.729,5.034
			c0,0,0.278,0.289,0.278,0.698v8.627c0,0,0,0.405,0.409,0.405h17.437c0,0,0.409,0,0.409-0.405l0.018-10.422
			c0,0,0-0.404-0.255-0.713l-1.442-1.738c0,0-0.251-0.308-0.251-0.712v-6.765c0,0,0-0.396,0.251-0.086l2.261,2.872
			c0,0,0.248,0.318,0.403-0.055l5.12-11.93c0,0,0.162-0.367,0.318,0l5.135,11.938c0,0,0.153,0.378,0.405,0.05L160.188,47.12z
			 M71.575,77.625c0-1.478-0.995-2.136-2.874-2.136l0,0h-1.116v4.518h3.111C71.418,79.266,71.575,78.451,71.575,77.625
			 M72.294,83.784c0,1.727-1.018,2.542-2.875,2.542h-1.835V81.65h1.92C71.174,81.65,72.294,82.225,72.294,83.784"/>
	</g>
</g>
</svg>
