<?xml version="1.0" encoding="utf-8"?><!DOCTYPE svg PUBLIC "-//W3C//DTD SVG 1.1//EN" "http://www.w3.org/Graphics/SVG/1.1/DTD/svg11.dtd"><svg xmlns="http://www.w3.org/2000/svg" width="200" height="200" viewBox="0 0 200 200"><g fill="#FFF"><circle cx="100" cy="35.819" r="14.926"/><path d="M164.772,50.73c-0.832-4.037-4.778-6.636-8.815-5.802L100,56.465L44.043,44.928 c-4.037-0.835-7.983,1.765-8.815,5.802c-0.833,4.036,1.765,7.983,5.803,8.815l41.805,8.62v45.563l-11.782,56.387 c-0.843,4.034,1.743,7.988,5.778,8.831c0.515,0.107,1.028,0.159,1.535,0.159c3.458,0,6.562-2.419,7.297-5.938l12.015-57.498 c0.224-1.189,1.086-2.238,2.323-2.238c1.236,0,2.123,1.049,2.322,2.238l12.016,57.498c0.734,3.519,3.837,5.938,7.296,5.938 c0.506,0,1.021-0.052,1.535-0.159c4.034-0.843,6.622-4.797,5.777-8.831l-11.782-56.391V68.166l41.806-8.62 C163.008,58.714,165.604,54.767,164.772,50.73z"/></g></svg>