<?xml version="1.0" encoding="utf-8"?><!DOCTYPE svg PUBLIC "-//W3C//DTD SVG 1.1//EN" "http://www.w3.org/Graphics/SVG/1.1/DTD/svg11.dtd"><svg xmlns="http://www.w3.org/2000/svg" width="420" height="90.09" viewBox="383.446 82.255 420 90.09"><g fill="#820202"><path d="M536.42 106.769c-2.145-1.451-4.416-2.338-6.747-2.637-.424-.061-.862-.123-1.294-.123-.001 0-.002 0-.002 0-3.147-.121-6.067.704-8.673 2.463-1.747 1.197-3.146 2.688-4.245 4.53V89.91h-1.608v42.71c0 4.367-.253 7.839-.773 10.613l-.079.42h1.624l.052-.293c.312-1.76.528-3.658.661-5.771.783 1.221 1.716 2.28 2.778 3.157 1.813 1.58 4.073 2.575 6.719 2.962.735.109 1.475.167 2.2.167 1.685 0 3.385-.304 5.055-.905 2.287-.865 4.348-2.205 6.127-3.984 3.236-3.297 5.187-7.666 5.799-12.988.551-5.27-.353-9.945-2.688-13.896C540.06 109.992 538.412 108.2 536.42 106.769zM542.411 125.804c-.524 4.889-2.328 8.936-5.367 12.034-1.495 1.606-3.347 2.827-5.506 3.632-2.043.772-4.23 1.004-6.479.699-2.267-.357-4.212-1.234-5.942-2.678-1.704-1.471-2.901-3.189-3.656-5.254v-19.149c.814-3.043 2.56-5.503 5.188-7.315 2.061-1.431 4.456-2.156 7.117-2.156.594 0 1.189.061 1.693.117 2.167.293 4.192 1.099 6.021 2.396 1.821 1.293 3.281 2.869 4.459 4.813C542.134 116.683 542.943 120.888 542.411 125.804zM580.56 125.649l.656-.11v-.576c.12-.921.183-1.864.239-2.715.063-2.808-.196-5.218-.792-7.363-.732-2.62-1.972-4.852-3.685-6.626-2.183-2.308-4.763-3.639-7.903-4.068-.655-.061-1.332-.123-2.023-.123-1.96.062-3.846.482-5.77 1.289-2.352 1.024-4.376 2.588-6.191 4.778-3.137 3.802-4.759 8.699-4.821 14.563 0 5.89 1.566 10.592 4.65 13.973 3.246 3.66 8.328 5.76 13.943 5.76 3.645 0 7.191-.881 10.543-2.619l.318-.164-.758-1.408-.312.168c-3.021 1.628-6.225 2.418-9.791 2.418-5.024 0-9.771-1.951-12.694-5.221-2.604-2.943-4.042-6.902-4.276-11.77h25.369C578.528 125.835 579.634 125.772 580.56 125.649zM579.849 122.212l-.155 1.918c-.689.051-1.489.096-2.432.096h-25.377c.119-5.213 1.604-9.6 4.413-13.039 1.602-1.957 3.493-3.418 5.63-4.342 1.616-.724 3.298-1.105 5.142-1.169.628 0 1.216.06 1.802.117 2.808.418 5.096 1.599 6.991 3.61 1.547 1.67 2.599 3.604 3.219 5.916C579.756 117.681 580.007 119.937 579.849 122.212zM608.634 132.62v-14.158c0-2.553-.181-4.484-.552-5.906-.54-2.107-1.554-3.85-3.098-5.328-1.514-1.453-3.347-2.432-5.454-2.912-.927-.186-1.976-.248-3.01-.308-.988 0-2.012 0-3.063.187-1.629.302-3.029.721-4.279 1.283-1.456.641-2.658 1.578-3.67 2.859-1.668 2.04-2.211 5.043-1.383 7.65l.104.328 1.518-.434-.105-.344c-.641-2.1-.205-4.482 1.144-6.223.752-.982 1.775-1.773 3.05-2.354 1.134-.536 2.491-.941 3.92-1.169 2.104-.312 3.897-.274 5.447.114 3.729.873 6.318 3.382 7.296 7.056.242 1.015.53 2.791.53 5.498v4.666c-2.547-.505-5.068-.761-7.506-.761-.899 0-1.868.061-2.806.119l-.044.002c-4.6.38-8.114 1.521-10.74 3.488-1.59 1.178-2.872 2.717-3.708 4.451-.933 1.926-1.246 3.895-.93 5.855.31 1.734 1.064 3.307 2.239 4.666 1.188 1.388 2.653 2.398 4.221 2.92 1.491.585 3.048.882 4.629.882 1.732 0 3.55-.358 5.398-1.058 3.843-1.387 7.228-4.41 9.279-8.229.102 3.087.349 5.684.75 7.898l.054.291h1.622l-.079-.42C608.887 140.456 608.634 136.983 608.634 132.62zM607.025 124.748v6.331c-1.182 4.962-5.021 9.344-9.784 11.167-1.648.599-3.264.901-4.804.901-1.378 0-2.749-.242-4.063-.719-1.491-.596-2.684-1.41-3.636-2.474-1.023-1.263-1.627-2.542-1.848-3.916-.275-1.606-.029-3.205.748-4.881.773-1.544 1.838-2.818 3.254-3.894 2.454-1.812 5.783-2.877 9.893-3.17.894-.061 1.842-.121 2.735-.121C601.961 123.974 604.485 124.235 607.025 124.748zM640.136 104.31L626.159 141.104 612.214 104.537 612.127 104.31 610.409 104.31 625.377 143.651 626.886 143.651 641.854 104.31zM667.994 108.257c-2.182-2.309-4.763-3.638-7.903-4.068-.655-.06-1.33-.123-2.022-.123-1.958.063-3.847.483-5.771 1.291-2.35 1.025-4.375 2.588-6.189 4.778-3.137 3.802-4.758 8.702-4.82 14.563 0 5.89 1.566 10.592 4.648 13.973 3.245 3.66 8.328 5.76 13.943 5.76 3.646 0 7.192-.881 10.543-2.621l.319-.166-.759-1.406-.313.168c-3.019 1.627-6.222 2.418-9.79 2.418-5.022 0-9.769-1.952-12.694-5.221-2.603-2.945-4.042-6.902-4.274-11.771h25.368c1.265 0 2.369-.062 3.297-.185l.655-.11v-.575c.121-.91.181-1.82.239-2.715.063-2.809-.195-5.217-.792-7.363C670.945 112.26 669.705 110.028 667.994 108.257zM670.866 122.212l-.156 1.918c-.688.051-1.49.096-2.431.096h-25.378c.12-5.213 1.604-9.599 4.413-13.041 1.6-1.957 3.491-3.416 5.629-4.34 1.617-.725 3.299-1.107 5.142-1.17.626.001 1.214.059 1.783.116l.018.001c2.81.418 5.097 1.6 6.992 3.609 1.546 1.67 2.598 3.604 3.22 5.918C670.773 117.685 671.024 119.94 670.866 122.212zM697.725 104.192c-.505-.064-1.049-.123-1.6-.123-.002 0-.003 0-.005 0h-.42c-.367 0-.746 0-1.171.061-3.503.307-6.779 1.584-10.012 3.902-1.827 1.273-3.438 2.753-4.797 4.404-.261-2.899-.713-5.481-1.38-7.869l-.07-.258h-1.702l.134.453c1.064 3.611 1.604 8.342 1.604 14.059v24.83h1.608l.002-24.828c0-1.469 0-2.742-.055-3.973 1.603-2.176 3.488-4.031 5.604-5.519 2.962-2.091 6.052-3.302 9.193-3.597 1.131-.127 2-.11 2.778.057.893.156 1.687.516 2.365 1.07 1.444 1.123 1.952 3.107 1.266 4.937l-.123.329 1.424.547.135-.313c1.002-2.314.338-5.033-1.656-6.77C700.072 104.935 699.031 104.465 697.725 104.192zM728.19 90.901c-1.314-.623-2.861-.986-4.477-1.051-.281-.074-.601-.082-.956-.068-.098.004-.197.008-.299.008-1.314 0-2.543.188-3.64.553-1.639.487-3.024 1.342-4.237 2.617-1.075 1.137-1.851 2.602-2.304 4.348-.296 1.065-.434 2.582-.434 4.775v6.186h-8.04v1.607h8.04v33.775h1.607.002v-33.777h13.198v-1.607h-13.198v-6.187c0-1.927.115-3.353.347-4.345.428-1.523 1.085-2.766 1.95-3.686 1.029-1.029 2.18-1.746 3.516-2.193 1.041-.332 2.169-.498 3.354-.498.314 0 .633.012.965.035 1.409.055 2.679.357 3.88.926 1.359.65 2.311 1.468 2.909 2.502.666 1.109.905 2.291.732 3.611l-.043.324 1.517.326.065-.357c.309-1.668.019-3.201-.888-4.689C730.929 92.694 729.729 91.64 728.19 90.901zM737.944 89.55H739.55V98.05799999999999H737.944zM737.944 104.31H739.55V143.652H737.944zM748.851 128.899v-38.99h-1.606v38.99c0 5.949.568 10.828 1.693 14.502l.077.25h1.642l-.143-.457C749.395 139.541 748.851 134.864 748.851 128.899zM801.71 109.749c-1.378-2.13-3.156-3.645-5.447-4.637-1.563-.612-3.081-.924-4.497-.924h-.001c-1.959-.061-3.807.383-5.696 1.361-2.437 1.305-4.155 3.143-5.233 5.602-.202-.475-.433-.948-.718-1.396-1.277-2.068-3.107-3.628-5.452-4.643-1.584-.62-3.057-.922-4.496-.922h-.001c-1.977-.061-3.814.384-5.636 1.359-2.104 1.104-3.727 2.684-4.837 4.701-.254-2.02-.635-3.926-1.138-5.686l-.072-.256h-1.7l.134.453c1.064 3.609 1.604 8.34 1.604 14.059v24.832h1.606v-24.832c0-1.758-.055-3.32-.118-4.897.801-4.555 5.272-8.118 10.196-8.118 1.343 0 2.63.27 3.823.801 2.045.901 3.583 2.211 4.706 4.008.607.939 1.02 1.949 1.263 3.086v.434h.121c.121.717.181 1.528.181 2.467v27.051h1.606V116.66c0-1.126-.072-2.052-.232-2.988.658-2.83 2.623-5.399 5.146-6.717 1.421-.759 3.059-1.157 4.734-1.157 1.396 0 2.808.28 4.083.813 3.767 1.551 6.2 5.473 6.2 9.992v27.051h1.606V116.66C803.446 113.864 802.896 111.67 801.71 109.749zM491.699 112.144c-.008-.279-.018-.596-.055-.959l-.019-.162-.173-.539-.229-.478c-.148-.28-.301-.507-.443-.711l-.021-.03c-.592-.805-1.271-1.471-1.867-2.025-1.07-.979-2.259-1.943-3.863-3.137-2.665-1.947-5.174-3.656-7.659-5.217-.635-.988-1.29-2.002-1.991-2.98-.779-1.096-1.639-2.178-2.555-3.215-1.863-2.113-3.944-3.971-6.182-5.519-1.073-.748-2.262-1.444-3.622-2.126-1.384-.703-2.835-1.207-3.976-1.576-1.361-.412-2.753-.723-4.15-.928-1.403-.193-2.665-.287-3.861-.287-.126 0-.253.001-.367.003-.67.007-1.393.022-2.123.093-.113.01-.223.019-.334.026-.234.017-.47.034-.734.065l-.971.123-3.935.595-3.842.599-1.227.176c-.493-.164-1.079-.353-1.688-.494-1.669-.389-3.409-.392-5.007.004-1.06.268-2.051.644-2.953 1.121l.498-2.092-1.428 2.639c-.156.103-.31.207-.459.316-1.418.998-2.582 2.403-3.271 3.948-.578 1.269-.87 2.692-.871 4.237l-.995 1.838c-.298.574-.628 1.128-.979 1.714-.111.187-.223.374-.336.565l-2.744 4.689c-.371.652-.793 1.344-1.373 2.245-.395.616-.914 1.429-1.459 2.241-1.104 1.656-2.106 3.064-3.069 4.309-.569.741-1.104 1.401-1.62 2-.572.645-1.135 1.27-1.751 1.84-.606.582-1.216 1.075-1.808 1.465-.071.045-.145.094-.217.142-.076.049-.148.101-.225.14l-1.798.963-.038.021c-.316.181-.656.334-1.085.523l-1.192.547c-.589.254-1.191.485-1.828.729l-.601.231c-.491.17-.819.285-1.083.375-.641.22-.907.311-2.12.766l-12.557 4.704 33.065-4.101-9.719-.812.781-.38c.21-.104.379-.204.527-.293.059-.035.117-.07.178-.105l.039-.021c.838-.504 1.648-1.107 2.457-1.823.763-.649 1.431-1.334 2.121-2.054.687-.737 1.303-1.44 1.887-2.152 1.068-1.314 2.137-2.738 3.357-4.477.586-.83 1.146-1.656 1.564-2.28.631-.933 1.102-1.661 1.517-2.351l1.558-2.521.16 2.885 1.22-5.119c.093-.154.186-.306.279-.457.37-.604.751-1.228 1.084-1.853l1.313-2.36.342-.6-.025-.693c-.044-1.025.111-1.924.469-2.682.361-.786.923-1.449 1.693-1.991.688-.503 1.576-.887 2.692-1.169.762-.182 1.686-.152 2.807.089l.2.044c.151.032.312.067.478.104l-.641 1.146 2.788-.326 1.929 1.017-.229-1.845 3.981-.676 3.812-.629.93-.131c.173-.021.358-.037.543-.053.118-.01.234-.02.373-.034.58-.065 1.188-.086 1.759-.099l.06-.002c.364-.022.729-.01 1.091.002.223.007.443.014.664.015.57.035 1.174.075 1.756.146 1.171.144 2.349.377 3.476.689 1.333.395 2.401.785 3.37 1.232 1.204.551 2.24 1.109 3.175 1.711 2.02 1.289 3.905 2.861 5.602 4.674.858.913 1.664 1.863 2.407 2.842.605.777 1.146 1.596 1.716 2.461.144.217.288.436.435.655l.224.336.354.215c.785.478 1.59.979 2.404 1.502l6.731 6.181-1.816-2.828c.157.115.313.23.463.346 1.112.844 2.392 1.834 3.496 2.91.419.408.951.947 1.33 1.492.101.148.152.242.174.285l.021.043-.006.877v.039c.007.426-.02.901-.048 1.403-.016.292-.031.583-.041.839-.013.241-.023.482-.034.723-.025.556-.05 1.078-.098 1.615l-.178 2.354-.003.043c-.023.477-.091.979-.163 1.509-.034.247-.067.496-.095.726l-.136 1.041c-.037.117-.073.244-.111.373-.044.153-.09.313-.14.463l-.397.986-.471 1c-.7 1.402-1.438 2.75-2.19 4.008l-.104.176-.135.461c-.258.662-.491 1.281-.708 1.875l-1.26.019c-.558.009-1.111.065-1.807.183-.196.035-.392.08-.586.125l-.236.056-.894.276-.374.154c-.199.087-.397.174-.6.275l-.266.156c-.246.151-.524.324-.771.526l-.465.429-.316.344c-.18.218-.343.426-.501.632l-.241.313c-1.113 1.452-2.164 2.821-3.285 4.188-.976 1.202-2.275 2.769-3.674 4.198-.609.625-1.256 1.222-1.923 1.777l-.734.543-.2.115c-.085.045-.171.096-.255.148-.052.031-.101.063-.121.076l-2.637.994.415.899-2.418 1.782 2.453.055 10.45 21.803-3.493-14.865h2.228l-2.766-2.297c-.054-.236-.109-.472-.168-.705l-.816-2.686c-.056-.186-.119-.395-.203-.607l-.465-1.252 1.14-.758.069-.051c.817-.628 1.611-1.309 2.361-2.025 1.297-1.234 2.599-2.619 4.104-4.361 1.163-1.36 2.291-2.768 3.383-4.129l.316-.396c.133-.166.265-.327.402-.487l.258-.229c.019-.009.036-.019.053-.028.021-.012.042-.023.063-.035l.305.166.035 3.16 2.792-.947-1.129 3.893 2.477-4.35 1.848-.627 1.449-4.043c.304-.86.611-1.776.919-2.729.909-1.604 1.616-2.989 2.229-4.367l.478-1.121.449-1.245.03-.092c.114-.393.198-.736.294-1.137l.047-.196.149-1.435c.019-.233.042-.465.063-.698.057-.567.114-1.155.123-1.778l.088-2.378c.03-.599.034-1.187.038-1.756.002-.231.003-.465.007-.729-.001-.272.004-.541.009-.809.008-.533.018-1.084-.016-1.682C491.707 112.399 491.703 112.271 491.699 112.144z"/></g></svg>