<?xml version="1.0" encoding="utf-8"?><!DOCTYPE svg PUBLIC "-//W3C//DTD SVG 1.1//EN" "http://www.w3.org/Graphics/SVG/1.1/DTD/svg11.dtd"><svg xmlns="http://www.w3.org/2000/svg" xmlns:xlink="http://www.w3.org/1999/xlink" width="300" height="69.403" viewBox="0 0 300 69.403"><defs><path id="ca" d="M0 0H300V69.403H0z"/></defs><defs><path id="cc" d="M156.938,69.403h-8.955V41.324c0-3.369-2.73-6.101-6.099-6.101H111.3c-3.18,0-11.89,2.757-13.563,6.097 v28.083h-8.955V26.268h8.955v3.722c4.574-2.409,9.926-3.722,13.563-3.722h30.584c7.976,0,14.502,6.201,15.021,14.045l0.033,1.011 V69.403"/></defs><clipPath id="cb"><use xlink:href="#ca" overflow="visible"/></clipPath><clipPath id="cd" clip-path="url(#cb)"><use xlink:href="#cc" overflow="visible"/></clipPath><path clip-path="url(#cd)" fill="#647788" d="M85.051 22.537H160.67000000000002V73.134H85.051z"/><defs><path id="ce" d="M0 0H300V69.403H0z"/></defs><defs><path id="cg" d="M53.102,26.268c8.315,0,15.055,6.74,15.055,15.056v13.024c0,8.313-6.74,15.055-15.055,15.055H15.054 C6.74,69.403,0,62.662,0,54.348V11.465l8.955,0l0.001,14.804H53.102L53.102,26.268z M53.102,35.223H8.956v19.125 c0,3.368,2.73,6.1,6.098,6.1h38.047c3.369,0,6.1-2.731,6.1-6.1V41.324C59.202,37.955,56.47,35.223,53.102,35.223L53.102,35.223z"/></defs><clipPath id="cf"><use xlink:href="#ce" overflow="visible"/></clipPath><clipPath id="ch" clip-path="url(#cf)"><use xlink:href="#cg" overflow="visible"/></clipPath><path clip-path="url(#ch)" fill="#647788" d="M-3.731 7.733H71.88900000000001V73.134H-3.731z"/><g><defs><path id="ci" d="M0 0H300V69.403H0z"/></defs><defs><path id="ck" d="M258.775,29.919h9.223c2.222,0,3.088,0.632,3.088,3.043v2.292c0,2.411-0.866,3.043-3.088,3.043h-9.223 V29.919L258.775,29.919z M253.58,42.651h15.681c5.195,0,7.02-1.708,7.02-5.897v-5.148c0-4.19-1.824-5.899-7.02-5.899H253.58 V42.651L253.58,42.651z"/></defs><clipPath id="cj"><use xlink:href="#ci" overflow="visible"/></clipPath><clipPath id="cl" clip-path="url(#cj)"><use xlink:href="#ck" overflow="visible"/></clipPath><path clip-path="url(#cl)" fill="#647788" d="M249.85 21.976H280.012V46.382999999999996H249.85z"/></g><g><defs><path id="cm" d="M0 0H300V69.403H0z"/></defs><defs><path id="co" d="M280.769 42.651L299.607 42.651 299.607 38.579 285.964 38.579 285.964 35.865 298.602 35.865 298.602 32.354 285.964 32.354 285.964 29.64 299.304 29.64 299.304 25.707 280.769 25.707 280.769 42.651"/></defs><clipPath id="cn"><use xlink:href="#cm" overflow="visible"/></clipPath><clipPath id="cp" clip-path="url(#cn)"><use xlink:href="#co" overflow="visible"/></clipPath><path clip-path="url(#cp)" fill="#647788" d="M277.038 21.976H303.339V46.382999999999996H277.038z"/></g><g><defs><path id="cq" d="M0 0H300V69.403H0z"/></defs><defs><path id="cs" d="M232.92 0.127L246.833 5.193 241.77 19.106 227.856 14.041 232.92 0.127"/></defs><clipPath id="cr"><use xlink:href="#cq" overflow="visible"/></clipPath><clipPath id="ct" clip-path="url(#cr)"><use xlink:href="#cs" overflow="visible"/></clipPath><path clip-path="url(#ct)" fill="#647788" d="M224.125 -3.604H250.564V22.838H224.125z"/></g><g><defs><path id="cu" d="M0 0H300V69.403H0z"/></defs><defs><path id="cw" d="M190.299,26.268h22.984v8.955h-22.984v19.125c0,3.368,2.731,6.1,6.099,6.1h16.012 c3.127,0,5.705-2.355,6.058-5.387l8.511,3.097c-1.688,6.47-7.571,11.245-14.568,11.245h-16.012 c-8.313,0-15.054-6.741-15.054-15.055V35.223h-11.199v-8.955h11.199V11.47h8.955V26.268"/></defs><clipPath id="cv"><use xlink:href="#cu" overflow="visible"/></clipPath><clipPath id="cx" clip-path="url(#cv)"><use xlink:href="#cw" overflow="visible"/></clipPath><path clip-path="url(#cx)" fill="#647788" d="M166.413 7.738H230.709V73.134H166.413z"/></g></svg>