<?xml version="1.0" encoding="utf-8"?><!DOCTYPE svg PUBLIC "-//W3C//DTD SVG 1.1//EN" "http://www.w3.org/Graphics/SVG/1.1/DTD/svg11.dtd"><svg xmlns="http://www.w3.org/2000/svg" width="250.318" height="86" viewBox="0 0 250.318 86"><path d="M4.618 40.632L0 50.013l24.104.434 4.198-8.712.612 44.122 12.414-4.763L42 43.806l-13.593-2.808L4.618 40.632zM42.868 44.528v5.774l2.886-1.299L42.868 44.528zM27.778 44.886l-2.375 9.746L4.474 51.888l1.058 32.67L28.77 86 27.778 44.886zM30.497 10.896c0-3.139.996-5.966 2.588-7.955-3.25.962-8.783 3.119-11.723 7.236-2.969 4.156-2.021 29.156-2.021 29.156l6.061.288c0 0-.575-19.199.576-21.072 1.271-2.064 4.099-1.572 6.389-.711-1.167-1.886-1.871-4.304-1.871-6.94M40.188 0c-4.505 0-8.157 4.878-8.157 10.896 0 6.019 3.652 10.896 8.158 10.896 4.507 0 8.16-4.879 8.16-10.896S44.695 0 40.188 0M39.698 21.027c-3.872 0-7.008-4.586-7.008-10.24s3.137-10.239 7.008-10.239 7.008 4.583 7.008 10.239c0 5.654-3.138 10.239-7.009 10.239M43.107 13.737c-1.02 0-1.877-.673-2.135-1.587l2.135-.575-2.188-.338c.167-1.034 1.082-1.825 2.188-1.825.717 0 1.354.334 1.759.85-.447-1.604-1.836-2.774-3.48-2.774-2.006 0-3.632 1.74-3.632 3.887 0 2.146 1.625 3.887 3.631 3.887 1.406 0 2.625-.856 3.229-2.105-.396.358-.923.579-1.507.579M39.672 1.29c1.791 0 2.859 1.281 2.859 1.281s-1.041-.683-2.773-.683c-1.733 0-3.098 1.072-3.098 1.072s.991-1.668 3.01-1.668M37.665 20.153c0 0 1.408.555 2.133.555.726 0 1.878-.385 1.878-.385s-.851.17-1.834.17C38.859 20.494 37.666 20.153 37.665 20.153M106.057 41.834c2.778 0 5.155 2.792 5.255 2.911l.337.404-.349.394c-.007.007-.101.118-.262.341.598-.021 1.234-.06 1.901-.121.313-.71.636-1.325.968-1.813 1.032-1.405 2.277-2.118 3.7-2.118 1.764 0 3.361 1.122 4.321 1.975v-7.956h-5.925c-.807 2.038-2.704 2.181-4.03 2.181-3.128 0-3.839-1.517-3.982-3.793h14.176v-3.698c0-6.78-3.036-12.231-12.376-12.231-8.152 0-14.267 4.171-14.267 13.889 0 6.072 2.41 10.077 6.604 12.113.075-.127.153-.25.231-.361 1.032-1.406 2.276-2.119 3.699-2.119M109.937 25.803c1.09 0 1.661.71 1.661 1.896v.378h-3.747c0-.949.568-2.276 2.086-2.276M244.653 41.834c2.756 0 5.156 2.79 5.257 2.908l.33.39-.191.232.27-.028v-7.16h-1.612c-.758 0-1.138-.284-1.138-.948V9.162h-14.603v7.159h2.75v2.466c-1.138-.238-2.321-.474-3.604-.474-7.253 0-12.467 3.934-12.467 13.984 0 11.521 5.547 13.605 9.814 13.605 3.081 0 5.641-.804 7.632-1.99.855.788 1.902 1.268 3.064 1.555.267-.572.548-1.083.849-1.506C242.009 42.55 243.234 41.835 244.653 41.834M235.717 36.708c-.664.473-1.328.616-1.802.616-1.471 0-2.228-1.138-2.228-5.025 0-5.026.427-5.547 2.844-5.547.428 0 .712 0 1.187.142L235.717 36.708 235.717 36.708zM83.669 18.312c-1.943 0-3.936.427-5.879 1.09V9.162H63.188v7.159h1.613c.807 0 1.09.284 1.137.9v26.977c3.461.853 8.202 1.706 12.706 1.706 8.914 0 15.218-4.219 15.218-14.697C93.863 21.771 89.12 18.312 83.669 18.312M78.786 36.944c-.284 0-.616-.047-.996-.094v-8.914c.569-.332 1.376-.521 1.943-.521 1.802 0 2.086.996 2.086 4.409C81.82 35.854 81.202 36.944 78.786 36.944"/><path d="M140.846,26.041h1.849l-2.418,8.723h-0.711l-1.897-8.723h1.754v-7.159h-16.736v7.158h2.181 c0.332,0,0.569,0.047,0.662,0.332l5.786,19.011h4.504l-5.263,6.069v3.604h12.327l9.055-28.113c0.142-0.569,0.236-0.902,0.852-0.902 h1.897V18.88h-13.843v7.159L140.846,26.041z M169.437,18.313c-9.15,0-14.271,4.882-14.271,13.794 c0,8.914,5.12,13.797,14.271,13.797s14.316-5.025,14.316-13.796c0-8.771-5.169-13.794-14.317-13.794 M169.482,37.513 c-1.943,0-2.228-1.611-2.228-5.405c0-3.792,0.284-5.405,2.228-5.405s2.227,1.613,2.227,5.405 C171.709,35.901,171.426,37.513,169.482,37.513 M215.709,37.276V26.608c0-6.306-3.745-8.295-8.107-8.295 c-2.893,0-5.878,0.948-7.918,2.511h-0.237V18.88h-13.748v7.159h1.612c0.948,0,1.138,0.379,1.138,1.185v9.767 c0,0.806-0.188,1.185-1.138,1.185h-1.612v7.16h16.593v-7.16H200.3V27.936c0.663-0.473,1.66-0.9,2.228-0.9 c0.996,0,1.327,0.428,1.327,1.518v16.782h14.604v-7.16h-1.897C215.945,38.129,215.709,37.845,215.709,37.276 M248.824,70.921 h-0.102c-1.29,3.712-3.508,6.857-5.105,6.496c-1.599-0.31-1.443-4.641-0.878-9.28c2.219-17.533,6.703-22.999,6.703-22.999 s-4.641-5.466-7.94-0.826c-1.649,2.323-2.888,7.581-3.713,13.252c-0.309-0.154-0.619-0.309-0.877-0.361 c-5.775-1.7-11.087,2.992-12.479,10.521c-0.249,1.381-0.355,2.702-0.339,3.934c-1.414,3.38-3.899,6.098-5.486,5.76 c-1.599-0.361-1.29-4.536-0.155-9.28c1.703-7.221,1.031-11.188-1.185-11.809c-2.632-0.619-6.963,2.114-10.521,8.146 c1.032-6.238,2.166-7.115,2.166-7.115s-3.197-3.558-6.651-1.236c-2.678,1.785-2.973,7.112-2.965,15.571 c-1.308,3.362-3.286,6.061-4.819,5.725c-1.547-0.309-1.65-4.641-0.826-9.28c1.135-6.035,3.147-10.107,3.147-10.107 c-2.115-2.166-5.002-2.321-6.911,0.568c-0.567-0.672-1.29-1.136-2.114-1.395c-5.724-1.7-11.085,2.991-12.479,10.52 c-0.223,1.236-0.329,2.426-0.338,3.545c-1.373,3.587-3.838,6.962-5.436,6.614c-1.548-0.31-1.238-5.622,2.371-15.161 c1.649-4.383,1.394-5.053-6.601-4.383c-4.796,0.361-6.651-1.857-6.651-1.857s-0.206,0-0.361,0.155 c-1.238,1.702-0.825,4.486,1.032,6.137c-0.416,2.563-1.183,5.567-2.187,8.139c-0.009,0.003-0.02,0.005-0.03,0.009h-0.051 c-0.273,0.759-0.585,1.513-0.916,2.23c-0.203,0.396-0.415,0.773-0.632,1.12c0,0,0.006,0.039,0.036,0.081 c-1.174,2.195-2.528,3.773-3.645,3.528c-1.548-0.309,0.052-5.618,3.66-15.157c1.651-4.384,1.394-5.055-6.548-4.384 c-4.847,0.309-6.704-1.858-6.704-1.858s-0.204,0-0.361,0.155c-1.236,1.755-0.721,4.642,1.29,6.344 c-0.051,0.154-0.103,0.31-0.103,0.412c-1.135,7.373-5.466,15.417-10.88,14.593c-1.959-0.259-3.3-2.063-4.021-4.332 c12.582-6.445,15.469-15.314,6.445-17.067c-6.652-1.187-12.014,3.764-13.407,11.138c-0.25,1.332-0.301,2.579-0.201,3.733 c-1.349,3.495-3.382,6.55-4.902,5.961c-1.444-0.516-0.981-9.125-0.104-14.128c2.371-13.717,6.342-18.151,6.342-18.151 s-4.589-5.466-7.992-0.827c-2.114,3.095-3.919,11.707-4.744,19.338c-0.267,2.567-0.343,5.323-0.168,7.852 c-1.349,3.477-3.371,6.502-4.884,5.916c-1.446-0.517-0.981-9.127-0.104-14.129c2.371-13.717,6.342-18.152,6.342-18.152 s-4.589-5.465-7.992-0.825c-2.114,3.094-3.919,11.706-4.745,19.337c-0.263,2.534-0.339,5.25-0.174,7.751 c-1.472,3.802-5.125,7.421-9.776,6.48c-1.548-0.309-2.888-1.96-3.712-3.971c13.046-6.446,15.16-15.572,6.085-17.273 c-6.651-1.188-12.015,3.762-13.459,11.085c-0.224,1.221-0.258,2.376-0.149,3.463c-1.347,3.605-3.443,6.836-4.954,6.231 c-1.445-0.516-0.981-8.715-0.207-13.717c0.516-3.453,1.032-6.031,1.651-8.25c2.423,0.36,4.795,0.567,6.188-0.361 c3.042-2.062,1.187-6.084,1.187-6.084c-2.271,0.877-3.765,1.703-5.931,2.063c0.981-2.475,1.856-3.505,1.856-3.505 s-3.146-3.405-7.013,0.206c-0.826,0.723-1.496,1.858-2.011,3.352l-0.67-0.052c-3.507-0.413-4.59,2.424-2.837,4.073 c0,0,0.774-0.259,2.424-0.31c-0.568,2.631-0.98,5.621-1.29,8.817c-0.772,6.961,0.051,15.313,3.406,16.758 c3.105,1.364,6.811-1.866,8.925-6.204c1.462,3.747,4.698,6.188,7.315,6.669c6.342,1.101,11.101-2.424,13.385-6.078 c0.524,2.8,1.487,4.945,3.013,5.613c2.96,1.282,6.414-1.491,8.574-5.427c0.532,2.709,1.485,4.775,2.976,5.427 c3.082,1.333,6.695-1.722,8.831-5.91c1.341,3.563,4.332,5.803,7.258,6.375c7.992,1.6,14.438-5.879,16.706-16.655v-0.103 c0.62,0.103,1.342,0.155,2.114,0.051l0.413-0.051c-3.147,9.227-3.352,15.726,0.465,16.757c3.622,0.917,6.794-2.163,8.832-6.337 c0.118-0.145,0.234-0.316,0.344-0.521c1.703-3.194,3.043-6.701,3.919-9.898c0.671,0.155,1.445,0.207,2.32,0.104l0.465-0.104 c-3.196,9.229-2.115,15.727,1.804,16.758c3.451,0.885,6.822-1.949,8.981-5.895c0.806,3.3,2.774,5.363,5.457,5.173 c3.712-0.259,5.62-3.971,6.702-7.013c0.155,3.919,1.187,6.601,3.765,7.271c3.182,0.806,6.011-1.193,8.035-4.464l0.009,1.577 c0,1.752,0.206,2.475,0.206,2.475c3.764,1.444,5.259,0,6.496-9.692c3.146-7.581,5.157-9.593,6.136-9.335 c1.032,0.206,1.445,2.064-0.206,8.199c-1.855,6.962,0.31,11.396,3.868,11.859c2.933,0.394,6.49-2.115,8.699-5.938 c0.823,3.235,2.778,5.251,5.429,5.061c3.661-0.257,5.62-3.97,6.651-7.012c0.207,3.92,1.237,6.601,3.816,7.271 c4.021,1.031,7.579-2.526,9.487-7.477c0.668-1.65-0.156-2.321-1.084-2.012 M83.824,66.95c0.928-3.558,3.093-8.766,5.208-8.146 c1.804,0.517,0.877,9.076-5.157,13.304C83.515,70.354,83.463,68.549,83.824,66.95 M127.959,66.898 c0.981-3.56,3.146-8.716,5.209-8.148c1.803,0.516,0.516,8.199-5.519,12.324C127.547,69.682,127.65,68.187,127.959,66.898 M188.34,63.235c-0.309,1.805-0.567,3.559-0.67,5.156c-1.703,5.981-3.816,8.354-5.209,7.992c-1.649-0.464-1.444-5.516-0.412-9.435 c0.929-3.559,2.786-7.374,5.312-7.22c0.672,0.053,1.186,0.258,1.649,0.67c-0.31,0.827-0.516,1.754-0.671,2.838 M236.706,68.753 c-1.703,5.725-3.816,7.994-5.158,7.633c-1.649-0.466-1.394-5.518-0.361-9.437c0.929-3.558,2.786-7.374,5.312-7.219 c0.361,0.052,0.671,0.104,0.981,0.206c-0.413,3.095-0.671,6.087-0.774,8.818"/></svg>