<?xml version="1.0" encoding="utf-8"?><!DOCTYPE svg PUBLIC "-//W3C//DTD SVG 1.1//EN" "http://www.w3.org/Graphics/SVG/1.1/DTD/svg11.dtd"><svg xmlns="http://www.w3.org/2000/svg" width="420.864" height="86" viewBox="0 0 420.864 86"><path fill="#FAE501" d="M26.07,59.932c-4.57-4.3-7.257-10.213-7.257-16.932S21.5,30.368,25.8,26.069 c3.762-3.764,3.762-9.675,0-13.438c-3.762-3.764-9.675-3.764-13.437,0C4.837,20.425,0,31.176,0,43 c0,11.826,4.837,22.576,12.632,30.368c3.763,3.764,9.674,3.764,13.438,0C29.563,69.608,29.563,63.694,26.07,59.932z"/><path fill="#4FB5E1" d="M26.07,26.069c4.298-4.568,10.212-7.257,16.93-7.257c6.719,0,12.632,2.688,16.931,6.988 c3.764,3.763,9.675,3.763,13.438,0c3.763-3.763,3.763-9.676,0-13.438C65.575,4.837,54.825,0,43,0 C31.175,0,20.426,4.837,12.632,12.632c-3.764,3.763-3.764,9.674,0,13.438C16.395,29.563,22.306,29.563,26.07,26.069z"/><path fill="#F05751" d="M59.931,59.932C55.632,64.501,49.719,67.188,43,67.188c-6.718,0-12.632-2.687-16.93-6.985 c-3.764-3.764-9.675-3.764-13.438,0c-3.764,3.76-3.764,9.674,0,13.437C20.426,81.164,31.175,86,43,86 c11.825,0,22.575-4.836,30.369-12.632c3.763-3.76,3.763-9.674,0-13.437C69.606,56.438,63.695,56.438,59.931,59.932z"/><circle fill="#0681B6" cx="19.351" cy="19.351" r="9.406"/><path fill="#CD4739" d="M19.351,57.243c5.194,0,9.406,4.214,9.406,9.406c0,5.194-4.212,9.407-9.406,9.407 c-5.195,0-9.406-4.213-9.406-9.407C9.944,61.457,14.155,57.243,19.351,57.243z"/><path fill="#2A3039" d="M115.563,51.869c2.687-2.15,3.226-0.807,5.375,1.344c1.074,1.075,4.3,3.226,2.148,4.837 c-4.298,3.496-8.063,5.107-13.704,5.107c-12.363,0-21.232-9.406-20.694-21.501c0.269-5.644,2.418-10.75,6.718-14.243 c4.032-3.226,8.869-4.838,13.977-4.569c2.687,0,4.837,0.537,7.255,1.344c1.612,0.539,3.226,1.344,4.57,2.418 c2.687,2.151,1.344,3.226-0.538,5.376c-0.538,0.538-0.807,1.074-1.344,1.343c-1.076,1.076-1.881,1.883-3.225,0.808 c-2.688-1.882-6.451-2.956-9.676-2.15c-10.75,2.687-10.213,21.77,2.957,21.77C111.532,54.018,113.95,53.213,115.563,51.869z M414.146,62.351c-1.879,0-3.224-1.344-3.224-3.226V16.931c0-1.88,1.345-3.224,3.224-3.224h3.496c1.879,0,3.223,1.344,3.223,3.224 v42.194c0,1.882-1.344,3.226-3.223,3.226H414.146z M395.604,57.514c-3.764,3.493-7.524,5.375-12.899,5.375 c-11.021,0-16.126-9.138-16.126-19.082V26.605c0-1.879,1.344-3.225,3.224-3.225h3.496c1.878,0,3.223,1.346,3.223,3.225v17.201 c0,5.645,2.958,9.944,9.139,9.944c5.912,0,9.674-5.107,9.674-10.481V26.605c0-1.879,1.344-3.225,3.226-3.225h3.493 c1.882,0,3.226,1.346,3.226,3.225v32.52c0,1.882-1.344,3.226-3.226,3.226h-2.955c-1.882,0-2.955-1.614-3.226-3.226L395.604,57.514 L395.604,57.514z M353.677,23.649h6.719c1.881,0,3.226,1.612,3.226,3.226v2.149c0,1.882-1.345,3.226-3.226,3.226h-6.719v26.875 c0,1.882-1.344,3.226-3.224,3.226h-3.496c-1.879,0-3.223-1.344-3.223-3.226V22.306c0-8.063,4.566-14.512,12.899-15.318h5.105 c1.882,0,3.226,1.613,3.226,3.224v2.151c0,1.88-1.344,3.224-3.226,3.224h-2.688c-4.03,0-5.643,2.957-5.643,6.718v1.344H353.677z M329.221,23.649h7.524c1.882,0,3.226,1.344,3.226,3.226v2.149c0,1.882-1.344,3.226-3.226,3.226h-7.524v16.394 c0,3.226,1.611,4.839,4.837,4.839h1.614c1.88,0,3.223,1.344,3.223,3.224v2.419c0,1.882-1.343,3.226-3.223,3.226h-4.569 c-8.063-0.537-11.556-5.645-11.556-13.707V16.931c0-1.88,1.344-3.224,3.223-3.224h3.496c1.88,0,3.224,1.344,3.224,3.224v6.719 H329.221z M221.452,23.649h7.525c1.881,0,3.226,1.344,3.226,3.226v2.149c0,1.882-1.345,3.226-3.226,3.226h-7.525v16.394 c0,3.226,1.611,5.107,4.837,5.107h1.611c1.883,0,3.226,1.344,3.226,3.226v2.148c0,1.882-1.343,3.226-3.226,3.226h-2.148 c-8.869,0-13.977-3.763-13.977-13.707V16.931c0-1.88,1.344-3.224,3.226-3.224h3.494c1.882,0,3.226,1.344,3.226,3.224v6.719H221.452 L221.452,23.649z M177.645,28.219c3.493-3.492,7.525-5.375,12.363-5.375c11.019,0,16.662,8.868,16.662,19.082v17.199 c0,1.882-1.344,3.226-3.225,3.226h-3.494c-1.88,0-3.224-1.344-3.224-3.226V41.926c0-5.645-2.958-9.944-9.14-9.944 c-5.911,0-9.674,4.838-9.674,10.481v16.662c0,1.882-1.344,3.226-3.226,3.226h-3.493c-1.881,0-3.226-1.344-3.226-3.226v-32.52 c0-1.879,1.345-3.225,3.226-3.225h2.956c1.881,0,2.956,1.612,3.226,3.225L177.645,28.219z M285.683,28.219 c3.493-3.492,7.524-5.375,12.364-5.375c11.019,0,16.66,8.868,16.66,19.082v17.199c0,1.882-1.344,3.226-3.223,3.226h-3.496 c-1.879,0-3.224-1.344-3.224-3.226V41.926c0-5.645-2.957-9.944-9.138-9.944c-5.913,0-9.674,4.838-9.674,10.481v16.662 c0,1.882-1.344,3.226-3.226,3.226h-3.494c-1.882,0-3.226-1.344-3.226-3.226v-32.52c0-1.879,1.344-3.225,3.226-3.225h2.955 c1.883,0,2.956,1.612,3.226,3.225L285.683,28.219L285.683,28.219z M144.588,22.575c-11.825,0-20.156,8.601-20.156,20.425 c0,11.826,8.331,20.424,20.156,20.424c12.094,0,20.425-8.329,20.425-20.424C165.013,31.176,156.414,22.575,144.588,22.575z M242.953,46.493c0.805,5.376,6.181,7.795,11.285,7.795c2.419,0,5.107-0.537,7.257-1.614c0.27-0.268,0.806-0.268,1.076-0.534 c1.344-0.81,2.417-1.077,3.492,0l1.882,1.878l1.612,1.614c1.613,2.149,0.538,2.688-1.344,3.762 c-4.031,2.687-9.136,4.03-13.976,4.03c-12.899,0-21.5-7.792-21.5-20.693c0-12.362,8.601-20.425,20.693-20.425 c12.632,0,19.619,7.258,19.89,19.89c0,3.493,0.268,4.568-3.226,4.568h-27.143V46.493z M144.588,31.712 c6.182,0,10.214,5.375,10.214,11.288c0,6.181-3.763,11.018-10.214,11.018c-6.45,0-10.213-4.837-10.213-11.018 S138.407,31.712,144.588,31.712L144.588,31.712z M243.221,38.163h20.156c-0.806-5.107-4.837-6.987-9.675-6.987 C248.595,31.176,244.564,33.594,243.221,38.163z"/></svg>