<?xml version="1.0" encoding="utf-8"?><!DOCTYPE svg PUBLIC "-//W3C//DTD SVG 1.1//EN" "http://www.w3.org/Graphics/SVG/1.1/DTD/svg11.dtd"><svg xmlns="http://www.w3.org/2000/svg" width="300" height="148.094" viewBox="362.363 193.301 300 148.094"><path fill="#F9A51A" d="M374.937,341.277c-8.369,0-12.574-4.676-12.574-13.909c0-9.273,4.205-13.909,12.574-13.909 c3.026,0,5.854,0.55,8.487,1.689v2.828c-2.593-1.179-5.344-1.768-8.173-1.768c-3.418,0-5.933,0.903-7.544,2.711 c-1.611,1.769-2.436,4.637-2.436,8.448c0,3.851,0.825,6.68,2.436,8.447c1.611,1.769,4.126,2.634,7.544,2.634 c2.161,0,4.244-0.314,6.208-0.943v-8.487h-6.483v-2.829h9.43v12.967C381.499,340.609,378.316,341.277,374.937,341.277 L374.937,341.277z M388.061,331.101c0-0.04,0-0.079,0-0.118c0-0.079,0-0.118,0-0.197c0-6.954,2.986-10.451,8.88-10.451 c1.218,0,2.397,0.235,3.379,0.589c1.021,0.394,1.768,0.864,2.397,1.376c0.589,0.55,1.1,1.218,1.571,2.121 c0.472,0.825,0.786,1.572,0.943,2.161c0.197,0.59,0.354,1.336,0.472,2.161c0.079,0.825,0.118,1.375,0.118,1.571v0.865l-0.04,1.454 h-14.774c0.196,2.004,0.825,3.536,1.886,4.439c1.061,0.904,2.594,1.376,4.715,1.376c2.908,0,5.265-0.511,6.955-1.493v3.025 c-1.964,0.903-4.283,1.414-7.072,1.414c-0.04,0-0.079,0-0.157,0c-1.179,0-2.279-0.118-3.261-0.472 c-1.022-0.274-1.965-0.785-2.908-1.453s-1.69-1.729-2.24-3.144C388.336,334.793,388.061,333.104,388.061,331.101L388.061,331.101z M391.008,329.96h11.906c0-0.471-0.04-1.021-0.118-1.571c-0.118-0.589-0.354-1.336-0.668-2.2c-0.354-0.864-0.943-1.65-1.847-2.24 c-0.904-0.589-1.964-0.864-3.3-0.864c-2.004,0-3.458,0.511-4.401,1.571C391.637,325.717,391.125,327.446,391.008,329.96 L391.008,329.96z M408.179,326.15c0-1.611,0.589-2.986,1.768-4.126s2.986-1.729,5.422-1.729c1.689,0,3.418,0.393,5.187,1.218v2.946 c-1.571-0.903-3.143-1.375-4.911-1.375c-3.026,0-4.558,1.021-4.558,3.065c0,0.746,0.354,1.296,1.1,1.729 c0.786,0.393,1.689,0.786,2.75,1.061c1.061,0.275,2.161,0.629,3.183,1.062c1.1,0.354,1.965,1.061,2.75,2.004 c0.747,0.943,1.101,2.161,1.101,3.614c0,1.769-0.629,3.144-1.965,4.165c-1.336,1.022-3.104,1.493-5.422,1.493 c-2.24,0-4.283-0.511-6.13-1.571v-3.104c1.925,1.219,3.93,1.848,5.973,1.848c3.065,0,4.637-0.943,4.637-2.83 c0-1.021-0.354-1.768-1.101-2.396c-0.747-0.55-1.65-0.942-2.75-1.297c-1.061-0.274-2.161-0.589-3.183-0.903 c-1.061-0.314-1.964-0.904-2.711-1.689C408.571,328.546,408.179,327.486,408.179,326.15L408.179,326.15z M424.721,332.436v-11.748 h2.908v11.905c0,2.044,0.393,3.576,1.335,4.52c0.904,0.942,2.318,1.414,4.205,1.414c1.925,0,3.3-0.472,4.204-1.414 c0.904-0.943,1.375-2.476,1.375-4.52v-11.905h2.908v11.748c0,2.829-0.747,4.99-2.201,6.523c-1.493,1.571-3.576,2.317-6.326,2.317 c-2.711,0-4.793-0.785-6.248-2.317C425.467,337.387,424.721,335.265,424.721,332.436L424.721,332.436z M446.057,340.962v-18.663 c2.632-1.336,5.5-2.004,8.565-2.004c2.554,0,4.519,0.628,5.933,1.964c1.415,1.297,2.122,3.104,2.122,5.501v13.202h-2.908V327.76 c0-0.589-0.04-1.1-0.196-1.493c-0.079-0.471-0.314-0.903-0.668-1.453c-0.314-0.512-0.904-0.865-1.65-1.14 c-0.786-0.275-1.729-0.394-2.908-0.394c-1.689,0-3.458,0.275-5.305,0.825v16.936h-2.986V340.962L446.057,340.962z M466.135,330.55 c0-2.004,0.275-3.693,0.825-5.107c0.511-1.415,1.297-2.477,2.24-3.144c0.943-0.747,1.925-1.18,2.908-1.493 c1.021-0.275,2.122-0.394,3.301-0.394c1.768,0,3.418,0.275,5.029,0.786v-8.251h2.908v21.964c0,0.55-0.079,1.101-0.275,1.689 c-0.157,0.551-0.472,1.219-0.943,2.004c-0.511,0.825-1.376,1.454-2.594,1.926c-1.179,0.511-2.711,0.786-4.479,0.786 c-0.786,0-1.493-0.079-2.24-0.236c-0.667-0.118-1.493-0.393-2.318-0.864s-1.572-1.061-2.161-1.847 c-0.629-0.746-1.14-1.769-1.572-3.104C466.292,333.929,466.135,332.319,466.135,330.55L466.135,330.55z M469.043,330.55 c0,1.729,0.197,3.144,0.55,4.283c0.354,1.139,0.864,1.964,1.493,2.476c0.668,0.511,1.296,0.864,1.886,1.021 c0.589,0.196,1.297,0.274,2.043,0.274c3.576,0,5.383-1.179,5.383-3.575v-10.963c-1.65-0.668-3.339-1.021-5.029-1.021 c-2.24,0-3.851,0.589-4.833,1.769C469.554,326.031,469.043,327.956,469.043,330.55L469.043,330.55z M488.532,340.962v-27.976h2.908 v8.645c2.043-0.865,4.126-1.336,6.129-1.336c2.515,0,4.44,0.785,5.815,2.278c1.336,1.454,2.004,3.615,2.004,6.365v12.023h-2.907 v-12.023c0-3.811-1.729-5.697-5.226-5.697c-1.886,0-3.812,0.393-5.815,1.218v16.503H488.532L488.532,340.962z M508.493,331.101 c0-0.04,0-0.079,0-0.118c0-0.079,0-0.118,0-0.197c0-6.954,2.986-10.451,8.919-10.451c1.219,0,2.318,0.235,3.34,0.589 c1.021,0.394,1.847,0.864,2.437,1.376c0.589,0.55,1.1,1.218,1.572,2.121c0.471,0.825,0.746,1.572,0.942,2.161 c0.196,0.59,0.314,1.336,0.393,2.161c0.157,0.825,0.197,1.375,0.197,1.571v0.865l-0.079,1.454H511.44 c0.196,2.004,0.825,3.536,1.886,4.439c1.1,0.904,2.633,1.376,4.754,1.376c2.947,0,5.266-0.511,6.916-1.493v3.025 c-1.926,0.903-4.283,1.414-7.073,1.414c-0.039,0-0.078,0-0.078,0c-1.179,0-2.279-0.118-3.301-0.472 c-0.942-0.274-1.964-0.785-2.908-1.453c-0.943-0.668-1.689-1.729-2.24-3.144C508.768,334.793,508.493,333.104,508.493,331.101 L508.493,331.101z M511.44,329.96h11.945c0-0.471-0.039-1.021-0.196-1.571c-0.079-0.589-0.314-1.336-0.668-2.2 c-0.314-0.864-0.903-1.65-1.847-2.24c-0.864-0.589-1.965-0.864-3.262-0.864c-2.004,0-3.457,0.511-4.4,1.571 C512.108,325.717,511.558,327.446,511.44,329.96L511.44,329.96z M529.75,317.112v-3.261h3.184v3.261H529.75z M529.907,340.962 h2.908v-20.313h-2.908V340.962z M535.565,323.36v-2.711h3.536v-5.697h2.908v5.697h5.265v2.711h-5.265v12.338 c0,1.061,0.235,1.769,0.628,2.2c0.473,0.394,1.18,0.59,2.279,0.59c0.825,0,1.611-0.118,2.318-0.472v2.75 c-0.864,0.314-1.729,0.511-2.593,0.511c0,0-0.039,0-0.079,0c-0.55,0-1.061-0.078-1.571-0.196c-0.551-0.118-1.101-0.354-1.769-0.668 c-0.629-0.354-1.14-0.942-1.571-1.768c-0.394-0.825-0.59-1.887-0.59-3.065v-12.22H535.565L535.565,323.36z M549.594,326.15 c0-1.611,0.589-2.986,1.729-4.126c1.179-1.14,3.025-1.729,5.422-1.729c1.729,0,3.458,0.393,5.226,1.218v2.946 c-1.571-0.903-3.183-1.375-4.911-1.375c-3.064,0-4.558,1.021-4.558,3.065c0,0.746,0.354,1.296,1.1,1.729 c0.747,0.393,1.65,0.786,2.712,1.061c1.1,0.275,2.161,0.629,3.261,1.062c1.062,0.354,1.965,1.061,2.712,2.004 c0.785,0.943,1.139,2.161,1.139,3.614c0,1.769-0.668,3.144-1.964,4.165c-1.337,1.022-3.144,1.493-5.501,1.493 c-2.24,0-4.283-0.511-6.13-1.571v-3.104c1.965,1.219,3.929,1.848,6.051,1.848c3.064,0,4.598-0.943,4.598-2.83 c0-1.021-0.354-1.768-1.14-2.396c-0.747-0.55-1.65-0.942-2.711-1.297c-1.062-0.274-2.162-0.589-3.184-0.903 c-1.1-0.314-2.004-0.904-2.75-1.689C549.986,328.546,549.594,327.486,549.594,326.15L549.594,326.15z"/><path fill="#B0063A" d="M567.943 333.261c-.512-1.689-.786-3.654-.786-5.854 0-2.239.274-4.204.786-5.854.511-1.689 1.179-3.025 2.004-4.008.785-1.021 1.768-1.847 2.907-2.476 1.14-.589 2.279-1.061 3.379-1.218 1.101-.235 2.279-.314 3.536-.314 2.79 0 5.541.55 8.213 1.611v4.558c-2.555-1.179-5.147-1.769-7.78-1.769-1.218 0-2.279.079-3.104.314-.864.236-1.729.629-2.554 1.297-.825.59-1.454 1.611-1.886 2.868-.472 1.336-.629 3.026-.629 5.029 0 2.004.196 3.655.629 4.99.393 1.336 1.061 2.318 1.886 2.908.825.628 1.689 1.061 2.554 1.296.825.197 1.887.314 3.104.314 2.594 0 5.226-.589 7.78-1.768v4.519c-2.712 1.101-5.423 1.65-8.213 1.65-1.218 0-2.436-.118-3.536-.314-1.1-.235-2.239-.629-3.379-1.297-1.14-.629-2.161-1.414-2.907-2.436C569.122 336.247 568.454 334.95 567.943 333.261L567.943 333.261zM591.99 340.962v-28.015h4.872v28.015H591.99zM603.109 338.605c-1.649-1.847-2.475-4.4-2.475-7.779 0-3.34.825-5.894 2.475-7.741 1.65-1.768 4.009-2.711 7.151-2.711 3.065 0 5.423.903 7.073 2.711 1.65 1.848 2.476 4.401 2.476 7.741 0 3.379-.825 5.933-2.476 7.779-1.65 1.769-4.008 2.712-7.073 2.712C607.118 341.277 604.76 340.373 603.109 338.605L603.109 338.605zM606.686 325.756c-.786.865-1.179 2.594-1.179 5.108s.393 4.204 1.179 5.068 1.965 1.337 3.575 1.337c1.611 0 2.79-.473 3.537-1.337.785-.864 1.179-2.554 1.179-5.068s-.394-4.243-1.179-5.108c-.747-.864-1.926-1.336-3.537-1.336C608.65 324.42 607.432 324.892 606.686 325.756L606.686 325.756zM622.717 331.768v-11.119h4.833v11.748c0 1.611.314 2.79 1.021 3.458.668.746 1.729 1.1 3.262 1.1 1.571 0 2.632-.354 3.3-1.1.669-.668 1.021-1.886 1.021-3.458v-11.748h4.794v11.119c0 2.986-.785 5.305-2.357 6.994-1.649 1.65-3.89 2.515-6.758 2.515-2.869 0-5.108-.864-6.719-2.515C623.503 337.073 622.717 334.754 622.717 331.768L622.717 331.768zM644.682 330.589c0-3.3.825-5.854 2.436-7.583 1.651-1.769 3.93-2.633 6.994-2.633 1.062 0 2.201.079 3.34.314v-7.74h4.912v21.492c0 1.887-.668 3.458-2.122 4.833-1.414 1.336-3.575 2.004-6.444 2.004-.668 0-1.375-.039-2.004-.196-.707-.078-1.453-.354-2.317-.825-.904-.472-1.69-1.061-2.318-1.729-.668-.746-1.219-1.769-1.69-3.144C644.878 334.008 644.682 332.436 644.682 330.589L644.682 330.589zM649.554 330.314c0 2.397.314 4.126.943 5.188.589 1.1 1.689 1.611 3.261 1.611 2.476 0 3.654-.747 3.654-2.201v-10.373c-.903-.236-2.004-.314-3.183-.314-1.493 0-2.711.472-3.458 1.336C649.986 326.424 649.554 328.035 649.554 330.314L649.554 330.314zM463.621 222.809c-19.489.275-35.206 16.189-35.206 35.756 0 18.939 14.695 34.421 33.281 35.718l0 0 0 0c.825.039 1.65.078 2.515.078.825 0 1.69-.039 2.515-.078h49.391v-21.18c.04-1.218-.903-2.239-2.2-2.278H496.43c-2.161 0-3.89-1.729-3.89-3.891V242.81c0-2.162 1.729-3.89 3.89-3.89h17.603c.904 0 2.043-.904 2.043-2.122v-17.604c0-2.122 1.729-3.89 3.891-3.89h11.905c-5.383-12.888-18.153-22.003-33.006-22.003C481.263 193.301 466.607 206.032 463.621 222.809L463.621 222.809z"/><linearGradient id="fa" gradientUnits="userSpaceOnUse" x1="227.213" y1="134.588" x2="272.924" y2="179.616" gradientTransform="translate(227.715 74.868) scale(.9083)"><stop offset="0" stop-color="#f9a51a"/><stop offset="1" stop-color="#f9a51a" stop-opacity="0"/></linearGradient><path fill="url(#fa)" d="M524.878,215.304c-4.95-9.272-14.774-15.639-26.012-15.639c-14.263,0-26.483,10.256-28.998,24.244 l-0.904,5.147l-5.265,0.079c-16.031,0.236-28.958,13.359-28.958,29.391c0,15.442,11.945,28.291,27.19,29.352h0.196 c0.668,0.079,1.375,0.079,2.043,0.079s1.375,0,2.043-0.079h0.236h49.626v-14.813c0.039-1.218-0.903-2.239-2.2-2.278h-17.485 c-2.161,0-3.89-1.729-3.89-3.891V242.77c0-2.161,1.729-3.89,3.89-3.89h17.643c0.904,0,2.043-0.903,2.043-2.122v-17.603 c0-2.122,1.729-3.89,3.891-3.89L524.878,215.304L524.878,215.304z"/><path fill="#F9A51A" d="M586.961 213.89h11.709c.786 0 1.414.628 1.414 1.414v11.709c0 .786-.628 1.415-1.414 1.415h-11.709c-.786 0-1.376-.629-1.376-1.415v-11.709C585.624 214.519 586.214 213.89 586.961 213.89L586.961 213.89zM573.522 193.694h7.584c.511 0 .903.393.903.903v7.623c0 .511-.433.864-.903.864h-7.584c-.511 0-.904-.354-.904-.864v-7.623C572.618 194.087 573.051 193.694 573.522 193.694L573.522 193.694zM572.107 246.346H587c.943 0 1.729.825 1.729 1.768v14.853c0 .942-.785 1.768-1.729 1.768h-14.893c-.942 0-1.729-.825-1.729-1.768v-14.853C570.379 247.171 571.165 246.346 572.107 246.346L572.107 246.346zM547.629 215.304h19.018c1.218 0 2.279 1.061 2.279 2.279v19.018c0 1.297-1.062 2.279-2.279 2.279h-19.018c-1.297 0-2.279-1.021-2.279-2.279v-19.018C545.311 216.365 546.332 215.304 547.629 215.304L547.629 215.304zM547.629 270.865h19.018c1.218 0 2.279 1.021 2.279 2.239v19.018c0 1.297-1.062 2.279-2.279 2.279h-19.018c-1.297 0-2.279-1.021-2.279-2.279v-19.018C545.311 271.847 546.332 270.865 547.629 270.865L547.629 270.865z"/></svg>