<svg xmlns="http://www.w3.org/2000/svg" xmlns:xlink="http://www.w3.org/1999/xlink" width="300" height="578" viewBox="0 0 300 578"><svg width="200" height="200" viewBox="0 0 200 200" id="a11y" y="0"><g fill="#fff"><circle cx="100" cy="35.819" r="14.926"/><path d="M164.772 50.73c-.832-4.037-4.778-6.636-8.815-5.802l-55.957 11.537-55.957-11.537c-4.037-.835-7.983 1.765-8.815 5.802-.833 4.036 1.765 7.983 5.803 8.815l41.805 8.62v45.563l-11.782 56.387c-.843 4.034 1.743 7.988 5.778 8.831.515.107 1.028.159 1.535.159 3.458 0 6.562-2.419 7.297-5.938l12.015-57.498c.224-1.189 1.086-2.238 2.323-2.238 1.236 0 2.123 1.049 2.322 2.238l12.016 57.498c.734 3.519 3.837 5.938 7.296 5.938.506 0 1.021-.052 1.535-.159 4.034-.843 6.622-4.797 5.777-8.831l-11.782-56.391v-45.558l41.806-8.62c4.036-.832 6.632-4.779 5.8-8.816z"/></g></svg>
<svg width="54" height="96" viewBox="0 0 54 96" id="location" y="200"><path fill="#fff" d="M27 5c-14.843 0-26.875 12.032-26.875 26.875 0 26.875 26.875 59.125 26.875 59.125s26.875-32.25 26.875-59.125c0-14.843-12.029-26.875-26.875-26.875m0 43.001c-8.905 0-16.124-7.22-16.124-16.125 0-8.906 7.219-16.125 16.124-16.125 8.908 0 16.126 7.219 16.126 16.125 0 8.906-7.218 16.125-16.126 16.125"/></svg>
<svg width="300" height="80" viewBox="0 0 300 80" id="protak" y="296"><g fill-rule="evenodd" clip-rule="evenodd"><path fill="#E3F0FA" d="M9.073 43.964h290.927v11.869h-290.927"/><path fill="#96C7EB" d="M223.437 50.792c-1.682 2.177-3.703 3.846-6.075 5.032-2.359 1.186-4.889 1.773-7.587 1.773-4.159 0-7.405-1.082-9.765-3.246-2.36-2.164-3.533-5.163-3.533-8.97 0-4.185 1.264-7.327 3.781-9.425 2.516-2.099 7.092-3.572 13.714-4.407l.874-.117c5.527-.717 8.292-2.294 8.292-4.732 0-1.995-.691-3.455-2.06-4.406-1.382-.938-3.507-1.408-6.375-1.408-2.672 0-4.732.561-6.153 1.682-1.421 1.122-2.138 2.725-2.138 4.811v.3h-8.291v-.691c0-4.093 1.512-7.339 4.523-9.712 3.025-2.385 7.131-3.572 12.359-3.572 5.475 0 9.595 1.03 12.384 3.077 2.79 2.047 4.185 5.084 4.185 9.1v20.455c0 1.578.183 2.607.548 3.09.378.482 1.03.73 1.968.73l.6-.026c.209-.013.587-.039 1.122-.091v6.375c-.795.209-1.565.352-2.308.456-.756.104-1.473.157-2.164.157-2.647 0-4.602-.508-5.893-1.525-1.292-1.021-1.957-2.585-2.008-4.71m-.378-15.202c-1.838.952-4.746 1.708-8.748 2.294-1.447.235-2.517.404-3.208.535-2.034.378-3.559 1.095-4.55 2.125-.991 1.03-1.486 2.386-1.486 4.067 0 1.877.586 3.337 1.76 4.367 1.173 1.03 2.829 1.552 4.967 1.552 3.233 0 5.919-.913 8.057-2.751 2.138-1.838 3.208-4.172 3.208-7.027v-5.162zM250.667 0h8.592v31.849l16.192-16.805h10.664l-14.863 15.162 15.163 26.048h-10.156l-11.12-19.712-5.88 5.958v13.754h-8.592"/><path fill="#96C7EB" d="M33.448 47.248c-.829 0-1.533-.29-2.113-.87s-.87-1.284-.87-2.113.29-1.533.87-2.113 1.285-.87 2.113-.87 1.533.29 2.113.87c.58.58.87 1.285.87 2.113s-.29 1.533-.87 2.113c-.58.58-1.285.87-2.113.87m-10.442 0c-.828 0-1.533-.29-2.113-.87s-.87-1.284-.87-2.113.29-1.533.87-2.113 1.285-.87 2.113-.87c.829 0 1.533.29 2.113.87s.87 1.285.87 2.113-.29 1.533-.87 2.113-1.284.87-2.113.87zm0 31.323c-.464 0-.928-.148-1.392-.447-.464-.298-.845-.68-1.144-1.144-.298-.464-.447-.928-.447-1.392 0-.763.323-1.451.969-2.063.646-.613 1.318-.92 2.014-.92.763 0 1.45.307 2.063.92.613.613.92 1.301.92 2.063 0 .762-.315 1.441-.945 2.038-.595.63-1.275.945-2.038.945zm0-10.441c-.464 0-.928-.149-1.392-.448-.464-.298-.845-.68-1.144-1.144-.298-.464-.447-.928-.447-1.392 0-.763.323-1.45.969-2.063.646-.613 1.318-.92 2.014-.92.763 0 1.45.307 2.063.92.613.613.92 1.301.92 2.063s-.315 1.442-.945 2.039c-.595.63-1.275.945-2.038.945zm0-10.441c-.464 0-.928-.149-1.392-.447-.464-.298-.845-.68-1.144-1.144-.298-.464-.447-.928-.447-1.392 0-.762.315-1.45.945-2.063.629-.613 1.309-.92 2.038-.92.763 0 1.442.315 2.039.945.63.597.945 1.276.945 2.039s-.307 1.45-.92 2.063-1.301.919-2.064.919zM190.917 47.169c-.829 0-1.533-.29-2.113-.87-.58-.58-.871-1.285-.871-2.113s.291-1.533.871-2.113c.58-.58 1.284-.87 2.113-.87s1.533.29 2.113.87c.581.58.871 1.284.871 2.113s-.29 1.533-.871 2.113c-.58.58-1.285.87-2.113.87m-10.442 31.324c-.463 0-.928-.149-1.392-.448-.464-.298-.845-.679-1.144-1.144-.298-.464-.447-.928-.447-1.392 0-.762.323-1.45.969-2.063.646-.614 1.318-.92 2.013-.92.763 0 1.451.306 2.064.92.613.613.919 1.301.919 2.063 0 .762-.314 1.442-.944 2.039-.596.63-1.275.945-2.038.945zm0-10.442c-.463 0-.928-.149-1.392-.447-.464-.298-.845-.679-1.144-1.144-.298-.464-.447-.928-.447-1.392 0-.762.323-1.45.969-2.063.646-.613 1.318-.92 2.013-.92.763 0 1.451.307 2.064.92s.919 1.301.919 2.063-.314 1.442-.944 2.039c-.596.629-1.275.944-2.038.944zm10.442-10.441c-.464 0-.936-.149-1.417-.447-.48-.298-.862-.68-1.144-1.144s-.423-.928-.423-1.392c0-.763.315-1.442.945-2.039.597-.63 1.276-.945 2.039-.945.763 0 1.442.315 2.039.945.629.597.945 1.276.945 2.039 0 .729-.307 1.409-.92 2.038-.614.631-1.302.945-2.064.945zm-10.442 0c-.463 0-.928-.149-1.392-.447-.464-.298-.845-.68-1.144-1.144-.298-.464-.447-.928-.447-1.392 0-.763.314-1.45.944-2.063s1.309-.92 2.038-.92c.763 0 1.442.315 2.039.945.63.597.944 1.276.944 2.039 0 .762-.306 1.45-.919 2.063-.612.613-1.3.919-2.063.919zM292.583 47.209c-.829 0-1.533-.29-2.113-.871-.58-.58-.87-1.284-.87-2.113s.291-1.533.87-2.113c.581-.58 1.285-.87 2.113-.87s1.533.29 2.113.87c.58.58.87 1.285.87 2.113s-.291 1.533-.87 2.113c-.58.581-1.285.871-2.113.871m0 20.882c-.464 0-.928-.149-1.392-.448s-.845-.679-1.144-1.144c-.298-.464-.448-.928-.448-1.392 0-.762.323-1.45.97-2.063s1.317-.92 2.014-.92c.762 0 1.45.307 2.063.92s.92 1.301.92 2.063c0 .763-.315 1.442-.945 2.039-.597.63-1.276.945-2.038.945zM241.427 47.04c-.829 0-1.533-.29-2.114-.87-.58-.58-.87-1.285-.87-2.113s.29-1.533.87-2.113c.581-.58 1.285-.87 2.114-.87.828 0 1.533.29 2.113.87.58.58.87 1.284.87 2.113s-.29 1.533-.87 2.113c-.58.58-1.285.87-2.113.87"/><path fill="#96C7EB" d="M145.75 47.165c-.829 0-1.533-.29-2.113-.87-.58-.58-.87-1.284-.87-2.113s.291-1.533.87-2.113c.581-.58 1.285-.87 2.113-.87s1.533.29 2.113.87c.581.58.871 1.285.871 2.113s-.29 1.533-.871 2.113c-.581.58-1.285.87-2.113.87m0 20.882c-.464 0-.928-.149-1.392-.448-.464-.298-.845-.679-1.144-1.144-.298-.464-.448-.928-.448-1.392 0-.763.323-1.451.97-2.063.646-.613 1.318-.92 2.014-.92.763 0 1.45.307 2.063.92.613.613.92 1.301.92 2.063 0 .762-.315 1.441-.945 2.038-.597.631-1.276.946-2.038.946zm10.44-10.441c-.463 0-.936-.149-1.417-.448-.481-.298-.862-.68-1.144-1.144-.281-.464-.422-.928-.422-1.392 0-.763.315-1.442.945-2.039.597-.63 1.276-.944 2.038-.944s1.442.314 2.039.944c.63.597.945 1.276.945 2.039 0 .729-.307 1.409-.92 2.039s-1.301.945-2.064.945zM2.265 0h21.433c3.455 0 6.023.156 7.692.482 1.668.313 3.168.847 4.484 1.577 2.582 1.382 4.524 3.351 5.854 5.945 1.317 2.582 1.982 5.684 1.982 9.295 0 2.985-.548 5.645-1.643 8.004-1.095 2.347-2.686 4.302-4.771 5.854-1.434 1.056-3.103 1.799-5.006 2.255-1.917.457-4.55.691-7.913.691h-12.75v22.15h-9.36m9.358-48.118v17.756h12.15c3.781 0 6.492-.691 8.109-2.06 1.617-1.382 2.425-3.624 2.425-6.766 0-3.077-.808-5.332-2.412-6.779-1.604-1.434-4.133-2.151-7.587-2.151h-12.685zM82.191 14.158v9.009h-2.334c-3.507 0-6.153.887-7.913 2.659-1.773 1.76-2.66 4.419-2.66 7.966v22.462h-8.669v-41.21h8.213v7.249c1.199-2.751 2.75-4.811 4.654-6.167 1.916-1.369 4.159-2.047 6.766-2.047h.222c.613.053 1.187.079 1.721.079"/><path fill="#96C7EB" d="M115.146 13.702c6.323 0 11.277 1.942 14.875 5.84 3.611 3.898 5.41 9.269 5.41 16.126 0 6.845-1.786 12.216-5.371 16.101-3.572 3.885-8.526 5.828-14.836 5.828-6.336 0-11.303-1.93-14.875-5.802-3.585-3.872-5.371-9.256-5.371-16.126 0-6.883 1.786-12.254 5.345-16.14 3.572-3.885 8.513-5.827 14.823-5.827m.078 7.483c-3.638 0-6.44 1.251-8.396 3.742-1.969 2.503-2.946 6.075-2.946 10.742 0 4.667.978 8.226 2.92 10.703 1.942 2.464 4.758 3.703 8.422 3.703 3.637 0 6.427-1.238 8.356-3.703 1.942-2.477 2.907-6.036 2.907-10.703s-.965-8.239-2.907-10.742c-1.929-2.491-4.719-3.742-8.356-3.742zM147.748 0h43.96v8.252h-17.26v48.002h-9.322v-48.002h-17.378"/><path fill="#0078BF" d="M0 0h21.433c3.455 0 6.023.156 7.691.482 1.669.313 3.168.847 4.485 1.577 2.581 1.382 4.524 3.351 5.854 5.945 1.317 2.582 1.981 5.684 1.981 9.295 0 2.985-.547 5.645-1.643 8.004-1.095 2.347-2.686 4.302-4.771 5.854-1.434 1.056-3.103 1.799-5.006 2.255-1.917.457-4.55.691-7.914.691h-12.75v22.15h-9.36m9.36-48.118v17.756h12.15c3.781 0 6.492-.691 8.109-2.06 1.617-1.382 2.425-3.624 2.425-6.766 0-3.077-.808-5.332-2.412-6.779-1.604-1.434-4.133-2.151-7.588-2.151h-12.684zM79.926 14.158v9.009h-2.333c-3.507 0-6.153.887-7.913 2.659-1.773 1.76-2.66 4.419-2.66 7.966v22.462h-8.67v-41.21h8.213v7.249c1.2-2.751 2.751-4.811 4.654-6.167 1.917-1.369 4.159-2.047 6.766-2.047h.222c.613.053 1.187.079 1.721.079"/><path fill="#0078BF" d="M112.88 13.702c6.323 0 11.277 1.942 14.875 5.84 3.611 3.898 5.41 9.269 5.41 16.126 0 6.845-1.786 12.216-5.371 16.101-3.572 3.885-8.526 5.828-14.835 5.828-6.336 0-11.303-1.93-14.875-5.802-3.585-3.872-5.371-9.256-5.371-16.126 0-6.883 1.786-12.254 5.345-16.14 3.572-3.885 8.512-5.827 14.822-5.827m.079 7.483c-3.638 0-6.44 1.251-8.396 3.742-1.969 2.503-2.946 6.075-2.946 10.742 0 4.667.978 8.226 2.92 10.703 1.942 2.464 4.758 3.703 8.422 3.703 3.637 0 6.427-1.238 8.356-3.703 1.942-2.477 2.907-6.036 2.907-10.703s-.964-8.239-2.907-10.742c-1.929-2.491-4.719-3.742-8.356-3.742zM145.483 0h43.96v8.252h-17.261v48.002h-9.321v-48.002h-17.378"/><path fill="#1F1A17" d="M31.023 48.319c-.829 0-1.533-.29-2.113-.87-.58-.58-.87-1.284-.87-2.113s.29-1.533.87-2.113c.581-.58 1.285-.87 2.113-.87s1.533.29 2.113.87c.581.58.871 1.285.871 2.113s-.29 1.533-.871 2.113c-.58.58-1.284.87-2.113.87m-10.441 0c-.828 0-1.533-.29-2.113-.87s-.87-1.284-.87-2.113.29-1.533.87-2.113 1.285-.87 2.113-.87c.829 0 1.533.29 2.114.87.58.58.87 1.285.87 2.113s-.29 1.533-.87 2.113c-.581.58-1.285.87-2.114.87zm0 31.323c-.464 0-.928-.149-1.392-.447-.464-.298-.845-.68-1.144-1.144-.298-.464-.447-.928-.447-1.392 0-.763.323-1.45.97-2.064.646-.613 1.317-.919 2.013-.919.763 0 1.451.307 2.064.919.613.614.919 1.301.919 2.064 0 .762-.315 1.441-.944 2.038-.597.63-1.277.945-2.039.945zm0-10.441c-.464 0-.928-.149-1.392-.448-.464-.298-.845-.679-1.144-1.144-.298-.464-.447-.928-.447-1.392 0-.762.323-1.45.97-2.063.646-.613 1.317-.92 2.013-.92.763 0 1.451.307 2.064.92s.919 1.301.919 2.063c0 .763-.315 1.442-.944 2.039-.597.63-1.277.945-2.039.945zm0-10.441c-.464 0-.928-.149-1.392-.447-.464-.298-.845-.68-1.144-1.144-.298-.464-.447-.928-.447-1.392 0-.762.315-1.45.945-2.063.629-.613 1.309-.92 2.038-.92.763 0 1.442.315 2.039.945.629.597.944 1.276.944 2.039s-.307 1.45-.919 2.063c-.614.613-1.302.919-2.064.919zM188.492 48.24c-.829 0-1.533-.29-2.113-.87s-.87-1.285-.87-2.113.29-1.533.87-2.113 1.284-.87 2.113-.87 1.533.29 2.113.87.87 1.284.87 2.113-.29 1.533-.87 2.113-1.284.87-2.113.87m-10.441 31.323c-.464 0-.928-.149-1.392-.448-.464-.298-.845-.679-1.143-1.144-.299-.464-.448-.928-.448-1.392 0-.762.323-1.451.969-2.063.646-.614 1.318-.92 2.014-.92.763 0 1.45.306 2.063.92.613.613.919 1.301.919 2.063 0 .762-.314 1.441-.944 2.038-.596.632-1.276.946-2.038.946zm0-10.44c-.464 0-.928-.149-1.392-.448-.464-.298-.845-.679-1.143-1.144-.299-.464-.448-.928-.448-1.392 0-.762.323-1.45.969-2.063.646-.613 1.318-.92 2.014-.92.763 0 1.45.307 2.063.92s.919 1.301.919 2.063-.314 1.442-.944 2.039c-.596.629-1.276.945-2.038.945zm10.441-10.442c-.464 0-.936-.149-1.417-.447-.48-.298-.861-.68-1.144-1.144-.282-.464-.422-.928-.422-1.392 0-.763.315-1.442.944-2.039.597-.63 1.276-.945 2.039-.945.763 0 1.442.315 2.039.945.63.597.944 1.276.944 2.039 0 .729-.307 1.409-.919 2.039-.614.63-1.302.944-2.064.944zm-10.441 0c-.464 0-.928-.149-1.392-.447-.464-.298-.845-.68-1.143-1.144-.299-.464-.448-.928-.448-1.392 0-.763.314-1.45.944-2.063s1.31-.92 2.039-.92c.763 0 1.442.315 2.039.945.63.597.944 1.276.944 2.039 0 .762-.306 1.45-.919 2.063-.614.613-1.302.919-2.064.919zM290.158 48.28c-.829 0-1.533-.29-2.113-.871-.58-.58-.871-1.284-.871-2.113s.291-1.533.871-2.113c.58-.581 1.284-.871 2.113-.871s1.533.29 2.113.871c.58.58.87 1.284.87 2.113s-.29 1.533-.87 2.113c-.58.581-1.285.871-2.113.871m0 20.882c-.464 0-.928-.149-1.392-.448-.464-.298-.845-.679-1.144-1.144-.298-.464-.448-.928-.448-1.392 0-.762.323-1.45.97-2.063s1.317-.92 2.014-.92c.763 0 1.45.307 2.063.92s.92 1.301.92 2.063c0 .763-.315 1.442-.945 2.039-.596.63-1.276.945-2.038.945zM239.002 48.11c-.829 0-1.533-.29-2.113-.87s-.87-1.285-.87-2.113.29-1.533.87-2.113 1.285-.87 2.113-.87 1.533.29 2.113.87.871 1.284.871 2.113-.291 1.533-.871 2.113-1.284.87-2.113.87"/><path fill="#1F1A17" d="M143.325 48.236c-.829 0-1.533-.29-2.113-.87s-.87-1.285-.87-2.113.29-1.533.87-2.113c.58-.58 1.284-.87 2.113-.87s1.533.29 2.113.87c.58.58.87 1.284.87 2.113s-.29 1.533-.87 2.113-1.284.87-2.113.87m0 20.882c-.464 0-.928-.149-1.392-.447-.464-.298-.845-.68-1.144-1.144s-.447-.928-.447-1.392c0-.763.323-1.45.969-2.063.646-.613 1.318-.92 2.014-.92.763 0 1.45.307 2.063.92s.92 1.301.92 2.063c0 .762-.315 1.442-.944 2.038-.597.63-1.277.945-2.039.945zm10.441-10.441c-.463 0-.936-.149-1.417-.447-.48-.299-.862-.68-1.144-1.144-.281-.464-.422-.928-.422-1.393 0-.762.315-1.442.945-2.038.597-.63 1.276-.945 2.038-.945.763 0 1.442.315 2.039.945.63.596.944 1.276.944 2.038 0 .729-.307 1.409-.919 2.039-.614.63-1.302.945-2.064.945z"/><path fill="#0078BF" d="M221.171 50.792c-1.682 2.177-3.703 3.846-6.075 5.032-2.359 1.186-4.889 1.773-7.587 1.773-4.159 0-7.405-1.082-9.765-3.246s-3.533-5.163-3.533-8.97c0-4.185 1.264-7.327 3.78-9.425 2.517-2.099 7.092-3.572 13.715-4.407l.874-.117c5.527-.717 8.292-2.294 8.292-4.732 0-1.995-.691-3.455-2.06-4.406-1.381-.938-3.507-1.408-6.375-1.408-2.672 0-4.732.561-6.153 1.682-1.421 1.122-2.138 2.725-2.138 4.811v.3h-8.292v-.691c0-4.093 1.512-7.339 4.524-9.712 3.024-2.385 7.131-3.572 12.359-3.572 5.475 0 9.595 1.03 12.384 3.077 2.79 2.047 4.186 5.084 4.186 9.1v20.455c0 1.578.182 2.607.547 3.09.378.482 1.03.73 1.968.73l.6-.026c.209-.013.587-.039 1.122-.091v6.375c-.795.209-1.564.352-2.308.456-.756.104-1.473.157-2.164.157-2.647 0-4.603-.508-5.893-1.525-1.291-1.021-1.955-2.585-2.008-4.71m-.378-15.202c-1.838.952-4.746 1.708-8.748 2.294-1.447.235-2.516.404-3.207.535-2.034.378-3.559 1.095-4.55 2.125s-1.486 2.386-1.486 4.067c0 1.877.587 3.337 1.76 4.367 1.173 1.03 2.83 1.552 4.967 1.552 3.233 0 5.919-.913 8.057-2.751 2.138-1.838 3.208-4.172 3.208-7.027v-5.162zM248.403 0h8.591v31.849l16.192-16.805h10.664l-14.862 15.162 15.161 26.048h-10.155l-11.121-19.712-5.879 5.958v13.754h-8.591"/><path fill="#96C7EB" d="M81.23 47.124c-.829 0-1.533-.29-2.113-.87-.58-.58-.87-1.285-.87-2.113s.291-1.533.87-2.113c.58-.58 1.285-.87 2.113-.87s1.533.29 2.113.87.87 1.284.87 2.113-.29 1.533-.87 2.113-1.284.87-2.113.87m0 20.882c-.464 0-.928-.149-1.392-.447-.464-.298-.845-.68-1.144-1.144s-.448-.928-.448-1.392c0-.763.323-1.45.97-2.063.646-.613 1.317-.92 2.014-.92.762 0 1.45.307 2.063.92.613.613.919 1.301.919 2.063 0 .762-.315 1.442-.944 2.039-.596.629-1.276.944-2.038.944zm10.441-10.441c-.464 0-.937-.149-1.417-.447s-.862-.68-1.144-1.144c-.282-.464-.422-.928-.422-1.392 0-.762.314-1.441.944-2.038.597-.63 1.276-.945 2.039-.945s1.442.315 2.039.945c.63.597.944 1.276.944 2.038 0 .729-.306 1.409-.919 2.039-.614.629-1.302.944-2.064.944zm-10.441 0c-.464 0-.928-.149-1.392-.447-.464-.298-.845-.68-1.144-1.144-.298-.464-.448-.928-.448-1.392 0-.762.315-1.45.945-2.063s1.309-.92 2.039-.92c.762 0 1.442.315 2.039.945.629.597.944 1.276.944 2.038 0 .763-.307 1.451-.919 2.063-.614.613-1.302.92-2.064.92z"/><path fill="#1F1A17" d="M78.408 48.195c-.829 0-1.533-.29-2.113-.87s-.87-1.285-.87-2.113.29-1.533.87-2.113 1.284-.87 2.113-.87 1.533.29 2.113.87.87 1.284.87 2.113-.29 1.533-.87 2.113-1.284.87-2.113.87m0 20.882c-.464 0-.928-.149-1.392-.448s-.845-.68-1.144-1.144-.447-.928-.447-1.392c0-.763.323-1.45.97-2.063.646-.613 1.317-.92 2.013-.92.763 0 1.45.307 2.063.92s.92 1.301.92 2.063c0 .762-.315 1.442-.945 2.039-.596.63-1.275.945-2.038.945zm10.442-10.441c-.464 0-.937-.149-1.417-.447-.48-.298-.861-.68-1.144-1.144-.281-.464-.422-.928-.422-1.393 0-.762.315-1.441.945-2.038.597-.63 1.276-.945 2.039-.945.762 0 1.441.315 2.038.945.63.597.945 1.276.945 2.038 0 .729-.307 1.409-.92 2.039-.614.63-1.302.945-2.064.945zm-10.442 0c-.464 0-.928-.149-1.392-.447s-.845-.68-1.144-1.144c-.298-.464-.447-.928-.447-1.393 0-.762.315-1.45.945-2.063.629-.613 1.309-.92 2.038-.92.763 0 1.442.315 2.039.945.63.597.945 1.276.945 2.038 0 .763-.307 1.451-.92 2.064-.614.613-1.301.92-2.064.92z"/></g></svg>
<svg width="300" height="71" viewBox="0 0 300 71" id="tollwerk" y="376"><g fill="#003565"><path d="M43.217 52.124c0 1.998.688 3.583 2.067 4.763 1.378 1.177 3.292 1.767 5.744 1.767 2.859 0 5.235-.98 7.124-2.94l2.528-2.63-2.298-2.167-1.227 1.225c-1.632 1.634-2.961 2.452-3.981 2.452-1.53 0-2.298-.842-2.298-2.528v-22.212h7.87v4.443h2.663l1.11-8.042h-30.409v3.6h11.107v22.269zm-43.217-16.969c0-.758.025-1.512.072-2.259l10.896-10.688c1.607-1.607 2.41-3.131 2.41-4.568 0-1.523-.802-3.087-2.41-4.695l-1.655-1.625c1.926-2.088 4.1-3.941 6.479-5.513l6.492 11.704-9.009 16.374 2.154 1.269 13.199-12.946c1.607-1.607 2.412-3.131 2.412-4.568 0-1.523-.805-3.087-2.412-4.695l-9.344-9.168c4.767-2.416 10.162-3.777 15.873-3.777 19.417 0 35.157 15.74 35.157 35.155 0 19.417-15.74 35.156-35.157 35.156s-35.157-15.738-35.157-35.156z"/><path fill-rule="evenodd" clip-rule="evenodd" d="M102.558 42.379c0 4.563-1.479 8.417-4.438 11.561-2.959 3.142-6.537 4.714-10.737 4.714-4.195 0-7.773-1.572-10.732-4.714-2.959-3.143-4.441-6.998-4.441-11.561 0-4.561 1.493-8.425 4.479-11.595 2.981-3.169 6.549-4.754 10.694-4.754 4.15 0 7.713 1.585 10.699 4.754 2.984 3.17 4.476 7.034 4.476 11.595zm-7.967-.075c0-3.805-.757-6.999-2.275-9.586-1.416-2.385-3.061-3.576-4.933-3.576-1.87 0-3.514 1.191-4.93 3.576-1.516 2.538-2.275 5.732-2.275 9.586 0 3.855.759 7.076 2.275 9.662 1.367 2.385 3.009 3.577 4.93 3.577 1.924 0 3.606-1.244 5.046-3.728 1.443-2.485 2.162-5.656 2.162-9.511z"/><path d="M118.221 58.046h-7.587v-47.339h-5.918v-2.657l13.505-2.199v52.195zM187.268 26.562l-12.216 31.484h-2.427l-7.663-19.572-7.74 19.572h-2.427l-12.215-31.484h8.042l7.817 19.346 7.51-19.346h2.504l7.659 19.346 7.361-19.346h3.795zM246.994 28.914l-5.538 5.614-1.213-1.291c-.911-.96-1.67-1.44-2.278-1.44-1.466 0-3.212 1.998-5.232 5.992l-1.52 3.035v17.222h-7.587v-26.703h-5.918v-2.657l13.505-2.201v8.345l1.141-2.048c2.477-4.502 5.358-6.753 8.646-6.753 1.822 0 3.82.964 5.994 2.885z"/><path fill-rule="evenodd" clip-rule="evenodd" d="M235.684 44.239c-.409-.41-.813-.764-1.213-1.061h8.547c1.436 1.52 2.791 3.744 4.064 6.674l3.568 8.193h-8.314l-2.947-7.739c-1.006-2.577-2.243-4.601-3.705-6.067z"/><path d="M136.742 5.851v37.18l-7.587-.002v-32.322h-5.918v-2.657l13.505-2.199zM203.613 30.346c-.636 0-1.374.368-1.867.836-.907.863-1.432 1.818-1.432 3.01s.451 2.177 1.362 2.958c.581.498 1.274.836 2.079 1.016h4.307c-.088-2.792-.135-3.931-1.037-5.563-.816-1.505-2.252-2.257-3.412-2.257zm-7.321-1.614c1.928-1.434 4.424-2.157 7.321-2.17 3.15.019 5.762 1.336 7.832 3.95 2.082 2.634 3.123 6.152 3.123 10.554h-9.375c-1.879 0-3.563.674-5.052 2.016-1.493 1.342-2.233 2.848-2.233 4.516 0 1.761.81 3.322 2.438 4.688 1.625 1.367 3.609 2.048 5.947 2.048 2.749 0 5.225-1.213 7.422-3.642l2.201 2.081c-3.207 3.516-7.173 5.274-11.893 5.274-3.801 0-6.977-.987-9.52-2.963-2.541-1.975-3.814-4.249-3.814-6.821 0-3.902 2.406-6.773 7.219-8.609-3.025-1.332-4.537-3.262-4.537-5.788 0-1.975.973-3.686 2.921-5.134zM285.894 58.046h-9.331l-11.305-16.159v16.159h-7.588v-47.339h-5.916v-2.657l13.504-2.199v34.29l13.125-13.579h4.855l-11.228 11.608 13.884 19.876z"/><path fill-rule="evenodd" clip-rule="evenodd" d="M300 21.406c0 1.439-.524 2.657-1.578 3.658-1.051.999-2.354 1.499-3.898 1.499-1.547 0-2.846-.5-3.898-1.499-1.052-1.001-1.58-2.219-1.58-3.658s.528-2.666 1.58-3.679c1.053-1.014 2.352-1.52 3.898-1.52 1.545 0 2.848.505 3.898 1.52 1.054 1.013 1.578 2.24 1.578 3.679zm-1.037 0c0-1.227-.432-2.266-1.303-3.12-.863-.853-1.91-1.278-3.137-1.278s-2.271.425-3.14 1.278c-.866.854-1.298 1.893-1.298 3.12 0 1.225.425 2.258 1.279 3.097.852.84 1.905 1.259 3.158 1.259 1.255 0 2.307-.419 3.16-1.259.851-.839 1.281-1.873 1.281-3.097zm-1.799 3.037h-1.321l-.521-1.518c-.344-1.042-.799-1.563-1.359-1.563h-.118v3.08h-1.241v-5.557h-.757v-.521h2.718c.533 0 .973.153 1.316.459.349.307.521.661.521 1.061 0 .559-.36.986-1.08 1.279.402.106.789.627 1.159 1.559l.683 1.721zm-3.002-3.598c.639 0 .961-.319.961-.959 0-.666-.322-.999-.961-.999h-.317v1.958h.317z"/></g></svg>
<svg width="160" height="130.68" viewBox="0 0 160 130.68" id="wiref" y="447"><defs><path id="ea" d="M0 0h160.188v130.833h-160.188z"/></defs><clipPath id="eb"><use xlink:href="#ea" overflow="visible"/></clipPath><path clip-path="url(#eb)" fill="#E5232D" d="M155.378 127.889c0 1.799 1.032 2.943 2.903 2.943.712 0 1.266-.073 1.763-.214l-.072-1.864c-.251.156-.66.245-1.084.245-.909 0-1.121-.722-1.121-1.492v-4.226h2.118v-1.727h-2.118v-2.565l-2.389.754v1.812h-1.761v1.727h1.761v4.607zm-9.486.11c0-1.393 1.586-1.566 2.652-1.566h1.029c0 .703-.102 1.353-.497 1.864-.374.493-.941.811-1.671.811-.856-.001-1.513-.337-1.513-1.109m-1.211-3.943c.798-.599 1.814-.987 2.827-.987 1.411 0 2.064.494 2.064 1.957h-1.314c-.999 0-2.174.086-3.079.522-.909.441-1.568 1.235-1.568 2.588 0 1.726 1.584 2.695 3.204 2.695 1.086 0 2.279-.563 2.831-1.568h.036c.019.282.019.884.106 1.354h2.103c-.055-.702-.09-1.335-.109-2.021-.015-.671-.032-1.358-.032-2.271v-1.162c0-2.676-1.159-3.817-3.952-3.817-1.019 0-2.264.262-3.188.685l.071 2.025zm-7.851 6.563h2.389v-3.328c0-1.299 0-3.694 1.938-3.694.43 0 .855.071 1.072.194v-2.375c-.251-.069-.497-.069-.731-.069-1.425 0-2.404 1.421-2.511 2.27h-.037v-2.063h-2.117v9.066h-.003zm-8.758-5.417c.106-1.219.784-2.132 2.122-2.132 1.335 0 1.868.987 1.939 2.132h-4.061zm5.664 2.988c-.891.495-1.886.916-3.045.916-1.48 0-2.513-.829-2.619-2.292h6.342c0-3.166-.962-5.469-4.364-5.469-2.85 0-4.257 2.165-4.257 4.788 0 2.973 1.766 4.698 4.792 4.698 1.281 0 2.28-.249 3.151-.726v-1.915zm-13.903 2.429h2.384v-7.339h2.084v-1.726h-2.084v-1.124c0-.704.249-1.392 1.052-1.392.517 0 .819.194 1.032.316l.196-1.951c-.464-.104-1.139-.196-1.747-.196-1.884 0-2.917 1.27-2.917 3.082v1.265h-1.763v1.726h1.763v7.339zm-9.58-5.417c.112-1.219.786-2.132 2.121-2.132 1.339 0 1.871.987 1.94 2.132h-4.061zm5.665 2.988c-.892.495-1.888.916-3.046.916-1.479 0-2.507-.829-2.619-2.292h6.342c0-3.166-.962-5.469-4.361-5.469-2.853 0-4.259 2.165-4.259 4.788 0 2.973 1.763 4.698 4.791 4.698 1.281 0 2.279-.249 3.152-.726v-1.915zm-14.405 2.429h2.387v-3.328c0-1.299 0-3.694 1.94-3.694.43 0 .855.071 1.071.194v-2.375c-.25-.069-.501-.069-.73-.069-1.422 0-2.405 1.421-2.515 2.27h-.029v-2.063h-2.122v9.066h-.002zm-2.843-8.942c-.75-.155-1.479-.33-2.603-.33-1.868 0-3.595.859-3.595 2.815 0 3.275 4.15 2.058 4.15 3.837 0 .88-.962 1.108-1.568 1.108-.818 0-1.603-.229-2.353-.603l-.145 1.939c.875.227 1.8.389 2.707.389 1.943 0 3.849-.847 3.849-2.959 0-3.271-4.15-2.358-4.15-3.8 0-.777.764-1.005 1.407-1.005.875 0 1.41.141 2.139.389l.162-1.78zm-12.249 6.212c0 1.799 1.031 2.943 2.902 2.943.713 0 1.268-.073 1.766-.214l-.075-1.864c-.248.157-.657.246-1.084.246-.907 0-1.124-.722-1.124-1.492v-4.226h2.121v-1.727h-2.121v-2.565l-2.385.754v1.812h-1.765v1.727h1.765v4.606zm-7.334 2.73h2.389v-7.339h2.081v-1.726h-2.081v-1.124c0-.704.248-1.392 1.049-1.392.515 0 .819.194 1.032.316l.196-1.951c-.463-.104-1.14-.196-1.745-.196-1.888 0-2.921 1.27-2.921 3.082v1.265h-1.763v1.726h1.763v7.339zm-9.576-2.62c0-1.393 1.585-1.566 2.653-1.566h1.032c0 .703-.105 1.353-.499 1.864-.374.493-.942.811-1.674.811-.852-.001-1.512-.337-1.512-1.109m-1.211-3.943c.802-.599 1.817-.987 2.832-.987 1.405 0 2.065.494 2.065 1.957h-1.316c-1 0-2.173.086-3.083.522-.908.441-1.567 1.235-1.567 2.588 0 1.726 1.585 2.695 3.205 2.695 1.086 0 2.28-.563 2.831-1.568h.037c.018.282.018.884.107 1.354h2.102c-.053-.702-.089-1.335-.107-2.021-.019-.671-.035-1.358-.035-2.271v-1.162c0-2.676-1.157-3.817-3.952-3.817-1.018 0-2.264.262-3.19.685l.071 2.025zm-11.856 6.563h2.387v-4.436c0-1.156.375-3.008 2.1-3.008 1.533 0 1.552 1.497 1.552 2.606v4.837h2.386v-5.72c0-2.043-.943-3.553-3.116-3.553-1.247 0-2.28.561-2.887 1.446h-.034v-5.374h-2.387v13.202zm-2.239-8.975c-.661-.194-1.355-.298-2.312-.298-2.869 0-4.438 2.071-4.438 4.698 0 2.763 1.515 4.788 4.525 4.788.979 0 1.692-.092 2.388-.3l-.109-1.952c-.409.175-1.157.42-1.836.42-1.672 0-2.475-1.284-2.475-2.954 0-1.71.942-2.87 2.424-2.87.729 0 1.191.141 1.619.337l.214-1.869zm-8.953.033c-.748-.155-1.477-.33-2.599-.33-1.871 0-3.599.859-3.599 2.815 0 3.275 4.151 2.058 4.151 3.837 0 .88-.964 1.108-1.567 1.108-.821 0-1.604-.229-2.352-.603l-.144 1.939c.873.227 1.8.389 2.707.389 1.942 0 3.848-.847 3.848-2.959 0-3.271-4.147-2.358-4.147-3.8 0-.777.762-1.005 1.404-1.005.872 0 1.41.141 2.138.389l.16-1.78zm-12.25 6.212c0 1.799 1.034 2.943 2.905 2.943.711 0 1.263-.073 1.761-.214l-.07-1.864c-.25.156-.657.245-1.084.245-.911 0-1.123-.722-1.123-1.492v-4.226h2.121v-1.727h-2.122v-2.565l-2.387.754v1.812h-1.765v1.727h1.763v4.607zm-8.152 2.73h2.387v-3.328c0-1.299 0-3.694 1.941-3.694.427 0 .853.071 1.068.194v-2.375c-.251-.069-.499-.069-.732-.069-1.422 0-2.401 1.421-2.509 2.27h-.035v-2.063h-2.12v9.065zm-5.448 0h2.387v-9.064h-2.387v9.064zm0-10.718h2.387v-2.254h-2.387v2.254zm-16.11 10.718h3.225l2.209-9.819h.036l2.244 9.819h3.205l3.241-12.284h-2.421l-2.332 9.822h-.038l-2.191-9.822h-3.381l-2.12 9.822h-.036l-2.313-9.822h-2.621l3.293 12.284zm107.183-50.4h-4.108v1.737h1.932v4.276c-.519.127-1.124.209-1.932.209-2.98 0-4.272-2.515-4.272-5.645 0-3.279 1.532-5.311 4.35-5.311 1.45 0 2.742.289 3.791.993l-.164-2.157c-.963-.56-2.013-.831-3.706-.831-4.677 0-6.693 3.342-6.693 7.386 0 4.105 2.28 7.388 6.535 7.388 1.408 0 3.837-.447 4.104-.837.271-.378.163-7.208.163-7.208m-12.08 7.761l-4.209-6.038c2.317-.741 3.096-2.228 3.096-4.152 0-2.832-2.492-4.026-5.349-4.026h-3.193v14.299h2.323v-12.576h.87c1.975 0 3.036.903 3.036 2.382 0 1.646-.72 2.877-3.57 3.203h-.101v.166l4.546 6.824h2.551v-.082zm-12.146-1.649h-6.225v-4.681h4.864v-1.726h-4.864v-4.436h5.585l-.314-1.724h-7.589v14.298h8.304l.239-1.731zm-11.558-2.375c0-1.359-.84-2.794-2.338-3.496.979-.783 1.54-1.727 1.54-3.002 0-2.282-1.72-3.692-5.029-3.692h-3.593v14.298h4.233c3.109-.001 5.187-1.446 5.187-4.108m-12.852-10.191h-2.074v9.182l-7.661-9.182h-.48v14.298h2.08v-9.43l7.659 9.43h.477v-14.298h-.001zm-12.551 14.215l-4.21-6.038c2.321-.741 3.095-2.228 3.095-4.152 0-2.832-2.493-4.026-5.35-4.026h-3.193v14.299h2.317v-12.576h.875c1.98 0 3.036.903 3.036 2.382 0 1.646-.717 2.877-3.575 3.203h-.097v.166l4.554 6.824h2.548v-.082zm-13.139-14.215h-2.078v8.945c0 2.39-.697 3.786-3.274 3.786-2.394 0-3.271-1.576-3.271-3.696v-9.037h-2.312v9.198c0 3.6 2.195 5.265 5.507 5.265s5.43-1.686 5.43-5.345v-9.116h-.002zm-14.421 0h-2.081v9.182l-7.657-9.182h-.479v14.298h2.075v-9.43l7.661 9.43h.481v-14.298zm5.689-3.179c0 .863.517 1.316 1.194 1.316.676 0 1.192-.453 1.192-1.316 0-.86-.516-1.313-1.192-1.313-.679 0-1.194.452-1.194 1.313m4.064 0c0 .863.517 1.316 1.198 1.316.674 0 1.194-.453 1.194-1.316 0-.86-.52-1.313-1.194-1.313-.679 0-1.198.452-1.198 1.313m128.707-23.466v50.972h-158.81v-98.092h158.81v39.735l-2.356 3.691s-.196.351-.357-.021l-5.837-13.23s-.162-.368-.326.004l-6.092 14.304s-.155.37-.416.059l-2.397-2.875s-.252-.309-.394.07l-1.97 5.451s-.131.382-.131.78v8.052s0 .4.26.706l1.893 2.171s.268.303.268.705v6.308s0 .399-.409.399l-12.066.005s-.409 0-.409-.396l-.008-7.094s0-.402-.275-.694l-6.133-6.659s-.281-.295-.684-.295l-5.658.017s-.405 0-.681.299l-2.869 3.069s-.279.289-.279-.107v-5.534s0-.404.203-.746l1.269-2.12s.204-.345.204-.751l.03-7.797s0-.402-.281-.691l-4.312-4.516s-.278-.288-.278-.688l.004-3.037s0-.401-.213-.742l-5.144-8.112s-.22-.343-.433 0l-5.193 8.214s-.213.341-.213.741v2.782s0 .402-.297.679l-4.493 4.248s-.298.278-.298.678l-.004 8.206s0 .406.248.724l1.351 1.765s.248.319.248.723l.005 8.427s0 .402-.399.402c0 0-82.786.434-83.003.434-.214 0-.404.151-.404.358v.391c0 .207-.049.346.408.346h84.812s.405 0 .405-.399v-10.751s0-.401-.244-.719l-1.162-1.505s-.245-.322-.245-.724v-6.902s0-.405.294-.679l4.45-4.19s.292-.271.292-.674v-2.652s0-.4.213-.741l3.238-5.261s.205-.344.412.004l3.116 5.253s.203.345.203.745v2.782s0 .401.278.69l3.819 4.027s.274.294.274.698v7.012s0 .402-.202.751l-1.132 1.981s-.204.351-.204.751l-.008 11.816s0 .396.286.107l5.883-6.083s.278-.291.684-.291h3.723s.413 0 .686.298l4.729 5.034s.278.289.278.698v8.627s0 .405.409.405h17.437s.409 0 .409-.405l.018-10.422s0-.404-.255-.713l-1.442-1.738s-.251-.308-.251-.712v-6.765s0-.396.251-.086l2.261 2.872s.248.318.403-.055l5.12-11.93s.162-.367.318 0l5.135 11.938s.153.378.405.05l3.225-3.86zm-88.613 30.505c0-1.478-.995-2.136-2.874-2.136h-1.116v4.518h3.111c.722-.741.879-1.556.879-2.382m.719 6.159c0 1.727-1.018 2.542-2.875 2.542h-1.835v-4.676h1.92c1.67 0 2.79.575 2.79 2.134"/></svg>
</svg>