<?xml version="1.0" encoding="utf-8"?><!DOCTYPE svg PUBLIC "-//W3C//DTD SVG 1.1//EN" "http://www.w3.org/Graphics/SVG/1.1/DTD/svg11.dtd"><svg width="324" height="414" viewBox="0 0 324 414" xmlns="http://www.w3.org/2000/svg" xmlns:xlink="http://www.w3.org/1999/xlink"><view id="a11y" viewBox="0 0 200 200"/><svg width="200" height="200" viewBox="0 0 200 200" id="a11y-"><g fill="#FFF"><circle cx="100" cy="35.819" r="14.926"/><path d="M164.772,50.73c-0.832-4.037-4.778-6.636-8.815-5.802L100,56.465L44.043,44.928 c-4.037-0.835-7.983,1.765-8.815,5.802c-0.833,4.036,1.765,7.983,5.803,8.815l41.805,8.62v45.563l-11.782,56.387 c-0.843,4.034,1.743,7.988,5.778,8.831c0.515,0.107,1.028,0.159,1.535,0.159c3.458,0,6.562-2.419,7.297-5.938l12.015-57.498 c0.224-1.189,1.086-2.238,2.323-2.238c1.236,0,2.123,1.049,2.322,2.238l12.016,57.498c0.734,3.519,3.837,5.938,7.296,5.938 c0.506,0,1.021-0.052,1.535-0.159c4.034-0.843,6.622-4.797,5.777-8.831l-11.782-56.391V68.166l41.806-8.62 C163.008,58.714,165.604,54.767,164.772,50.73z"/></g></svg><view id="contentful" viewBox="0 200 157 32"/><svg width="157" height="32" viewBox="0 0 157 32" id="contentful-" y="200"><path fill="#FAE501" d="M9.7 22.3C8 20.7 7 18.5 7 16s1-4.7 2.6-6.3c1.4-1.4 1.4-3.6 0-5s-3.6-1.4-5 0C1.8 7.6 0 11.6 0 16s1.8 8.4 4.7 11.3c1.4 1.4 3.6 1.4 5 0 1.3-1.4 1.3-3.6 0-5z"/><path fill="#4FB5E1" d="M9.7 9.7C11.3 8 13.5 7 16 7s4.7 1 6.3 2.6c1.4 1.4 3.6 1.4 5 0s1.4-3.6 0-5C24.4 1.8 20.4 0 16 0S7.6 1.8 4.7 4.7c-1.4 1.4-1.4 3.6 0 5 1.4 1.3 3.6 1.3 5 0z"/><path fill="#F05751" d="M22.3 22.3C20.7 24 18.5 25 16 25s-4.7-1-6.3-2.6c-1.4-1.4-3.6-1.4-5 0s-1.4 3.6 0 5C7.6 30.2 11.6 32 16 32s8.4-1.8 11.3-4.7c1.4-1.4 1.4-3.6 0-5-1.4-1.3-3.6-1.3-5 0z"/><circle fill="#0681B6" cx="7.2" cy="7.2" r="3.5"/><circle fill="#CD4739" cx="7.2" cy="24.8" r="3.5"/><path fill-rule="evenodd" clip-rule="evenodd" fill="#2A3039" d="M43 19.3c1-.8 1.2-.3 2 .5.4.4 1.6 1.2.8 1.8-1.6 1.3-3 1.9-5.1 1.9-4.6 0-7.9-3.5-7.7-8 .1-2.1.9-4 2.5-5.3C37 9 38.8 8.4 40.7 8.5c1 0 1.8.2 2.7.5.6.2 1.2.5 1.7.9 1 .8.5 1.2-.2 2-.2.2-.3.4-.5.5-.4.4-.7.7-1.2.3-1-.7-2.4-1.1-3.6-.8-4 1-3.8 8.1 1.1 8.1.8.1 1.7-.2 2.3-.7zm111.1 3.9c-.7 0-1.2-.5-1.2-1.2V6.3c0-.7.5-1.2 1.2-1.2h1.3c.7 0 1.2.5 1.2 1.2V22c0 .7-.5 1.2-1.2 1.2h-1.3zm-6.9-1.8c-1.4 1.3-2.8 2-4.8 2-4.1 0-6-3.4-6-7.1V9.9c0-.7.5-1.2 1.2-1.2h1.3c.7 0 1.2.5 1.2 1.2v6.4c0 2.1 1.1 3.7 3.4 3.7 2.2 0 3.6-1.9 3.6-3.9V9.9c0-.7.5-1.2 1.2-1.2h1.3c.7 0 1.2.5 1.2 1.2V22c0 .7-.5 1.2-1.2 1.2h-1.1c-.7 0-1.1-.6-1.2-1.2l-.1-.6zM131.6 8.8h2.5c.7 0 1.2.6 1.2 1.2v.8c0 .7-.5 1.2-1.2 1.2h-2.5v10c0 .7-.5 1.2-1.2 1.2h-1.3c-.7 0-1.2-.5-1.2-1.2V8.3c0-3 1.7-5.4 4.8-5.7h1.9c.7 0 1.2.6 1.2 1.2v.8c0 .7-.5 1.2-1.2 1.2h-1c-1.5 0-2.1 1.1-2.1 2.5v.5h.1zm-9.1 0h2.8c.7 0 1.2.5 1.2 1.2v.8c0 .7-.5 1.2-1.2 1.2h-2.8v6.1c0 1.2.6 1.8 1.8 1.8h.6c.7 0 1.2.5 1.2 1.2v.9c0 .7-.5 1.2-1.2 1.2H123.2c-3-.2-4.3-2.1-4.3-5.1V6.3c0-.7.5-1.2 1.2-1.2h1.3c.7 0 1.2.5 1.2 1.2v2.5h-.1zm-40.1 0h2.8c.7 0 1.2.5 1.2 1.2v.8c0 .7-.5 1.2-1.2 1.2h-2.8v6.1c0 1.2.6 1.9 1.8 1.9h.6c.7 0 1.2.5 1.2 1.2v.8c0 .7-.5 1.2-1.2 1.2H84c-3.3 0-5.2-1.4-5.2-5.1V6.3c0-.7.5-1.2 1.2-1.2h1.3c.7 0 1.2.5 1.2 1.2v2.5h-.1zm-16.3 1.7c1.3-1.3 2.8-2 4.6-2 4.1 0 6.2 3.3 6.2 7.1V22c0 .7-.5 1.2-1.2 1.2h-1.3c-.7 0-1.2-.5-1.2-1.2v-6.4c0-2.1-1.1-3.7-3.4-3.7-2.2 0-3.6 1.8-3.6 3.9V22c0 .7-.5 1.2-1.2 1.2h-1.3c-.7 0-1.2-.5-1.2-1.2V9.9c0-.7.5-1.2 1.2-1.2h1.1c.7 0 1.1.6 1.2 1.2l.1.6zm40.2 0c1.3-1.3 2.8-2 4.6-2 4.1 0 6.2 3.3 6.2 7.1V22c0 .7-.5 1.2-1.2 1.2h-1.3c-.7 0-1.2-.5-1.2-1.2v-6.4c0-2.1-1.1-3.7-3.4-3.7-2.2 0-3.6 1.8-3.6 3.9V22c0 .7-.5 1.2-1.2 1.2h-1.3c-.7 0-1.2-.5-1.2-1.2V9.9c0-.7.5-1.2 1.2-1.2h1.1c.7 0 1.1.6 1.2 1.2l.1.6zM53.8 8.4c-4.4 0-7.5 3.2-7.5 7.6 0 4.4 3.1 7.6 7.5 7.6 4.5 0 7.6-3.1 7.6-7.6 0-4.4-3.2-7.6-7.6-7.6zm36.6 8.9c.3 2 2.3 2.9 4.2 2.9.9 0 1.9-.2 2.7-.6.1-.1.3-.1.4-.2.5-.3.9-.4 1.3 0l.7.7.6.6c.6.8.2 1-.5 1.4-1.5 1-3.4 1.5-5.2 1.5-4.8 0-8-2.9-8-7.7 0-4.6 3.2-7.6 7.7-7.6 4.7 0 7.3 2.7 7.4 7.4 0 1.3.1 1.7-1.2 1.7H90.4v-.1zm-36.6-5.5c2.3 0 3.8 2 3.8 4.2 0 2.3-1.4 4.1-3.8 4.1S50 18.3 50 16s1.5-4.2 3.8-4.2zm36.7 2.4H98c-.3-1.9-1.8-2.6-3.6-2.6-1.9 0-3.4.9-3.9 2.6z"/></svg><view id="location" viewBox="0 232 54 96"/><svg width="54" height="96" viewBox="0 0 54 96" id="location-" y="232"><path fill="#FFF" d="M27,5C12.157,5,0.125,17.032,0.125,31.875C0.125,58.75,27,91,27,91s26.875-32.25,26.875-59.125 C53.875,17.032,41.846,5,27,5 M27,48.001c-8.905,0-16.124-7.22-16.124-16.125c0-8.906,7.219-16.125,16.124-16.125 c8.908,0,16.126,7.219,16.126,16.125C43.126,40.782,35.908,48.001,27,48.001"/></svg><view id="tollwerk" viewBox="0 328 324 86"/><svg width="324" height="86" viewBox="0 0 324 86" id="tollwerk-" y="328"><path fill="#00285A" d="M323.535,70.678h-12.145l-8.15-13.262l-4.419,5.01v8.252h-10.537V17.931h10.537v31.788l11.522-14.384 h12.465l-13.116,14.812L323.535,70.678z M235.523,64c-5.229,0-7.962-2.629-8.595-8.252h17.389v-7.375h-4.356h-12.846 c0.791-3.945,2.842-5.65,6.833-5.65l10.369,0.003v-0.004v-7.388h-10.095l-1.04,0.041c-10.388,0.426-15.882,6.57-15.882,17.867 c0,11.854,6.053,18.381,17.041,18.381c4.655,0,9.065-0.945,13.477-2.887l-2.351-6.834C241.8,63.289,238.456,64,235.523,64z M273.33,44.785c0.543-0.047,1.063-0.037,1.566,0.014c1.178,0.119,2.244,0.482,3.178,1.006l3.189-9.273 c-1.076-0.666-2.139-1.15-3.179-1.473c-0.038-0.012-0.077-0.025-0.115-0.037c-3.798-1.135-7.288-0.113-9.964,2.02 c-1.402,1.004-2.827,2.354-4.357,4.102l-0.497,0.568v-6.377h-10.458v35.343h10.537V52.057l0.046-0.07 c1.083-1.656,2.159-2.996,3.267-4.057C269.002,45.893,271.295,44.963,273.33,44.785z M201.435,56.951l-8.32-21.617h-7.245 l-7.904,21.675l-4.807-21.675h-10.894l10.153,35.343h7.863l8.934-21.889l8.853,21.889h7.783l9.766-35.343h-10.103L201.435,56.951z M268.408,58.547l7.656,12.137h12.149l-11.42-15.939L268.408,58.547z M85.605,43c0,23.512-19.06,42.571-42.571,42.571 C19.523,85.57,0.464,66.512,0.464,43c0-1.247,0.065-2.479,0.17-3.7l16.484-18.338l-5.721-6.44c1.519-1.686,3.172-3.245,4.939-4.671 l8.021,11.437L12.727,37.548l6.162,4.827l19.389-21.413L23.882,4.983c5.759-2.906,12.261-4.554,19.152-4.554 C66.546,0.429,85.605,19.489,85.605,43z M71.923,33.543H55.495H44.294h-9.485v9.914h9.485v6.408c0,14.307,2.837,22.059,17.8,22.059 c2.36,0,4.598-0.154,6.652-0.459l-0.627-8.904c-0.841,0.127-2.077,0.127-3.73,0.127c-6.566,0-8.894-3.355-8.894-12.822v-6.408 h16.428V33.543z M124.383,52.297c0,12.102-6.9,19.326-18.459,19.326c-11.065,0-17.671-6.93-17.671-18.537 c0-11.659,6.93-18.619,18.537-18.619C117.806,34.467,124.383,41.133,124.383,52.297z M113.61,52.85 c0-6.93-2.48-10.443-7.372-10.443c-4.734,0-7.135,3.46-7.135,10.285c0,7.242,2.507,10.914,7.45,10.914 C111.236,63.605,113.61,59.986,113.61,52.85z M147.511,56.031h10.537v-38.1h-10.537V56.031z M129.49,70.678h10.536V17.931H129.49 V70.678z"/></svg></svg>