<?xml version="1.0" encoding="utf-8"?><!DOCTYPE svg PUBLIC "-//W3C//DTD SVG 1.1//EN" "http://www.w3.org/Graphics/SVG/1.1/DTD/svg11.dtd"><svg width="342" height="452" viewBox="0 0 342 452" xmlns="http://www.w3.org/2000/svg" xmlns:xlink="http://www.w3.org/1999/xlink"><view id="a11y" viewBox="0 0 200 200"/><svg width="200" height="200" viewBox="0 0 200 200" id="a11y-"><g fill="#FFF"><circle cx="100" cy="35.819" r="14.926"/><path d="M164.772,50.73c-0.832-4.037-4.778-6.636-8.815-5.802L100,56.465L44.043,44.928 c-4.037-0.835-7.983,1.765-8.815,5.802c-0.833,4.036,1.765,7.983,5.803,8.815l41.805,8.62v45.563l-11.782,56.387 c-0.843,4.034,1.743,7.988,5.778,8.831c0.515,0.107,1.028,0.159,1.535,0.159c3.458,0,6.562-2.419,7.297-5.938l12.015-57.498 c0.224-1.189,1.086-2.238,2.323-2.238c1.236,0,2.123,1.049,2.322,2.238l12.016,57.498c0.734,3.519,3.837,5.938,7.296,5.938 c0.506,0,1.021-0.052,1.535-0.159c4.034-0.843,6.622-4.797,5.777-8.831l-11.782-56.391V68.166l41.806-8.62 C163.008,58.714,165.604,54.767,164.772,50.73z"/></g></svg><view id="contentful" viewBox="0 200 342 69.885"/><svg width="342" height="69.885" viewBox="0 0 342 69.885" id="contentful-" y="200"><path fill="#FAE501" d="M21.185,48.701c-3.713-3.494-5.897-8.299-5.897-13.759s2.184-10.265,5.678-13.758 c3.057-3.059,3.057-7.862,0-10.92c-3.057-3.058-7.862-3.058-10.919,0C3.931,16.598,0,25.334,0,34.942 c0,9.61,3.931,18.346,10.265,24.678c3.058,3.059,7.861,3.059,10.92,0C24.023,56.564,24.023,51.759,21.185,48.701z"/><path fill="#4FB5E1" d="M21.185,21.185c3.493-3.713,8.298-5.897,13.758-5.897c5.46,0,10.265,2.184,13.758,5.678 c3.059,3.058,7.862,3.058,10.92,0c3.058-3.058,3.058-7.862,0-10.919C53.287,3.931,44.552,0,34.942,0 c-9.609,0-18.344,3.931-24.678,10.265c-3.058,3.058-3.058,7.861,0,10.92C13.322,24.023,18.126,24.023,21.185,21.185z"/><path fill="#F05751" d="M48.701,48.701c-3.493,3.713-8.298,5.896-13.758,5.896c-5.459,0-10.265-2.184-13.758-5.677 c-3.059-3.059-7.862-3.059-10.92,0c-3.058,3.056-3.058,7.861,0,10.919c6.333,6.115,15.069,10.045,24.678,10.045 c9.609,0,18.345-3.93,24.678-10.265c3.058-3.056,3.058-7.861,0-10.919C56.563,45.862,51.759,45.862,48.701,48.701z"/><circle fill="#0681B6" cx="15.725" cy="15.725" r="7.644"/><circle fill="#CD4739" cx="15.725" cy="54.161" r="7.644"/><path fill="#2A3039" d="M93.908,42.149c2.184-1.747,2.621-0.655,4.368,1.092c0.873,0.874,3.494,2.621,1.746,3.931 c-3.493,2.841-6.552,4.15-11.137,4.15c-10.046,0-17.254-7.644-16.816-17.472c0.218-4.586,1.965-8.735,5.459-11.574 c3.276-2.621,7.207-3.932,11.357-3.713c2.184,0,3.931,0.437,5.896,1.092c1.311,0.438,2.621,1.092,3.714,1.965 c2.184,1.748,1.092,2.621-0.438,4.368c-0.437,0.438-0.655,0.873-1.092,1.092c-0.874,0.874-1.528,1.529-2.62,0.656 c-2.185-1.529-5.242-2.402-7.862-1.748c-8.736,2.184-8.3,17.69,2.402,17.69C90.633,43.896,92.598,43.241,93.908,42.149z M336.54,50.667c-1.526,0-2.619-1.092-2.619-2.621V13.758c0-1.528,1.093-2.62,2.619-2.62h2.841c1.527,0,2.619,1.092,2.619,2.62 v34.288c0,1.529-1.092,2.621-2.619,2.621H336.54z M321.473,46.736c-3.059,2.839-6.114,4.368-10.482,4.368 c-8.955,0-13.104-7.426-13.104-15.507V21.62c0-1.527,1.092-2.62,2.619-2.62h2.841c1.526,0,2.619,1.093,2.619,2.62v13.978 c0,4.587,2.403,8.081,7.426,8.081c4.805,0,7.861-4.15,7.861-8.518V21.62c0-1.527,1.092-2.62,2.621-2.62h2.839 c1.529,0,2.621,1.093,2.621,2.62v26.426c0,1.529-1.092,2.621-2.621,2.621h-2.401c-1.529,0-2.401-1.312-2.621-2.621L321.473,46.736 L321.473,46.736z M287.402,19.218h5.46c1.528,0,2.621,1.311,2.621,2.621v1.747c0,1.529-1.093,2.621-2.621,2.621h-5.46v21.839 c0,1.529-1.092,2.621-2.619,2.621h-2.841c-1.527,0-2.619-1.092-2.619-2.621v-29.92c0-6.552,3.711-11.793,10.482-12.448h4.148 c1.529,0,2.621,1.311,2.621,2.62v1.748c0,1.528-1.092,2.62-2.621,2.62h-2.185c-3.275,0-4.585,2.402-4.585,5.459v1.092H287.402z M267.529,19.218h6.114c1.529,0,2.621,1.092,2.621,2.621v1.747c0,1.529-1.092,2.621-2.621,2.621h-6.114v13.321 c0,2.621,1.31,3.933,3.931,3.933h1.312c1.527,0,2.619,1.092,2.619,2.619v1.966c0,1.529-1.092,2.621-2.619,2.621h-3.713 c-6.552-0.437-9.391-4.587-9.391-11.139v-25.77c0-1.528,1.092-2.62,2.619-2.62h2.841c1.527,0,2.619,1.092,2.619,2.62v5.459H267.529 z M179.955,19.218h6.115c1.528,0,2.621,1.092,2.621,2.621v1.747c0,1.529-1.093,2.621-2.621,2.621h-6.115v13.321 c0,2.621,1.31,4.15,3.931,4.15h1.31c1.529,0,2.621,1.092,2.621,2.621v1.746c0,1.529-1.092,2.621-2.621,2.621h-1.746 c-7.207,0-11.357-3.058-11.357-11.139v-25.77c0-1.528,1.092-2.62,2.621-2.62h2.839c1.529,0,2.621,1.092,2.621,2.62v5.459H179.955 L179.955,19.218z M144.356,22.931c2.839-2.838,6.115-4.367,10.047-4.367c8.953,0,13.539,7.206,13.539,15.506v13.977 c0,1.529-1.092,2.621-2.62,2.621h-2.839c-1.528,0-2.62-1.092-2.62-2.621V34.069c0-4.587-2.403-8.081-7.427-8.081 c-4.804,0-7.861,3.932-7.861,8.518v13.54c0,1.529-1.092,2.621-2.621,2.621h-2.839c-1.528,0-2.621-1.092-2.621-2.621V21.62 c0-1.527,1.093-2.62,2.621-2.62h2.402c1.528,0,2.402,1.31,2.621,2.62L144.356,22.931z M232.149,22.931 c2.839-2.838,6.114-4.367,10.048-4.367c8.953,0,13.538,7.206,13.538,15.506v13.977c0,1.529-1.092,2.621-2.619,2.621h-2.841 c-1.526,0-2.619-1.092-2.619-2.621V34.069c0-4.587-2.403-8.081-7.426-8.081c-4.805,0-7.861,3.932-7.861,8.518v13.54 c0,1.529-1.092,2.621-2.621,2.621h-2.839c-1.529,0-2.621-1.092-2.621-2.621V21.62c0-1.527,1.092-2.62,2.621-2.62h2.401 c1.529,0,2.401,1.31,2.621,2.62L232.149,22.931L232.149,22.931z M117.494,18.345c-9.609,0-16.379,6.989-16.379,16.598 c0,9.61,6.77,16.597,16.379,16.597c9.827,0,16.598-6.769,16.598-16.597C134.092,25.334,127.104,18.345,117.494,18.345z M197.427,37.781c0.654,4.368,5.022,6.334,9.171,6.334c1.966,0,4.15-0.437,5.896-1.312c0.22-0.218,0.655-0.218,0.875-0.435 c1.092-0.657,1.964-0.875,2.838,0l1.529,1.526l1.31,1.312c1.312,1.747,0.438,2.185-1.092,3.057 c-3.275,2.184-7.424,3.275-11.356,3.275c-10.482,0-17.472-6.332-17.472-16.815c0-10.046,6.989-16.598,16.816-16.598 c10.265,0,15.942,5.897,16.162,16.162c0,2.839,0.218,3.713-2.621,3.713h-22.057V37.781z M117.494,25.77 c5.023,0,8.3,4.368,8.3,9.173c0,5.022-3.058,8.953-8.3,8.953c-5.241,0-8.299-3.931-8.299-8.953S112.472,25.77,117.494,25.77 L117.494,25.77z M197.645,31.012h16.379c-0.654-4.15-3.931-5.678-7.861-5.678C202.012,25.334,198.736,27.299,197.645,31.012z"/></svg><view id="location" viewBox="0 270 54 96"/><svg width="54" height="96" viewBox="0 0 54 96" id="location-" y="270"><path fill="#FFF" d="M27,5C12.157,5,0.125,17.032,0.125,31.875C0.125,58.75,27,91,27,91s26.875-32.25,26.875-59.125 C53.875,17.032,41.846,5,27,5 M27,48.001c-8.905,0-16.124-7.22-16.124-16.125c0-8.906,7.219-16.125,16.124-16.125 c8.908,0,16.126,7.219,16.126,16.125C43.126,40.782,35.908,48.001,27,48.001"/></svg><view id="tollwerk" viewBox="0 366 324 86"/><svg width="324" height="86" viewBox="0 0 324 86" id="tollwerk-" y="366"><path fill="#00285A" d="M323.535,70.678h-12.145l-8.15-13.262l-4.419,5.01v8.252h-10.537V17.931h10.537v31.788l11.522-14.384 h12.465l-13.116,14.812L323.535,70.678z M235.523,64c-5.229,0-7.962-2.629-8.595-8.252h17.389v-7.375h-4.356h-12.846 c0.791-3.945,2.842-5.65,6.833-5.65l10.369,0.003v-0.004v-7.388h-10.095l-1.04,0.041c-10.388,0.426-15.882,6.57-15.882,17.867 c0,11.854,6.053,18.381,17.041,18.381c4.655,0,9.065-0.945,13.477-2.887l-2.351-6.834C241.8,63.289,238.456,64,235.523,64z M273.33,44.785c0.543-0.047,1.063-0.037,1.566,0.014c1.178,0.119,2.244,0.482,3.178,1.006l3.189-9.273 c-1.076-0.666-2.139-1.15-3.179-1.473c-0.038-0.012-0.077-0.025-0.115-0.037c-3.798-1.135-7.288-0.113-9.964,2.02 c-1.402,1.004-2.827,2.354-4.357,4.102l-0.497,0.568v-6.377h-10.458v35.343h10.537V52.057l0.046-0.07 c1.083-1.656,2.159-2.996,3.267-4.057C269.002,45.893,271.295,44.963,273.33,44.785z M201.435,56.951l-8.32-21.617h-7.245 l-7.904,21.675l-4.807-21.675h-10.894l10.153,35.343h7.863l8.934-21.889l8.853,21.889h7.783l9.766-35.343h-10.103L201.435,56.951z M268.408,58.547l7.656,12.137h12.149l-11.42-15.939L268.408,58.547z M85.605,43c0,23.512-19.06,42.571-42.571,42.571 C19.523,85.57,0.464,66.512,0.464,43c0-1.247,0.065-2.479,0.17-3.7l16.484-18.338l-5.721-6.44c1.519-1.686,3.172-3.245,4.939-4.671 l8.021,11.437L12.727,37.548l6.162,4.827l19.389-21.413L23.882,4.983c5.759-2.906,12.261-4.554,19.152-4.554 C66.546,0.429,85.605,19.489,85.605,43z M71.923,33.543H55.495H44.294h-9.485v9.914h9.485v6.408c0,14.307,2.837,22.059,17.8,22.059 c2.36,0,4.598-0.154,6.652-0.459l-0.627-8.904c-0.841,0.127-2.077,0.127-3.73,0.127c-6.566,0-8.894-3.355-8.894-12.822v-6.408 h16.428V33.543z M124.383,52.297c0,12.102-6.9,19.326-18.459,19.326c-11.065,0-17.671-6.93-17.671-18.537 c0-11.659,6.93-18.619,18.537-18.619C117.806,34.467,124.383,41.133,124.383,52.297z M113.61,52.85 c0-6.93-2.48-10.443-7.372-10.443c-4.734,0-7.135,3.46-7.135,10.285c0,7.242,2.507,10.914,7.45,10.914 C111.236,63.605,113.61,59.986,113.61,52.85z M147.511,56.031h10.537v-38.1h-10.537V56.031z M129.49,70.678h10.536V17.931H129.49 V70.678z"/></svg></svg>