<?xml version="1.0" encoding="utf-8"?><!DOCTYPE svg PUBLIC "-//W3C//DTD SVG 1.1//EN" "http://www.w3.org/Graphics/SVG/1.1/DTD/svg11.dtd"><svg width="509" height="665" viewBox="0 0 509 665" xmlns="http://www.w3.org/2000/svg" xmlns:xlink="http://www.w3.org/1999/xlink"><view id="a11y" viewBox="0 0 200 200"/><svg width="200" height="200" viewBox="0 0 200 200" id="a11y-" xmlns="http://www.w3.org/2000/svg"><g fill="#FFF"><circle cx="100" cy="35.819" r="14.926"/><path d="M164.772,50.73c-0.832-4.037-4.778-6.636-8.815-5.802L100,56.465L44.043,44.928 c-4.037-0.835-7.983,1.765-8.815,5.802c-0.833,4.036,1.765,7.983,5.803,8.815l41.805,8.62v45.563l-11.782,56.387 c-0.843,4.034,1.743,7.988,5.778,8.831c0.515,0.107,1.028,0.159,1.535,0.159c3.458,0,6.562-2.419,7.297-5.938l12.015-57.498 c0.224-1.189,1.086-2.238,2.323-2.238c1.236,0,2.123,1.049,2.322,2.238l12.016,57.498c0.734,3.519,3.837,5.938,7.296,5.938 c0.506,0,1.021-0.052,1.535-0.159c4.034-0.843,6.622-4.797,5.777-8.831l-11.782-56.391V68.166l41.806-8.62 C163.008,58.714,165.604,54.767,164.772,50.73z"/></g></svg><view id="btconf" viewBox="0 200 250.318 86"/><svg width="250.318" height="86" viewBox="0 0 250.318 86" id="btconf-" y="200" xmlns="http://www.w3.org/2000/svg"><path d="M4.618 40.632L0 50.013l24.104.434 4.198-8.712.612 44.122 12.414-4.763L42 43.806l-13.593-2.808L4.618 40.632zM42.868 44.528v5.774l2.886-1.299L42.868 44.528zM27.778 44.886l-2.375 9.746L4.474 51.888l1.058 32.67L28.77 86 27.778 44.886zM30.497 10.896c0-3.139.996-5.966 2.588-7.955-3.25.962-8.783 3.119-11.723 7.236-2.969 4.156-2.021 29.156-2.021 29.156l6.061.288c0 0-.575-19.199.576-21.072 1.271-2.064 4.099-1.572 6.389-.711-1.167-1.886-1.871-4.304-1.871-6.94M40.188 0c-4.505 0-8.157 4.878-8.157 10.896 0 6.019 3.652 10.896 8.158 10.896 4.507 0 8.16-4.879 8.16-10.896S44.695 0 40.188 0M39.698 21.027c-3.872 0-7.008-4.586-7.008-10.24s3.137-10.239 7.008-10.239 7.008 4.583 7.008 10.239c0 5.654-3.138 10.239-7.009 10.239M43.107 13.737c-1.02 0-1.877-.673-2.135-1.587l2.135-.575-2.188-.338c.167-1.034 1.082-1.825 2.188-1.825.717 0 1.354.334 1.759.85-.447-1.604-1.836-2.774-3.48-2.774-2.006 0-3.632 1.74-3.632 3.887 0 2.146 1.625 3.887 3.631 3.887 1.406 0 2.625-.856 3.229-2.105-.396.358-.923.579-1.507.579M39.672 1.29c1.791 0 2.859 1.281 2.859 1.281s-1.041-.683-2.773-.683c-1.733 0-3.098 1.072-3.098 1.072s.991-1.668 3.01-1.668M37.665 20.153c0 0 1.408.555 2.133.555.726 0 1.878-.385 1.878-.385s-.851.17-1.834.17C38.859 20.494 37.666 20.153 37.665 20.153M106.057 41.834c2.778 0 5.155 2.792 5.255 2.911l.337.404-.349.394c-.007.007-.101.118-.262.341.598-.021 1.234-.06 1.901-.121.313-.71.636-1.325.968-1.813 1.032-1.405 2.277-2.118 3.7-2.118 1.764 0 3.361 1.122 4.321 1.975v-7.956h-5.925c-.807 2.038-2.704 2.181-4.03 2.181-3.128 0-3.839-1.517-3.982-3.793h14.176v-3.698c0-6.78-3.036-12.231-12.376-12.231-8.152 0-14.267 4.171-14.267 13.889 0 6.072 2.41 10.077 6.604 12.113.075-.127.153-.25.231-.361 1.032-1.406 2.276-2.119 3.699-2.119M109.937 25.803c1.09 0 1.661.71 1.661 1.896v.378h-3.747c0-.949.568-2.276 2.086-2.276M244.653 41.834c2.756 0 5.156 2.79 5.257 2.908l.33.39-.191.232.27-.028v-7.16h-1.612c-.758 0-1.138-.284-1.138-.948V9.162h-14.603v7.159h2.75v2.466c-1.138-.238-2.321-.474-3.604-.474-7.253 0-12.467 3.934-12.467 13.984 0 11.521 5.547 13.605 9.814 13.605 3.081 0 5.641-.804 7.632-1.99.855.788 1.902 1.268 3.064 1.555.267-.572.548-1.083.849-1.506C242.009 42.55 243.234 41.835 244.653 41.834M235.717 36.708c-.664.473-1.328.616-1.802.616-1.471 0-2.228-1.138-2.228-5.025 0-5.026.427-5.547 2.844-5.547.428 0 .712 0 1.187.142L235.717 36.708 235.717 36.708zM83.669 18.312c-1.943 0-3.936.427-5.879 1.09V9.162H63.188v7.159h1.613c.807 0 1.09.284 1.137.9v26.977c3.461.853 8.202 1.706 12.706 1.706 8.914 0 15.218-4.219 15.218-14.697C93.863 21.771 89.12 18.312 83.669 18.312M78.786 36.944c-.284 0-.616-.047-.996-.094v-8.914c.569-.332 1.376-.521 1.943-.521 1.802 0 2.086.996 2.086 4.409C81.82 35.854 81.202 36.944 78.786 36.944"/><path d="M140.846,26.041h1.849l-2.418,8.723h-0.711l-1.897-8.723h1.754v-7.159h-16.736v7.158h2.181 c0.332,0,0.569,0.047,0.662,0.332l5.786,19.011h4.504l-5.263,6.069v3.604h12.327l9.055-28.113c0.142-0.569,0.236-0.902,0.852-0.902 h1.897V18.88h-13.843v7.159L140.846,26.041z M169.437,18.313c-9.15,0-14.271,4.882-14.271,13.794 c0,8.914,5.12,13.797,14.271,13.797s14.316-5.025,14.316-13.796c0-8.771-5.169-13.794-14.317-13.794 M169.482,37.513 c-1.943,0-2.228-1.611-2.228-5.405c0-3.792,0.284-5.405,2.228-5.405s2.227,1.613,2.227,5.405 C171.709,35.901,171.426,37.513,169.482,37.513 M215.709,37.276V26.608c0-6.306-3.745-8.295-8.107-8.295 c-2.893,0-5.878,0.948-7.918,2.511h-0.237V18.88h-13.748v7.159h1.612c0.948,0,1.138,0.379,1.138,1.185v9.767 c0,0.806-0.188,1.185-1.138,1.185h-1.612v7.16h16.593v-7.16H200.3V27.936c0.663-0.473,1.66-0.9,2.228-0.9 c0.996,0,1.327,0.428,1.327,1.518v16.782h14.604v-7.16h-1.897C215.945,38.129,215.709,37.845,215.709,37.276 M248.824,70.921 h-0.102c-1.29,3.712-3.508,6.857-5.105,6.496c-1.599-0.31-1.443-4.641-0.878-9.28c2.219-17.533,6.703-22.999,6.703-22.999 s-4.641-5.466-7.94-0.826c-1.649,2.323-2.888,7.581-3.713,13.252c-0.309-0.154-0.619-0.309-0.877-0.361 c-5.775-1.7-11.087,2.992-12.479,10.521c-0.249,1.381-0.355,2.702-0.339,3.934c-1.414,3.38-3.899,6.098-5.486,5.76 c-1.599-0.361-1.29-4.536-0.155-9.28c1.703-7.221,1.031-11.188-1.185-11.809c-2.632-0.619-6.963,2.114-10.521,8.146 c1.032-6.238,2.166-7.115,2.166-7.115s-3.197-3.558-6.651-1.236c-2.678,1.785-2.973,7.112-2.965,15.571 c-1.308,3.362-3.286,6.061-4.819,5.725c-1.547-0.309-1.65-4.641-0.826-9.28c1.135-6.035,3.147-10.107,3.147-10.107 c-2.115-2.166-5.002-2.321-6.911,0.568c-0.567-0.672-1.29-1.136-2.114-1.395c-5.724-1.7-11.085,2.991-12.479,10.52 c-0.223,1.236-0.329,2.426-0.338,3.545c-1.373,3.587-3.838,6.962-5.436,6.614c-1.548-0.31-1.238-5.622,2.371-15.161 c1.649-4.383,1.394-5.053-6.601-4.383c-4.796,0.361-6.651-1.857-6.651-1.857s-0.206,0-0.361,0.155 c-1.238,1.702-0.825,4.486,1.032,6.137c-0.416,2.563-1.183,5.567-2.187,8.139c-0.009,0.003-0.02,0.005-0.03,0.009h-0.051 c-0.273,0.759-0.585,1.513-0.916,2.23c-0.203,0.396-0.415,0.773-0.632,1.12c0,0,0.006,0.039,0.036,0.081 c-1.174,2.195-2.528,3.773-3.645,3.528c-1.548-0.309,0.052-5.618,3.66-15.157c1.651-4.384,1.394-5.055-6.548-4.384 c-4.847,0.309-6.704-1.858-6.704-1.858s-0.204,0-0.361,0.155c-1.236,1.755-0.721,4.642,1.29,6.344 c-0.051,0.154-0.103,0.31-0.103,0.412c-1.135,7.373-5.466,15.417-10.88,14.593c-1.959-0.259-3.3-2.063-4.021-4.332 c12.582-6.445,15.469-15.314,6.445-17.067c-6.652-1.187-12.014,3.764-13.407,11.138c-0.25,1.332-0.301,2.579-0.201,3.733 c-1.349,3.495-3.382,6.55-4.902,5.961c-1.444-0.516-0.981-9.125-0.104-14.128c2.371-13.717,6.342-18.151,6.342-18.151 s-4.589-5.466-7.992-0.827c-2.114,3.095-3.919,11.707-4.744,19.338c-0.267,2.567-0.343,5.323-0.168,7.852 c-1.349,3.477-3.371,6.502-4.884,5.916c-1.446-0.517-0.981-9.127-0.104-14.129c2.371-13.717,6.342-18.152,6.342-18.152 s-4.589-5.465-7.992-0.825c-2.114,3.094-3.919,11.706-4.745,19.337c-0.263,2.534-0.339,5.25-0.174,7.751 c-1.472,3.802-5.125,7.421-9.776,6.48c-1.548-0.309-2.888-1.96-3.712-3.971c13.046-6.446,15.16-15.572,6.085-17.273 c-6.651-1.188-12.015,3.762-13.459,11.085c-0.224,1.221-0.258,2.376-0.149,3.463c-1.347,3.605-3.443,6.836-4.954,6.231 c-1.445-0.516-0.981-8.715-0.207-13.717c0.516-3.453,1.032-6.031,1.651-8.25c2.423,0.36,4.795,0.567,6.188-0.361 c3.042-2.062,1.187-6.084,1.187-6.084c-2.271,0.877-3.765,1.703-5.931,2.063c0.981-2.475,1.856-3.505,1.856-3.505 s-3.146-3.405-7.013,0.206c-0.826,0.723-1.496,1.858-2.011,3.352l-0.67-0.052c-3.507-0.413-4.59,2.424-2.837,4.073 c0,0,0.774-0.259,2.424-0.31c-0.568,2.631-0.98,5.621-1.29,8.817c-0.772,6.961,0.051,15.313,3.406,16.758 c3.105,1.364,6.811-1.866,8.925-6.204c1.462,3.747,4.698,6.188,7.315,6.669c6.342,1.101,11.101-2.424,13.385-6.078 c0.524,2.8,1.487,4.945,3.013,5.613c2.96,1.282,6.414-1.491,8.574-5.427c0.532,2.709,1.485,4.775,2.976,5.427 c3.082,1.333,6.695-1.722,8.831-5.91c1.341,3.563,4.332,5.803,7.258,6.375c7.992,1.6,14.438-5.879,16.706-16.655v-0.103 c0.62,0.103,1.342,0.155,2.114,0.051l0.413-0.051c-3.147,9.227-3.352,15.726,0.465,16.757c3.622,0.917,6.794-2.163,8.832-6.337 c0.118-0.145,0.234-0.316,0.344-0.521c1.703-3.194,3.043-6.701,3.919-9.898c0.671,0.155,1.445,0.207,2.32,0.104l0.465-0.104 c-3.196,9.229-2.115,15.727,1.804,16.758c3.451,0.885,6.822-1.949,8.981-5.895c0.806,3.3,2.774,5.363,5.457,5.173 c3.712-0.259,5.62-3.971,6.702-7.013c0.155,3.919,1.187,6.601,3.765,7.271c3.182,0.806,6.011-1.193,8.035-4.464l0.009,1.577 c0,1.752,0.206,2.475,0.206,2.475c3.764,1.444,5.259,0,6.496-9.692c3.146-7.581,5.157-9.593,6.136-9.335 c1.032,0.206,1.445,2.064-0.206,8.199c-1.855,6.962,0.31,11.396,3.868,11.859c2.933,0.394,6.49-2.115,8.699-5.938 c0.823,3.235,2.778,5.251,5.429,5.061c3.661-0.257,5.62-3.97,6.651-7.012c0.207,3.92,1.237,6.601,3.816,7.271 c4.021,1.031,7.579-2.526,9.487-7.477c0.668-1.65-0.156-2.321-1.084-2.012 M83.824,66.95c0.928-3.558,3.093-8.766,5.208-8.146 c1.804,0.517,0.877,9.076-5.157,13.304C83.515,70.354,83.463,68.549,83.824,66.95 M127.959,66.898 c0.981-3.56,3.146-8.716,5.209-8.148c1.803,0.516,0.516,8.199-5.519,12.324C127.547,69.682,127.65,68.187,127.959,66.898 M188.34,63.235c-0.309,1.805-0.567,3.559-0.67,5.156c-1.703,5.981-3.816,8.354-5.209,7.992c-1.649-0.464-1.444-5.516-0.412-9.435 c0.929-3.559,2.786-7.374,5.312-7.22c0.672,0.053,1.186,0.258,1.649,0.67c-0.31,0.827-0.516,1.754-0.671,2.838 M236.706,68.753 c-1.703,5.725-3.816,7.994-5.158,7.633c-1.649-0.466-1.394-5.518-0.361-9.437c0.929-3.558,2.786-7.374,5.312-7.219 c0.361,0.052,0.671,0.104,0.981,0.206c-0.413,3.095-0.671,6.087-0.774,8.818"/></svg><view id="contentful" viewBox="0 286 420.864 86"/><svg width="420.864" height="86" viewBox="0 0 420.864 86" id="contentful-" y="286" xmlns="http://www.w3.org/2000/svg"><path fill="#FAE501" d="M26.07,59.932c-4.57-4.3-7.257-10.213-7.257-16.932S21.5,30.368,25.8,26.069 c3.762-3.764,3.762-9.675,0-13.438c-3.762-3.764-9.675-3.764-13.437,0C4.837,20.425,0,31.176,0,43 c0,11.826,4.837,22.576,12.632,30.368c3.763,3.764,9.674,3.764,13.438,0C29.563,69.608,29.563,63.694,26.07,59.932z"/><path fill="#4FB5E1" d="M26.07,26.069c4.298-4.568,10.212-7.257,16.93-7.257c6.719,0,12.632,2.688,16.931,6.988 c3.764,3.763,9.675,3.763,13.438,0c3.763-3.763,3.763-9.676,0-13.438C65.575,4.837,54.825,0,43,0 C31.175,0,20.426,4.837,12.632,12.632c-3.764,3.763-3.764,9.674,0,13.438C16.395,29.563,22.306,29.563,26.07,26.069z"/><path fill="#F05751" d="M59.931,59.932C55.632,64.501,49.719,67.188,43,67.188c-6.718,0-12.632-2.687-16.93-6.985 c-3.764-3.764-9.675-3.764-13.438,0c-3.764,3.76-3.764,9.674,0,13.437C20.426,81.164,31.175,86,43,86 c11.825,0,22.575-4.836,30.369-12.632c3.763-3.76,3.763-9.674,0-13.437C69.606,56.438,63.695,56.438,59.931,59.932z"/><circle fill="#0681B6" cx="19.351" cy="19.351" r="9.406"/><path fill="#CD4739" d="M19.351,57.243c5.194,0,9.406,4.214,9.406,9.406c0,5.194-4.212,9.407-9.406,9.407 c-5.195,0-9.406-4.213-9.406-9.407C9.944,61.457,14.155,57.243,19.351,57.243z"/><path fill="#2A3039" d="M115.563,51.869c2.687-2.15,3.226-0.807,5.375,1.344c1.074,1.075,4.3,3.226,2.148,4.837 c-4.298,3.496-8.063,5.107-13.704,5.107c-12.363,0-21.232-9.406-20.694-21.501c0.269-5.644,2.418-10.75,6.718-14.243 c4.032-3.226,8.869-4.838,13.977-4.569c2.687,0,4.837,0.537,7.255,1.344c1.612,0.539,3.226,1.344,4.57,2.418 c2.687,2.151,1.344,3.226-0.538,5.376c-0.538,0.538-0.807,1.074-1.344,1.343c-1.076,1.076-1.881,1.883-3.225,0.808 c-2.688-1.882-6.451-2.956-9.676-2.15c-10.75,2.687-10.213,21.77,2.957,21.77C111.532,54.018,113.95,53.213,115.563,51.869z M414.146,62.351c-1.879,0-3.224-1.344-3.224-3.226V16.931c0-1.88,1.345-3.224,3.224-3.224h3.496c1.879,0,3.223,1.344,3.223,3.224 v42.194c0,1.882-1.344,3.226-3.223,3.226H414.146z M395.604,57.514c-3.764,3.493-7.524,5.375-12.899,5.375 c-11.021,0-16.126-9.138-16.126-19.082V26.605c0-1.879,1.344-3.225,3.224-3.225h3.496c1.878,0,3.223,1.346,3.223,3.225v17.201 c0,5.645,2.958,9.944,9.139,9.944c5.912,0,9.674-5.107,9.674-10.481V26.605c0-1.879,1.344-3.225,3.226-3.225h3.493 c1.882,0,3.226,1.346,3.226,3.225v32.52c0,1.882-1.344,3.226-3.226,3.226h-2.955c-1.882,0-2.955-1.614-3.226-3.226L395.604,57.514 L395.604,57.514z M353.677,23.649h6.719c1.881,0,3.226,1.612,3.226,3.226v2.149c0,1.882-1.345,3.226-3.226,3.226h-6.719v26.875 c0,1.882-1.344,3.226-3.224,3.226h-3.496c-1.879,0-3.223-1.344-3.223-3.226V22.306c0-8.063,4.566-14.512,12.899-15.318h5.105 c1.882,0,3.226,1.613,3.226,3.224v2.151c0,1.88-1.344,3.224-3.226,3.224h-2.688c-4.03,0-5.643,2.957-5.643,6.718v1.344H353.677z M329.221,23.649h7.524c1.882,0,3.226,1.344,3.226,3.226v2.149c0,1.882-1.344,3.226-3.226,3.226h-7.524v16.394 c0,3.226,1.611,4.839,4.837,4.839h1.614c1.88,0,3.223,1.344,3.223,3.224v2.419c0,1.882-1.343,3.226-3.223,3.226h-4.569 c-8.063-0.537-11.556-5.645-11.556-13.707V16.931c0-1.88,1.344-3.224,3.223-3.224h3.496c1.88,0,3.224,1.344,3.224,3.224v6.719 H329.221z M221.452,23.649h7.525c1.881,0,3.226,1.344,3.226,3.226v2.149c0,1.882-1.345,3.226-3.226,3.226h-7.525v16.394 c0,3.226,1.611,5.107,4.837,5.107h1.611c1.883,0,3.226,1.344,3.226,3.226v2.148c0,1.882-1.343,3.226-3.226,3.226h-2.148 c-8.869,0-13.977-3.763-13.977-13.707V16.931c0-1.88,1.344-3.224,3.226-3.224h3.494c1.882,0,3.226,1.344,3.226,3.224v6.719H221.452 L221.452,23.649z M177.645,28.219c3.493-3.492,7.525-5.375,12.363-5.375c11.019,0,16.662,8.868,16.662,19.082v17.199 c0,1.882-1.344,3.226-3.225,3.226h-3.494c-1.88,0-3.224-1.344-3.224-3.226V41.926c0-5.645-2.958-9.944-9.14-9.944 c-5.911,0-9.674,4.838-9.674,10.481v16.662c0,1.882-1.344,3.226-3.226,3.226h-3.493c-1.881,0-3.226-1.344-3.226-3.226v-32.52 c0-1.879,1.345-3.225,3.226-3.225h2.956c1.881,0,2.956,1.612,3.226,3.225L177.645,28.219z M285.683,28.219 c3.493-3.492,7.524-5.375,12.364-5.375c11.019,0,16.66,8.868,16.66,19.082v17.199c0,1.882-1.344,3.226-3.223,3.226h-3.496 c-1.879,0-3.224-1.344-3.224-3.226V41.926c0-5.645-2.957-9.944-9.138-9.944c-5.913,0-9.674,4.838-9.674,10.481v16.662 c0,1.882-1.344,3.226-3.226,3.226h-3.494c-1.882,0-3.226-1.344-3.226-3.226v-32.52c0-1.879,1.344-3.225,3.226-3.225h2.955 c1.883,0,2.956,1.612,3.226,3.225L285.683,28.219L285.683,28.219z M144.588,22.575c-11.825,0-20.156,8.601-20.156,20.425 c0,11.826,8.331,20.424,20.156,20.424c12.094,0,20.425-8.329,20.425-20.424C165.013,31.176,156.414,22.575,144.588,22.575z M242.953,46.493c0.805,5.376,6.181,7.795,11.285,7.795c2.419,0,5.107-0.537,7.257-1.614c0.27-0.268,0.806-0.268,1.076-0.534 c1.344-0.81,2.417-1.077,3.492,0l1.882,1.878l1.612,1.614c1.613,2.149,0.538,2.688-1.344,3.762 c-4.031,2.687-9.136,4.03-13.976,4.03c-12.899,0-21.5-7.792-21.5-20.693c0-12.362,8.601-20.425,20.693-20.425 c12.632,0,19.619,7.258,19.89,19.89c0,3.493,0.268,4.568-3.226,4.568h-27.143V46.493z M144.588,31.712 c6.182,0,10.214,5.375,10.214,11.288c0,6.181-3.763,11.018-10.214,11.018c-6.45,0-10.213-4.837-10.213-11.018 S138.407,31.712,144.588,31.712L144.588,31.712z M243.221,38.163h20.156c-0.806-5.107-4.837-6.987-9.675-6.987 C248.595,31.176,244.564,33.594,243.221,38.163z"/></svg><view id="location" viewBox="0 372 54 96"/><svg width="54" height="96" viewBox="0 0 54 96" id="location-" y="372" xmlns="http://www.w3.org/2000/svg"><path fill="#FFF" d="M27,5C12.157,5,0.125,17.032,0.125,31.875C0.125,58.75,27,91,27,91s26.875-32.25,26.875-59.125 C53.875,17.032,41.846,5,27,5 M27,48.001c-8.905,0-16.124-7.22-16.124-16.125c0-8.906,7.219-16.125,16.124-16.125 c8.908,0,16.126,7.219,16.126,16.125C43.126,40.782,35.908,48.001,27,48.001"/></svg><view id="mindscreen" viewBox="0 468 509 111"/><svg viewBox="0 0 509 111" fill-rule="evenodd" clip-rule="evenodd" stroke-linejoin="round" stroke-miterlimit="1.414" width="509" height="111" id="mindscreen-" y="468" xmlns="http://www.w3.org/2000/svg"><path d="M490.19,80.754c0,-4.091 -3.346,-7.344 -7.443,-7.344c-3.996,0 -7.156,3.253 -7.156,7.344c0,4.185 3.258,7.625 7.344,7.625c3.909,0 7.255,-3.44 7.255,-7.625m-26.133,6.231l0,-35.149c0,-8.651 -5.018,-13.018 -12.273,-13.018c-5.023,0 -9.391,2.228 -14.408,6.512c0,-2.514 -0.561,-4.565 -1.676,-6.699l-9.301,2.603c1.301,3.352 1.771,6.229 1.771,11.159l0,34.592l10.039,0l0,-34.123c3.072,-3.077 7.35,-5.298 10.326,-5.298c3.904,0 5.387,1.764 5.387,8.176l0,31.245l10.135,0Zm-56.81,-28.268l-17.391,0c0,-7.625 3.166,-12.186 8.932,-12.186c5.111,0.001 8.459,4.561 8.459,12.186m10.601,7.532l0,-2.14c0,-10.972 -2.051,-16.733 -6.143,-20.455c-3.998,-3.627 -8.275,-4.835 -12.918,-4.835c-5.953,0 -10.607,1.946 -14.418,6.324c-4.09,4.642 -5.861,10.134 -5.861,18.409c0,15.069 8.371,24.64 21.668,24.64c6.324,0 11.998,-2.039 16.922,-6.229l-3.998,-6.231c-3.527,3.071 -7.338,4.654 -11.709,4.654c-9.209,0 -11.629,-6.887 -11.629,-13.393l0,-0.744l28.086,0Zm-57.701,-7.532l-17.391,0c0,-7.625 3.166,-12.186 8.928,-12.186c5.115,0.001 8.463,4.561 8.463,12.186m10.596,7.532l0,-2.14c0,-10.972 -2.039,-16.733 -6.137,-20.455c-3.996,-3.627 -8.275,-4.835 -12.922,-4.835c-5.949,0 -10.604,1.946 -14.412,6.324c-4.092,4.642 -5.861,10.134 -5.861,18.409c0,15.069 8.369,24.64 21.674,24.64c6.318,0 11.992,-2.039 16.914,-6.229l-3.997,-6.232c-3.535,3.071 -7.344,4.654 -11.711,4.654c-9.213,0 -11.629,-6.887 -11.629,-13.393l0,-0.744l28.081,0l0,0.001Zm-42.117,-26.873c-1.213,-0.557 -2.139,-0.745 -3.627,-0.745c-4.561,0 -8.281,2.415 -11.992,7.531c0,-2.608 -0.656,-5.298 -1.77,-7.438l-9.402,2.415c1.033,2.883 1.678,6.699 1.678,12.647l0,33.197l10.232,0l0,-31.8c0.934,-3.81 4.561,-6.976 8.838,-6.976c1.115,0 1.859,0.276 2.879,0.651l3.164,-9.482l0,0Zm-33.243,42.586l-4.836,-6.231c-3.07,3.071 -6.236,4.654 -9.482,4.654c-2.521,0 -4.748,-1.025 -6.236,-2.696c-2.141,-2.326 -3.16,-6.418 -3.16,-12.836c0,-5.86 0.559,-10.227 1.953,-13.11c1.488,-3.071 4.184,-4.741 7.443,-4.741c2.695,0 5.109,1.113 7.9,3.627l5.111,-6.787c-4.18,-3.909 -7.902,-5.117 -13.012,-5.117c-10.516,0 -20.736,8.183 -20.736,25.29c0,15.162 7.162,24.177 19.984,24.177c6.327,0 10.792,-1.951 15.071,-6.23m-42.557,-9.671c0,-5.485 -2.51,-10.69 -11.993,-13.11l-5.857,-1.488c-4.742,-1.208 -6.327,-2.696 -6.327,-5.574c0,-3.634 2.79,-6.043 7.156,-6.043c3.728,0 7.174,1.113 11.54,3.435l3.347,-7.068c-4.003,-2.14 -9.12,-4.085 -15.531,-4.085c-10.412,0 -17.483,6.13 -17.483,14.969c0,6.599 4.185,11.434 11.253,12.923l5.674,1.207c5.298,1.12 7.625,2.978 7.625,6.6c0,3.909 -3.165,6.605 -7.625,6.605c-5.302,0 -11.069,-2.509 -15.25,-4.93l-3.625,7.351c6.042,3.347 12.273,5.205 18.041,5.205c11.341,-0.001 19.055,-6.514 19.055,-15.997m-56.345,2.696c-1.397,2.327 -4.466,4.467 -8.276,4.467c-7.719,0 -9.767,-5.21 -9.767,-15.62c0,-11.347 2.977,-16.558 9.483,-16.558c3.44,0 6.23,1.308 8.56,3.816l0,23.895Zm11.619,11.998c-0.932,-2.321 -1.488,-7.068 -1.488,-16.364l0,-50.592l-10.131,-1.577l0,17.202c0,4.091 0.275,7.72 0.275,7.72c-2.881,-2.978 -6.14,-4.273 -10.136,-4.273c-11.344,0 -19.529,10.04 -19.529,24.821c0,14.7 7.256,24.083 19.253,24.083c4.645,0 8.367,-1.482 11.529,-4.643c0.275,1.947 0.372,2.604 0.835,3.623l9.392,0Zm-50.973,0l0,-35.149c0,-8.651 -5.023,-13.018 -12.278,-13.018c-5.017,0 -9.387,2.228 -14.41,6.512c0,-2.514 -0.56,-4.565 -1.676,-6.699l-9.295,2.603c1.301,3.352 1.764,6.229 1.764,11.159l0,34.592l10.04,0l0,-34.123c3.074,-3.077 7.347,-5.298 10.324,-5.298c3.906,0 5.396,1.764 5.396,8.176l0,31.245l10.135,0Zm-48.986,0l0,-48.166l-10.321,1.858l0,46.308l10.321,0Zm-5.208,-54.027c3.81,0 6.884,-3.065 6.884,-6.787c0,-3.91 -3.074,-6.886 -6.699,-6.886c-3.81,0 -6.787,3.077 -6.787,6.886c0,3.722 2.88,6.787 6.602,6.787m-17.826,54.027l0,-34.404c0,-9.764 -4.555,-13.762 -12.273,-13.762c-5.023,0 -9.489,2.228 -14.043,6.881c-3.44,-5.492 -7.065,-6.881 -11.253,-6.881c-4.37,0 -8.739,2.134 -12.46,5.949c-0.188,-2.603 -0.745,-4.56 -1.673,-6.043l-9.299,2.602c1.117,2.515 1.676,6.048 1.676,11.904l0,33.754l9.949,0l0,-34.867c3.44,-3.165 6.787,-4.654 9.667,-4.654c3.91,0 5.114,1.765 5.114,7.256l0,32.266l9.765,0l0,-34.224c3.252,-3.065 6.514,-5.387 9.951,-5.387c3.625,0 4.839,1.577 4.839,7.063l0,32.546l10.04,0l0,0.001Z" fill-rule="nonzero"/></svg><view id="tollwerk" viewBox="0 579 324 86"/><svg width="324" height="86" viewBox="0 0 324 86" id="tollwerk-" y="579" xmlns="http://www.w3.org/2000/svg"><path fill="#00285A" d="M323.535,70.678h-12.145l-8.15-13.262l-4.419,5.01v8.252h-10.537V17.931h10.537v31.788l11.522-14.384 h12.465l-13.116,14.812L323.535,70.678z M235.523,64c-5.229,0-7.962-2.629-8.595-8.252h17.389v-7.375h-4.356h-12.846 c0.791-3.945,2.842-5.65,6.833-5.65l10.369,0.003v-0.004v-7.388h-10.095l-1.04,0.041c-10.388,0.426-15.882,6.57-15.882,17.867 c0,11.854,6.053,18.381,17.041,18.381c4.655,0,9.065-0.945,13.477-2.887l-2.351-6.834C241.8,63.289,238.456,64,235.523,64z M273.33,44.785c0.543-0.047,1.063-0.037,1.566,0.014c1.178,0.119,2.244,0.482,3.178,1.006l3.189-9.273 c-1.076-0.666-2.139-1.15-3.179-1.473c-0.038-0.012-0.077-0.025-0.115-0.037c-3.798-1.135-7.288-0.113-9.964,2.02 c-1.402,1.004-2.827,2.354-4.357,4.102l-0.497,0.568v-6.377h-10.458v35.343h10.537V52.057l0.046-0.07 c1.083-1.656,2.159-2.996,3.267-4.057C269.002,45.893,271.295,44.963,273.33,44.785z M201.435,56.951l-8.32-21.617h-7.245 l-7.904,21.675l-4.807-21.675h-10.894l10.153,35.343h7.863l8.934-21.889l8.853,21.889h7.783l9.766-35.343h-10.103L201.435,56.951z M268.408,58.547l7.656,12.137h12.149l-11.42-15.939L268.408,58.547z M85.605,43c0,23.512-19.06,42.571-42.571,42.571 C19.523,85.57,0.464,66.512,0.464,43c0-1.247,0.065-2.479,0.17-3.7l16.484-18.338l-5.721-6.44c1.519-1.686,3.172-3.245,4.939-4.671 l8.021,11.437L12.727,37.548l6.162,4.827l19.389-21.413L23.882,4.983c5.759-2.906,12.261-4.554,19.152-4.554 C66.546,0.429,85.605,19.489,85.605,43z M71.923,33.543H55.495H44.294h-9.485v9.914h9.485v6.408c0,14.307,2.837,22.059,17.8,22.059 c2.36,0,4.598-0.154,6.652-0.459l-0.627-8.904c-0.841,0.127-2.077,0.127-3.73,0.127c-6.566,0-8.894-3.355-8.894-12.822v-6.408 h16.428V33.543z M124.383,52.297c0,12.102-6.9,19.326-18.459,19.326c-11.065,0-17.671-6.93-17.671-18.537 c0-11.659,6.93-18.619,18.537-18.619C117.806,34.467,124.383,41.133,124.383,52.297z M113.61,52.85 c0-6.93-2.48-10.443-7.372-10.443c-4.734,0-7.135,3.46-7.135,10.285c0,7.242,2.507,10.914,7.45,10.914 C111.236,63.605,113.61,59.986,113.61,52.85z M147.511,56.031h10.537v-38.1h-10.537V56.031z M129.49,70.678h10.536V17.931H129.49 V70.678z"/></svg></svg>