<?xml version="1.0" encoding="utf-8"?><!DOCTYPE svg PUBLIC "-//W3C//DTD SVG 1.1//EN" "http://www.w3.org/Graphics/SVG/1.1/DTD/svg11.dtd"><svg width="420.864" height="568" viewBox="0 0 420.864 568" xmlns="http://www.w3.org/2000/svg" xmlns:xlink="http://www.w3.org/1999/xlink"><view id="a11y" viewBox="0 0 200 200"/><svg width="200" height="200" viewBox="0 0 200 200" id="a11y-"><g fill="#FFF"><circle cx="100" cy="35.819" r="14.926"/><path d="M164.772,50.73c-0.832-4.037-4.778-6.636-8.815-5.802L100,56.465L44.043,44.928 c-4.037-0.835-7.983,1.765-8.815,5.802c-0.833,4.036,1.765,7.983,5.803,8.815l41.805,8.62v45.563l-11.782,56.387 c-0.843,4.034,1.743,7.988,5.778,8.831c0.515,0.107,1.028,0.159,1.535,0.159c3.458,0,6.562-2.419,7.297-5.938l12.015-57.498 c0.224-1.189,1.086-2.238,2.323-2.238c1.236,0,2.123,1.049,2.322,2.238l12.016,57.498c0.734,3.519,3.837,5.938,7.296,5.938 c0.506,0,1.021-0.052,1.535-0.159c4.034-0.843,6.622-4.797,5.777-8.831l-11.782-56.391V68.166l41.806-8.62 C163.008,58.714,165.604,54.767,164.772,50.73z"/></g></svg><view id="btconf" viewBox="0 200 291.068 100"/><svg version="1" width="291.068" height="100" viewBox="0 0 291.068 100" id="btconf-" y="200"><path d="M5.37 47.246L0 58.154l28.028.504 4.882-10.13.712 51.304 14.434-5.538.782-43.356-15.806-3.266zM49.846 51.777v6.714l3.356-1.51zM32.3 52.193l-2.762 11.332-24.335-3.19 1.23 37.987L33.454 100zM35.462 12.67c0-3.65 1.158-6.938 3.008-9.25-3.778 1.118-10.212 3.626-13.63 8.414-3.453 4.833-2.35 33.902-2.35 33.902l7.048.335s-.668-22.325.67-24.502c1.478-2.4 4.766-1.828 7.428-.827-1.357-2.192-2.174-5.004-2.174-8.07M46.73 0c-5.238 0-9.485 5.672-9.485 12.67s4.247 12.67 9.486 12.67c5.24 0 9.488-5.673 9.488-12.67S51.97 0 46.73 0m-.57 24.45c-4.502 0-8.15-5.332-8.15-11.907S41.658.637 46.16.637s8.148 5.33 8.148 11.906c0 6.575-3.648 11.906-8.15 11.906M50.125 15.973c-1.186 0-2.183-.783-2.483-1.846l2.483-.668-2.544-.393c.194-1.202 1.258-2.122 2.545-2.122.834 0 1.575.388 2.046.988-.52-1.865-2.135-3.226-4.047-3.226-2.333 0-4.224 2.024-4.224 4.52s1.89 4.52 4.223 4.52c1.635 0 3.052-.995 3.754-2.448-.46.416-1.074.673-1.752.673M46.13 1.5c2.083 0 3.324 1.49 3.324 1.49s-1.21-.794-3.225-.794-3.602 1.246-3.602 1.246 1.152-1.94 3.5-1.94M43.797 23.434s1.637.645 2.48.645c.844 0 2.184-.447 2.184-.447s-.99.198-2.133.198-2.53-.396-2.53-.396M123.322 48.644c3.23 0 5.994 3.247 6.11 3.385l.392.47-.405.458c-.008.008-.117.136-.305.396.695-.024 1.435-.07 2.21-.14.363-.827.74-1.54 1.126-2.108 1.2-1.634 2.647-2.462 4.303-2.462 2.05 0 3.908 1.305 5.024 2.296v-9.25h-6.89c-.938 2.37-3.143 2.536-4.686 2.536-3.638 0-4.464-1.763-4.63-4.41h16.483v-4.3c0-7.883-3.53-14.222-14.39-14.222-9.48 0-16.59 4.85-16.59 16.15 0 7.06 2.803 11.717 7.68 14.084.087-.147.177-.29.268-.42 1.2-1.635 2.647-2.464 4.302-2.464m4.51-18.64c1.267 0 1.93.826 1.93 2.205v.44h-4.356c0-1.103.66-2.647 2.426-2.647M284.48 48.644c3.204 0 5.996 3.244 6.113 3.382l.384.452-.222.27.313-.033V44.39h-1.875c-.882 0-1.323-.33-1.323-1.102V10.654h-16.98v8.324h3.198v2.867c-1.323-.276-2.7-.55-4.19-.55-8.434 0-14.497 4.574-14.497 16.26 0 13.397 6.45 15.82 11.412 15.82 3.583 0 6.56-.936 8.875-2.314.994.915 2.212 1.474 3.563 1.808.31-.665.637-1.26.987-1.752 1.167-1.64 2.593-2.472 4.242-2.472m-10.39-5.962c-.773.55-1.545.717-2.096.717-1.71 0-2.59-1.324-2.59-5.844 0-5.844.496-6.45 3.307-6.45.497 0 .828 0 1.38.165v11.412zM97.29 21.293c-2.26 0-4.576.496-6.836 1.267V10.654h-16.98v8.324h1.876c.938 0 1.268.33 1.323 1.047v31.367c4.024.992 9.537 1.984 14.774 1.984 10.364 0 17.695-4.906 17.695-17.09 0-10.97-5.514-14.993-11.852-14.993m-5.678 21.665c-.33 0-.716-.055-1.158-.11V32.483c.662-.386 1.6-.606 2.26-.606 2.095 0 2.425 1.158 2.425 5.126 0 4.687-.717 5.955-3.528 5.955"/><path d="M163.775 30.28h2.15l-2.812 10.143h-.827L160.08 30.28h2.04v-8.325h-19.46v8.324h2.536c.386 0 .662.054.77.385l6.727 22.106h5.237l-6.12 7.057v4.19h14.334l10.53-32.69c.164-.662.274-1.048.99-1.048h2.206v-8.325h-16.097v8.324zM197.02 21.294c-10.64 0-16.594 5.677-16.594 16.04 0 10.365 5.953 16.043 16.593 16.043s16.647-5.843 16.647-16.042-6.01-16.04-16.648-16.04m.054 22.325c-2.26 0-2.59-1.874-2.59-6.285 0-4.41.33-6.285 2.59-6.285s2.59 1.875 2.59 6.285-.33 6.285-2.59 6.285M250.824 43.344V30.94c0-7.332-4.355-9.646-9.427-9.646-3.363 0-6.835 1.102-9.207 2.92h-.276v-2.26h-15.986v8.325h1.874c1.103 0 1.324.44 1.324 1.377v11.356c0 .937-.22 1.378-1.324 1.378h-1.874v8.325h19.294V44.39h-2.315V32.484c.77-.55 1.93-1.047 2.59-1.047 1.158 0 1.543.497 1.543 1.764v19.515h16.98V44.39h-2.206c-.715-.054-.99-.384-.99-1.046M289.33 82.466h-.118c-1.5 4.316-4.078 7.974-5.937 7.554-1.858-.36-1.678-5.396-1.02-10.792 2.58-20.386 7.795-26.742 7.795-26.742s-5.397-6.355-9.234-.96c-1.918 2.7-3.357 8.814-4.317 15.41-.36-.18-.72-.36-1.02-.42-6.716-1.978-12.892 3.478-14.51 12.232-.29 1.606-.414 3.142-.394 4.575-1.645 3.93-4.534 7.09-6.38 6.697-1.858-.42-1.5-5.275-.18-10.792 1.98-8.395 1.2-13.01-1.378-13.73-3.06-.72-8.096 2.458-12.233 9.473 1.2-7.254 2.52-8.273 2.52-8.273s-3.718-4.137-7.735-1.438c-3.114 2.075-3.457 8.27-3.448 18.105-1.52 3.91-3.82 7.047-5.604 6.656-1.798-.358-1.918-5.395-.96-10.79 1.32-7.017 3.66-11.753 3.66-11.753-2.46-2.518-5.817-2.698-8.036.66-.66-.78-1.5-1.32-2.458-1.62-6.656-1.978-12.89 3.478-14.51 12.232-.26 1.438-.384 2.82-.394 4.122-1.596 4.17-4.463 8.095-6.32 7.69-1.8-.36-1.44-6.536 2.757-17.628 1.918-5.097 1.62-5.876-7.675-5.097-5.576.42-7.734-2.16-7.734-2.16s-.24 0-.42.18c-1.44 1.98-.96 5.217 1.2 7.136-.484 2.98-1.375 6.474-2.543 9.464-.01.004-.023.006-.034.01h-.06c-.318.883-.68 1.76-1.065 2.593-.237.462-.483.9-.735 1.304 0 0 .007.044.042.093-1.365 2.553-2.94 4.388-4.237 4.104-1.8-.36.06-6.534 4.256-17.626 1.92-5.097 1.62-5.876-7.614-5.097-5.636.36-7.795-2.16-7.795-2.16s-.238 0-.42.18c-1.438 2.04-.838 5.397 1.5 7.376-.06.18-.12.36-.12.48-1.32 8.573-6.356 17.927-12.652 16.967-2.278-.3-3.837-2.398-4.676-5.036 14.63-7.495 17.988-17.808 7.495-19.846-7.735-1.38-13.97 4.376-15.59 12.95-.29 1.55-.35 3-.234 4.342-1.568 4.064-3.932 7.616-5.7 6.93-1.68-.598-1.14-10.61-.12-16.427 2.757-15.95 7.374-21.106 7.374-21.106s-5.336-6.355-9.293-.96c-2.458 3.598-4.557 13.612-5.516 22.485-.31 2.985-.398 6.19-.195 9.13-1.568 4.043-3.92 7.56-5.68 6.878-1.68-.6-1.14-10.612-.12-16.428 2.757-15.95 7.374-21.106 7.374-21.106s-5.336-6.355-9.293-.96c-2.458 3.598-4.557 13.612-5.517 22.485-.306 2.947-.395 6.105-.202 9.014-1.712 4.42-5.96 8.628-11.368 7.535-1.8-.36-3.358-2.28-4.317-4.618 15.17-7.495 17.628-18.107 7.076-20.086-7.734-1.38-13.97 4.376-15.65 12.89-.26 1.42-.3 2.763-.174 4.026-1.565 4.194-4.004 7.95-5.76 7.247-1.68-.6-1.14-10.134-.24-15.95.6-4.016 1.2-7.014 1.92-9.593 2.817.42 5.575.66 7.194-.42 3.538-2.397 1.38-7.074 1.38-7.074-2.64 1.02-4.378 1.98-6.896 2.398 1.14-2.878 2.158-4.077 2.158-4.077s-3.657-3.958-8.154.24c-.96.84-1.74 2.16-2.338 3.897l-.78-.06c-4.078-.48-5.336 2.818-3.298 4.736 0 0 .9-.3 2.818-.36-.66 3.06-1.14 6.536-1.5 10.253-.898 8.093.06 17.807 3.96 19.485 3.61 1.587 7.92-2.17 10.378-7.214 1.7 4.358 5.463 7.195 8.506 7.755 7.374 1.28 12.908-2.818 15.563-7.067.61 3.256 1.73 5.75 3.503 6.527 3.443 1.49 7.458-1.734 9.97-6.31.618 3.15 1.726 5.552 3.46 6.31 3.583 1.55 7.785-2.002 10.268-6.873 1.56 4.143 5.037 6.748 8.44 7.413 9.293 1.86 16.788-6.836 19.426-19.366v-.12c.72.12 1.56.18 2.458.06l.48-.06c-3.66 10.73-3.898 18.286.54 19.485 4.212 1.066 7.9-2.515 10.27-7.368.137-.168.272-.368.4-.606 1.98-3.716 3.538-7.793 4.557-11.51.78.18 1.68.24 2.698.12l.54-.12c-3.717 10.73-2.46 18.286 2.098 19.485 4.012 1.028 7.932-2.266 10.443-6.855.937 3.838 3.227 6.238 6.346 6.016 4.316-.3 6.535-4.617 7.793-8.154.18 4.557 1.38 7.675 4.377 8.454 3.7.937 6.99-1.388 9.343-5.19l.01 1.833c0 2.038.24 2.877.24 2.877 4.376 1.68 6.115 0 7.554-11.27 3.657-8.815 5.996-11.154 7.135-10.854 1.2.24 1.68 2.4-.24 9.534-2.158 8.094.36 13.25 4.498 13.79 3.41.458 7.547-2.46 10.115-6.905.957 3.762 3.23 6.106 6.312 5.886 4.257-.3 6.536-4.617 7.735-8.154.24 4.557 1.438 7.675 4.437 8.454 4.676 1.2 8.813-2.938 11.032-8.693.777-1.92-.182-2.7-1.26-2.34M97.47 77.85c1.08-4.138 3.597-10.194 6.056-9.474 2.098.6 1.02 10.553-5.996 15.47-.42-2.04-.48-4.138-.06-5.997m51.32-.06c1.14-4.138 3.658-10.134 6.057-9.475 2.097.6.6 9.534-6.417 14.33-.12-1.618 0-3.357.36-4.856m70.21-4.258c-.36 2.098-.66 4.137-.78 5.995-1.98 6.955-4.437 9.714-6.056 9.294-1.918-.54-1.68-6.415-.48-10.972 1.08-4.137 3.24-8.574 6.177-8.394.78.06 1.378.3 1.918.78-.36.96-.6 2.038-.78 3.298m56.24 6.415c-1.98 6.655-4.438 9.294-5.998 8.874-1.918-.54-1.62-6.415-.42-10.972 1.08-4.137 3.24-8.574 6.177-8.394.42.06.78.12 1.14.24-.48 3.598-.78 7.077-.9 10.253"/></svg><view id="contentful" viewBox="0 300 420.864 86"/><svg width="420.864" height="86" viewBox="0 0 420.864 86" id="contentful-" y="300"><path fill="#FAE501" d="M26.07,59.932c-4.57-4.3-7.257-10.213-7.257-16.932S21.5,30.368,25.8,26.069 c3.762-3.764,3.762-9.675,0-13.438c-3.762-3.764-9.675-3.764-13.437,0C4.837,20.425,0,31.176,0,43 c0,11.826,4.837,22.576,12.632,30.368c3.763,3.764,9.674,3.764,13.438,0C29.563,69.608,29.563,63.694,26.07,59.932z"/><path fill="#4FB5E1" d="M26.07,26.069c4.298-4.568,10.212-7.257,16.93-7.257c6.719,0,12.632,2.688,16.931,6.988 c3.764,3.763,9.675,3.763,13.438,0c3.763-3.763,3.763-9.676,0-13.438C65.575,4.837,54.825,0,43,0 C31.175,0,20.426,4.837,12.632,12.632c-3.764,3.763-3.764,9.674,0,13.438C16.395,29.563,22.306,29.563,26.07,26.069z"/><path fill="#F05751" d="M59.931,59.932C55.632,64.501,49.719,67.188,43,67.188c-6.718,0-12.632-2.687-16.93-6.985 c-3.764-3.764-9.675-3.764-13.438,0c-3.764,3.76-3.764,9.674,0,13.437C20.426,81.164,31.175,86,43,86 c11.825,0,22.575-4.836,30.369-12.632c3.763-3.76,3.763-9.674,0-13.437C69.606,56.438,63.695,56.438,59.931,59.932z"/><circle fill="#0681B6" cx="19.351" cy="19.351" r="9.406"/><path fill="#CD4739" d="M19.351,57.243c5.194,0,9.406,4.214,9.406,9.406c0,5.194-4.212,9.407-9.406,9.407 c-5.195,0-9.406-4.213-9.406-9.407C9.944,61.457,14.155,57.243,19.351,57.243z"/><path fill="#2A3039" d="M115.563,51.869c2.687-2.15,3.226-0.807,5.375,1.344c1.074,1.075,4.3,3.226,2.148,4.837 c-4.298,3.496-8.063,5.107-13.704,5.107c-12.363,0-21.232-9.406-20.694-21.501c0.269-5.644,2.418-10.75,6.718-14.243 c4.032-3.226,8.869-4.838,13.977-4.569c2.687,0,4.837,0.537,7.255,1.344c1.612,0.539,3.226,1.344,4.57,2.418 c2.687,2.151,1.344,3.226-0.538,5.376c-0.538,0.538-0.807,1.074-1.344,1.343c-1.076,1.076-1.881,1.883-3.225,0.808 c-2.688-1.882-6.451-2.956-9.676-2.15c-10.75,2.687-10.213,21.77,2.957,21.77C111.532,54.018,113.95,53.213,115.563,51.869z M414.146,62.351c-1.879,0-3.224-1.344-3.224-3.226V16.931c0-1.88,1.345-3.224,3.224-3.224h3.496c1.879,0,3.223,1.344,3.223,3.224 v42.194c0,1.882-1.344,3.226-3.223,3.226H414.146z M395.604,57.514c-3.764,3.493-7.524,5.375-12.899,5.375 c-11.021,0-16.126-9.138-16.126-19.082V26.605c0-1.879,1.344-3.225,3.224-3.225h3.496c1.878,0,3.223,1.346,3.223,3.225v17.201 c0,5.645,2.958,9.944,9.139,9.944c5.912,0,9.674-5.107,9.674-10.481V26.605c0-1.879,1.344-3.225,3.226-3.225h3.493 c1.882,0,3.226,1.346,3.226,3.225v32.52c0,1.882-1.344,3.226-3.226,3.226h-2.955c-1.882,0-2.955-1.614-3.226-3.226L395.604,57.514 L395.604,57.514z M353.677,23.649h6.719c1.881,0,3.226,1.612,3.226,3.226v2.149c0,1.882-1.345,3.226-3.226,3.226h-6.719v26.875 c0,1.882-1.344,3.226-3.224,3.226h-3.496c-1.879,0-3.223-1.344-3.223-3.226V22.306c0-8.063,4.566-14.512,12.899-15.318h5.105 c1.882,0,3.226,1.613,3.226,3.224v2.151c0,1.88-1.344,3.224-3.226,3.224h-2.688c-4.03,0-5.643,2.957-5.643,6.718v1.344H353.677z M329.221,23.649h7.524c1.882,0,3.226,1.344,3.226,3.226v2.149c0,1.882-1.344,3.226-3.226,3.226h-7.524v16.394 c0,3.226,1.611,4.839,4.837,4.839h1.614c1.88,0,3.223,1.344,3.223,3.224v2.419c0,1.882-1.343,3.226-3.223,3.226h-4.569 c-8.063-0.537-11.556-5.645-11.556-13.707V16.931c0-1.88,1.344-3.224,3.223-3.224h3.496c1.88,0,3.224,1.344,3.224,3.224v6.719 H329.221z M221.452,23.649h7.525c1.881,0,3.226,1.344,3.226,3.226v2.149c0,1.882-1.345,3.226-3.226,3.226h-7.525v16.394 c0,3.226,1.611,5.107,4.837,5.107h1.611c1.883,0,3.226,1.344,3.226,3.226v2.148c0,1.882-1.343,3.226-3.226,3.226h-2.148 c-8.869,0-13.977-3.763-13.977-13.707V16.931c0-1.88,1.344-3.224,3.226-3.224h3.494c1.882,0,3.226,1.344,3.226,3.224v6.719H221.452 L221.452,23.649z M177.645,28.219c3.493-3.492,7.525-5.375,12.363-5.375c11.019,0,16.662,8.868,16.662,19.082v17.199 c0,1.882-1.344,3.226-3.225,3.226h-3.494c-1.88,0-3.224-1.344-3.224-3.226V41.926c0-5.645-2.958-9.944-9.14-9.944 c-5.911,0-9.674,4.838-9.674,10.481v16.662c0,1.882-1.344,3.226-3.226,3.226h-3.493c-1.881,0-3.226-1.344-3.226-3.226v-32.52 c0-1.879,1.345-3.225,3.226-3.225h2.956c1.881,0,2.956,1.612,3.226,3.225L177.645,28.219z M285.683,28.219 c3.493-3.492,7.524-5.375,12.364-5.375c11.019,0,16.66,8.868,16.66,19.082v17.199c0,1.882-1.344,3.226-3.223,3.226h-3.496 c-1.879,0-3.224-1.344-3.224-3.226V41.926c0-5.645-2.957-9.944-9.138-9.944c-5.913,0-9.674,4.838-9.674,10.481v16.662 c0,1.882-1.344,3.226-3.226,3.226h-3.494c-1.882,0-3.226-1.344-3.226-3.226v-32.52c0-1.879,1.344-3.225,3.226-3.225h2.955 c1.883,0,2.956,1.612,3.226,3.225L285.683,28.219L285.683,28.219z M144.588,22.575c-11.825,0-20.156,8.601-20.156,20.425 c0,11.826,8.331,20.424,20.156,20.424c12.094,0,20.425-8.329,20.425-20.424C165.013,31.176,156.414,22.575,144.588,22.575z M242.953,46.493c0.805,5.376,6.181,7.795,11.285,7.795c2.419,0,5.107-0.537,7.257-1.614c0.27-0.268,0.806-0.268,1.076-0.534 c1.344-0.81,2.417-1.077,3.492,0l1.882,1.878l1.612,1.614c1.613,2.149,0.538,2.688-1.344,3.762 c-4.031,2.687-9.136,4.03-13.976,4.03c-12.899,0-21.5-7.792-21.5-20.693c0-12.362,8.601-20.425,20.693-20.425 c12.632,0,19.619,7.258,19.89,19.89c0,3.493,0.268,4.568-3.226,4.568h-27.143V46.493z M144.588,31.712 c6.182,0,10.214,5.375,10.214,11.288c0,6.181-3.763,11.018-10.214,11.018c-6.45,0-10.213-4.837-10.213-11.018 S138.407,31.712,144.588,31.712L144.588,31.712z M243.221,38.163h20.156c-0.806-5.107-4.837-6.987-9.675-6.987 C248.595,31.176,244.564,33.594,243.221,38.163z"/></svg><view id="location" viewBox="0 386 54 96"/><svg width="54" height="96" viewBox="0 0 54 96" id="location-" y="386"><path fill="#FFF" d="M27,5C12.157,5,0.125,17.032,0.125,31.875C0.125,58.75,27,91,27,91s26.875-32.25,26.875-59.125 C53.875,17.032,41.846,5,27,5 M27,48.001c-8.905,0-16.124-7.22-16.124-16.125c0-8.906,7.219-16.125,16.124-16.125 c8.908,0,16.126,7.219,16.126,16.125C43.126,40.782,35.908,48.001,27,48.001"/></svg><view id="tollwerk" viewBox="0 482 324 86"/><svg width="324" height="86" viewBox="0 0 324 86" id="tollwerk-" y="482"><path fill="#00285A" d="M323.535,70.678h-12.145l-8.15-13.262l-4.419,5.01v8.252h-10.537V17.931h10.537v31.788l11.522-14.384 h12.465l-13.116,14.812L323.535,70.678z M235.523,64c-5.229,0-7.962-2.629-8.595-8.252h17.389v-7.375h-4.356h-12.846 c0.791-3.945,2.842-5.65,6.833-5.65l10.369,0.003v-0.004v-7.388h-10.095l-1.04,0.041c-10.388,0.426-15.882,6.57-15.882,17.867 c0,11.854,6.053,18.381,17.041,18.381c4.655,0,9.065-0.945,13.477-2.887l-2.351-6.834C241.8,63.289,238.456,64,235.523,64z M273.33,44.785c0.543-0.047,1.063-0.037,1.566,0.014c1.178,0.119,2.244,0.482,3.178,1.006l3.189-9.273 c-1.076-0.666-2.139-1.15-3.179-1.473c-0.038-0.012-0.077-0.025-0.115-0.037c-3.798-1.135-7.288-0.113-9.964,2.02 c-1.402,1.004-2.827,2.354-4.357,4.102l-0.497,0.568v-6.377h-10.458v35.343h10.537V52.057l0.046-0.07 c1.083-1.656,2.159-2.996,3.267-4.057C269.002,45.893,271.295,44.963,273.33,44.785z M201.435,56.951l-8.32-21.617h-7.245 l-7.904,21.675l-4.807-21.675h-10.894l10.153,35.343h7.863l8.934-21.889l8.853,21.889h7.783l9.766-35.343h-10.103L201.435,56.951z M268.408,58.547l7.656,12.137h12.149l-11.42-15.939L268.408,58.547z M85.605,43c0,23.512-19.06,42.571-42.571,42.571 C19.523,85.57,0.464,66.512,0.464,43c0-1.247,0.065-2.479,0.17-3.7l16.484-18.338l-5.721-6.44c1.519-1.686,3.172-3.245,4.939-4.671 l8.021,11.437L12.727,37.548l6.162,4.827l19.389-21.413L23.882,4.983c5.759-2.906,12.261-4.554,19.152-4.554 C66.546,0.429,85.605,19.489,85.605,43z M71.923,33.543H55.495H44.294h-9.485v9.914h9.485v6.408c0,14.307,2.837,22.059,17.8,22.059 c2.36,0,4.598-0.154,6.652-0.459l-0.627-8.904c-0.841,0.127-2.077,0.127-3.73,0.127c-6.566,0-8.894-3.355-8.894-12.822v-6.408 h16.428V33.543z M124.383,52.297c0,12.102-6.9,19.326-18.459,19.326c-11.065,0-17.671-6.93-17.671-18.537 c0-11.659,6.93-18.619,18.537-18.619C117.806,34.467,124.383,41.133,124.383,52.297z M113.61,52.85 c0-6.93-2.48-10.443-7.372-10.443c-4.734,0-7.135,3.46-7.135,10.285c0,7.242,2.507,10.914,7.45,10.914 C111.236,63.605,113.61,59.986,113.61,52.85z M147.511,56.031h10.537v-38.1h-10.537V56.031z M129.49,70.678h10.536V17.931H129.49 V70.678z"/></svg></svg>