<?xml version="1.0" encoding="utf-8"?><!DOCTYPE svg PUBLIC "-//W3C//DTD SVG 1.1//EN" "http://www.w3.org/Graphics/SVG/1.1/DTD/svg11.dtd"><svg width="420.864" height="1401" viewBox="0 0 420.864 1401" xmlns="http://www.w3.org/2000/svg" xmlns:xlink="http://www.w3.org/1999/xlink"><view id="a11y" viewBox="0 0 200 200"/><svg width="200" height="200" viewBox="0 0 200 200" id="a11y-" xmlns="http://www.w3.org/2000/svg"><g fill="#FFF"><circle cx="100" cy="35.819" r="14.926"/><path d="M164.772,50.73c-0.832-4.037-4.778-6.636-8.815-5.802L100,56.465L44.043,44.928 c-4.037-0.835-7.983,1.765-8.815,5.802c-0.833,4.036,1.765,7.983,5.803,8.815l41.805,8.62v45.563l-11.782,56.387 c-0.843,4.034,1.743,7.988,5.778,8.831c0.515,0.107,1.028,0.159,1.535,0.159c3.458,0,6.562-2.419,7.297-5.938l12.015-57.498 c0.224-1.189,1.086-2.238,2.323-2.238c1.236,0,2.123,1.049,2.322,2.238l12.016,57.498c0.734,3.519,3.837,5.938,7.296,5.938 c0.506,0,1.021-0.052,1.535-0.159c4.034-0.843,6.622-4.797,5.777-8.831l-11.782-56.391V68.166l41.806-8.62 C163.008,58.714,165.604,54.767,164.772,50.73z"/></g></svg><view id="beaverfilm" viewBox="0 200 420 90.09"/><svg width="420" height="90.09" viewBox="383.446 82.255 420 90.09" id="beaverfilm-" y="200" xmlns="http://www.w3.org/2000/svg"><g fill="#820202"><path d="M536.42 106.769c-2.145-1.451-4.416-2.338-6.747-2.637-.424-.061-.862-.123-1.294-.123-.001 0-.002 0-.002 0-3.147-.121-6.067.704-8.673 2.463-1.747 1.197-3.146 2.688-4.245 4.53V89.91h-1.608v42.71c0 4.367-.253 7.839-.773 10.613l-.079.42h1.624l.052-.293c.312-1.76.528-3.658.661-5.771.783 1.221 1.716 2.28 2.778 3.157 1.813 1.58 4.073 2.575 6.719 2.962.735.109 1.475.167 2.2.167 1.685 0 3.385-.304 5.055-.905 2.287-.865 4.348-2.205 6.127-3.984 3.236-3.297 5.187-7.666 5.799-12.988.551-5.27-.353-9.945-2.688-13.896C540.06 109.992 538.412 108.2 536.42 106.769zM542.411 125.804c-.524 4.889-2.328 8.936-5.367 12.034-1.495 1.606-3.347 2.827-5.506 3.632-2.043.772-4.23 1.004-6.479.699-2.267-.357-4.212-1.234-5.942-2.678-1.704-1.471-2.901-3.189-3.656-5.254v-19.149c.814-3.043 2.56-5.503 5.188-7.315 2.061-1.431 4.456-2.156 7.117-2.156.594 0 1.189.061 1.693.117 2.167.293 4.192 1.099 6.021 2.396 1.821 1.293 3.281 2.869 4.459 4.813C542.134 116.683 542.943 120.888 542.411 125.804zM580.56 125.649l.656-.11v-.576c.12-.921.183-1.864.239-2.715.063-2.808-.196-5.218-.792-7.363-.732-2.62-1.972-4.852-3.685-6.626-2.183-2.308-4.763-3.639-7.903-4.068-.655-.061-1.332-.123-2.023-.123-1.96.062-3.846.482-5.77 1.289-2.352 1.024-4.376 2.588-6.191 4.778-3.137 3.802-4.759 8.699-4.821 14.563 0 5.89 1.566 10.592 4.65 13.973 3.246 3.66 8.328 5.76 13.943 5.76 3.645 0 7.191-.881 10.543-2.619l.318-.164-.758-1.408-.312.168c-3.021 1.628-6.225 2.418-9.791 2.418-5.024 0-9.771-1.951-12.694-5.221-2.604-2.943-4.042-6.902-4.276-11.77h25.369C578.528 125.835 579.634 125.772 580.56 125.649zM579.849 122.212l-.155 1.918c-.689.051-1.489.096-2.432.096h-25.377c.119-5.213 1.604-9.6 4.413-13.039 1.602-1.957 3.493-3.418 5.63-4.342 1.616-.724 3.298-1.105 5.142-1.169.628 0 1.216.06 1.802.117 2.808.418 5.096 1.599 6.991 3.61 1.547 1.67 2.599 3.604 3.219 5.916C579.756 117.681 580.007 119.937 579.849 122.212zM608.634 132.62v-14.158c0-2.553-.181-4.484-.552-5.906-.54-2.107-1.554-3.85-3.098-5.328-1.514-1.453-3.347-2.432-5.454-2.912-.927-.186-1.976-.248-3.01-.308-.988 0-2.012 0-3.063.187-1.629.302-3.029.721-4.279 1.283-1.456.641-2.658 1.578-3.67 2.859-1.668 2.04-2.211 5.043-1.383 7.65l.104.328 1.518-.434-.105-.344c-.641-2.1-.205-4.482 1.144-6.223.752-.982 1.775-1.773 3.05-2.354 1.134-.536 2.491-.941 3.92-1.169 2.104-.312 3.897-.274 5.447.114 3.729.873 6.318 3.382 7.296 7.056.242 1.015.53 2.791.53 5.498v4.666c-2.547-.505-5.068-.761-7.506-.761-.899 0-1.868.061-2.806.119l-.044.002c-4.6.38-8.114 1.521-10.74 3.488-1.59 1.178-2.872 2.717-3.708 4.451-.933 1.926-1.246 3.895-.93 5.855.31 1.734 1.064 3.307 2.239 4.666 1.188 1.388 2.653 2.398 4.221 2.92 1.491.585 3.048.882 4.629.882 1.732 0 3.55-.358 5.398-1.058 3.843-1.387 7.228-4.41 9.279-8.229.102 3.087.349 5.684.75 7.898l.054.291h1.622l-.079-.42C608.887 140.456 608.634 136.983 608.634 132.62zM607.025 124.748v6.331c-1.182 4.962-5.021 9.344-9.784 11.167-1.648.599-3.264.901-4.804.901-1.378 0-2.749-.242-4.063-.719-1.491-.596-2.684-1.41-3.636-2.474-1.023-1.263-1.627-2.542-1.848-3.916-.275-1.606-.029-3.205.748-4.881.773-1.544 1.838-2.818 3.254-3.894 2.454-1.812 5.783-2.877 9.893-3.17.894-.061 1.842-.121 2.735-.121C601.961 123.974 604.485 124.235 607.025 124.748zM640.136 104.31L626.159 141.104 612.214 104.537 612.127 104.31 610.409 104.31 625.377 143.651 626.886 143.651 641.854 104.31zM667.994 108.257c-2.182-2.309-4.763-3.638-7.903-4.068-.655-.06-1.33-.123-2.022-.123-1.958.063-3.847.483-5.771 1.291-2.35 1.025-4.375 2.588-6.189 4.778-3.137 3.802-4.758 8.702-4.82 14.563 0 5.89 1.566 10.592 4.648 13.973 3.245 3.66 8.328 5.76 13.943 5.76 3.646 0 7.192-.881 10.543-2.621l.319-.166-.759-1.406-.313.168c-3.019 1.627-6.222 2.418-9.79 2.418-5.022 0-9.769-1.952-12.694-5.221-2.603-2.945-4.042-6.902-4.274-11.771h25.368c1.265 0 2.369-.062 3.297-.185l.655-.11v-.575c.121-.91.181-1.82.239-2.715.063-2.809-.195-5.217-.792-7.363C670.945 112.26 669.705 110.028 667.994 108.257zM670.866 122.212l-.156 1.918c-.688.051-1.49.096-2.431.096h-25.378c.12-5.213 1.604-9.599 4.413-13.041 1.6-1.957 3.491-3.416 5.629-4.34 1.617-.725 3.299-1.107 5.142-1.17.626.001 1.214.059 1.783.116l.018.001c2.81.418 5.097 1.6 6.992 3.609 1.546 1.67 2.598 3.604 3.22 5.918C670.773 117.685 671.024 119.94 670.866 122.212zM697.725 104.192c-.505-.064-1.049-.123-1.6-.123-.002 0-.003 0-.005 0h-.42c-.367 0-.746 0-1.171.061-3.503.307-6.779 1.584-10.012 3.902-1.827 1.273-3.438 2.753-4.797 4.404-.261-2.899-.713-5.481-1.38-7.869l-.07-.258h-1.702l.134.453c1.064 3.611 1.604 8.342 1.604 14.059v24.83h1.608l.002-24.828c0-1.469 0-2.742-.055-3.973 1.603-2.176 3.488-4.031 5.604-5.519 2.962-2.091 6.052-3.302 9.193-3.597 1.131-.127 2-.11 2.778.057.893.156 1.687.516 2.365 1.07 1.444 1.123 1.952 3.107 1.266 4.937l-.123.329 1.424.547.135-.313c1.002-2.314.338-5.033-1.656-6.77C700.072 104.935 699.031 104.465 697.725 104.192zM728.19 90.901c-1.314-.623-2.861-.986-4.477-1.051-.281-.074-.601-.082-.956-.068-.098.004-.197.008-.299.008-1.314 0-2.543.188-3.64.553-1.639.487-3.024 1.342-4.237 2.617-1.075 1.137-1.851 2.602-2.304 4.348-.296 1.065-.434 2.582-.434 4.775v6.186h-8.04v1.607h8.04v33.775h1.607.002v-33.777h13.198v-1.607h-13.198v-6.187c0-1.927.115-3.353.347-4.345.428-1.523 1.085-2.766 1.95-3.686 1.029-1.029 2.18-1.746 3.516-2.193 1.041-.332 2.169-.498 3.354-.498.314 0 .633.012.965.035 1.409.055 2.679.357 3.88.926 1.359.65 2.311 1.468 2.909 2.502.666 1.109.905 2.291.732 3.611l-.043.324 1.517.326.065-.357c.309-1.668.019-3.201-.888-4.689C730.929 92.694 729.729 91.64 728.19 90.901zM737.944 89.55H739.55V98.05799999999999H737.944zM737.944 104.31H739.55V143.652H737.944zM748.851 128.899v-38.99h-1.606v38.99c0 5.949.568 10.828 1.693 14.502l.077.25h1.642l-.143-.457C749.395 139.541 748.851 134.864 748.851 128.899zM801.71 109.749c-1.378-2.13-3.156-3.645-5.447-4.637-1.563-.612-3.081-.924-4.497-.924h-.001c-1.959-.061-3.807.383-5.696 1.361-2.437 1.305-4.155 3.143-5.233 5.602-.202-.475-.433-.948-.718-1.396-1.277-2.068-3.107-3.628-5.452-4.643-1.584-.62-3.057-.922-4.496-.922h-.001c-1.977-.061-3.814.384-5.636 1.359-2.104 1.104-3.727 2.684-4.837 4.701-.254-2.02-.635-3.926-1.138-5.686l-.072-.256h-1.7l.134.453c1.064 3.609 1.604 8.34 1.604 14.059v24.832h1.606v-24.832c0-1.758-.055-3.32-.118-4.897.801-4.555 5.272-8.118 10.196-8.118 1.343 0 2.63.27 3.823.801 2.045.901 3.583 2.211 4.706 4.008.607.939 1.02 1.949 1.263 3.086v.434h.121c.121.717.181 1.528.181 2.467v27.051h1.606V116.66c0-1.126-.072-2.052-.232-2.988.658-2.83 2.623-5.399 5.146-6.717 1.421-.759 3.059-1.157 4.734-1.157 1.396 0 2.808.28 4.083.813 3.767 1.551 6.2 5.473 6.2 9.992v27.051h1.606V116.66C803.446 113.864 802.896 111.67 801.71 109.749zM491.699 112.144c-.008-.279-.018-.596-.055-.959l-.019-.162-.173-.539-.229-.478c-.148-.28-.301-.507-.443-.711l-.021-.03c-.592-.805-1.271-1.471-1.867-2.025-1.07-.979-2.259-1.943-3.863-3.137-2.665-1.947-5.174-3.656-7.659-5.217-.635-.988-1.29-2.002-1.991-2.98-.779-1.096-1.639-2.178-2.555-3.215-1.863-2.113-3.944-3.971-6.182-5.519-1.073-.748-2.262-1.444-3.622-2.126-1.384-.703-2.835-1.207-3.976-1.576-1.361-.412-2.753-.723-4.15-.928-1.403-.193-2.665-.287-3.861-.287-.126 0-.253.001-.367.003-.67.007-1.393.022-2.123.093-.113.01-.223.019-.334.026-.234.017-.47.034-.734.065l-.971.123-3.935.595-3.842.599-1.227.176c-.493-.164-1.079-.353-1.688-.494-1.669-.389-3.409-.392-5.007.004-1.06.268-2.051.644-2.953 1.121l.498-2.092-1.428 2.639c-.156.103-.31.207-.459.316-1.418.998-2.582 2.403-3.271 3.948-.578 1.269-.87 2.692-.871 4.237l-.995 1.838c-.298.574-.628 1.128-.979 1.714-.111.187-.223.374-.336.565l-2.744 4.689c-.371.652-.793 1.344-1.373 2.245-.395.616-.914 1.429-1.459 2.241-1.104 1.656-2.106 3.064-3.069 4.309-.569.741-1.104 1.401-1.62 2-.572.645-1.135 1.27-1.751 1.84-.606.582-1.216 1.075-1.808 1.465-.071.045-.145.094-.217.142-.076.049-.148.101-.225.14l-1.798.963-.038.021c-.316.181-.656.334-1.085.523l-1.192.547c-.589.254-1.191.485-1.828.729l-.601.231c-.491.17-.819.285-1.083.375-.641.22-.907.311-2.12.766l-12.557 4.704 33.065-4.101-9.719-.812.781-.38c.21-.104.379-.204.527-.293.059-.035.117-.07.178-.105l.039-.021c.838-.504 1.648-1.107 2.457-1.823.763-.649 1.431-1.334 2.121-2.054.687-.737 1.303-1.44 1.887-2.152 1.068-1.314 2.137-2.738 3.357-4.477.586-.83 1.146-1.656 1.564-2.28.631-.933 1.102-1.661 1.517-2.351l1.558-2.521.16 2.885 1.22-5.119c.093-.154.186-.306.279-.457.37-.604.751-1.228 1.084-1.853l1.313-2.36.342-.6-.025-.693c-.044-1.025.111-1.924.469-2.682.361-.786.923-1.449 1.693-1.991.688-.503 1.576-.887 2.692-1.169.762-.182 1.686-.152 2.807.089l.2.044c.151.032.312.067.478.104l-.641 1.146 2.788-.326 1.929 1.017-.229-1.845 3.981-.676 3.812-.629.93-.131c.173-.021.358-.037.543-.053.118-.01.234-.02.373-.034.58-.065 1.188-.086 1.759-.099l.06-.002c.364-.022.729-.01 1.091.002.223.007.443.014.664.015.57.035 1.174.075 1.756.146 1.171.144 2.349.377 3.476.689 1.333.395 2.401.785 3.37 1.232 1.204.551 2.24 1.109 3.175 1.711 2.02 1.289 3.905 2.861 5.602 4.674.858.913 1.664 1.863 2.407 2.842.605.777 1.146 1.596 1.716 2.461.144.217.288.436.435.655l.224.336.354.215c.785.478 1.59.979 2.404 1.502l6.731 6.181-1.816-2.828c.157.115.313.23.463.346 1.112.844 2.392 1.834 3.496 2.91.419.408.951.947 1.33 1.492.101.148.152.242.174.285l.021.043-.006.877v.039c.007.426-.02.901-.048 1.403-.016.292-.031.583-.041.839-.013.241-.023.482-.034.723-.025.556-.05 1.078-.098 1.615l-.178 2.354-.003.043c-.023.477-.091.979-.163 1.509-.034.247-.067.496-.095.726l-.136 1.041c-.037.117-.073.244-.111.373-.044.153-.09.313-.14.463l-.397.986-.471 1c-.7 1.402-1.438 2.75-2.19 4.008l-.104.176-.135.461c-.258.662-.491 1.281-.708 1.875l-1.26.019c-.558.009-1.111.065-1.807.183-.196.035-.392.08-.586.125l-.236.056-.894.276-.374.154c-.199.087-.397.174-.6.275l-.266.156c-.246.151-.524.324-.771.526l-.465.429-.316.344c-.18.218-.343.426-.501.632l-.241.313c-1.113 1.452-2.164 2.821-3.285 4.188-.976 1.202-2.275 2.769-3.674 4.198-.609.625-1.256 1.222-1.923 1.777l-.734.543-.2.115c-.085.045-.171.096-.255.148-.052.031-.101.063-.121.076l-2.637.994.415.899-2.418 1.782 2.453.055 10.45 21.803-3.493-14.865h2.228l-2.766-2.297c-.054-.236-.109-.472-.168-.705l-.816-2.686c-.056-.186-.119-.395-.203-.607l-.465-1.252 1.14-.758.069-.051c.817-.628 1.611-1.309 2.361-2.025 1.297-1.234 2.599-2.619 4.104-4.361 1.163-1.36 2.291-2.768 3.383-4.129l.316-.396c.133-.166.265-.327.402-.487l.258-.229c.019-.009.036-.019.053-.028.021-.012.042-.023.063-.035l.305.166.035 3.16 2.792-.947-1.129 3.893 2.477-4.35 1.848-.627 1.449-4.043c.304-.86.611-1.776.919-2.729.909-1.604 1.616-2.989 2.229-4.367l.478-1.121.449-1.245.03-.092c.114-.393.198-.736.294-1.137l.047-.196.149-1.435c.019-.233.042-.465.063-.698.057-.567.114-1.155.123-1.778l.088-2.378c.03-.599.034-1.187.038-1.756.002-.231.003-.465.007-.729-.001-.272.004-.541.009-.809.008-.533.018-1.084-.016-1.682C491.707 112.399 491.703 112.271 491.699 112.144z"/></g></svg><view id="bnt" viewBox="0 291 300 69.403"/><svg width="300" height="69.403" viewBox="0 0 300 69.403" id="bnt-" y="291" xmlns="http://www.w3.org/2000/svg"><defs><path id="ca" d="M0 0H300V69.403H0z"/></defs><defs><path id="cc" d="M156.938,69.403h-8.955V41.324c0-3.369-2.73-6.101-6.099-6.101H111.3c-3.18,0-11.89,2.757-13.563,6.097 v28.083h-8.955V26.268h8.955v3.722c4.574-2.409,9.926-3.722,13.563-3.722h30.584c7.976,0,14.502,6.201,15.021,14.045l0.033,1.011 V69.403"/></defs><clipPath id="cb"><use xlink:href="#ca" overflow="visible"/></clipPath><clipPath id="cd" clip-path="url(#cb)"><use xlink:href="#cc" overflow="visible"/></clipPath><path clip-path="url(#cd)" fill="#647788" d="M85.051 22.537H160.67000000000002V73.134H85.051z"/><defs><path id="ce" d="M0 0H300V69.403H0z"/></defs><defs><path id="cg" d="M53.102,26.268c8.315,0,15.055,6.74,15.055,15.056v13.024c0,8.313-6.74,15.055-15.055,15.055H15.054 C6.74,69.403,0,62.662,0,54.348V11.465l8.955,0l0.001,14.804H53.102L53.102,26.268z M53.102,35.223H8.956v19.125 c0,3.368,2.73,6.1,6.098,6.1h38.047c3.369,0,6.1-2.731,6.1-6.1V41.324C59.202,37.955,56.47,35.223,53.102,35.223L53.102,35.223z"/></defs><clipPath id="cf"><use xlink:href="#ce" overflow="visible"/></clipPath><clipPath id="ch" clip-path="url(#cf)"><use xlink:href="#cg" overflow="visible"/></clipPath><path clip-path="url(#ch)" fill="#647788" d="M-3.731 7.733H71.88900000000001V73.134H-3.731z"/><g><defs><path id="ci" d="M0 0H300V69.403H0z"/></defs><defs><path id="ck" d="M258.775,29.919h9.223c2.222,0,3.088,0.632,3.088,3.043v2.292c0,2.411-0.866,3.043-3.088,3.043h-9.223 V29.919L258.775,29.919z M253.58,42.651h15.681c5.195,0,7.02-1.708,7.02-5.897v-5.148c0-4.19-1.824-5.899-7.02-5.899H253.58 V42.651L253.58,42.651z"/></defs><clipPath id="cj"><use xlink:href="#ci" overflow="visible"/></clipPath><clipPath id="cl" clip-path="url(#cj)"><use xlink:href="#ck" overflow="visible"/></clipPath><path clip-path="url(#cl)" fill="#647788" d="M249.85 21.976H280.012V46.382999999999996H249.85z"/></g><g><defs><path id="cm" d="M0 0H300V69.403H0z"/></defs><defs><path id="co" d="M280.769 42.651L299.607 42.651 299.607 38.579 285.964 38.579 285.964 35.865 298.602 35.865 298.602 32.354 285.964 32.354 285.964 29.64 299.304 29.64 299.304 25.707 280.769 25.707 280.769 42.651"/></defs><clipPath id="cn"><use xlink:href="#cm" overflow="visible"/></clipPath><clipPath id="cp" clip-path="url(#cn)"><use xlink:href="#co" overflow="visible"/></clipPath><path clip-path="url(#cp)" fill="#647788" d="M277.038 21.976H303.339V46.382999999999996H277.038z"/></g><g><defs><path id="cq" d="M0 0H300V69.403H0z"/></defs><defs><path id="cs" d="M232.92 0.127L246.833 5.193 241.77 19.106 227.856 14.041 232.92 0.127"/></defs><clipPath id="cr"><use xlink:href="#cq" overflow="visible"/></clipPath><clipPath id="ct" clip-path="url(#cr)"><use xlink:href="#cs" overflow="visible"/></clipPath><path clip-path="url(#ct)" fill="#647788" d="M224.125 -3.604H250.564V22.838H224.125z"/></g><g><defs><path id="cu" d="M0 0H300V69.403H0z"/></defs><defs><path id="cw" d="M190.299,26.268h22.984v8.955h-22.984v19.125c0,3.368,2.731,6.1,6.099,6.1h16.012 c3.127,0,5.705-2.355,6.058-5.387l8.511,3.097c-1.688,6.47-7.571,11.245-14.568,11.245h-16.012 c-8.313,0-15.054-6.741-15.054-15.055V35.223h-11.199v-8.955h11.199V11.47h8.955V26.268"/></defs><clipPath id="cv"><use xlink:href="#cu" overflow="visible"/></clipPath><clipPath id="cx" clip-path="url(#cv)"><use xlink:href="#cw" overflow="visible"/></clipPath><path clip-path="url(#cx)" fill="#647788" d="M166.413 7.738H230.709V73.134H166.413z"/></g></svg><view id="btconf" viewBox="0 361 250.318 86"/><svg width="250.318" height="86" viewBox="0 0 250.318 86" id="btconf-" y="361" xmlns="http://www.w3.org/2000/svg"><path d="M4.618 40.632L0 50.013l24.104.434 4.198-8.712.612 44.122 12.414-4.763L42 43.806l-13.593-2.808L4.618 40.632zM42.868 44.528v5.774l2.886-1.299L42.868 44.528zM27.778 44.886l-2.375 9.746L4.474 51.888l1.058 32.67L28.77 86 27.778 44.886zM30.497 10.896c0-3.139.996-5.966 2.588-7.955-3.25.962-8.783 3.119-11.723 7.236-2.969 4.156-2.021 29.156-2.021 29.156l6.061.288c0 0-.575-19.199.576-21.072 1.271-2.064 4.099-1.572 6.389-.711-1.167-1.886-1.871-4.304-1.871-6.94M40.188 0c-4.505 0-8.157 4.878-8.157 10.896 0 6.019 3.652 10.896 8.158 10.896 4.507 0 8.16-4.879 8.16-10.896S44.695 0 40.188 0M39.698 21.027c-3.872 0-7.008-4.586-7.008-10.24s3.137-10.239 7.008-10.239 7.008 4.583 7.008 10.239c0 5.654-3.138 10.239-7.009 10.239M43.107 13.737c-1.02 0-1.877-.673-2.135-1.587l2.135-.575-2.188-.338c.167-1.034 1.082-1.825 2.188-1.825.717 0 1.354.334 1.759.85-.447-1.604-1.836-2.774-3.48-2.774-2.006 0-3.632 1.74-3.632 3.887 0 2.146 1.625 3.887 3.631 3.887 1.406 0 2.625-.856 3.229-2.105-.396.358-.923.579-1.507.579M39.672 1.29c1.791 0 2.859 1.281 2.859 1.281s-1.041-.683-2.773-.683c-1.733 0-3.098 1.072-3.098 1.072s.991-1.668 3.01-1.668M37.665 20.153c0 0 1.408.555 2.133.555.726 0 1.878-.385 1.878-.385s-.851.17-1.834.17C38.859 20.494 37.666 20.153 37.665 20.153M106.057 41.834c2.778 0 5.155 2.792 5.255 2.911l.337.404-.349.394c-.007.007-.101.118-.262.341.598-.021 1.234-.06 1.901-.121.313-.71.636-1.325.968-1.813 1.032-1.405 2.277-2.118 3.7-2.118 1.764 0 3.361 1.122 4.321 1.975v-7.956h-5.925c-.807 2.038-2.704 2.181-4.03 2.181-3.128 0-3.839-1.517-3.982-3.793h14.176v-3.698c0-6.78-3.036-12.231-12.376-12.231-8.152 0-14.267 4.171-14.267 13.889 0 6.072 2.41 10.077 6.604 12.113.075-.127.153-.25.231-.361 1.032-1.406 2.276-2.119 3.699-2.119M109.937 25.803c1.09 0 1.661.71 1.661 1.896v.378h-3.747c0-.949.568-2.276 2.086-2.276M244.653 41.834c2.756 0 5.156 2.79 5.257 2.908l.33.39-.191.232.27-.028v-7.16h-1.612c-.758 0-1.138-.284-1.138-.948V9.162h-14.603v7.159h2.75v2.466c-1.138-.238-2.321-.474-3.604-.474-7.253 0-12.467 3.934-12.467 13.984 0 11.521 5.547 13.605 9.814 13.605 3.081 0 5.641-.804 7.632-1.99.855.788 1.902 1.268 3.064 1.555.267-.572.548-1.083.849-1.506C242.009 42.55 243.234 41.835 244.653 41.834M235.717 36.708c-.664.473-1.328.616-1.802.616-1.471 0-2.228-1.138-2.228-5.025 0-5.026.427-5.547 2.844-5.547.428 0 .712 0 1.187.142L235.717 36.708 235.717 36.708zM83.669 18.312c-1.943 0-3.936.427-5.879 1.09V9.162H63.188v7.159h1.613c.807 0 1.09.284 1.137.9v26.977c3.461.853 8.202 1.706 12.706 1.706 8.914 0 15.218-4.219 15.218-14.697C93.863 21.771 89.12 18.312 83.669 18.312M78.786 36.944c-.284 0-.616-.047-.996-.094v-8.914c.569-.332 1.376-.521 1.943-.521 1.802 0 2.086.996 2.086 4.409C81.82 35.854 81.202 36.944 78.786 36.944"/><path d="M140.846,26.041h1.849l-2.418,8.723h-0.711l-1.897-8.723h1.754v-7.159h-16.736v7.158h2.181 c0.332,0,0.569,0.047,0.662,0.332l5.786,19.011h4.504l-5.263,6.069v3.604h12.327l9.055-28.113c0.142-0.569,0.236-0.902,0.852-0.902 h1.897V18.88h-13.843v7.159L140.846,26.041z M169.437,18.313c-9.15,0-14.271,4.882-14.271,13.794 c0,8.914,5.12,13.797,14.271,13.797s14.316-5.025,14.316-13.796c0-8.771-5.169-13.794-14.317-13.794 M169.482,37.513 c-1.943,0-2.228-1.611-2.228-5.405c0-3.792,0.284-5.405,2.228-5.405s2.227,1.613,2.227,5.405 C171.709,35.901,171.426,37.513,169.482,37.513 M215.709,37.276V26.608c0-6.306-3.745-8.295-8.107-8.295 c-2.893,0-5.878,0.948-7.918,2.511h-0.237V18.88h-13.748v7.159h1.612c0.948,0,1.138,0.379,1.138,1.185v9.767 c0,0.806-0.188,1.185-1.138,1.185h-1.612v7.16h16.593v-7.16H200.3V27.936c0.663-0.473,1.66-0.9,2.228-0.9 c0.996,0,1.327,0.428,1.327,1.518v16.782h14.604v-7.16h-1.897C215.945,38.129,215.709,37.845,215.709,37.276 M248.824,70.921 h-0.102c-1.29,3.712-3.508,6.857-5.105,6.496c-1.599-0.31-1.443-4.641-0.878-9.28c2.219-17.533,6.703-22.999,6.703-22.999 s-4.641-5.466-7.94-0.826c-1.649,2.323-2.888,7.581-3.713,13.252c-0.309-0.154-0.619-0.309-0.877-0.361 c-5.775-1.7-11.087,2.992-12.479,10.521c-0.249,1.381-0.355,2.702-0.339,3.934c-1.414,3.38-3.899,6.098-5.486,5.76 c-1.599-0.361-1.29-4.536-0.155-9.28c1.703-7.221,1.031-11.188-1.185-11.809c-2.632-0.619-6.963,2.114-10.521,8.146 c1.032-6.238,2.166-7.115,2.166-7.115s-3.197-3.558-6.651-1.236c-2.678,1.785-2.973,7.112-2.965,15.571 c-1.308,3.362-3.286,6.061-4.819,5.725c-1.547-0.309-1.65-4.641-0.826-9.28c1.135-6.035,3.147-10.107,3.147-10.107 c-2.115-2.166-5.002-2.321-6.911,0.568c-0.567-0.672-1.29-1.136-2.114-1.395c-5.724-1.7-11.085,2.991-12.479,10.52 c-0.223,1.236-0.329,2.426-0.338,3.545c-1.373,3.587-3.838,6.962-5.436,6.614c-1.548-0.31-1.238-5.622,2.371-15.161 c1.649-4.383,1.394-5.053-6.601-4.383c-4.796,0.361-6.651-1.857-6.651-1.857s-0.206,0-0.361,0.155 c-1.238,1.702-0.825,4.486,1.032,6.137c-0.416,2.563-1.183,5.567-2.187,8.139c-0.009,0.003-0.02,0.005-0.03,0.009h-0.051 c-0.273,0.759-0.585,1.513-0.916,2.23c-0.203,0.396-0.415,0.773-0.632,1.12c0,0,0.006,0.039,0.036,0.081 c-1.174,2.195-2.528,3.773-3.645,3.528c-1.548-0.309,0.052-5.618,3.66-15.157c1.651-4.384,1.394-5.055-6.548-4.384 c-4.847,0.309-6.704-1.858-6.704-1.858s-0.204,0-0.361,0.155c-1.236,1.755-0.721,4.642,1.29,6.344 c-0.051,0.154-0.103,0.31-0.103,0.412c-1.135,7.373-5.466,15.417-10.88,14.593c-1.959-0.259-3.3-2.063-4.021-4.332 c12.582-6.445,15.469-15.314,6.445-17.067c-6.652-1.187-12.014,3.764-13.407,11.138c-0.25,1.332-0.301,2.579-0.201,3.733 c-1.349,3.495-3.382,6.55-4.902,5.961c-1.444-0.516-0.981-9.125-0.104-14.128c2.371-13.717,6.342-18.151,6.342-18.151 s-4.589-5.466-7.992-0.827c-2.114,3.095-3.919,11.707-4.744,19.338c-0.267,2.567-0.343,5.323-0.168,7.852 c-1.349,3.477-3.371,6.502-4.884,5.916c-1.446-0.517-0.981-9.127-0.104-14.129c2.371-13.717,6.342-18.152,6.342-18.152 s-4.589-5.465-7.992-0.825c-2.114,3.094-3.919,11.706-4.745,19.337c-0.263,2.534-0.339,5.25-0.174,7.751 c-1.472,3.802-5.125,7.421-9.776,6.48c-1.548-0.309-2.888-1.96-3.712-3.971c13.046-6.446,15.16-15.572,6.085-17.273 c-6.651-1.188-12.015,3.762-13.459,11.085c-0.224,1.221-0.258,2.376-0.149,3.463c-1.347,3.605-3.443,6.836-4.954,6.231 c-1.445-0.516-0.981-8.715-0.207-13.717c0.516-3.453,1.032-6.031,1.651-8.25c2.423,0.36,4.795,0.567,6.188-0.361 c3.042-2.062,1.187-6.084,1.187-6.084c-2.271,0.877-3.765,1.703-5.931,2.063c0.981-2.475,1.856-3.505,1.856-3.505 s-3.146-3.405-7.013,0.206c-0.826,0.723-1.496,1.858-2.011,3.352l-0.67-0.052c-3.507-0.413-4.59,2.424-2.837,4.073 c0,0,0.774-0.259,2.424-0.31c-0.568,2.631-0.98,5.621-1.29,8.817c-0.772,6.961,0.051,15.313,3.406,16.758 c3.105,1.364,6.811-1.866,8.925-6.204c1.462,3.747,4.698,6.188,7.315,6.669c6.342,1.101,11.101-2.424,13.385-6.078 c0.524,2.8,1.487,4.945,3.013,5.613c2.96,1.282,6.414-1.491,8.574-5.427c0.532,2.709,1.485,4.775,2.976,5.427 c3.082,1.333,6.695-1.722,8.831-5.91c1.341,3.563,4.332,5.803,7.258,6.375c7.992,1.6,14.438-5.879,16.706-16.655v-0.103 c0.62,0.103,1.342,0.155,2.114,0.051l0.413-0.051c-3.147,9.227-3.352,15.726,0.465,16.757c3.622,0.917,6.794-2.163,8.832-6.337 c0.118-0.145,0.234-0.316,0.344-0.521c1.703-3.194,3.043-6.701,3.919-9.898c0.671,0.155,1.445,0.207,2.32,0.104l0.465-0.104 c-3.196,9.229-2.115,15.727,1.804,16.758c3.451,0.885,6.822-1.949,8.981-5.895c0.806,3.3,2.774,5.363,5.457,5.173 c3.712-0.259,5.62-3.971,6.702-7.013c0.155,3.919,1.187,6.601,3.765,7.271c3.182,0.806,6.011-1.193,8.035-4.464l0.009,1.577 c0,1.752,0.206,2.475,0.206,2.475c3.764,1.444,5.259,0,6.496-9.692c3.146-7.581,5.157-9.593,6.136-9.335 c1.032,0.206,1.445,2.064-0.206,8.199c-1.855,6.962,0.31,11.396,3.868,11.859c2.933,0.394,6.49-2.115,8.699-5.938 c0.823,3.235,2.778,5.251,5.429,5.061c3.661-0.257,5.62-3.97,6.651-7.012c0.207,3.92,1.237,6.601,3.816,7.271 c4.021,1.031,7.579-2.526,9.487-7.477c0.668-1.65-0.156-2.321-1.084-2.012 M83.824,66.95c0.928-3.558,3.093-8.766,5.208-8.146 c1.804,0.517,0.877,9.076-5.157,13.304C83.515,70.354,83.463,68.549,83.824,66.95 M127.959,66.898 c0.981-3.56,3.146-8.716,5.209-8.148c1.803,0.516,0.516,8.199-5.519,12.324C127.547,69.682,127.65,68.187,127.959,66.898 M188.34,63.235c-0.309,1.805-0.567,3.559-0.67,5.156c-1.703,5.981-3.816,8.354-5.209,7.992c-1.649-0.464-1.444-5.516-0.412-9.435 c0.929-3.559,2.786-7.374,5.312-7.22c0.672,0.053,1.186,0.258,1.649,0.67c-0.31,0.827-0.516,1.754-0.671,2.838 M236.706,68.753 c-1.703,5.725-3.816,7.994-5.158,7.633c-1.649-0.466-1.394-5.518-0.361-9.437c0.929-3.558,2.786-7.374,5.312-7.219 c0.361,0.052,0.671,0.104,0.981,0.206c-0.413,3.095-0.671,6.087-0.774,8.818"/></svg><view id="contentful" viewBox="0 447 420.864 86"/><svg width="420.864" height="86" viewBox="0 0 420.864 86" id="contentful-" y="447" xmlns="http://www.w3.org/2000/svg"><path fill="#FAE501" d="M26.07,59.932c-4.57-4.3-7.257-10.213-7.257-16.932S21.5,30.368,25.8,26.069 c3.762-3.764,3.762-9.675,0-13.438c-3.762-3.764-9.675-3.764-13.437,0C4.837,20.425,0,31.176,0,43 c0,11.826,4.837,22.576,12.632,30.368c3.763,3.764,9.674,3.764,13.438,0C29.563,69.608,29.563,63.694,26.07,59.932z"/><path fill="#4FB5E1" d="M26.07,26.069c4.298-4.568,10.212-7.257,16.93-7.257c6.719,0,12.632,2.688,16.931,6.988 c3.764,3.763,9.675,3.763,13.438,0c3.763-3.763,3.763-9.676,0-13.438C65.575,4.837,54.825,0,43,0 C31.175,0,20.426,4.837,12.632,12.632c-3.764,3.763-3.764,9.674,0,13.438C16.395,29.563,22.306,29.563,26.07,26.069z"/><path fill="#F05751" d="M59.931,59.932C55.632,64.501,49.719,67.188,43,67.188c-6.718,0-12.632-2.687-16.93-6.985 c-3.764-3.764-9.675-3.764-13.438,0c-3.764,3.76-3.764,9.674,0,13.437C20.426,81.164,31.175,86,43,86 c11.825,0,22.575-4.836,30.369-12.632c3.763-3.76,3.763-9.674,0-13.437C69.606,56.438,63.695,56.438,59.931,59.932z"/><circle fill="#0681B6" cx="19.351" cy="19.351" r="9.406"/><path fill="#CD4739" d="M19.351,57.243c5.194,0,9.406,4.214,9.406,9.406c0,5.194-4.212,9.407-9.406,9.407 c-5.195,0-9.406-4.213-9.406-9.407C9.944,61.457,14.155,57.243,19.351,57.243z"/><path fill="#2A3039" d="M115.563,51.869c2.687-2.15,3.226-0.807,5.375,1.344c1.074,1.075,4.3,3.226,2.148,4.837 c-4.298,3.496-8.063,5.107-13.704,5.107c-12.363,0-21.232-9.406-20.694-21.501c0.269-5.644,2.418-10.75,6.718-14.243 c4.032-3.226,8.869-4.838,13.977-4.569c2.687,0,4.837,0.537,7.255,1.344c1.612,0.539,3.226,1.344,4.57,2.418 c2.687,2.151,1.344,3.226-0.538,5.376c-0.538,0.538-0.807,1.074-1.344,1.343c-1.076,1.076-1.881,1.883-3.225,0.808 c-2.688-1.882-6.451-2.956-9.676-2.15c-10.75,2.687-10.213,21.77,2.957,21.77C111.532,54.018,113.95,53.213,115.563,51.869z M414.146,62.351c-1.879,0-3.224-1.344-3.224-3.226V16.931c0-1.88,1.345-3.224,3.224-3.224h3.496c1.879,0,3.223,1.344,3.223,3.224 v42.194c0,1.882-1.344,3.226-3.223,3.226H414.146z M395.604,57.514c-3.764,3.493-7.524,5.375-12.899,5.375 c-11.021,0-16.126-9.138-16.126-19.082V26.605c0-1.879,1.344-3.225,3.224-3.225h3.496c1.878,0,3.223,1.346,3.223,3.225v17.201 c0,5.645,2.958,9.944,9.139,9.944c5.912,0,9.674-5.107,9.674-10.481V26.605c0-1.879,1.344-3.225,3.226-3.225h3.493 c1.882,0,3.226,1.346,3.226,3.225v32.52c0,1.882-1.344,3.226-3.226,3.226h-2.955c-1.882,0-2.955-1.614-3.226-3.226L395.604,57.514 L395.604,57.514z M353.677,23.649h6.719c1.881,0,3.226,1.612,3.226,3.226v2.149c0,1.882-1.345,3.226-3.226,3.226h-6.719v26.875 c0,1.882-1.344,3.226-3.224,3.226h-3.496c-1.879,0-3.223-1.344-3.223-3.226V22.306c0-8.063,4.566-14.512,12.899-15.318h5.105 c1.882,0,3.226,1.613,3.226,3.224v2.151c0,1.88-1.344,3.224-3.226,3.224h-2.688c-4.03,0-5.643,2.957-5.643,6.718v1.344H353.677z M329.221,23.649h7.524c1.882,0,3.226,1.344,3.226,3.226v2.149c0,1.882-1.344,3.226-3.226,3.226h-7.524v16.394 c0,3.226,1.611,4.839,4.837,4.839h1.614c1.88,0,3.223,1.344,3.223,3.224v2.419c0,1.882-1.343,3.226-3.223,3.226h-4.569 c-8.063-0.537-11.556-5.645-11.556-13.707V16.931c0-1.88,1.344-3.224,3.223-3.224h3.496c1.88,0,3.224,1.344,3.224,3.224v6.719 H329.221z M221.452,23.649h7.525c1.881,0,3.226,1.344,3.226,3.226v2.149c0,1.882-1.345,3.226-3.226,3.226h-7.525v16.394 c0,3.226,1.611,5.107,4.837,5.107h1.611c1.883,0,3.226,1.344,3.226,3.226v2.148c0,1.882-1.343,3.226-3.226,3.226h-2.148 c-8.869,0-13.977-3.763-13.977-13.707V16.931c0-1.88,1.344-3.224,3.226-3.224h3.494c1.882,0,3.226,1.344,3.226,3.224v6.719H221.452 L221.452,23.649z M177.645,28.219c3.493-3.492,7.525-5.375,12.363-5.375c11.019,0,16.662,8.868,16.662,19.082v17.199 c0,1.882-1.344,3.226-3.225,3.226h-3.494c-1.88,0-3.224-1.344-3.224-3.226V41.926c0-5.645-2.958-9.944-9.14-9.944 c-5.911,0-9.674,4.838-9.674,10.481v16.662c0,1.882-1.344,3.226-3.226,3.226h-3.493c-1.881,0-3.226-1.344-3.226-3.226v-32.52 c0-1.879,1.345-3.225,3.226-3.225h2.956c1.881,0,2.956,1.612,3.226,3.225L177.645,28.219z M285.683,28.219 c3.493-3.492,7.524-5.375,12.364-5.375c11.019,0,16.66,8.868,16.66,19.082v17.199c0,1.882-1.344,3.226-3.223,3.226h-3.496 c-1.879,0-3.224-1.344-3.224-3.226V41.926c0-5.645-2.957-9.944-9.138-9.944c-5.913,0-9.674,4.838-9.674,10.481v16.662 c0,1.882-1.344,3.226-3.226,3.226h-3.494c-1.882,0-3.226-1.344-3.226-3.226v-32.52c0-1.879,1.344-3.225,3.226-3.225h2.955 c1.883,0,2.956,1.612,3.226,3.225L285.683,28.219L285.683,28.219z M144.588,22.575c-11.825,0-20.156,8.601-20.156,20.425 c0,11.826,8.331,20.424,20.156,20.424c12.094,0,20.425-8.329,20.425-20.424C165.013,31.176,156.414,22.575,144.588,22.575z M242.953,46.493c0.805,5.376,6.181,7.795,11.285,7.795c2.419,0,5.107-0.537,7.257-1.614c0.27-0.268,0.806-0.268,1.076-0.534 c1.344-0.81,2.417-1.077,3.492,0l1.882,1.878l1.612,1.614c1.613,2.149,0.538,2.688-1.344,3.762 c-4.031,2.687-9.136,4.03-13.976,4.03c-12.899,0-21.5-7.792-21.5-20.693c0-12.362,8.601-20.425,20.693-20.425 c12.632,0,19.619,7.258,19.89,19.89c0,3.493,0.268,4.568-3.226,4.568h-27.143V46.493z M144.588,31.712 c6.182,0,10.214,5.375,10.214,11.288c0,6.181-3.763,11.018-10.214,11.018c-6.45,0-10.213-4.837-10.213-11.018 S138.407,31.712,144.588,31.712L144.588,31.712z M243.221,38.163h20.156c-0.806-5.107-4.837-6.987-9.675-6.987 C248.595,31.176,244.564,33.594,243.221,38.163z"/></svg><view id="gesundheitscloud" viewBox="0 533 300 148.094"/><svg width="300" height="148.094" viewBox="362.363 193.301 300 148.094" id="gesundheitscloud-" y="533" xmlns="http://www.w3.org/2000/svg"><path fill="#F9A51A" d="M374.937,341.277c-8.369,0-12.574-4.676-12.574-13.909c0-9.273,4.205-13.909,12.574-13.909 c3.026,0,5.854,0.55,8.487,1.689v2.828c-2.593-1.179-5.344-1.768-8.173-1.768c-3.418,0-5.933,0.903-7.544,2.711 c-1.611,1.769-2.436,4.637-2.436,8.448c0,3.851,0.825,6.68,2.436,8.447c1.611,1.769,4.126,2.634,7.544,2.634 c2.161,0,4.244-0.314,6.208-0.943v-8.487h-6.483v-2.829h9.43v12.967C381.499,340.609,378.316,341.277,374.937,341.277 L374.937,341.277z M388.061,331.101c0-0.04,0-0.079,0-0.118c0-0.079,0-0.118,0-0.197c0-6.954,2.986-10.451,8.88-10.451 c1.218,0,2.397,0.235,3.379,0.589c1.021,0.394,1.768,0.864,2.397,1.376c0.589,0.55,1.1,1.218,1.571,2.121 c0.472,0.825,0.786,1.572,0.943,2.161c0.197,0.59,0.354,1.336,0.472,2.161c0.079,0.825,0.118,1.375,0.118,1.571v0.865l-0.04,1.454 h-14.774c0.196,2.004,0.825,3.536,1.886,4.439c1.061,0.904,2.594,1.376,4.715,1.376c2.908,0,5.265-0.511,6.955-1.493v3.025 c-1.964,0.903-4.283,1.414-7.072,1.414c-0.04,0-0.079,0-0.157,0c-1.179,0-2.279-0.118-3.261-0.472 c-1.022-0.274-1.965-0.785-2.908-1.453s-1.69-1.729-2.24-3.144C388.336,334.793,388.061,333.104,388.061,331.101L388.061,331.101z M391.008,329.96h11.906c0-0.471-0.04-1.021-0.118-1.571c-0.118-0.589-0.354-1.336-0.668-2.2c-0.354-0.864-0.943-1.65-1.847-2.24 c-0.904-0.589-1.964-0.864-3.3-0.864c-2.004,0-3.458,0.511-4.401,1.571C391.637,325.717,391.125,327.446,391.008,329.96 L391.008,329.96z M408.179,326.15c0-1.611,0.589-2.986,1.768-4.126s2.986-1.729,5.422-1.729c1.689,0,3.418,0.393,5.187,1.218v2.946 c-1.571-0.903-3.143-1.375-4.911-1.375c-3.026,0-4.558,1.021-4.558,3.065c0,0.746,0.354,1.296,1.1,1.729 c0.786,0.393,1.689,0.786,2.75,1.061c1.061,0.275,2.161,0.629,3.183,1.062c1.1,0.354,1.965,1.061,2.75,2.004 c0.747,0.943,1.101,2.161,1.101,3.614c0,1.769-0.629,3.144-1.965,4.165c-1.336,1.022-3.104,1.493-5.422,1.493 c-2.24,0-4.283-0.511-6.13-1.571v-3.104c1.925,1.219,3.93,1.848,5.973,1.848c3.065,0,4.637-0.943,4.637-2.83 c0-1.021-0.354-1.768-1.101-2.396c-0.747-0.55-1.65-0.942-2.75-1.297c-1.061-0.274-2.161-0.589-3.183-0.903 c-1.061-0.314-1.964-0.904-2.711-1.689C408.571,328.546,408.179,327.486,408.179,326.15L408.179,326.15z M424.721,332.436v-11.748 h2.908v11.905c0,2.044,0.393,3.576,1.335,4.52c0.904,0.942,2.318,1.414,4.205,1.414c1.925,0,3.3-0.472,4.204-1.414 c0.904-0.943,1.375-2.476,1.375-4.52v-11.905h2.908v11.748c0,2.829-0.747,4.99-2.201,6.523c-1.493,1.571-3.576,2.317-6.326,2.317 c-2.711,0-4.793-0.785-6.248-2.317C425.467,337.387,424.721,335.265,424.721,332.436L424.721,332.436z M446.057,340.962v-18.663 c2.632-1.336,5.5-2.004,8.565-2.004c2.554,0,4.519,0.628,5.933,1.964c1.415,1.297,2.122,3.104,2.122,5.501v13.202h-2.908V327.76 c0-0.589-0.04-1.1-0.196-1.493c-0.079-0.471-0.314-0.903-0.668-1.453c-0.314-0.512-0.904-0.865-1.65-1.14 c-0.786-0.275-1.729-0.394-2.908-0.394c-1.689,0-3.458,0.275-5.305,0.825v16.936h-2.986V340.962L446.057,340.962z M466.135,330.55 c0-2.004,0.275-3.693,0.825-5.107c0.511-1.415,1.297-2.477,2.24-3.144c0.943-0.747,1.925-1.18,2.908-1.493 c1.021-0.275,2.122-0.394,3.301-0.394c1.768,0,3.418,0.275,5.029,0.786v-8.251h2.908v21.964c0,0.55-0.079,1.101-0.275,1.689 c-0.157,0.551-0.472,1.219-0.943,2.004c-0.511,0.825-1.376,1.454-2.594,1.926c-1.179,0.511-2.711,0.786-4.479,0.786 c-0.786,0-1.493-0.079-2.24-0.236c-0.667-0.118-1.493-0.393-2.318-0.864s-1.572-1.061-2.161-1.847 c-0.629-0.746-1.14-1.769-1.572-3.104C466.292,333.929,466.135,332.319,466.135,330.55L466.135,330.55z M469.043,330.55 c0,1.729,0.197,3.144,0.55,4.283c0.354,1.139,0.864,1.964,1.493,2.476c0.668,0.511,1.296,0.864,1.886,1.021 c0.589,0.196,1.297,0.274,2.043,0.274c3.576,0,5.383-1.179,5.383-3.575v-10.963c-1.65-0.668-3.339-1.021-5.029-1.021 c-2.24,0-3.851,0.589-4.833,1.769C469.554,326.031,469.043,327.956,469.043,330.55L469.043,330.55z M488.532,340.962v-27.976h2.908 v8.645c2.043-0.865,4.126-1.336,6.129-1.336c2.515,0,4.44,0.785,5.815,2.278c1.336,1.454,2.004,3.615,2.004,6.365v12.023h-2.907 v-12.023c0-3.811-1.729-5.697-5.226-5.697c-1.886,0-3.812,0.393-5.815,1.218v16.503H488.532L488.532,340.962z M508.493,331.101 c0-0.04,0-0.079,0-0.118c0-0.079,0-0.118,0-0.197c0-6.954,2.986-10.451,8.919-10.451c1.219,0,2.318,0.235,3.34,0.589 c1.021,0.394,1.847,0.864,2.437,1.376c0.589,0.55,1.1,1.218,1.572,2.121c0.471,0.825,0.746,1.572,0.942,2.161 c0.196,0.59,0.314,1.336,0.393,2.161c0.157,0.825,0.197,1.375,0.197,1.571v0.865l-0.079,1.454H511.44 c0.196,2.004,0.825,3.536,1.886,4.439c1.1,0.904,2.633,1.376,4.754,1.376c2.947,0,5.266-0.511,6.916-1.493v3.025 c-1.926,0.903-4.283,1.414-7.073,1.414c-0.039,0-0.078,0-0.078,0c-1.179,0-2.279-0.118-3.301-0.472 c-0.942-0.274-1.964-0.785-2.908-1.453c-0.943-0.668-1.689-1.729-2.24-3.144C508.768,334.793,508.493,333.104,508.493,331.101 L508.493,331.101z M511.44,329.96h11.945c0-0.471-0.039-1.021-0.196-1.571c-0.079-0.589-0.314-1.336-0.668-2.2 c-0.314-0.864-0.903-1.65-1.847-2.24c-0.864-0.589-1.965-0.864-3.262-0.864c-2.004,0-3.457,0.511-4.4,1.571 C512.108,325.717,511.558,327.446,511.44,329.96L511.44,329.96z M529.75,317.112v-3.261h3.184v3.261H529.75z M529.907,340.962 h2.908v-20.313h-2.908V340.962z M535.565,323.36v-2.711h3.536v-5.697h2.908v5.697h5.265v2.711h-5.265v12.338 c0,1.061,0.235,1.769,0.628,2.2c0.473,0.394,1.18,0.59,2.279,0.59c0.825,0,1.611-0.118,2.318-0.472v2.75 c-0.864,0.314-1.729,0.511-2.593,0.511c0,0-0.039,0-0.079,0c-0.55,0-1.061-0.078-1.571-0.196c-0.551-0.118-1.101-0.354-1.769-0.668 c-0.629-0.354-1.14-0.942-1.571-1.768c-0.394-0.825-0.59-1.887-0.59-3.065v-12.22H535.565L535.565,323.36z M549.594,326.15 c0-1.611,0.589-2.986,1.729-4.126c1.179-1.14,3.025-1.729,5.422-1.729c1.729,0,3.458,0.393,5.226,1.218v2.946 c-1.571-0.903-3.183-1.375-4.911-1.375c-3.064,0-4.558,1.021-4.558,3.065c0,0.746,0.354,1.296,1.1,1.729 c0.747,0.393,1.65,0.786,2.712,1.061c1.1,0.275,2.161,0.629,3.261,1.062c1.062,0.354,1.965,1.061,2.712,2.004 c0.785,0.943,1.139,2.161,1.139,3.614c0,1.769-0.668,3.144-1.964,4.165c-1.337,1.022-3.144,1.493-5.501,1.493 c-2.24,0-4.283-0.511-6.13-1.571v-3.104c1.965,1.219,3.929,1.848,6.051,1.848c3.064,0,4.598-0.943,4.598-2.83 c0-1.021-0.354-1.768-1.14-2.396c-0.747-0.55-1.65-0.942-2.711-1.297c-1.062-0.274-2.162-0.589-3.184-0.903 c-1.1-0.314-2.004-0.904-2.75-1.689C549.986,328.546,549.594,327.486,549.594,326.15L549.594,326.15z"/><path fill="#B0063A" d="M567.943 333.261c-.512-1.689-.786-3.654-.786-5.854 0-2.239.274-4.204.786-5.854.511-1.689 1.179-3.025 2.004-4.008.785-1.021 1.768-1.847 2.907-2.476 1.14-.589 2.279-1.061 3.379-1.218 1.101-.235 2.279-.314 3.536-.314 2.79 0 5.541.55 8.213 1.611v4.558c-2.555-1.179-5.147-1.769-7.78-1.769-1.218 0-2.279.079-3.104.314-.864.236-1.729.629-2.554 1.297-.825.59-1.454 1.611-1.886 2.868-.472 1.336-.629 3.026-.629 5.029 0 2.004.196 3.655.629 4.99.393 1.336 1.061 2.318 1.886 2.908.825.628 1.689 1.061 2.554 1.296.825.197 1.887.314 3.104.314 2.594 0 5.226-.589 7.78-1.768v4.519c-2.712 1.101-5.423 1.65-8.213 1.65-1.218 0-2.436-.118-3.536-.314-1.1-.235-2.239-.629-3.379-1.297-1.14-.629-2.161-1.414-2.907-2.436C569.122 336.247 568.454 334.95 567.943 333.261L567.943 333.261zM591.99 340.962v-28.015h4.872v28.015H591.99zM603.109 338.605c-1.649-1.847-2.475-4.4-2.475-7.779 0-3.34.825-5.894 2.475-7.741 1.65-1.768 4.009-2.711 7.151-2.711 3.065 0 5.423.903 7.073 2.711 1.65 1.848 2.476 4.401 2.476 7.741 0 3.379-.825 5.933-2.476 7.779-1.65 1.769-4.008 2.712-7.073 2.712C607.118 341.277 604.76 340.373 603.109 338.605L603.109 338.605zM606.686 325.756c-.786.865-1.179 2.594-1.179 5.108s.393 4.204 1.179 5.068 1.965 1.337 3.575 1.337c1.611 0 2.79-.473 3.537-1.337.785-.864 1.179-2.554 1.179-5.068s-.394-4.243-1.179-5.108c-.747-.864-1.926-1.336-3.537-1.336C608.65 324.42 607.432 324.892 606.686 325.756L606.686 325.756zM622.717 331.768v-11.119h4.833v11.748c0 1.611.314 2.79 1.021 3.458.668.746 1.729 1.1 3.262 1.1 1.571 0 2.632-.354 3.3-1.1.669-.668 1.021-1.886 1.021-3.458v-11.748h4.794v11.119c0 2.986-.785 5.305-2.357 6.994-1.649 1.65-3.89 2.515-6.758 2.515-2.869 0-5.108-.864-6.719-2.515C623.503 337.073 622.717 334.754 622.717 331.768L622.717 331.768zM644.682 330.589c0-3.3.825-5.854 2.436-7.583 1.651-1.769 3.93-2.633 6.994-2.633 1.062 0 2.201.079 3.34.314v-7.74h4.912v21.492c0 1.887-.668 3.458-2.122 4.833-1.414 1.336-3.575 2.004-6.444 2.004-.668 0-1.375-.039-2.004-.196-.707-.078-1.453-.354-2.317-.825-.904-.472-1.69-1.061-2.318-1.729-.668-.746-1.219-1.769-1.69-3.144C644.878 334.008 644.682 332.436 644.682 330.589L644.682 330.589zM649.554 330.314c0 2.397.314 4.126.943 5.188.589 1.1 1.689 1.611 3.261 1.611 2.476 0 3.654-.747 3.654-2.201v-10.373c-.903-.236-2.004-.314-3.183-.314-1.493 0-2.711.472-3.458 1.336C649.986 326.424 649.554 328.035 649.554 330.314L649.554 330.314zM463.621 222.809c-19.489.275-35.206 16.189-35.206 35.756 0 18.939 14.695 34.421 33.281 35.718l0 0 0 0c.825.039 1.65.078 2.515.078.825 0 1.69-.039 2.515-.078h49.391v-21.18c.04-1.218-.903-2.239-2.2-2.278H496.43c-2.161 0-3.89-1.729-3.89-3.891V242.81c0-2.162 1.729-3.89 3.89-3.89h17.603c.904 0 2.043-.904 2.043-2.122v-17.604c0-2.122 1.729-3.89 3.891-3.89h11.905c-5.383-12.888-18.153-22.003-33.006-22.003C481.263 193.301 466.607 206.032 463.621 222.809L463.621 222.809z"/><linearGradient id="fa" gradientUnits="userSpaceOnUse" x1="227.213" y1="134.588" x2="272.924" y2="179.616" gradientTransform="translate(227.715 74.868) scale(.9083)"><stop offset="0" stop-color="#f9a51a"/><stop offset="1" stop-color="#f9a51a" stop-opacity="0"/></linearGradient><path fill="url(#fa)" d="M524.878,215.304c-4.95-9.272-14.774-15.639-26.012-15.639c-14.263,0-26.483,10.256-28.998,24.244 l-0.904,5.147l-5.265,0.079c-16.031,0.236-28.958,13.359-28.958,29.391c0,15.442,11.945,28.291,27.19,29.352h0.196 c0.668,0.079,1.375,0.079,2.043,0.079s1.375,0,2.043-0.079h0.236h49.626v-14.813c0.039-1.218-0.903-2.239-2.2-2.278h-17.485 c-2.161,0-3.89-1.729-3.89-3.891V242.77c0-2.161,1.729-3.89,3.89-3.89h17.643c0.904,0,2.043-0.903,2.043-2.122v-17.603 c0-2.122,1.729-3.89,3.891-3.89L524.878,215.304L524.878,215.304z"/><path fill="#F9A51A" d="M586.961 213.89h11.709c.786 0 1.414.628 1.414 1.414v11.709c0 .786-.628 1.415-1.414 1.415h-11.709c-.786 0-1.376-.629-1.376-1.415v-11.709C585.624 214.519 586.214 213.89 586.961 213.89L586.961 213.89zM573.522 193.694h7.584c.511 0 .903.393.903.903v7.623c0 .511-.433.864-.903.864h-7.584c-.511 0-.904-.354-.904-.864v-7.623C572.618 194.087 573.051 193.694 573.522 193.694L573.522 193.694zM572.107 246.346H587c.943 0 1.729.825 1.729 1.768v14.853c0 .942-.785 1.768-1.729 1.768h-14.893c-.942 0-1.729-.825-1.729-1.768v-14.853C570.379 247.171 571.165 246.346 572.107 246.346L572.107 246.346zM547.629 215.304h19.018c1.218 0 2.279 1.061 2.279 2.279v19.018c0 1.297-1.062 2.279-2.279 2.279h-19.018c-1.297 0-2.279-1.021-2.279-2.279v-19.018C545.311 216.365 546.332 215.304 547.629 215.304L547.629 215.304zM547.629 270.865h19.018c1.218 0 2.279 1.021 2.279 2.239v19.018c0 1.297-1.062 2.279-2.279 2.279h-19.018c-1.297 0-2.279-1.021-2.279-2.279v-19.018C545.311 271.847 546.332 270.865 547.629 270.865L547.629 270.865z"/></svg><view id="location" viewBox="0 682 54 96"/><svg width="54" height="96" viewBox="0 0 54 96" id="location-" y="682" xmlns="http://www.w3.org/2000/svg"><path fill="#FFF" d="M27,5C12.157,5,0.125,17.032,0.125,31.875C0.125,58.75,27,91,27,91s26.875-32.25,26.875-59.125 C53.875,17.032,41.846,5,27,5 M27,48.001c-8.905,0-16.124-7.22-16.124-16.125c0-8.906,7.219-16.125,16.124-16.125 c8.908,0,16.126,7.219,16.126,16.125C43.126,40.782,35.908,48.001,27,48.001"/></svg><view id="mindscreen" viewBox="0 778 350 52.51"/><svg width="350" height="52.51" viewBox="633.324 417.193 350 52.51" id="mindscreen-" y="778" xmlns="http://www.w3.org/2000/svg"><path d="M983.324,463.977c0-3.072-2.514-5.516-5.59-5.516c-3.001,0-5.374,2.443-5.374,5.516c0,3.143,2.447,5.726,5.516,5.726	C980.811,469.703,983.324,467.12,983.324,463.977 M963.699,468.656v-26.395c0-6.497-3.768-9.776-9.216-9.776	c-3.772,0-7.053,1.673-10.82,4.891c0-1.889-0.421-3.428-1.258-5.031l-6.985,1.955c0.978,2.517,1.331,4.678,1.331,8.379v25.977h7.537	v-25.625c2.308-2.311,5.521-3.978,7.755-3.978c2.933,0,4.046,1.324,4.046,6.139v23.463H963.699z M921.038,447.429h-13.06	c0-5.726,2.378-9.151,6.708-9.151C918.524,438.279,921.038,441.703,921.038,447.429 M928.999,453.085v-1.606	c0-8.24-1.54-12.566-4.613-15.361c-3.002-2.723-6.214-3.63-9.7-3.63c-4.471,0-7.965,1.461-10.827,4.749	c-3.071,3.485-4.401,7.61-4.401,13.824c0,11.316,6.286,18.503,16.271,18.503c4.749,0,9.01-1.531,12.707-4.678l-3.002-4.68	c-2.648,2.308-5.511,3.496-8.793,3.496c-6.914,0-8.732-5.172-8.732-10.057v-0.56H928.999L928.999,453.085z M885.669,447.429h-13.06	c0-5.726,2.378-9.151,6.705-9.151C883.156,438.279,885.669,441.703,885.669,447.429 M893.626,453.085v-1.606	c0-8.24-1.531-12.566-4.608-15.361c-3.001-2.723-6.214-3.63-9.703-3.63c-4.468,0-7.963,1.461-10.822,4.749	c-3.073,3.485-4.401,7.61-4.401,13.824c0,11.316,6.284,18.503,16.275,18.503c4.745,0,9.005-1.531,12.702-4.678l-3.002-4.68	c-2.655,2.307-5.515,3.495-8.795,3.495c-6.918,0-8.732-5.172-8.732-10.058v-0.558H893.626L893.626,453.085L893.626,453.085z M861.999,432.905c-0.91-0.418-1.606-0.56-2.724-0.56c-3.426,0-6.218,1.813-9.005,5.656c0-1.958-0.493-3.979-1.329-5.586	l-7.061,1.813c0.775,2.165,1.26,5.031,1.26,9.497v24.929h7.684v-23.879c0.702-2.861,3.425-5.238,6.637-5.238	c0.837,0,1.396,0.207,2.162,0.489L861.999,432.905L861.999,432.905z M837.035,464.885l-3.631-4.68	c-2.305,2.307-4.683,3.495-7.121,3.495c-1.893,0-3.564-0.77-4.683-2.025c-1.607-1.746-2.373-4.819-2.373-9.639	c0-4.4,0.421-7.679,1.468-9.844c1.116-2.306,3.141-3.56,5.588-3.56c2.024,0,3.838,0.836,5.933,2.724l3.838-5.097	c-3.139-2.936-5.933-3.842-9.771-3.842c-7.896,0-15.572,6.145-15.572,18.991c0,11.386,5.379,18.155,15.008,18.155	C830.469,469.562,833.823,468.097,837.035,464.885 M805.078,457.621c0-4.118-1.886-8.027-9.006-9.844l-4.397-1.117	c-3.562-0.908-4.751-2.025-4.751-4.186c0-2.729,2.095-4.538,5.374-4.538c2.799,0,5.387,0.835,8.666,2.579l2.514-5.308	c-3.006-1.607-6.849-3.067-11.663-3.067c-7.818,0-13.128,4.604-13.128,11.24c0,4.956,3.143,8.586,8.451,9.705l4.26,0.905	c3.979,0.843,5.726,2.237,5.726,4.958c0,2.935-2.376,4.959-5.726,4.959c-3.981,0-8.312-1.885-11.451-3.701l-2.723,5.52	c4.538,2.514,9.217,3.908,13.548,3.908C799.285,469.635,805.078,464.743,805.078,457.621 M762.767,459.646	c-1.049,1.747-3.354,3.354-6.215,3.354c-5.796,0-7.334-3.912-7.334-11.729c0-8.521,2.235-12.434,7.122-12.434	c2.583,0,4.678,0.982,6.428,2.866V459.646z M771.492,468.656c-0.7-1.742-1.117-5.308-1.117-12.288v-37.992l-7.608-1.184v12.917	c0,3.072,0.207,5.797,0.207,5.797c-2.164-2.236-4.611-3.209-7.611-3.209c-8.519,0-14.666,7.54-14.666,18.64	c0,11.038,5.449,18.085,14.458,18.085c3.488,0,6.283-1.113,8.658-3.487c0.207,1.463,0.279,1.956,0.627,2.721H771.492	L771.492,468.656z M733.215,468.656v-26.395c0-6.497-3.772-9.776-9.22-9.776c-3.767,0-7.049,1.673-10.821,4.891	c0-1.889-0.42-3.428-1.258-5.031l-6.98,1.955c0.977,2.517,1.324,4.678,1.324,8.379v25.977h7.54v-25.625	c2.308-2.311,5.517-3.978,7.752-3.978c2.933,0,4.052,1.324,4.052,6.139v23.463H733.215z M696.429,468.656v-36.169l-7.751,1.395	v34.774H696.429z M692.518,428.086c2.861,0,5.169-2.302,5.169-5.097c0-2.936-2.308-5.17-5.031-5.17c-2.861,0-5.097,2.311-5.097,5.17	C687.56,425.783,689.723,428.086,692.518,428.086 M679.133,468.656v-25.835c0-7.332-3.421-10.334-9.217-10.334	c-3.771,0-7.125,1.673-10.545,5.167c-2.583-4.124-5.305-5.167-8.451-5.167c-3.281,0-6.562,1.603-9.356,4.467	c-0.141-1.955-0.56-3.424-1.256-4.538l-6.982,1.954c0.838,1.889,1.258,4.542,1.258,8.939v25.347h7.471v-26.183	c2.583-2.376,5.097-3.495,7.259-3.495c2.937,0,3.841,1.325,3.841,5.449v24.229h7.333v-25.7c2.442-2.302,4.892-4.045,7.473-4.045	c2.722,0,3.634,1.184,3.634,5.304v24.44H679.133L679.133,468.656z"/></svg><view id="mozilla" viewBox="0 831 300 85.785"/><svg width="300" height="85.785" viewBox="0 0 300 85.785" id="mozilla-" y="831" xmlns="http://www.w3.org/2000/svg"><path fill="#010202" d="M0 0H300V85.785H0z"/><path fill="#FFF" d="M286.531,61.575c-0.586,0.164-1.081,0.255-1.576,0.255c-1.755,0-2.58-0.75-2.58-2.91V42.615 c0-8.564-6.825-12.734-14.895-12.734c-6.165,0-9.48,0.75-16.065,3.405l-1.47,8.64l8.564,0.915l1.215-4.23 c1.756-0.915,3.496-1.08,5.745-1.08c6.075,0,6.165,4.576,6.165,8.401v1.245c-1.92-0.256-4.079-0.331-6.165-0.331 c-8.564,0-17.475,2.16-17.475,11.4c0,7.814,6.149,10.74,11.565,10.74c6.075,0,9.9-3.66,12.06-7.485 c0.495,4.575,3.24,7.485,8.235,7.485c2.324,0,4.74-0.66,6.734-1.755L286.531,61.575z M263.49,61.335c-3.24,0-4.41-1.92-4.41-4.335 c0-4.08,3.33-5.16,7.155-5.16c1.739,0,3.659,0.255,5.414,0.495C271.396,58.59,267.315,61.335,263.49,61.335z M249.074,10.905 L232.845,68.16H222.27l16.23-57.255H249.074z M227.28,10.905L211.05,68.16h-10.56l16.229-57.255H227.28z M182.22,30.63h11.235 v13.471H182.22V30.63z M182.22,54.676h11.235V68.16H182.22V54.676z M165.87,54.18l8.49,0.825l-2.325,13.155h-32.79l-1.08-5.655 l20.639-23.715h-11.73l-1.664,5.821l-7.741-0.841l1.335-13.155h32.956l0.84,5.655L151.98,60h12.149L165.87,54.18z M112.095,29.88 c-13.485,0-20.145,9.075-20.145,20.054c0,11.985,7.995,19.051,19.56,19.051c11.985,0,20.64-7.575,20.64-19.561 C132.15,38.94,125.565,29.88,112.095,29.88z M111.84,60.75c-5.82,0-8.82-4.995-8.82-11.49c0-7.08,3.405-11.145,8.91-11.145 c5.07,0,9.15,3.405,9.15,10.98C121.08,56.25,117.42,60.75,111.84,60.75z M82.291,60h4.995v8.16H71.55V47.025 c0-6.495-2.16-8.985-6.404-8.985c-5.16,0-7.246,3.66-7.246,8.91V60h4.995v8.16h-15.72V47.025c0-6.495-2.16-8.985-6.404-8.985 c-5.16,0-7.246,3.66-7.246,8.91V60h7.155v8.16H17.805V60H22.8V38.775h-4.995v-8.16h15.72v5.655c2.25-3.989,6.166-6.405,11.4-6.405 c5.416,0,10.396,2.58,12.24,8.07c2.085-4.995,6.33-8.07,12.24-8.07c6.735,0,12.9,4.08,12.9,12.975V60H82.291z"/></svg><view id="pointnine" viewBox="0 917 300 85.589"/><svg width="300" height="85.589" viewBox="0 0 300 85.589" id="pointnine-" y="917" xmlns="http://www.w3.org/2000/svg"><path fill-rule="evenodd" clip-rule="evenodd" fill="#1266A6" d="M56.179,48.387c0.002,0,0.004-0.001,0.006-0.001 c1.187-0.479,2.536,0.109,3.015,1.296l0.003,0.007c0.198,0.492,0.231,1.012,0.105,1.486C55.101,61.609,47.045,73.13,30.205,85.589 l-8.736-5.044C0.472,68.422-6.278,40.804,6.393,18.857l0.747-1.294c0.46-0.723,1.267-1.205,2.188-1.205 c1.321,0,2.539,0.988,2.702,2.265C12.416,36.313,26.745,50.57,44.526,50.57C48.632,50.57,52.56,49.772,56.179,48.387L56.179,48.387 z"/><path fill-rule="evenodd" clip-rule="evenodd" fill="#1266A6" d="M57.143,5.227c6.969,6.969,6.969,18.268,0,25.237 c-6.968,6.969-18.267,6.969-25.236,0c-6.969-6.969-6.969-18.268,0-25.237C38.876-1.742,50.175-1.742,57.143,5.227L57.143,5.227z"/><path fill="#231F20" d="M110.218,33.413c-2.292,1.821-5.789,2.731-10.492,2.731h-4.233v8.876h-7.101V13.202h11.243 c4.885,0,8.443,0.949,10.674,2.845c2.23,1.897,3.346,4.811,3.346,8.74C113.655,28.717,112.509,31.592,110.218,33.413 L110.218,33.413z M104.71,20.462c-1.108-0.774-2.83-1.161-5.166-1.161h-4.052v10.697h4.779c2.367,0,3.976-0.478,4.825-1.434 c0.85-0.956,1.274-2.351,1.274-4.188C106.372,22.541,105.818,21.236,104.71,20.462L104.71,20.462z M136.277,41.743 c-2.458,2.428-5.546,3.641-9.263,3.641c-3.718,0-6.805-1.213-9.264-3.641c-2.457-2.428-3.687-5.417-3.687-8.967 c0-3.551,1.229-6.547,3.687-8.99c2.459-2.442,5.546-3.664,9.264-3.664c3.717,0,6.805,1.222,9.263,3.664 c2.458,2.443,3.687,5.439,3.687,8.99C139.963,36.326,138.735,39.315,136.277,41.743L136.277,41.743z M131.383,27.859 c-1.138-1.274-2.595-1.912-4.369-1.912c-1.775,0-3.232,0.637-4.37,1.912s-1.707,2.913-1.707,4.916s0.569,3.634,1.707,4.894 s2.595,1.889,4.37,1.889c1.774,0,3.231-0.629,4.369-1.889c1.139-1.259,1.707-2.891,1.707-4.894S132.522,29.134,131.383,27.859 L131.383,27.859z M148.543,17.413c-0.774,0.773-1.723,1.161-2.845,1.161c-1.124,0-2.071-0.387-2.846-1.161 c-0.773-0.774-1.16-1.722-1.16-2.845s0.387-2.071,1.16-2.845c0.774-0.774,1.722-1.161,2.846-1.161c1.122,0,2.07,0.387,2.845,1.161 c0.773,0.774,1.16,1.723,1.16,2.845S149.317,16.639,148.543,17.413L148.543,17.413z M149.112,45.02h-6.827V20.531h6.827V45.02 L149.112,45.02z M168.912,45.02V31.182c0-3.762-1.381-5.645-4.142-5.645c-1.365,0-2.558,0.494-3.573,1.479 c-1.018,0.986-1.524,2.435-1.524,4.347V45.02h-6.828V20.531h6.828v2.731c2.063-2.094,4.384-3.141,6.964-3.141 c2.578,0,4.741,0.91,6.486,2.731c1.744,1.821,2.617,4.249,2.617,7.283V45.02H168.912L168.912,45.02z M186.982,36.417 c0,0.941,0.243,1.677,0.729,2.208c0.485,0.531,1.062,0.796,1.729,0.796c1.274,0,2.352-0.576,3.232-1.729l2.549,4.779 c-2.125,1.942-4.363,2.913-6.714,2.913c-2.353,0-4.34-0.773-5.963-2.321c-1.624-1.547-2.436-3.656-2.436-6.327V25.447h-2.867 v-4.916h2.867v-7.329h6.873v7.329h5.918v4.916h-5.918V36.417L186.982,36.417z M228.357,45.02L213.2,25.083V45.02h-7.101V13.202 h6.646l15.612,20.484V13.202h7.101V45.02H228.357L228.357,45.02z M246.131,17.413c-0.774,0.773-1.723,1.161-2.846,1.161 c-1.122,0-2.07-0.387-2.845-1.161c-0.773-0.774-1.16-1.722-1.16-2.845s0.387-2.071,1.16-2.845c0.774-0.774,1.723-1.161,2.845-1.161 c1.123,0,2.071,0.387,2.846,1.161c0.773,0.774,1.16,1.723,1.16,2.845S246.905,16.639,246.131,17.413L246.131,17.413z M246.7,45.02 h-6.827V20.531h6.827V45.02L246.7,45.02z M266.5,45.02V31.182c0-3.762-1.381-5.645-4.142-5.645c-1.366,0-2.557,0.494-3.573,1.479 c-1.018,0.986-1.525,2.435-1.525,4.347V45.02h-6.827V20.531h6.827v2.731c2.063-2.094,4.385-3.141,6.965-3.141 c2.578,0,4.74,0.91,6.486,2.731c1.744,1.821,2.616,4.249,2.616,7.283V45.02H266.5L266.5,45.02z M282.158,35.188 c0.212,1.335,0.91,2.428,2.094,3.277c1.183,0.85,2.518,1.274,4.005,1.274c2.397,0,4.37-0.804,5.918-2.413l3.823,4.142 c-2.762,2.611-6.001,3.915-9.718,3.915c-3.718,0-6.79-1.145-9.218-3.437c-2.428-2.291-3.642-5.363-3.642-9.218 c0-3.854,1.236-6.918,3.71-9.194c2.473-2.276,5.394-3.414,8.763-3.414c3.368,0,6.228,1.017,8.58,3.05 c2.351,2.033,3.527,4.825,3.527,8.375v3.642H282.158L282.158,35.188z M291.443,26.949c-0.94-0.789-2.087-1.184-3.437-1.184 c-1.351,0-2.587,0.41-3.71,1.229s-1.774,1.928-1.957,3.323h10.742C292.929,28.861,292.383,27.738,291.443,26.949L291.443,26.949z"/><path fill="#828282" d="M123.609,64.793v9.898h-2.738v-9.898h-3.475v-2.369h9.688v2.369H123.609L123.609,64.793z M139.333,74.691 v-4.826h-4.879v4.826h-2.737V62.424h2.737v5.125h4.879v-5.125h2.737v12.268H139.333L139.333,74.691z M156.758,72.27v2.422h-9.037 V62.424h8.845v2.439h-6.107v2.527h5.493v2.334h-5.493v2.545H156.758L156.758,72.27z M177.834,74.691l-1.141-2.65h-5.142 l-1.141,2.65h-2.913l5.3-12.268h2.65l5.3,12.268H177.834L177.834,74.691z M174.132,66.074l-1.545,3.563h3.071L174.132,66.074 L174.132,66.074z M193.383,74.691l-5.844-7.688v7.688h-2.737V62.424h2.562l6.02,7.897v-7.897h2.738v12.268H193.383L193.383,74.691z M212.495,68.443v4.353c-1.218,1.357-2.902,2.035-5.055,2.035c-1.802,0-3.314-0.597-4.536-1.79 c-1.223-1.193-1.834-2.699-1.834-4.519s0.623-3.337,1.869-4.554s2.749-1.825,4.51-1.825s3.29,0.578,4.589,1.737l-1.421,2.053 c-0.551-0.479-1.056-0.81-1.519-0.991c-0.462-0.182-0.962-0.272-1.5-0.272c-1.041,0-1.919,0.354-2.633,1.062 c-0.714,0.709-1.07,1.642-1.07,2.8s0.343,2.086,1.026,2.781c0.685,0.696,1.501,1.044,2.448,1.044c0.948,0,1.737-0.181,2.369-0.543 v-3.37H212.495L212.495,68.443z M226.604,72.27v2.422h-9.038V62.424h8.845v2.439h-6.107v2.527h5.493v2.334h-5.493v2.545H226.604 L226.604,72.27z M231.675,74.691V62.424h2.737v9.828h5.229v2.439H231.675L231.675,74.691z M257.226,74.691h-2.316l-4.931-12.268 h2.966l3.124,7.81l3.123-7.81h2.966L257.226,74.691L257.226,74.691z M275.302,66.373c-0.866-1.077-1.942-1.615-3.229-1.615 c-1.029,0-1.91,0.337-2.641,1.01c-0.731,0.673-1.097,1.579-1.097,2.72s0.345,2.057,1.035,2.747s1.526,1.035,2.51,1.035 c1.345,0,2.444-0.532,3.299-1.598l1.755,1.808c-1.393,1.568-3.033,2.352-4.922,2.352c-1.89,0-3.446-0.597-4.669-1.79 s-1.834-2.699-1.834-4.519s0.623-3.337,1.869-4.554s2.77-1.825,4.572-1.825c2.012,0,3.696,0.767,5.054,2.299L275.302,66.373 L275.302,66.373z"/></svg><view id="simonefass" viewBox="0 1003 300 71.068"/><svg width="300" height="71.068" viewBox="0 0 300 71.068" id="simonefass-" y="1003" xmlns="http://www.w3.org/2000/svg"><g fill="#78BDE8"><path d="M95.552 21.015c0 .283.282.452.508.452.338 0 .621-.113.79-.113.226 0 .396.113.396.396 0 .789-1.468.959-1.468 1.749 0 .17.113.339.282.339.226 0 .395-.169.621-.169.169 0 .226.169.226.282 0 .282-.678.395-.678.621 0 .226.114.394.396.394.338 0 .621-.282 1.016-.282.225 0 .282.17.282.339 0 .226-1.186.734-3.894 2.54-3.16 2.088-11.286 9.028-11.286 12.132 0 .791 1.016 1.298 1.694 1.298 1.071 0 5.586-1.523 8.182-1.523 1.411 0 2.934 2.539 3.047 3.16.113.451.169 1.242.169 1.918 0 10.778-19.976 23.362-21.217 23.362-.96 0-1.072-.902-1.072-1.411 0-1.185 1.297-1.185 1.297-1.918 0-.17-.057-.339-.057-.509 0-.225.17-.282.17-.62 0-.169-.282-.226-.395-.226-.226 0-.395.112-.508.112-.226 0-.282-.112-.338-.338 0-1.071 1.58-1.637 1.58-1.975 0-.114-.056-.227-.225-.227-.226 0-.565.396-.79.396-.113 0-.564-.113-.564-.62 0-1.242 2.257-2.145 5.926-4.629.846-.563 7.73-5.924 7.73-8.578 0-.394-.226-.619-1.073-.619-1.128 0-3.216 1.017-5.135 1.017-3.781 0-5.53-3.557-5.53-6.829 0-9.085 12.697-19.411 19.693-22.684.621-.282 1.017-.396 1.524-.396.734 0 .96.452.96 1.129C97.81 19.999 95.552 20.168 95.552 21.015M99.334 43.249c.338-1.354 1.185-3.781 1.523-4.854.169-.564.564-1.015.789-1.015.396 0 .622.394.622.903 0 .282-.17 1.128-.17 1.466 0 .17.057.452.226.452.395 0 .508-2.031 1.806-2.031 1.185 0 .903 1.637 1.468 1.637.564 0 .733-1.468 1.298-1.468.338 0 .451.283.451.621 0 .621-2.822 10.271-3.16 11.286-.621 1.806-1.016 3.669-1.016 4.29 0 .507.112.902.395.902 1.185 0 4.401-3.048 4.514-3.048.112 0 .226 0 .226.169 0 .226-1.129 1.298-1.129 1.638 0 .169.112.169.226.169.226 0 .451-.339.62-.339.113 0 .226.057.226.227 0 .169-.903.733-.903 1.128 0 .227.452.227.564.282.112.057.056.508.225.678.17.112.226.169.226.451 0 .79-5.756 6.771-7.675 6.771-1.467 0-3.611-2.145-3.611-5.53 0-3.047.056-6.434.508-8.126L99.334 43.249zM103.735 32.752c0-.226.113-.395.113-.677 0-.17 0-.678-.282-.678-.565 0-.621.621-.621 1.072-.056.283-.338.565-.621.565-.564 0-.903-1.242-.903-2.032 0-.846.113-1.862.282-2.878.169-1.127 1.016-3.835 2.708-3.835.621 0 1.128.282 1.128.789 0 .396-.113.847-.113 1.128 0 .226.056.339.226.339.339 0 .733-1.636 1.073-1.636 1.072 0 1.466 1.297 1.466 2.143 0 2.483-.394 6.376-3.555 6.376C103.904 33.429 103.735 33.035 103.735 32.752M119.591 59.838c0-1.637.282-2.877.282-4.176 0-.903.113-3.499-.677-3.499-.903 0-5.304 10.496-6.941 10.496-1.016 0-1.242-1.75-1.242-3.047 0-.058 0-.451-.282-.451-.395 0-.282 1.862-.338 2.145-1.298-.113-1.354-3.218-1.354-5.53 0-9.029 2.765-19.863 3.555-19.863.903 0 .903.338.903.958 0 .339 0 .96.169.96.226 0 .395-.113.564-.113.734 0 .283 1.071.621 1.071.564 0 .395-1.354 1.186-1.354.338 0 .79.169.903.508.169.622.959 1.073.959 1.863 0 1.128-2.371 8.633-2.371 9.48 0 .225.057.507.283.507.677 0 7.166-11.286 8.069-11.286 1.412 0 .96.96 1.806 1.412 1.017.621 1.298 1.072 1.298 3.273 0 2.369-.62 5.529-.62 6.207 0 .621.056 1.072.282 1.072.621 0 5.7-10.271 7.223-10.271 1.073 0 2.483 2.145 3.104 3.894.283.79.226 1.467.226 2.314 0 2.03-.169 3.047-.169 6.207 0 1.298.226 1.637.507 1.637 1.072 0 2.766-2.54 3.047-2.54.17 0 .283.113.283.283 0 .451-1.186 1.691-1.186 2.029 0 .282.114.282.17.282.113 0 .339-.111.452-.111.112 0 .169.111.169.111 0 .396-.565.734-.565.903 0 .17.114.282.283.339.169.113.62.339.62.564 0 .281-5.868 8.014-6.828 8.014-1.354 0-1.975-.791-1.975-1.58 0-.396.169-.678.169-1.017 0-.225-.056-.451-.226-.451-.225 0-.225 1.016-.903 1.016-.338 0-.451-1.298-.451-2.709 0-1.467.339-3.667.339-5.19 0-.96-.226-1.976-.734-1.976-.734 0-4.515 9.48-8.013 9.48C120.325 61.701 119.591 61.193 119.591 59.838M150.572 62.04c-.79 0-1.411-.452-1.806-.452-.169 0-.282.17-.282.282 0 .226.959.282 1.411.564-.564.113-1.185.227-2.596.227-1.016 0-2.708-.96-4.006-2.653-1.299-1.692-1.863-2.765-1.863-5.304 0-7.506 3.555-12.979 9.762-17.042.508.112 1.58.564 1.976.564.112 0 .112-.056.112-.112 0-.282-1.072-.847-1.241-.96.733-.621 1.975-1.241 2.427-1.241 2.144 0 4.175 2.257 5.134 3.78 1.468 2.256 1.468 4.797 1.468 6.433C161.067 53.123 153.9 62.04 150.572 62.04M154.127 44.207c-.564-.676-1.411-1.467-1.976-1.467-2.652 0-4.289 6.433-4.289 8.577 0 1.806.226 5.305 2.766 5.305 3.499 0 4.345-6.771 4.345-9.255C154.974 46.182 154.804 44.998 154.127 44.207M165.244 35.912c.452 0 .62.565.62 1.241v.564c0 .847.17 1.186.339 1.186.339 0 .396-1.298 1.128-1.298.848 0 1.13.282 1.13 1.411 0 .395-.113.677-.113.903 0 .169.113.339.226.339.17 0 .451-1.242 1.072-1.242.395 0 .733.508.733 1.073 0 1.185-2.539 8.803-2.539 9.987 0 .282.056.451.282.451.282 0 .621-.733 1.128-1.523 3.048-4.966 6.038-10.213 6.489-10.213.734 0 .847.565 1.523.902.621.283.282.678.621 1.017 1.072.395 1.692 1.409 1.692 2.539 0 3.385-.958 6.433-.958 9.649 0 .395.338.507.677.507.733 0 2.031-2.539 2.426-2.539.17 0 .282.112.282.282 0 .339-.621.621-.621 1.129 0 .226 0 .452.171.621.112-.114.338-.282.45-.282.171 0 .226.168.226.282 0 .169-.732 1.071-.732 1.523 0 .226.169.226.169.451 0 .451-.564.846-.564 1.071 0 .114.056.283.226.283.282 0 .621-.678.902-.678.113 0 .227.113.227.339 0 .677-5.248 6.151-5.587 6.546-.451.451-.903.564-1.24.564-1.299 0-3.104-3.725-3.104-4.91 0-1.806.339-4.626.281-5.529 0-.451-.112-.79-.338-.79-.733 0-5.19 10.326-6.489 10.326-1.016 0-2.427-1.637-2.822-2.313-.79-1.354-1.41-2.652-1.41-3.78C161.745 53.405 163.269 35.912 165.244 35.912M183.641 57.976c-.395-.79-.508-2.427-.508-4.458 0-6.32 6.264-17.041 13.092-17.041 1.354 0 4.4 2.99 4.4 6.207 0 5.642-4.005 7.223-11.397 9.593.056 2.258.79 3.95 3.385 3.95 1.75 0 6.659-2.652 7.28-3.611.169-.227.339-.396.564-.396.168 0 .395.112.395.281 0 .509-1.241 1.524-1.241 1.751 0 .112.169.169.282.169.169 0 .564-.565.732-.565.114 0 .171.113.171.282 0 .396-1.073 1.411-1.073 1.806 0 .114.057.114.17.114.169 0 .396-.451.621-.451.111 0 .282.112.282.395 0 .395-.113.902-5.305 4.571-.395.281-4.176 2.426-5.306 2.426C187.195 62.999 184.713 60.121 183.641 57.976M192.839 42.232c-1.523 0-3.611 7.562-3.611 9.029.282-.057 1.749-.451 1.749-.79 0-.508-1.072-.227-1.072-.621 0-.508 1.975-.902 1.975-1.298 0-.169-.452-.169-.79-.169-.395 0-.564-.113-.564-.339 0-.79 4.007-1.636 4.007-2.991C194.531 44.038 193.741 42.232 192.839 42.232M228.445 48.497c0-.227-.17-.282-.339-.282-.733 0-6.49 1.918-7.336 1.918-.339 0-.508-.112-.508-.451 0-.452.451-.395.451-.678 0-.168-.17-.282-.338-.282-.396 0-1.073.17-1.354.17-.169 0-.283-.113-.34-.17-.056-.282.057-.507.057-.789-.057-.734-.677-1.129-1.354-1.129-.395 0-.62.169-.903.169-.564 0-.508-.96-.508-1.016.056-.281.395-.508.902-.678 5.361-1.806 10.215-3.047 11.795-3.611.395-.112 1.015-.225 1.129-.789.339-1.298.395-3.047.507-4.683.113-1.3.847-4.854.847-7.337 0-.451-.056-.564-.508-.564-1.241 0-9.479 2.426-10.325 2.426-.396 0-.847-.057-.847-.394 0-.339.45-.396.45-.847 0-.226-.169-.451-.396-.451-.226 0-.902.338-1.523.338-.394 0-.563-.17-.563-.452 0-.282.281-.903.281-1.297 0-.283-.281-.283-.563-.283-1.016 0-1.468-.508-1.468-1.186 0-.564.338-.958.734-1.072 4.569-1.523 20.991-5.303 23.981-5.53 1.13-.113 4.402-1.128 5.417-1.128.452 0 .735.733.735 1.128 0 1.072-1.017.79-1.017 1.467 0 .396.79.168.79 1.129 0 1.297-1.129 1.128-1.129 1.918 0 .509 1.241.113 1.241.791 0 .507-1.071.845-4.344 1.185-.903.057-2.483.226-2.879.621-.282.282-.564.902-.621 1.411-.111.846-1.523 10.1-1.523 10.496 0 .394 0 .507.452.507.678 0 7.899-3.385 8.973-3.385.394 0 .677.564.677.903 0 1.467-1.411.959-1.298 1.693 0 .451 1.186.451 1.186 1.467 0 1.129-1.129.902-1.129 1.354 0 .451.395.451.789.451.227 0 .396.17.396.563 0 .34-.563.509-1.016.621-.903.17-2.2.733-8.803 3.048-1.073.339-1.299.621-1.412.902-.394 1.016-3.046 15.292-3.384 18.565-.058.79-.283 1.523-.679 2.089-.225.395-.282 1.522-.282 2.2 0 .677-.338 1.523-1.071 1.523-.282 0-.677-.282-.677-.733s.112-1.241.112-1.636c0-.396 0-.848-.508-.848-.395 0-.678.396-.959.396-.678 0-.733-.848-.733-1.354 0-.283.168-1.13-.396-1.13-.563 0-.676.621-1.128.621-.339 0-.508-.395-.508-.677 0-2.484 1.411-7.167 1.636-9.594C227.43 54.535 228.445 49.342 228.445 48.497M256.548 38.169c2.144-1.298 4.006-2.258 4.628-2.258.563 0 1.297.226 1.297.79 0 .734-.959 1.412-.959 1.524 0 .113.057.169.112.169.17 0 .339-.169.565-.169.281 0 .847.282.847.791 0 .507-.678.621-.678.959 0 .169.057.226.112.226.451 0 .791-.339 1.241-.339.227 0 .395.227.395.564 0 .678-8.689 5.022-12.47 12.584-.508 1.016-.904 1.919-.904 2.991 0 .395.452.563 1.018.563 1.128 0 3.78-2.709 9.141-10.947.339-.563.621-.902 1.072-.902.79 0 1.129.96 1.354 1.354.339.677 1.579 1.636 1.579 2.087 0 1.693-1.014 4.515-1.014 6.265 0 .451.111.62.507.62.169 0 2.201-1.806 3.047-3.442.113-.169.169-.282.226-.282.17 0 .282.058.282.227 0 .338-.678 1.41-2.032 2.821.058.112.17.17.227.17.113 0 .959-.679 1.072-.679.169 0 .283.113.283.282 0 .396-1.355 1.411-1.355 1.693 0 .112.113.227.226.227.339 0 1.298-1.186 1.58-1.186.113 0 .226.057.226.169-.056.396-.847 1.072-.847 1.299 0 .056.057.112.171.112.168 0 .338-.17.62-.17.112 0 .169.058.169.17 0 .677-5.756 6.546-7.393 6.546-1.185-.113-3.104-2.709-3.104-4.684 0-.733.283-1.354.283-1.862 0-.339-.056-.621-.339-.621-.338 0-5.248 7.167-7.618 7.167-1.974-.169-4.458-2.709-4.458-7.562C245.656 47.706 252.823 40.483 256.548 38.169M276.299 40.201c5.361-3.442 6.15-4.288 6.941-4.288.337 0 .563.338.563.734 0 .62-1.297 1.297-1.297 1.467 0 .225.055.339.225.339.227 0 .451-.169.621-.169.225 0 .508.112.508.451 0 .564-1.919.903-1.919 1.467 0 .226.339.282.62.282.396 0 .733.057.733.282 0 .339-.169.508-.169 1.016 0 .62.509-.056.509 1.129s-8.973 6.038-8.973 7.561c0 .227.396.396.847.396.507 0 2.99-.451 4.119-.451 2.427 0 3.33 2.088 3.33 3.781 0 6.714-10.327 12.188-13.995 12.188-.507 0-.678-.733-.678-1.467.057-.564 1.862-.96 1.862-1.185 0-.114-.057-.17-.112-.17-.112 0-.395.056-.677.056-.621 0-1.017-.338-1.017-.733 0-1.185.282-1.241.282-1.637 0-.225-.112-.563-.112-.902 0-.733 6.658-2.37 6.658-4.063 0-.676-5.926 0-6.264-.902-.227-.621-.339-2.539-.339-4.966C268.567 46.578 274.888 41.104 276.299 40.201M292.438 40.201c5.36-3.442 6.15-4.288 6.94-4.288.337 0 .564.338.564.734 0 .62-1.298 1.297-1.298 1.467 0 .225.056.339.226.339.226 0 .451-.169.62-.169.225 0 .509.112.509.451 0 .564-1.92.903-1.92 1.467 0 .226.339.282.621.282.396 0 .733.057.733.282 0 .339-.169.508-.169 1.016 0 .62.508-.056.508 1.129s-8.973 6.038-8.973 7.561c0 .227.396.396.847.396.509 0 2.991-.451 4.12-.451 2.427 0 3.329 2.088 3.329 3.781 0 6.714-10.327 12.188-13.994 12.188-.509 0-.678-.733-.678-1.467.057-.564 1.862-.96 1.862-1.185 0-.114-.057-.17-.113-.17-.113 0-.395.056-.677.056-.621 0-1.016-.338-1.016-.733 0-1.185.282-1.241.282-1.637 0-.225-.112-.563-.112-.902 0-.733 6.657-2.37 6.657-4.063 0-.676-5.924 0-6.263-.902-.227-.621-.339-2.539-.339-4.966C284.707 46.578 291.026 41.104 292.438 40.201M70.68 9.098c-.431-.426-1.174-.486-1.855-.249-.067.011-.136.028-.26.075 0 0-.07.037-.108.057l-.067.034c-.046.024-.072.051-.069.042L44.635 20.303 32.571 32.458c2.535-6.009 6.521-14.929 11.224-24.067-1-3.664-4.303-5.941-6.395-6.463-2.048 13.264-6.364 28.447-6.364 28.447s-5.456-16.501-8.415-30.164c-4.751-1.087-7.47 2.347-8.45 3.022C21.704 14.954 28.809 31.33 28.809 31.33S15.41 23.446 4.153 13.379C1.279 16.989.572 18.85 0 23.008c14.194 3.55 28.059 10.863 28.059 10.863s-14.521 2.014-27.224 4.477c.911 3.513 2.018 6.355 4.476 8.49 7.743-4.85 19.568-9.576 24.282-11.38l-16.773 16.9-.175.151c-.592.601-.905 1.442-.901 2.437.014 2.462 1.971 5.857 5.239 9.083 3.187 3.146 6.597 5.023 9.123 5.023.994 0 1.807-.288 2.421-.858 0 0 10.549-10.634 18.878-19.033 6.194-6.241 10.657-10.76 12.911-13.07.106-.111.181-.236.22-.366.012-.041.021-.077.03-.129L70.854 11.08C71.188 10.218 71.128 9.551 70.68 9.098zM45.83 22.076c.328-.106 1.026-.573 1.994-.573.872 0 1.64.187 2.281.554 1.174.675 1.956 1.99 2.329 3.906-1.108 1.181-4.278 4.408-9.43 9.602-7.007 7.063-15.877 15.945-19.564 19.631-2.668-2.816-5.101-3.446-7.24-3.389L45.83 22.076zM27.462 67.433c-1.402.771-3.863 1.118-9.517-4.106-2.778-2.922-4.784-5.982-4.796-8.029-.003-.597.155-1.06.51-1.418 0 0 0-.003.001-.004 1.352-1.258 5.813-.4 9.731 3.806C27.373 61.955 29.623 65.918 27.462 67.433zM58.553 34.987C56.177 37.416 29.691 63.99 29.691 63.99c-1.3-3.854-3.228-5.962-5.179-7.554l28.444-28.927C54.872 27.119 60.388 28.534 58.553 34.987zM60.397 33.463c.648-5.648-3.049-7.263-6.14-7.806.043-3.312-3.386-5.776-7.219-5.104l10.757-4.381c.013.034.04.057.051.096-.406.438-.567 2.035 1.039 1.806 2.694-.889 2.428-.22 1.634.76-.439.683-.206 1.435.717 1.192 2.62-1.28 1.933-.031 1.413 1.368-.347.924.367 1.559 1.162 1.667L60.397 33.463z"/></g></svg><view id="sinnerschrader" viewBox="0 1075 300 68.214"/><svg width="300" height="68.214" viewBox="-2.398 215.851 300 68.214" id="sinnerschrader-" y="1075" xmlns="http://www.w3.org/2000/svg"><path d="M7.466 256.283c-6.364 0-9.664-3.415-9.839-10.299 0-.345.115-.581.465-.636l4.86-.81c.266-.074.542.08.616.346.015.049.021.102.019.154.176 4.165 1.39 5.79 4.05 5.79 2.5 0 3.704-1.331 3.704-5.616s-.81-5.614-3.88-6.829l-2.375-.926c-5.438-2.139-7.059-5-7.059-11.108 0-6.769 3.07-10.5 9.55-10.5 6.479 0 9.32 3.47 9.664 9.605 0 .345-.175.5-.5.634l-4.628.695c-.345.055-.636-.114-.636-.465-.114-3.239-1.16-5.035-3.704-5.035-2.431 0-3.591 1.5-3.591 4.745 0 3.646.695 4.744 3.82 5.96l2.375.924c5.149 2.024 7.175 4.804 7.175 11.499C17.535 252.229 14.935 256.283 7.466 256.283zM19.39 216.987c-.021-.3.207-.56.508-.581.023-.001.048-.001.071 0h5.035c.301-.02.56.207.58.508.002.025.002.048 0 .073v38.196c.021.301-.207.56-.506.581-.025.001-.048.001-.073 0h-5.035c-.301.02-.56-.207-.579-.508-.003-.025-.003-.049 0-.073V216.987zM28.809 216.987c-.02-.3.207-.56.508-.581.024-.001.048-.001.073 0h6.134c.383-.055.739.202.81.581l7.29 27.197h.29v-27.197c-.02-.3.207-.56.508-.581.023-.001.048-.001.072 0h4.315c.3-.02.56.207.581.508.001.025.001.048 0 .073v38.196c.02.301-.207.56-.508.581-.025.001-.048.001-.073 0h-5.75c-.381.055-.738-.202-.81-.581l-7.639-27.197h-.345v27.197c.02.301-.207.56-.508.581-.024.001-.048.001-.073 0h-4.285c-.3.02-.56-.207-.58-.508-.001-.025-.001-.049 0-.073L28.809 216.987zM52.608 216.987c-.021-.3.207-.56.506-.581.025-.001.049-.001.073 0h6.12c.381-.055.739.202.81.581l7.29 27.197h.29v-27.197c-.022-.3.205-.561.504-.583.035-.002.07-.001.105.002h4.285c.301-.02.56.207.581.508.001.025.001.048 0 .073v38.196c.02.301-.208.56-.508.581-.025.001-.048.001-.073 0h-5.75c-.382.055-.738-.202-.81-.581l-7.639-27.197h-.345v27.197c.02.301-.208.56-.508.581-.024.001-.048.001-.073 0h-4.285c-.299.02-.56-.207-.58-.508-.001-.025-.001-.049 0-.073v-38.196H52.608zM76.391 216.987c-.021-.3.207-.56.506-.581.025-.001.048-.001.073 0h16.143c.301-.02.56.207.581.508.001.025.001.048 0 .073v4.454c.017.301-.212.559-.513.576-.022.001-.045.001-.067 0H82.929c-.167-.025-.32.091-.345.259-.004.027-.004.057 0 .086v10.358c-.023.167.093.321.259.345.029.004.057.004.086 0h8.795c.299-.02.56.207.579.508.001.023.001.048 0 .073v4.454c.021.301-.207.56-.508.579-.023.003-.048.003-.071 0h-8.795c-.167-.023-.32.093-.345.259-.004.029-.004.057 0 .086v10.765c-.023.167.093.322.259.345.029.004.057.004.086 0h10.184c.301-.02.56.207.581.508.001.023.001.048 0 .071v4.455c.02.3-.207.561-.508.58-.025.001-.048.001-.073 0H76.97c-.301.021-.56-.207-.58-.508-.002-.023-.002-.049 0-.072V216.987zM111.633 255.758c-.282.038-.551-.134-.635-.404l-4.804-15.684h-2.95c-.167-.023-.322.093-.345.259-.004.029-.004.057 0 .086v15.163c.021.301-.207.561-.508.58-.023.002-.048.002-.071 0h-5.016c-.299.02-.56-.207-.579-.508-.001-.023-.001-.048 0-.072v-38.191c-.021-.3.207-.56.508-.581.023-.001.048-.001.071 0h7.929c7 0 11.225 3.065 11.225 11.689 0 5.149-1.734 8.39-4.69 10.069l5.556 16.999c.114.29 0 .579-.291.579h-5.399V255.758zM110.242 228.095c0-4.63-1.5-6.074-5-6.074h-2.024c-.167-.025-.321.091-.345.258-.004.028-.004.059 0 .087v11.459c-.023.167.092.321.259.345.029.004.057.004.086 0h2.024C108.737 234.176 110.242 232.785 110.242 228.095zM128.761 256.283c-6.365 0-9.665-3.415-9.835-10.299 0-.345.116-.581.465-.636l4.86-.81c.266-.074.542.08.616.346.014.049.021.102.02.154.174 4.165 1.389 5.79 4.049 5.79 2.5 0 3.704-1.331 3.704-5.616s-.81-5.614-3.879-6.829l-2.371-.926c-5.44-2.139-7.06-5-7.06-11.108 0-6.769 3.065-10.5 9.55-10.5 6.483 0 9.314 3.47 9.663 9.605 0 .345-.174.5-.5.634l-4.628.695c-.345.055-.635-.114-.635-.465-.115-3.239-1.16-5.035-3.706-5.035-2.43 0-3.59 1.5-3.59 4.745 0 3.646.695 4.744 3.82 5.96l2.375.924c5.149 2.024 7.174 4.804 7.174 11.499C138.83 252.229 136.226 256.283 128.761 256.283zM141.145 236.084c0-10.938.23-12.559.75-14.179 1.215-3.759 4.11-6 8.91-6 5.613 0 9.144 2.896 9.499 9.434.06.345-.06.636-.405.695l-4.689.81c-.266.076-.542-.08-.616-.346-.014-.05-.021-.102-.02-.154-.174-3.359-1.329-4.804-3.589-4.804-1.734 0-2.66.75-3.125 2.2-.289.924-.405 1.734-.405 12.383s.116 11.458.405 12.384c.465 1.445 1.391 2.199 3.125 2.199 2.255 0 3.415-1.444 3.589-4.805-.009-.276.206-.508.482-.518.052-.001.104.004.153.018l4.689.81c.346.06.465.345.405.695-.345 6.54-3.875 9.434-9.499 9.434-4.805 0-7.695-2.255-8.91-6C141.375 248.644 141.145 247.014 141.145 236.084zM163.659 216.987c-.021-.3.207-.56.508-.581.023-.001.048-.001.071 0h5.034c.301-.02.561.207.58.508.002.025.002.048 0 .073v15.499c-.023.167.092.32.259.345.028.004.059.004.086 0h6.654c.168.023.321-.092.345-.259.006-.029.006-.057 0-.086v-15.499c-.021-.3.206-.561.507-.582.031-.003.063-.001.094.001h5c.301-.02.56.207.58.508.002.025.002.048 0 .073v38.196c.02.301-.207.56-.508.581-.024.001-.048.001-.072 0h-5c-.3.02-.56-.207-.579-.508-.002-.025-.002-.049 0-.073v-16.379c.023-.167-.093-.32-.26-.345-.028-.004-.057-.004-.086 0h-6.679c-.167-.023-.321.092-.345.259-.004.029-.004.059 0 .086v16.379c.02.301-.209.56-.508.581-.025.001-.049.001-.073 0h-5.035c-.299.02-.56-.207-.579-.508-.001-.025-.001-.049 0-.073L163.659 216.987zM201.56 255.758c-.282.038-.551-.134-.636-.404l-4.799-15.684h-2.95c-.167-.027-.323.086-.349.253-.006.03-.006.061-.002.092v15.163c.021.301-.207.561-.507.58-.023.002-.049.002-.072 0h-5.034c-.301.02-.561-.207-.58-.508-.002-.023-.002-.048 0-.072v-38.191c-.021-.3.207-.56.507-.581.024-.001.048-.001.073 0h7.929c6.999 0 11.225 3.065 11.225 11.689 0 5.149-1.734 8.39-4.69 10.069l5.555 16.999c.116.29 0 .579-.289.579h-5.38V255.758zM200.17 228.095c0-4.63-1.5-6.074-4.999-6.074h-2c-.166-.027-.323.086-.35.252-.005.03-.005.061-.001.092v11.459c-.023.167.093.321.259.345.03.005.062.005.092 0h2C198.665 234.176 200.17 232.785 200.17 228.095zM217.413 216.987c.116-.345.291-.581.636-.581h4.86c.331-.004.608.25.634.581l8.336 38.196c.075.234-.054.485-.287.562-.059.018-.118.024-.18.02h-4.919c-.328.021-.611-.227-.634-.554 0-.009-.001-.019-.001-.027l-1.565-7.929h-7.804l-1.56 7.929c-.008.329-.28.589-.608.582-.009 0-.019-.001-.027-.001h-4.919c-.245.021-.462-.158-.485-.402-.006-.061.001-.12.021-.179L217.413 216.987zM223.293 242.045l-2.779-14.645h-.175l-2.896 14.645H223.293zM233.908 216.987c-.021-.3.207-.56.507-.581.024-.001.048-.001.072 0h9.084c5.149 0 8.16 2.086 9.55 6.31.694 2.14 1 4.806 1 13.369 0 8.564-.29 11.229-1 13.37-1.39 4.224-4.4 6.31-9.55 6.31h-9.084c-.301.02-.56-.207-.579-.508-.003-.025-.003-.049 0-.073V216.987zM240.447 250.148h2.499c2.2 0 3.476-.87 4.165-2.834.465-1.445.695-3.355.695-11.229s-.23-9.779-.695-11.229c-.695-1.97-1.965-2.834-4.165-2.834h-2.499c-.167-.025-.32.091-.346.258-.004.028-.004.059 0 .087v27.433c-.025.166.088.322.254.349C240.385 250.154 240.417 250.154 240.447 250.148zM256.651 216.987c-.021-.3.207-.56.508-.581.023-.001.048-.001.071 0h16.145c.3-.02.56.207.579.508.002.025.002.048 0 .073v4.454c.018.301-.212.559-.513.576-.022.001-.044.001-.066 0h-10.186c-.165-.027-.321.086-.349.252-.005.03-.005.062 0 .093v10.358c-.024.167.091.321.258.346.03.004.062.004.091-.001h8.795c.301-.02.561.207.58.508.002.023.002.048 0 .073v4.454c.021.301-.207.56-.507.579-.024.003-.048.003-.073 0h-8.795c-.165-.026-.321.087-.349.254-.005.03-.005.062 0 .091v10.765c-.024.167.091.322.258.345.03.005.062.005.091 0h10.186c.3-.02.56.207.579.508.002.023.002.048 0 .071v4.455c.02.3-.207.561-.508.58-.023.001-.048.001-.071 0H257.23c-.3.021-.56-.207-.579-.508-.001-.023-.001-.049 0-.072V216.987zM291.893 255.758c-.283.038-.55-.134-.636-.404l-4.805-15.684h-2.95c-.166-.023-.32.093-.345.259-.004.029-.004.057 0 .086v15.163c.021.301-.207.561-.507.58-.024.002-.049.002-.072 0h-5.04c-.3.02-.561-.207-.58-.508-.001-.023-.001-.048 0-.072v-38.191c-.021-.3.207-.56.508-.581.023-.001.049-.001.072 0h7.929c7 0 11.225 3.065 11.225 11.689 0 5.149-1.734 8.39-4.689 10.069l5.555 16.999c.115.29 0 .579-.29.579h-5.374V255.758zM290.503 228.095c0-4.63-1.5-6.074-5-6.074h-2.024c-.167-.025-.321.091-.345.258-.004.028-.004.059 0 .087v11.459c-.023.167.092.321.259.345.028.004.058.004.086 0h2.024C288.999 234.176 290.503 232.785 290.503 228.095zM-2.393 267.462h4.655c3.139 0 5.729 1.375 5.729 4.79v.09c0 3.499-2.614 4.834-5.729 4.834h-2.66v6.67h-2L-2.393 267.462zM2.397 275.602c2.34 0 3.599-1.146 3.599-3.255v-.09c0-2.315-1.375-3.185-3.599-3.185h-2.795v6.534L2.397 275.602zM9.525 280.512c0-2.774 2.935-3.715 6-3.715h1.72v-.871c0-1.904-.734-2.704-2.568-2.704-1.651 0-2.57.69-2.75 2.154h-1.905c.25-2.729 2.43-3.733 4.744-3.733 2.315 0 4.38.938 4.38 4.283v7.909H17.24v-1.5c-.874 1.168-2.279 1.814-3.734 1.721C11.31 284.061 9.525 282.982 9.525 280.512zM17.25 279.642v-1.5H15.6c-2.405 0-4.174.595-4.174 2.359 0 1.239.595 2 2.27 2 2.019.045 3.554-.989 3.554-2.845V279.642zM22.73 271.863h1.905v2.149c.755-1.355 1.791-2.295 3.945-2.36v1.79c-2.405.115-3.945.87-3.945 3.829v6.58H22.73V271.863zM31.714 280.852v-7.385h-1.72v-1.604h1.72v-2.73h1.905v2.73h2.795v1.604h-2.795v7.199c0 1.17.526 1.739 1.5 1.739.5.011.998-.074 1.465-.249v1.604c-.523.183-1.075.268-1.629.25C32.769 284.011 31.714 282.732 31.714 280.852zM44.307 277.961v-.185c0-3.601 2.5-6.12 5.89-6.12 3.389 0 5.889 2.5 5.889 6.101v.185c0 3.619-2.5 6.119-5.914 6.119C46.758 284.061 44.307 281.471 44.307 277.961zM54.116 277.961v-.16c0-2.774-1.535-4.56-3.919-4.56-2.385 0-3.92 1.79-3.92 4.54v.185c0 2.73 1.5 4.5 3.92 4.5 2.419 0 3.91-1.8 3.91-4.505H54.116zM59.306 273.467h-1.72v-1.604h1.72v-1.95c0-2.43 1.19-3.85 3.575-3.85.483-.014.965.064 1.419.229v1.604c-.432-.165-.891-.251-1.354-.25-1.241 0-1.741.851-1.741 2.065v2.154h2.936v1.605h-2.936v10.385h-1.899V273.467zM77.095 267.462h2.615l5.55 16.389h-1.956l-1.604-4.725h-6.779l-1.581 4.725h-1.885L77.095 267.462zM75.465 277.551h5.689l-2.85-8.438L75.465 277.551zM86.609 277.987v-.186c0-3.669 2.616-6.145 5.825-6.145 2.5 0 4.839 1.145 5.205 4.195h-1.88c-.301-1.904-1.676-2.614-3.325-2.614-2.18 0-3.85 1.739-3.85 4.56v.185c0 2.935 1.605 4.5 3.92 4.5 1.695 0 3.234-1 3.44-2.935h1.764c-.25 2.59-2.34 4.499-5.225 4.499C89.129 284.061 86.609 281.697 86.609 277.987zM99.514 277.987v-.186c0-3.669 2.614-6.145 5.824-6.145 2.5 0 4.839 1.145 5.206 4.195h-1.88c-.301-1.904-1.675-2.614-3.325-2.614-2.18 0-3.85 1.739-3.85 4.56v.185c0 2.935 1.605 4.5 3.92 4.5 1.695 0 3.234-1 3.44-2.935h1.764c-.25 2.59-2.34 4.499-5.224 4.499C102.038 284.061 99.514 281.697 99.514 277.987zM112.418 277.987v-.186c0-3.619 2.314-6.145 5.614-6.145 2.774 0 5.389 1.675 5.389 5.96v.62h-9.029c.09 2.729 1.401 4.239 3.85 4.239 1.855 0 2.935-.689 3.185-2.084h1.905c-.414 2.404-2.404 3.669-5.114 3.669C114.802 284.061 112.418 281.676 112.418 277.987zM121.472 276.702c-.185-2.5-1.465-3.461-3.44-3.461s-3.255 1.33-3.575 3.461H121.472zM126.171 271.863h1.905v1.905c.551-1.125 1.88-2.111 3.85-2.111 2.5 0 4.22 1.355 4.22 4.835v7.359h-1.905v-7.499c0-2.11-.895-3.051-2.82-3.051-1.764 0-3.345 1.125-3.345 3.28v7.27h-1.905V271.863zM140.131 280.852v-7.385h-1.72v-1.604h1.72v-2.73h1.905v2.73h2.794v1.604h-2.794v7.199c0 1.17.53 1.739 1.5 1.739.5.011.996-.074 1.465-.249v1.604c-.522.182-1.073.266-1.625.25C141.185 284.011 140.131 282.732 140.131 280.852zM147.579 279.451v-7.589h1.905v7.499c0 2.109.896 3.05 2.776 3.05 1.739.082 3.218-1.263 3.298-3.004.006-.093.006-.184.002-.276v-7.269h1.904v11.999h-1.904v-1.906c-.55 1.125-1.881 2.11-3.805 2.11C149.369 284.061 147.579 282.751 147.579 279.451zM161.148 271.863h1.905v2.149c.755-1.355 1.79-2.295 3.944-2.36v1.79c-2.404.115-3.944.87-3.944 3.829v6.58h-1.905V271.863zM168.373 277.987v-.186c0-3.619 2.315-6.145 5.614-6.145 2.774 0 5.385 1.675 5.385 5.96v.62h-9.029c.09 2.729 1.4 4.239 3.851 4.239 1.854 0 2.935-.689 3.185-2.084h1.919c-.414 2.404-2.405 3.669-5.109 3.669C170.798 284.061 168.373 281.676 168.373 277.987zM177.427 276.702c-.185-2.5-1.464-3.461-3.439-3.461-1.975 0-3.255 1.33-3.574 3.461H177.427zM188.296 267.462h2v16.389h-2V267.462zM194.225 271.863h1.906v1.905c.549-1.125 1.878-2.111 3.849-2.111 2.499 0 4.22 1.355 4.22 4.835v7.359h-1.905v-7.499c0-2.11-.895-3.051-2.82-3.051-1.764 0-3.343 1.125-3.343 3.28v7.27h-1.906V271.863zM208.185 280.852v-7.385h-1.721v-1.604h1.721v-2.73h1.904v2.73h2.794v1.604h-2.794v7.199c0 1.17.53 1.739 1.5 1.739.5.011.997-.074 1.465-.249v1.604c-.522.182-1.073.266-1.625.25C209.239 284.011 208.185 282.732 208.185 280.852zM214.853 277.987v-.186c0-3.619 2.315-6.145 5.615-6.145 2.775 0 5.384 1.675 5.384 5.96v.62h-9.023c.09 2.729 1.399 4.239 3.85 4.239 1.855 0 2.935-.689 3.185-2.084h1.93c-.414 2.404-2.41 3.669-5.109 3.669C217.263 284.061 214.853 281.676 214.853 277.987zM223.909 276.702c-.187-2.5-1.466-3.461-3.44-3.461s-3.255 1.33-3.575 3.461H223.909zM228.607 271.863h1.905v2.149c.755-1.355 1.79-2.295 3.945-2.36v1.79c-2.405.115-3.945.87-3.945 3.829v6.58h-1.905V271.863zM235.968 280.512c0-2.774 2.935-3.715 6-3.715h1.72v-.871c0-1.904-.735-2.704-2.57-2.704-1.649 0-2.57.69-2.75 2.154h-1.904c.25-2.729 2.43-3.733 4.744-3.733 2.315 0 4.38.938 4.38 4.283v7.909h-1.896v-1.5c-.874 1.168-2.278 1.814-3.734 1.721C237.732 284.061 235.968 282.982 235.968 280.512zM243.691 279.642v-1.5h-1.649c-2.405 0-4.169.595-4.169 2.359 0 1.239.595 2 2.27 2 2.015.045 3.549-.989 3.549-2.845V279.642zM248.291 277.987v-.186c0-3.669 2.616-6.145 5.825-6.145 2.5 0 4.834 1.145 5.204 4.195h-1.88c-.3-1.904-1.675-2.614-3.324-2.614-2.18 0-3.85 1.739-3.85 4.56v.185c0 2.935 1.605 4.5 3.92 4.5 1.694 0 3.229-1 3.439-2.935h1.765c-.25 2.59-2.34 4.499-5.225 4.499C250.791 284.061 248.291 281.697 248.291 277.987zM262.485 280.852v-7.385h-1.695v-1.604h1.72v-2.73h1.905v2.73h2.795v1.604h-2.819v7.199c0 1.17.529 1.739 1.499 1.739.5.011.998-.074 1.465-.249v1.604c-.521.182-1.072.266-1.625.25C263.54 284.011 262.485 282.732 262.485 280.852zM269.754 268.103c0-.697.565-1.261 1.261-1.261s1.261.563 1.261 1.261c0 .695-.565 1.26-1.261 1.26C270.32 269.357 269.76 268.796 269.754 268.103zM270.099 271.863h1.904v11.999h-1.904V271.863zM274.384 271.863h2.065l3.555 10.063 3.499-10.063h1.97l-4.31 11.999h-2.424L274.384 271.863zM286.578 277.987v-.186c0-3.619 2.315-6.145 5.614-6.145 2.774 0 5.385 1.675 5.385 5.96v.62h-9.028c.09 2.729 1.399 4.239 3.85 4.239 1.854 0 2.935-.689 3.185-2.084h1.904c-.415 2.404-2.404 3.669-5.109 3.669C288.983 284.061 286.578 281.676 286.578 277.987zM295.633 276.702c-.186-2.5-1.465-3.461-3.44-3.461-1.975 0-3.255 1.33-3.573 3.461H295.633z"/></svg><view id="spreespeicher" viewBox="0 1144 294.803 90.851"/><svg width="294.803" height="90.851" viewBox="0 0 294.803 90.851" id="spreespeicher-" y="1144" xmlns="http://www.w3.org/2000/svg"><path d="M89 15.988H91.931V42.159H89zM94.694 12.639H97.626V42.107H94.694zM100.388 12.639H103.319V42.107H100.388zM106.081 12.639H109.012V42.107H106.081zM111.774 12.639H114.706V42.107H111.774zM117.469 12.639H120.39999999999999V42.107H117.469zM123.162 5.688H126.093V42.108000000000004H123.162zM128.855 2.717H131.78699999999998V42.108H128.855zM134.549 0H137.48000000000002V42.107H134.549zM140.243 0H143.174V42.107H140.243zM145.936 0H148.868V42.107H145.936zM151.63 0H154.561V42.107H151.63zM157.323 0H160.256V42.107H157.323zM163.017 2.717H165.948V42.108H163.017zM168.711 5.688H171.64200000000002V42.108000000000004H168.711zM174.403 12.639H177.33599999999998V42.107H174.403zM180.098 12.639H183.02900000000002V42.107H180.098zM185.791 12.639H188.722V42.107H185.791zM191.484 12.639H194.417V42.107H191.484zM197.178 12.639H200.109V42.107H197.178zM202.872 15.988H205.80300000000003V42.159H202.872zM102.481 57.135L98.575 57.135 100.798 54.793 104.527 54.793zM149.354 57.135L145.448 57.135 145.538 54.793 149.266 54.793zM157.167 57.135L153.261 57.135 152.994 54.793 156.722 54.793zM92.131 52.656L88.565 52.656 91.021 50.697 94.438 50.697zM106.394 52.656L102.828 52.656 104.689 50.697 108.105 50.697zM120.658 52.656L117.092 52.656 118.356 50.697 121.773 50.697zM134.921 52.656L131.355 52.656 132.025 50.697 135.442 50.697zM142.053 52.656L138.486 52.656 138.858 50.697 142.275 50.697zM149.185 52.656L145.618 52.656 145.693 50.697 149.11 50.697zM156.316 52.656L152.75 52.656 152.527 50.697 155.944 50.697zM163.448 52.656L159.882 52.656 159.36 50.697 162.777 50.697zM177.711 52.656L174.146 52.656 173.029 50.697 176.446 50.697zM180.604 57.135L176.697 57.135 175.363 54.793 179.091 54.793zM184.843 52.656L181.277 52.656 179.863 50.697 183.28 50.697zM206.238 52.656L202.672 52.656 200.365 50.697 203.782 50.697zM89.999 48.894L86.719 48.894 89.057 47.231 92.21 47.231zM96.56 48.894L93.279 48.894 95.364 47.231 98.518 47.231zM103.12 48.894L99.84 48.894 101.672 47.231 104.826 47.231zM109.68 48.894L106.4 48.894 107.979 47.231 111.133 47.231zM116.24 48.894L112.96 48.894 114.287 47.231 117.44 47.231zM122.8 48.894L119.521 48.894 120.594 47.231 123.749 47.231zM129.361 48.894L126.081 48.894 126.902 47.231 130.056 47.231zM135.921 48.894L132.641 48.894 133.21 47.231 136.363 47.231zM142.481 48.894L139.201 48.894 139.517 47.231 142.67 47.231zM149.041 48.894L145.761 48.894 145.824 47.231 148.979 47.231zM155.602 48.894L152.321 48.894 152.132 47.231 155.286 47.231zM162.162 48.894L158.882 48.894 158.439 47.231 161.593 47.231zM168.723 48.894L165.442 48.894 164.747 47.231 167.901 47.231zM175.282 48.894L172.002 48.894 171.055 47.231 174.208 47.231zM181.843 48.894L178.563 48.894 177.362 47.231 180.516 47.231zM194.963 48.894L191.684 48.894 189.978 47.231 193.131 47.231zM201.523 48.894L198.243 48.894 196.285 47.231 199.438 47.231zM208.084 48.894L204.804 48.894 202.593 47.231 205.747 47.231zM88.184 45.691L85.147 45.691 87.374 44.261 90.302 44.261zM94.257 45.691L91.221 45.691 93.23 44.261 96.159 44.261zM100.331 45.691L97.294 45.691 99.086 44.261 102.014 44.261zM106.405 45.691L103.368 45.691 104.943 44.261 107.871 44.261zM112.479 45.691L109.441 45.691 110.799 44.261 113.727 44.261zM118.552 45.691L115.515 45.691 116.656 44.261 119.584 44.261zM124.625 45.691L121.588 45.691 122.513 44.261 125.44 44.261zM130.699 45.691L127.662 45.691 128.368 44.261 131.296 44.261zM136.772 45.691L133.736 45.691 134.225 44.261 137.153 44.261zM142.846 45.691L139.809 45.691 140.081 44.261 143.009 44.261zM148.92 45.691L145.883 45.691 145.938 44.261 148.866 44.261zM154.993 45.691L151.956 45.691 151.793 44.261 154.722 44.261zM161.067 45.691L158.03 45.691 157.65 44.261 160.578 44.261zM167.141 45.691L164.104 45.691 163.507 44.261 166.435 44.261zM173.214 45.691L170.177 45.691 169.363 44.261 172.291 44.261zM179.288 45.691L176.251 45.691 175.22 44.261 178.147 44.261zM185.361 45.691L182.324 45.691 181.075 44.261 184.003 44.261zM191.435 45.691L188.398 45.691 186.932 44.261 189.86 44.261zM197.509 45.691L194.472 45.691 192.789 44.261 195.717 44.261zM203.582 45.691L200.545 45.691 198.646 44.261 201.573 44.261zM209.656 45.691L206.619 45.691 204.501 44.261 207.429 44.261zM0 88.193l1.629-2.255c1.151 1.229 2.957 2.306 5.287 2.306 2.404 0 3.356-1.179 3.356-2.28 0-3.508-9.747-1.327-9.747-7.49 0-2.758 2.432-4.888 6.09-4.888 2.605 0 4.711.827 6.264 2.33L11.2 78.097c-1.304-1.304-3.082-1.904-4.835-1.904-1.729 0-2.832.826-2.832 2.079 0 3.106 9.722 1.178 9.722 7.417 0 2.781-1.954 5.161-6.465 5.161C3.708 90.85 1.478 89.772 0 88.193M34.533 79.073c0-1.604-1.202-2.656-2.856-2.656h-4.009v5.313h4.009C33.331 81.729 34.533 80.677 34.533 79.073M24.736 90.549V73.837h7.343c3.507 0 5.462 2.405 5.462 5.236 0 2.832-1.98 5.237-5.462 5.237h-4.41v6.237L24.736 90.549 24.736 90.549zM58.543 79.073c0-1.604-1.203-2.656-2.857-2.656h-4.009v5.313h4.009C57.34 81.729 58.543 80.677 58.543 79.073M58.292 90.549l-3.708-6.237h-2.907v6.237h-2.932V73.837h7.342c3.307 0 5.462 2.154 5.462 5.236 0 2.981-1.954 4.585-3.958 4.911l4.083 6.563L58.292 90.549 58.292 90.549zM73.256 90.549L73.256 73.837 84.708 73.837 84.708 76.417 76.188 76.417 76.188 80.752 84.532 80.752 84.532 83.333 76.188 83.333 76.188 87.969 84.708 87.969 84.708 90.549zM96.489 90.549L96.489 73.837 107.94 73.837 107.94 76.417 99.421 76.417 99.421 80.752 107.765 80.752 107.765 83.333 99.421 83.333 99.421 87.969 107.94 87.969 107.94 90.549zM118.644 88.193l1.629-2.255c1.152 1.229 2.957 2.306 5.287 2.306 2.405 0 3.357-1.179 3.357-2.28 0-3.508-9.747-1.327-9.747-7.49 0-2.758 2.431-4.888 6.089-4.888 2.605 0 4.711.827 6.264 2.33l-1.679 2.182c-1.303-1.304-3.082-1.904-4.836-1.904-1.729 0-2.831.826-2.831 2.079 0 3.106 9.722 1.178 9.722 7.417 0 2.781-1.954 5.161-6.465 5.161C122.352 90.85 120.122 89.772 118.644 88.193M153.177 79.073c0-1.604-1.202-2.656-2.855-2.656h-4.009v5.313h4.009C151.975 81.729 153.177 80.677 153.177 79.073M143.38 90.549V73.837h7.342c3.508 0 5.462 2.405 5.462 5.236 0 2.832-1.979 5.237-5.462 5.237h-4.41v6.237L143.38 90.549 143.38 90.549zM167.39 90.549L167.39 73.837 178.841 73.837 178.841 76.417 170.321 76.417 170.321 80.752 178.665 80.752 178.665 83.333 170.321 83.333 170.321 87.969 178.841 87.969 178.841 90.549zM191.475 73.837H194.406V90.549H191.475zM205.134 82.206c0-5.138 3.834-8.646 8.77-8.646 3.383 0 5.463 1.754 6.717 3.759l-2.507 1.278c-.802-1.379-2.404-2.432-4.21-2.432-3.307 0-5.763 2.53-5.763 6.039 0 3.508 2.456 6.038 5.763 6.038 1.806 0 3.408-1.027 4.21-2.431l2.507 1.277c-1.278 2.006-3.334 3.759-6.717 3.759C208.968 90.85 205.134 87.342 205.134 82.206M243.376 90.549L243.376 83.257 234.683 83.257 234.683 90.549 231.749 90.549 231.749 73.837 234.683 73.837 234.683 80.677 243.376 80.677 243.376 73.837 246.308 73.837 246.308 90.549zM258.641 90.549L258.641 73.837 270.091 73.837 270.091 76.417 261.572 76.417 261.572 80.752 269.916 80.752 269.916 83.333 261.572 83.333 261.572 87.969 270.091 87.969 270.091 90.549zM291.671 79.073c0-1.604-1.203-2.656-2.856-2.656h-4.009v5.313h4.009C290.468 81.729 291.671 80.677 291.671 79.073M291.42 90.549l-3.708-6.237h-2.906v6.237h-2.932V73.837h7.341c3.307 0 5.463 2.154 5.463 5.236 0 2.981-1.955 4.585-3.959 4.911l4.084 6.563L291.42 90.549 291.42 90.549z"/></svg><view id="talent-io" viewBox="0 1235 420 79.54"/><svg width="420" height="79.54" viewBox="-139 -25.694 420 79.54" id="talent-io-" y="1235" xmlns="http://www.w3.org/2000/svg"><g><path fill="#575786" d="M-115.63,53.525c3.965,0,7.075-0.857,9.968-2.361v-7.072 c-2.893,1.393-5.251,1.931-8.039,1.931c-5.575,0-9.328-2.465-9.328-9.223V4.428h17.581v-7.29h-17.581v-16.723h-8.254v16.723 H-139v7.29h7.717v33.447C-131.283,49.129-124.529,53.525-115.63,53.525L-115.63,53.525z M-74.36,53.741 c9.755,0,16.187-4.508,20.046-9.544v8.362h7.933V18.686c0-7.075-1.929-12.436-5.682-16.187 c-4.072-4.074-10.076-6.11-17.901-6.11c-8.04,0-14.043,1.822-20.153,4.609l2.466,6.753c5.146-2.358,10.29-4.074,16.83-4.074 c10.397,0,16.508,5.146,16.508,15.115v1.932c-4.932-1.4-9.97-2.36-17.045-2.36c-14.042,0-23.691,6.215-23.691,17.9v0.215 C-95.05,47.843-84.651,53.741-74.36,53.741L-74.36,53.741z M-72.752,47.201c-7.504,0-13.936-4.075-13.936-11.042v-0.214 c0-6.97,5.789-11.47,16.188-11.47c6.753,0,12.22,1.178,16.294,2.355v5.361C-54.207,40.98-62.568,47.201-72.752,47.201 L-72.752,47.201z M-28.051,52.56h8.254v-78.253h-8.254V52.56z M23.619,53.846c10.506,0,17.259-4.183,22.833-10.399l-5.145-4.605 c-4.501,4.717-9.862,7.822-17.472,7.822c-9.862,0-18.332-6.752-19.511-18.756h43.952c0.106-0.966,0.106-1.611,0.106-2.683 c0-16.188-9.434-29.261-25.834-29.261c-15.33,0-26.585,12.862-26.585,28.837v0.213C-4.038,42.16,8.397,53.846,23.619,53.846 L23.619,53.846z M4.323,21.795C5.395,10.966,12.685,2.928,22.332,2.928c11.041,0,16.831,8.791,17.689,18.867H4.323z M62.854,52.56h8.254V20.828c0-10.396,7.074-17.364,16.611-17.364c9.761,0,15.332,6.431,15.332,16.723V52.56h8.252V18.147 c0-13.183-7.824-22.187-21.226-22.187c-9.539,0-15.328,4.823-18.973,10.826v-9.648h-8.254V52.56H62.854z M147.432,53.525 c3.968,0,7.075-0.857,9.97-2.361v-7.072c-2.895,1.393-5.253,1.931-8.037,1.931c-5.578,0-9.329-2.465-9.329-9.223V4.428h17.581 v-7.29h-17.581v-16.723h-8.25v16.723h-7.721v7.29h7.717v33.447C131.781,49.129,138.534,53.525,147.432,53.525L147.432,53.525z M171.231,52.56h9.864V41.306h-9.864V52.56z"/><linearGradient id="na" gradientUnits="userSpaceOnUse" x1="-1385.127" y1="257.198" x2="-1387.845" y2="259.423" gradientTransform="matrix(27.648 0 0 26.172 38562.352 -6744.395)"><stop offset="0" stop-color="#ffd427"/><stop offset="1" stop-color="#fc9301"/></linearGradient><path fill="url(#na)" d="M251.95,53.846c16.727,0,29.05-13.289,29.05-28.942V24.69 c0-15.653-12.22-28.727-28.835-28.727c-16.721,0-28.944,13.292-28.944,28.943v0.215 C223.221,40.768,235.333,53.846,251.95,53.846z M252.165,46.448c-11.685,0-20.477-9.646-20.477-21.545V24.69 c0-11.687,8.257-21.441,20.262-21.441c11.684,0,20.582,9.754,20.582,21.654v0.214C272.532,36.802,264.172,46.448,252.165,46.448 z M199.211,52.56h8.253V-2.861h-8.253V52.56z M198.673-14.975h9.434v-9.11h-9.434V-14.975z"/></g></svg><view id="tollwerk" viewBox="0 1315 324 86"/><svg width="324" height="86" viewBox="0 0 324 86" id="tollwerk-" y="1315" xmlns="http://www.w3.org/2000/svg"><path fill="#00285A" d="M323.535,70.678h-12.145l-8.15-13.262l-4.419,5.01v8.252h-10.537V17.931h10.537v31.788l11.522-14.384 h12.465l-13.116,14.812L323.535,70.678z M235.523,64c-5.229,0-7.962-2.629-8.595-8.252h17.389v-7.375h-4.356h-12.846 c0.791-3.945,2.842-5.65,6.833-5.65l10.369,0.003v-0.004v-7.388h-10.095l-1.04,0.041c-10.388,0.426-15.882,6.57-15.882,17.867 c0,11.854,6.053,18.381,17.041,18.381c4.655,0,9.065-0.945,13.477-2.887l-2.351-6.834C241.8,63.289,238.456,64,235.523,64z M273.33,44.785c0.543-0.047,1.063-0.037,1.566,0.014c1.178,0.119,2.244,0.482,3.178,1.006l3.189-9.273 c-1.076-0.666-2.139-1.15-3.179-1.473c-0.038-0.012-0.077-0.025-0.115-0.037c-3.798-1.135-7.288-0.113-9.964,2.02 c-1.402,1.004-2.827,2.354-4.357,4.102l-0.497,0.568v-6.377h-10.458v35.343h10.537V52.057l0.046-0.07 c1.083-1.656,2.159-2.996,3.267-4.057C269.002,45.893,271.295,44.963,273.33,44.785z M201.435,56.951l-8.32-21.617h-7.245 l-7.904,21.675l-4.807-21.675h-10.894l10.153,35.343h7.863l8.934-21.889l8.853,21.889h7.783l9.766-35.343h-10.103L201.435,56.951z M268.408,58.547l7.656,12.137h12.149l-11.42-15.939L268.408,58.547z M85.605,43c0,23.512-19.06,42.571-42.571,42.571 C19.523,85.57,0.464,66.512,0.464,43c0-1.247,0.065-2.479,0.17-3.7l16.484-18.338l-5.721-6.44c1.519-1.686,3.172-3.245,4.939-4.671 l8.021,11.437L12.727,37.548l6.162,4.827l19.389-21.413L23.882,4.983c5.759-2.906,12.261-4.554,19.152-4.554 C66.546,0.429,85.605,19.489,85.605,43z M71.923,33.543H55.495H44.294h-9.485v9.914h9.485v6.408c0,14.307,2.837,22.059,17.8,22.059 c2.36,0,4.598-0.154,6.652-0.459l-0.627-8.904c-0.841,0.127-2.077,0.127-3.73,0.127c-6.566,0-8.894-3.355-8.894-12.822v-6.408 h16.428V33.543z M124.383,52.297c0,12.102-6.9,19.326-18.459,19.326c-11.065,0-17.671-6.93-17.671-18.537 c0-11.659,6.93-18.619,18.537-18.619C117.806,34.467,124.383,41.133,124.383,52.297z M113.61,52.85 c0-6.93-2.48-10.443-7.372-10.443c-4.734,0-7.135,3.46-7.135,10.285c0,7.242,2.507,10.914,7.45,10.914 C111.236,63.605,113.61,59.986,113.61,52.85z M147.511,56.031h10.537v-38.1h-10.537V56.031z M129.49,70.678h10.536V17.931H129.49 V70.678z"/></svg></svg>