<?xml version="1.0" encoding="utf-8"?><!DOCTYPE svg PUBLIC "-//W3C//DTD SVG 1.1//EN" "http://www.w3.org/Graphics/SVG/1.1/DTD/svg11.dtd"><svg width="300" height="578" viewBox="0 0 300 578" xmlns="http://www.w3.org/2000/svg" xmlns:xlink="http://www.w3.org/1999/xlink"><view id="a11y" viewBox="0 0 200 200"/><svg width="200" height="200" viewBox="0 0 200 200" id="a11y-"><g fill="#FFF"><circle cx="100" cy="35.819" r="14.926"/><path d="M164.772,50.73c-0.832-4.037-4.778-6.636-8.815-5.802L100,56.465L44.043,44.928 c-4.037-0.835-7.983,1.765-8.815,5.802c-0.833,4.036,1.765,7.983,5.803,8.815l41.805,8.62v45.563l-11.782,56.387 c-0.843,4.034,1.743,7.988,5.778,8.831c0.515,0.107,1.028,0.159,1.535,0.159c3.458,0,6.562-2.419,7.297-5.938l12.015-57.498 c0.224-1.189,1.086-2.238,2.323-2.238c1.236,0,2.123,1.049,2.322,2.238l12.016,57.498c0.734,3.519,3.837,5.938,7.296,5.938 c0.506,0,1.021-0.052,1.535-0.159c4.034-0.843,6.622-4.797,5.777-8.831l-11.782-56.391V68.166l41.806-8.62 C163.008,58.714,165.604,54.767,164.772,50.73z"/></g></svg><view id="location" viewBox="0 200 54 96"/><svg width="54" height="96" viewBox="0 0 54 96" id="location-" y="200"><path fill="#FFF" d="M27,5C12.157,5,0.125,17.032,0.125,31.875C0.125,58.75,27,91,27,91s26.875-32.25,26.875-59.125 C53.875,17.032,41.846,5,27,5 M27,48.001c-8.905,0-16.124-7.22-16.124-16.125c0-8.906,7.219-16.125,16.124-16.125 c8.908,0,16.126,7.219,16.126,16.125C43.126,40.782,35.908,48.001,27,48.001"/></svg><view id="protak" viewBox="0 296 300 80"/><svg width="300" height="80" viewBox="0 0 300 80" id="protak-" y="296"><g fill-rule="evenodd" clip-rule="evenodd"><path fill="#E3F0FA" d="M9.073 43.964L300 43.964 300 55.833 9.073 55.833"/><path fill="#96C7EB" d="M223.437 50.792c-1.682 2.177-3.703 3.846-6.075 5.032-2.359 1.186-4.889 1.773-7.587 1.773-4.159 0-7.405-1.082-9.765-3.246-2.36-2.164-3.533-5.163-3.533-8.97 0-4.185 1.264-7.327 3.781-9.425 2.516-2.099 7.092-3.572 13.714-4.407.196-.026.495-.065.874-.117 5.527-.717 8.292-2.294 8.292-4.732 0-1.995-.691-3.455-2.06-4.406-1.382-.938-3.507-1.408-6.375-1.408-2.672 0-4.732.561-6.153 1.682-1.421 1.122-2.138 2.725-2.138 4.811v.3h-8.291v-.691c0-4.093 1.512-7.339 4.523-9.712 3.025-2.385 7.131-3.572 12.359-3.572 5.475 0 9.595 1.03 12.384 3.077 2.79 2.047 4.185 5.084 4.185 9.1v20.455c0 1.578.183 2.607.548 3.09.378.482 1.03.73 1.968.73.183 0 .378-.013.6-.026.209-.013.587-.039 1.122-.091v6.375c-.795.209-1.565.352-2.308.456-.756.104-1.473.157-2.164.157-2.647 0-4.602-.508-5.893-1.525C224.153 54.481 223.488 52.917 223.437 50.792M223.059 35.59c-1.838.952-4.746 1.708-8.748 2.294-1.447.235-2.517.404-3.208.535-2.034.378-3.559 1.095-4.55 2.125-.991 1.03-1.486 2.386-1.486 4.067 0 1.877.586 3.337 1.76 4.367 1.173 1.03 2.829 1.552 4.967 1.552 3.233 0 5.919-.913 8.057-2.751 2.138-1.838 3.208-4.172 3.208-7.027V35.59zM250.667 0L259.259 0 259.259 31.849 275.451 15.044 286.115 15.044 271.252 30.206 286.415 56.254 276.259 56.254 265.139 36.542 259.259 42.5 259.259 56.254 250.667 56.254M33.448 47.248c-.829 0-1.533-.29-2.113-.87s-.87-1.284-.87-2.113.29-1.533.87-2.113 1.285-.87 2.113-.87 1.533.29 2.113.87c.58.58.87 1.285.87 2.113s-.29 1.533-.87 2.113C34.981 46.958 34.276 47.248 33.448 47.248M23.006 47.248c-.828 0-1.533-.29-2.113-.87s-.87-1.284-.87-2.113.29-1.533.87-2.113 1.285-.87 2.113-.87c.829 0 1.533.29 2.113.87s.87 1.285.87 2.113-.29 1.533-.87 2.113S23.835 47.248 23.006 47.248zM23.006 78.571c-.464 0-.928-.148-1.392-.447-.464-.298-.845-.68-1.144-1.144-.298-.464-.447-.928-.447-1.392 0-.763.323-1.451.969-2.063.646-.613 1.318-.92 2.014-.92.763 0 1.45.307 2.063.92.613.613.92 1.301.92 2.063 0 .762-.315 1.441-.945 2.038C24.449 78.256 23.769 78.571 23.006 78.571zM23.006 68.13c-.464 0-.928-.149-1.392-.448-.464-.298-.845-.68-1.144-1.144-.298-.464-.447-.928-.447-1.392 0-.763.323-1.45.969-2.063.646-.613 1.318-.92 2.014-.92.763 0 1.45.307 2.063.92.613.613.92 1.301.92 2.063s-.315 1.442-.945 2.039C24.449 67.815 23.769 68.13 23.006 68.13zM23.006 57.689c-.464 0-.928-.149-1.392-.447-.464-.298-.845-.68-1.144-1.144-.298-.464-.447-.928-.447-1.392 0-.762.315-1.45.945-2.063.629-.613 1.309-.92 2.038-.92.763 0 1.442.315 2.039.945.63.597.945 1.276.945 2.039s-.307 1.45-.92 2.063S23.769 57.689 23.006 57.689zM190.917 47.169c-.829 0-1.533-.29-2.113-.87-.58-.58-.871-1.285-.871-2.113s.291-1.533.871-2.113c.58-.58 1.284-.87 2.113-.87s1.533.29 2.113.87c.581.58.871 1.284.871 2.113s-.29 1.533-.871 2.113C192.45 46.879 191.745 47.169 190.917 47.169M180.475 78.493c-.463 0-.928-.149-1.392-.448-.464-.298-.845-.679-1.144-1.144-.298-.464-.447-.928-.447-1.392 0-.762.323-1.45.969-2.063.646-.614 1.318-.92 2.013-.92.763 0 1.451.306 2.064.92.613.613.919 1.301.919 2.063 0 .762-.314 1.442-.944 2.039C181.917 78.178 181.238 78.493 180.475 78.493zM180.475 68.051c-.463 0-.928-.149-1.392-.447-.464-.298-.845-.679-1.144-1.144-.298-.464-.447-.928-.447-1.392 0-.762.323-1.45.969-2.063.646-.613 1.318-.92 2.013-.92.763 0 1.451.307 2.064.92.613.613.919 1.301.919 2.063s-.314 1.442-.944 2.039C181.917 67.736 181.238 68.051 180.475 68.051zM190.917 57.61c-.464 0-.936-.149-1.417-.447-.48-.298-.862-.68-1.144-1.144s-.423-.928-.423-1.392c0-.763.315-1.442.945-2.039.597-.63 1.276-.945 2.039-.945.763 0 1.442.315 2.039.945.629.597.945 1.276.945 2.039 0 .729-.307 1.409-.92 2.038C192.367 57.296 191.679 57.61 190.917 57.61zM180.475 57.61c-.463 0-.928-.149-1.392-.447-.464-.298-.845-.68-1.144-1.144-.298-.464-.447-.928-.447-1.392 0-.763.314-1.45.944-2.063s1.309-.92 2.038-.92c.763 0 1.442.315 2.039.945.63.597.944 1.276.944 2.039 0 .762-.306 1.45-.919 2.063C181.926 57.304 181.238 57.61 180.475 57.61zM292.583 47.209c-.829 0-1.533-.29-2.113-.871-.58-.58-.87-1.284-.87-2.113s.291-1.533.87-2.113c.581-.58 1.285-.87 2.113-.87s1.533.29 2.113.87c.58.58.87 1.285.87 2.113s-.291 1.533-.87 2.113C294.116 46.919 293.411 47.209 292.583 47.209M292.583 68.091c-.464 0-.928-.149-1.392-.448s-.845-.679-1.144-1.144c-.298-.464-.448-.928-.448-1.392 0-.762.323-1.45.97-2.063s1.317-.92 2.014-.92c.762 0 1.45.307 2.063.92s.92 1.301.92 2.063c0 .763-.315 1.442-.945 2.039C294.024 67.776 293.345 68.091 292.583 68.091zM241.427 47.04c-.829 0-1.533-.29-2.114-.87-.58-.58-.87-1.285-.87-2.113s.29-1.533.87-2.113c.581-.58 1.285-.87 2.114-.87.828 0 1.533.29 2.113.87.58.58.87 1.284.87 2.113s-.29 1.533-.87 2.113C242.96 46.75 242.255 47.04 241.427 47.04M145.75 47.165c-.829 0-1.533-.29-2.113-.87-.58-.58-.87-1.284-.87-2.113s.291-1.533.87-2.113c.581-.58 1.285-.87 2.113-.87s1.533.29 2.113.87c.581.58.871 1.285.871 2.113s-.29 1.533-.871 2.113C147.282 46.875 146.578 47.165 145.75 47.165M145.75 68.047c-.464 0-.928-.149-1.392-.448-.464-.298-.845-.679-1.144-1.144-.298-.464-.448-.928-.448-1.392 0-.763.323-1.451.97-2.063.646-.613 1.318-.92 2.014-.92.763 0 1.45.307 2.063.92.613.613.92 1.301.92 2.063 0 .762-.315 1.441-.945 2.038C147.191 67.732 146.512 68.047 145.75 68.047zM156.19 57.606c-.463 0-.936-.149-1.417-.448-.481-.298-.862-.68-1.144-1.144-.281-.464-.422-.928-.422-1.392 0-.763.315-1.442.945-2.039.597-.63 1.276-.944 2.038-.944s1.442.314 2.039.944c.63.597.945 1.276.945 2.039 0 .729-.307 1.409-.92 2.039S156.953 57.606 156.19 57.606z"/><path fill="#96C7EB" d="M2.265 0h21.433c3.455 0 6.023.156 7.692.482 1.668.313 3.168.847 4.484 1.577 2.582 1.382 4.524 3.351 5.854 5.945 1.317 2.582 1.982 5.684 1.982 9.295 0 2.985-.548 5.645-1.643 8.004-1.095 2.347-2.686 4.302-4.771 5.854-1.434 1.056-3.103 1.799-5.006 2.255-1.917.457-4.55.691-7.913.691h-12.75v22.15h-9.36M11.625 8.135v17.756h12.15c3.781 0 6.492-.691 8.109-2.06 1.617-1.382 2.425-3.624 2.425-6.766 0-3.077-.808-5.332-2.412-6.779-1.604-1.434-4.133-2.151-7.587-2.151H11.625zM82.191 14.158v9.009h-2.334c-3.507 0-6.153.887-7.913 2.659-1.773 1.76-2.66 4.419-2.66 7.966v22.462h-8.669V15.044h8.213v7.249c1.199-2.751 2.75-4.811 4.654-6.167 1.916-1.369 4.159-2.047 6.766-2.047.026 0 .092 0 .222 0C81.083 14.132 81.657 14.158 82.191 14.158M115.146 13.702c6.323 0 11.277 1.942 14.875 5.84 3.611 3.898 5.41 9.269 5.41 16.126 0 6.845-1.786 12.216-5.371 16.101-3.572 3.885-8.526 5.828-14.836 5.828-6.336 0-11.303-1.93-14.875-5.802-3.585-3.872-5.371-9.256-5.371-16.126 0-6.883 1.786-12.254 5.345-16.14C103.895 15.644 108.836 13.702 115.146 13.702M115.224 21.185c-3.638 0-6.44 1.251-8.396 3.742-1.969 2.503-2.946 6.075-2.946 10.742 0 4.667.978 8.226 2.92 10.703 1.942 2.464 4.758 3.703 8.422 3.703 3.637 0 6.427-1.238 8.356-3.703 1.942-2.477 2.907-6.036 2.907-10.703 0-4.667-.965-8.239-2.907-10.742C121.651 22.436 118.861 21.185 115.224 21.185zM147.748 0L191.708 0 191.708 8.252 174.448 8.252 174.448 56.254 165.126 56.254 165.126 8.252 147.748 8.252"/><path fill="#0078BF" d="M0 0h21.433c3.455 0 6.023.156 7.691.482 1.669.313 3.168.847 4.485 1.577 2.581 1.382 4.524 3.351 5.854 5.945 1.317 2.582 1.981 5.684 1.981 9.295 0 2.985-.547 5.645-1.643 8.004-1.095 2.347-2.686 4.302-4.771 5.854-1.434 1.056-3.103 1.799-5.006 2.255-1.917.457-4.55.691-7.914.691H9.36v22.15H0M9.36 8.135v17.756h12.15c3.781 0 6.492-.691 8.109-2.06 1.617-1.382 2.425-3.624 2.425-6.766 0-3.077-.808-5.332-2.412-6.779-1.604-1.434-4.133-2.151-7.588-2.151H9.36zM79.926 14.158v9.009h-2.333c-3.507 0-6.153.887-7.913 2.659-1.773 1.76-2.66 4.419-2.66 7.966v22.462H58.35V15.044h8.213v7.249c1.2-2.751 2.751-4.811 4.654-6.167 1.917-1.369 4.159-2.047 6.766-2.047.026 0 .091 0 .222 0C78.818 14.132 79.392 14.158 79.926 14.158M112.88 13.702c6.323 0 11.277 1.942 14.875 5.84 3.611 3.898 5.41 9.269 5.41 16.126 0 6.845-1.786 12.216-5.371 16.101-3.572 3.885-8.526 5.828-14.835 5.828-6.336 0-11.303-1.93-14.875-5.802-3.585-3.872-5.371-9.256-5.371-16.126 0-6.883 1.786-12.254 5.345-16.14C101.63 15.644 106.57 13.702 112.88 13.702M112.959 21.185c-3.638 0-6.44 1.251-8.396 3.742-1.969 2.503-2.946 6.075-2.946 10.742 0 4.667.978 8.226 2.92 10.703 1.942 2.464 4.758 3.703 8.422 3.703 3.637 0 6.427-1.238 8.356-3.703 1.942-2.477 2.907-6.036 2.907-10.703 0-4.667-.964-8.239-2.907-10.742C119.386 22.436 116.596 21.185 112.959 21.185zM145.483 0L189.443 0 189.443 8.252 172.182 8.252 172.182 56.254 162.861 56.254 162.861 8.252 145.483 8.252"/><path fill="#1F1A17" d="M31.023 48.319c-.829 0-1.533-.29-2.113-.87-.58-.58-.87-1.284-.87-2.113s.29-1.533.87-2.113c.581-.58 1.285-.87 2.113-.87s1.533.29 2.113.87c.581.58.871 1.285.871 2.113s-.29 1.533-.871 2.113C32.556 48.029 31.852 48.319 31.023 48.319M20.582 48.319c-.828 0-1.533-.29-2.113-.87s-.87-1.284-.87-2.113.29-1.533.87-2.113 1.285-.87 2.113-.87c.829 0 1.533.29 2.114.87.58.58.87 1.285.87 2.113s-.29 1.533-.87 2.113C22.115 48.029 21.411 48.319 20.582 48.319zM20.582 79.642c-.464 0-.928-.149-1.392-.447-.464-.298-.845-.68-1.144-1.144-.298-.464-.447-.928-.447-1.392 0-.763.323-1.45.97-2.064.646-.613 1.317-.919 2.013-.919.763 0 1.451.307 2.064.919.613.614.919 1.301.919 2.064 0 .762-.315 1.441-.944 2.038C22.024 79.327 21.344 79.642 20.582 79.642zM20.582 69.201c-.464 0-.928-.149-1.392-.448-.464-.298-.845-.679-1.144-1.144-.298-.464-.447-.928-.447-1.392 0-.762.323-1.45.97-2.063.646-.613 1.317-.92 2.013-.92.763 0 1.451.307 2.064.92.613.613.919 1.301.919 2.063 0 .763-.315 1.442-.944 2.039C22.024 68.886 21.344 69.201 20.582 69.201zM20.582 58.76c-.464 0-.928-.149-1.392-.447-.464-.298-.845-.68-1.144-1.144-.298-.464-.447-.928-.447-1.392 0-.762.315-1.45.945-2.063.629-.613 1.309-.92 2.038-.92.763 0 1.442.315 2.039.945.629.597.944 1.276.944 2.039s-.307 1.45-.919 2.063C22.032 58.454 21.344 58.76 20.582 58.76zM188.492 48.24c-.829 0-1.533-.29-2.113-.87s-.87-1.285-.87-2.113.29-1.533.87-2.113 1.284-.87 2.113-.87c.829 0 1.533.29 2.113.87s.87 1.284.87 2.113-.29 1.533-.87 2.113S189.321 48.24 188.492 48.24M178.051 79.563c-.464 0-.928-.149-1.392-.448-.464-.298-.845-.679-1.143-1.144-.299-.464-.448-.928-.448-1.392 0-.762.323-1.451.969-2.063.646-.614 1.318-.92 2.014-.92.763 0 1.45.306 2.063.92.613.613.919 1.301.919 2.063 0 .762-.314 1.441-.944 2.038C179.493 79.249 178.813 79.563 178.051 79.563zM178.051 69.123c-.464 0-.928-.149-1.392-.448-.464-.298-.845-.679-1.143-1.144-.299-.464-.448-.928-.448-1.392 0-.762.323-1.45.969-2.063.646-.613 1.318-.92 2.014-.92.763 0 1.45.307 2.063.92s.919 1.301.919 2.063-.314 1.442-.944 2.039C179.493 68.807 178.813 69.123 178.051 69.123zM188.492 58.681c-.464 0-.936-.149-1.417-.447-.48-.298-.861-.68-1.144-1.144-.282-.464-.422-.928-.422-1.392 0-.763.315-1.442.944-2.039.597-.63 1.276-.945 2.039-.945.763 0 1.442.315 2.039.945.63.597.944 1.276.944 2.039 0 .729-.307 1.409-.919 2.039C189.942 58.367 189.254 58.681 188.492 58.681zM178.051 58.681c-.464 0-.928-.149-1.392-.447-.464-.298-.845-.68-1.143-1.144-.299-.464-.448-.928-.448-1.392 0-.763.314-1.45.944-2.063s1.31-.92 2.039-.92c.763 0 1.442.315 2.039.945.63.597.944 1.276.944 2.039 0 .762-.306 1.45-.919 2.063C179.501 58.375 178.813 58.681 178.051 58.681zM290.158 48.28c-.829 0-1.533-.29-2.113-.871-.58-.58-.871-1.284-.871-2.113s.291-1.533.871-2.113c.58-.581 1.284-.871 2.113-.871s1.533.29 2.113.871c.58.58.87 1.284.87 2.113s-.29 1.533-.87 2.113C291.691 47.99 290.986 48.28 290.158 48.28M290.158 69.162c-.464 0-.928-.149-1.392-.448-.464-.298-.845-.679-1.144-1.144-.298-.464-.448-.928-.448-1.392 0-.762.323-1.45.97-2.063s1.317-.92 2.014-.92c.763 0 1.45.307 2.063.92s.92 1.301.92 2.063c0 .763-.315 1.442-.945 2.039C291.6 68.847 290.92 69.162 290.158 69.162zM239.002 48.11c-.829 0-1.533-.29-2.113-.87s-.87-1.285-.87-2.113.29-1.533.87-2.113 1.285-.87 2.113-.87 1.533.29 2.113.87.871 1.284.871 2.113-.291 1.533-.871 2.113S239.831 48.11 239.002 48.11M143.325 48.236c-.829 0-1.533-.29-2.113-.87s-.87-1.285-.87-2.113.29-1.533.87-2.113c.58-.58 1.284-.87 2.113-.87.829 0 1.533.29 2.113.87.58.58.87 1.284.87 2.113s-.29 1.533-.87 2.113S144.154 48.236 143.325 48.236M143.325 69.118c-.464 0-.928-.149-1.392-.447-.464-.298-.845-.68-1.144-1.144s-.447-.928-.447-1.392c0-.763.323-1.45.969-2.063.646-.613 1.318-.92 2.014-.92.763 0 1.45.307 2.063.92s.92 1.301.92 2.063c0 .762-.315 1.442-.944 2.038C144.767 68.803 144.087 69.118 143.325 69.118zM153.766 58.677c-.463 0-.936-.149-1.417-.447-.48-.299-.862-.68-1.144-1.144-.281-.464-.422-.928-.422-1.393 0-.762.315-1.442.945-2.038.597-.63 1.276-.945 2.038-.945.763 0 1.442.315 2.039.945.63.596.944 1.276.944 2.038 0 .729-.307 1.409-.919 2.039C155.216 58.362 154.528 58.677 153.766 58.677z"/><path fill="#0078BF" d="M221.171 50.792c-1.682 2.177-3.703 3.846-6.075 5.032-2.359 1.186-4.889 1.773-7.587 1.773-4.159 0-7.405-1.082-9.765-3.246s-3.533-5.163-3.533-8.97c0-4.185 1.264-7.327 3.78-9.425 2.517-2.099 7.092-3.572 13.715-4.407.196-.026.496-.065.874-.117 5.527-.717 8.292-2.294 8.292-4.732 0-1.995-.691-3.455-2.06-4.406-1.381-.938-3.507-1.408-6.375-1.408-2.672 0-4.732.561-6.153 1.682-1.421 1.122-2.138 2.725-2.138 4.811v.3h-8.292v-.691c0-4.093 1.512-7.339 4.524-9.712 3.024-2.385 7.131-3.572 12.359-3.572 5.475 0 9.595 1.03 12.384 3.077 2.79 2.047 4.186 5.084 4.186 9.1v20.455c0 1.578.182 2.607.547 3.09.378.482 1.03.73 1.968.73.183 0 .378-.013.6-.026.209-.013.587-.039 1.122-.091v6.375c-.795.209-1.564.352-2.308.456-.756.104-1.473.157-2.164.157-2.647 0-4.603-.508-5.893-1.525C221.888 54.481 221.224 52.917 221.171 50.792M220.793 35.59c-1.838.952-4.746 1.708-8.748 2.294-1.447.235-2.516.404-3.207.535-2.034.378-3.559 1.095-4.55 2.125s-1.486 2.386-1.486 4.067c0 1.877.587 3.337 1.76 4.367 1.173 1.03 2.83 1.552 4.967 1.552 3.233 0 5.919-.913 8.057-2.751 2.138-1.838 3.208-4.172 3.208-7.027V35.59zM248.403 0L256.994 0 256.994 31.849 273.186 15.044 283.85 15.044 268.988 30.206 284.149 56.254 273.994 56.254 262.873 36.542 256.994 42.5 256.994 56.254 248.403 56.254"/><path fill="#96C7EB" d="M81.23,47.124c-0.829,0-1.533-0.29-2.113-0.87 c-0.58-0.58-0.87-1.285-0.87-2.113s0.291-1.533,0.87-2.113c0.58-0.58,1.285-0.87,2.113-0.87s1.533,0.29,2.113,0.87 s0.87,1.284,0.87,2.113s-0.29,1.533-0.87,2.113S82.059,47.124,81.23,47.124 M81.23,68.006c-0.464,0-0.928-0.149-1.392-0.447 c-0.464-0.298-0.845-0.68-1.144-1.144s-0.448-0.928-0.448-1.392c0-0.763,0.323-1.45,0.97-2.063c0.646-0.613,1.317-0.92,2.014-0.92 c0.762,0,1.45,0.307,2.063,0.92c0.613,0.613,0.919,1.301,0.919,2.063c0,0.762-0.315,1.442-0.944,2.039 C82.672,67.691,81.992,68.006,81.23,68.006z M91.671,57.565c-0.464,0-0.937-0.149-1.417-0.447s-0.862-0.68-1.144-1.144 c-0.282-0.464-0.422-0.928-0.422-1.392c0-0.762,0.314-1.441,0.944-2.038c0.597-0.63,1.276-0.945,2.039-0.945 s1.442,0.315,2.039,0.945c0.63,0.597,0.944,1.276,0.944,2.038c0,0.729-0.306,1.409-0.919,2.039 C93.121,57.25,92.433,57.565,91.671,57.565z M81.23,57.565c-0.464,0-0.928-0.149-1.392-0.447c-0.464-0.298-0.845-0.68-1.144-1.144 c-0.298-0.464-0.448-0.928-0.448-1.392c0-0.762,0.315-1.45,0.945-2.063s1.309-0.92,2.039-0.92c0.762,0,1.442,0.315,2.039,0.945 c0.629,0.597,0.944,1.276,0.944,2.038c0,0.763-0.307,1.451-0.919,2.063C82.68,57.258,81.992,57.565,81.23,57.565z"/><path fill="#1F1A17" d="M78.408,48.195c-0.829,0-1.533-0.29-2.113-0.87 s-0.87-1.285-0.87-2.113s0.29-1.533,0.87-2.113s1.284-0.87,2.113-0.87s1.533,0.29,2.113,0.87s0.87,1.284,0.87,2.113 s-0.29,1.533-0.87,2.113S79.237,48.195,78.408,48.195 M78.408,69.077c-0.464,0-0.928-0.149-1.392-0.448s-0.845-0.68-1.144-1.144 s-0.447-0.928-0.447-1.392c0-0.763,0.323-1.45,0.97-2.063c0.646-0.613,1.317-0.92,2.013-0.92c0.763,0,1.45,0.307,2.063,0.92 s0.92,1.301,0.92,2.063c0,0.762-0.315,1.442-0.945,2.039C79.85,68.762,79.171,69.077,78.408,69.077z M88.85,58.636 c-0.464,0-0.937-0.149-1.417-0.447c-0.48-0.298-0.861-0.68-1.144-1.144c-0.281-0.464-0.422-0.928-0.422-1.393 c0-0.762,0.315-1.441,0.945-2.038c0.597-0.63,1.276-0.945,2.039-0.945c0.762,0,1.441,0.315,2.038,0.945 c0.63,0.597,0.945,1.276,0.945,2.038c0,0.729-0.307,1.409-0.92,2.039C90.3,58.321,89.612,58.636,88.85,58.636z M78.408,58.636 c-0.464,0-0.928-0.149-1.392-0.447s-0.845-0.68-1.144-1.144c-0.298-0.464-0.447-0.928-0.447-1.393c0-0.762,0.315-1.45,0.945-2.063 c0.629-0.613,1.309-0.92,2.038-0.92c0.763,0,1.442,0.315,2.039,0.945c0.63,0.597,0.945,1.276,0.945,2.038 c0,0.763-0.307,1.451-0.92,2.064C79.858,58.329,79.171,58.636,78.408,58.636z"/></g></svg><view id="tollwerk" viewBox="0 376 300 71"/><svg width="300" height="71" viewBox="0 0 300 71" id="tollwerk-" y="376"><g fill="#003565"><path d="M43.217,52.124c0,1.998,0.688,3.583,2.067,4.763c1.378,1.177,3.292,1.767,5.744,1.767 c2.859,0,5.235-0.98,7.124-2.94l2.528-2.63l-2.298-2.167l-1.227,1.225c-1.632,1.634-2.961,2.452-3.981,2.452 c-1.53,0-2.298-0.842-2.298-2.528V29.854h7.87v4.443h2.663l1.11-8.042H32.11v3.6h11.107V52.124L43.217,52.124z M0,35.155 c0-0.758,0.025-1.512,0.072-2.259l10.896-10.688c1.607-1.607,2.41-3.131,2.41-4.568c0-1.523-0.802-3.087-2.41-4.695l-1.655-1.625 c1.926-2.088,4.1-3.941,6.479-5.513l6.492,11.704l-9.009,16.374l2.154,1.269l13.199-12.946c1.607-1.607,2.412-3.131,2.412-4.568 c0-1.523-0.805-3.087-2.412-4.695l-9.344-9.168C24.051,1.361,29.446,0,35.157,0c19.417,0,35.157,15.74,35.157,35.155 c0,19.417-15.74,35.156-35.157,35.156S0,54.573,0,35.155L0,35.155z"/><path fill-rule="evenodd" clip-rule="evenodd" d="M102.558,42.379c0,4.563-1.479,8.417-4.438,11.561 c-2.959,3.142-6.537,4.714-10.737,4.714c-4.195,0-7.773-1.572-10.732-4.714c-2.959-3.143-4.441-6.998-4.441-11.561 c0-4.561,1.493-8.425,4.479-11.595c2.981-3.169,6.549-4.754,10.694-4.754c4.15,0,7.713,1.585,10.699,4.754 C101.066,33.954,102.558,37.818,102.558,42.379L102.558,42.379z M94.591,42.304c0-3.805-0.757-6.999-2.275-9.586 c-1.416-2.385-3.061-3.576-4.933-3.576c-1.87,0-3.514,1.191-4.93,3.576c-1.516,2.538-2.275,5.732-2.275,9.586 c0,3.855,0.759,7.076,2.275,9.662c1.367,2.385,3.009,3.577,4.93,3.577c1.924,0,3.606-1.244,5.046-3.728 C93.872,49.33,94.591,46.159,94.591,42.304L94.591,42.304z"/><path d="M118.221 58.046L110.634 58.046 110.634 10.707 104.716 10.707 104.716 8.05 118.221 5.851 118.221 58.046M187.268 26.562L175.052 58.046 172.625 58.046 164.962 38.474 157.222 58.046 154.795 58.046 142.58 26.562 150.622 26.562 158.439 45.908 165.949 26.562 168.453 26.562 176.112 45.908 183.473 26.562 187.268 26.562M246.994 28.914l-5.538 5.614-1.213-1.291c-.911-.96-1.67-1.44-2.278-1.44-1.466 0-3.212 1.998-5.232 5.992l-1.52 3.035v17.222h-7.587V31.343h-5.918v-2.657l13.505-2.201v8.345l1.141-2.048c2.477-4.502 5.358-6.753 8.646-6.753C242.822 26.029 244.82 26.993 246.994 28.914L246.994 28.914z"/><path fill-rule="evenodd" clip-rule="evenodd" d="M235.684,44.239c-0.409-0.41-0.813-0.764-1.213-1.061h8.547 c1.436,1.52,2.791,3.744,4.064,6.674l3.568,8.193h-8.314l-2.947-7.739C238.383,47.729,237.146,45.705,235.684,44.239 L235.684,44.239z"/><path d="M136.742 5.851L136.742 43.031 129.155 43.029 129.155 10.707 123.237 10.707 123.237 8.05 136.742 5.851M203.613 30.346c-.636 0-1.374.368-1.867.836-.907.863-1.432 1.818-1.432 3.01s.451 2.177 1.362 2.958c.581.498 1.274.836 2.079 1.016h4.307c-.088-2.792-.135-3.931-1.037-5.563C206.209 31.098 204.773 30.346 203.613 30.346L203.613 30.346zM196.292 28.732c1.928-1.434 4.424-2.157 7.321-2.17 3.15.019 5.762 1.336 7.832 3.95 2.082 2.634 3.123 6.152 3.123 10.554h-6.212-3.163c-1.879 0-3.563.674-5.052 2.016-1.493 1.342-2.233 2.848-2.233 4.516 0 1.761.81 3.322 2.438 4.688 1.625 1.367 3.609 2.048 5.947 2.048 2.749 0 5.225-1.213 7.422-3.642l2.201 2.081c-3.207 3.516-7.173 5.274-11.893 5.274-3.801 0-6.977-.987-9.52-2.963-2.541-1.975-3.814-4.249-3.814-6.821 0-3.902 2.406-6.773 7.219-8.609-3.025-1.332-4.537-3.262-4.537-5.788C193.371 31.891 194.344 30.18 196.292 28.732L196.292 28.732zM285.894 58.046L276.563 58.046 265.258 41.887 265.258 58.046 257.67 58.046 257.67 10.707 251.754 10.707 251.754 8.05 265.258 5.851 265.258 40.141 278.383 26.562 283.238 26.562 272.01 38.17 285.894 58.046"/><path fill-rule="evenodd" clip-rule="evenodd" d="M300,21.406c0,1.439-0.524,2.657-1.578,3.658 c-1.051,0.999-2.354,1.499-3.898,1.499c-1.547,0-2.846-0.5-3.898-1.499c-1.052-1.001-1.58-2.219-1.58-3.658s0.528-2.666,1.58-3.679 c1.053-1.014,2.352-1.52,3.898-1.52c1.545,0,2.848,0.505,3.898,1.52C299.476,18.74,300,19.967,300,21.406L300,21.406z M298.963,21.406c0-1.227-0.432-2.266-1.303-3.12c-0.863-0.853-1.91-1.278-3.137-1.278s-2.271,0.425-3.14,1.278 c-0.866,0.854-1.298,1.893-1.298,3.12c0,1.225,0.425,2.258,1.279,3.097c0.852,0.84,1.905,1.259,3.158,1.259 c1.255,0,2.307-0.419,3.16-1.259C298.533,23.664,298.963,22.63,298.963,21.406L298.963,21.406z M297.164,24.443h-1.321 l-0.521-1.518c-0.344-1.042-0.799-1.563-1.359-1.563h-0.118v3.08h-1.241v-5.557h-0.757v-0.521h2.718 c0.533,0,0.973,0.153,1.316,0.459c0.349,0.307,0.521,0.661,0.521,1.061c0,0.559-0.36,0.986-1.08,1.279 c0.402,0.106,0.789,0.627,1.159,1.559L297.164,24.443L297.164,24.443z M294.162,20.845c0.639,0,0.961-0.319,0.961-0.959 c0-0.666-0.322-0.999-0.961-0.999h-0.317v1.958H294.162L294.162,20.845z"/></g></svg><view id="wiref" viewBox="0 447 160 130.68"/><svg width="160" height="130.68" viewBox="0 0 160 130.68" id="wiref-" y="447"><defs><path id="ea" d="M0 0H160.188V130.833H0z"/></defs><clipPath id="eb"><use xlink:href="#ea" overflow="visible"/></clipPath><path clip-path="url(#eb)" fill="#E5232D" d="M155.378,127.889c0,1.799,1.032,2.943,2.903,2.943 c0.712,0,1.266-0.073,1.763-0.214l-0.072-1.864c-0.251,0.156-0.66,0.245-1.084,0.245c-0.909,0-1.121-0.722-1.121-1.492v-4.226 h2.118v-1.727h-2.118v-2.565l-2.389,0.754v1.812h-1.761v1.727h1.761V127.889z M145.892,127.999c0-1.393,1.586-1.566,2.652-1.566 h1.029c0,0.703-0.102,1.353-0.497,1.864c-0.374,0.493-0.941,0.811-1.671,0.811C146.549,129.107,145.892,128.771,145.892,127.999 M144.681,124.056c0.798-0.599,1.814-0.987,2.827-0.987c1.411,0,2.064,0.494,2.064,1.957h-1.314c-0.999,0-2.174,0.086-3.079,0.522 c-0.909,0.441-1.568,1.235-1.568,2.588c0,1.726,1.584,2.695,3.204,2.695c1.086,0,2.279-0.563,2.831-1.568h0.036 c0.019,0.282,0.019,0.884,0.106,1.354h2.103c-0.055-0.702-0.09-1.335-0.109-2.021c-0.015-0.671-0.032-1.358-0.032-2.271v-1.162 c0-2.676-1.159-3.817-3.952-3.817c-1.019,0-2.264,0.262-3.188,0.685L144.681,124.056z M136.83,130.619h2.389v-3.328 c0-1.299,0-3.694,1.938-3.694c0.43,0,0.855,0.071,1.072,0.194v-2.375c-0.251-0.069-0.497-0.069-0.731-0.069 c-1.425,0-2.404,1.421-2.511,2.27h-0.037v-2.063h-2.117v9.066H136.83z M128.072,125.202c0.106-1.219,0.784-2.132,2.122-2.132 c1.335,0,1.868,0.987,1.939,2.132H128.072z M133.736,128.19c-0.891,0.495-1.886,0.916-3.045,0.916 c-1.48,0-2.513-0.829-2.619-2.292h6.342c0-3.166-0.962-5.469-4.364-5.469c-2.85,0-4.257,2.165-4.257,4.788 c0,2.973,1.766,4.698,4.792,4.698c1.281,0,2.28-0.249,3.151-0.726V128.19z M119.833,130.619h2.384v-7.339h2.084v-1.726h-2.084 v-1.124c0-0.704,0.249-1.392,1.052-1.392c0.517,0,0.819,0.194,1.032,0.316l0.196-1.951c-0.464-0.104-1.139-0.196-1.747-0.196 c-1.884,0-2.917,1.27-2.917,3.082v1.265h-1.763v1.726h1.763V130.619z M110.253,125.202c0.112-1.219,0.786-2.132,2.121-2.132 c1.339,0,1.871,0.987,1.94,2.132H110.253z M115.918,128.19c-0.892,0.495-1.888,0.916-3.046,0.916 c-1.479,0-2.507-0.829-2.619-2.292h6.342c0-3.166-0.962-5.469-4.361-5.469c-2.853,0-4.259,2.165-4.259,4.788 c0,2.973,1.763,4.698,4.791,4.698c1.281,0,2.279-0.249,3.152-0.726V128.19z M101.513,130.619h2.387v-3.328 c0-1.299,0-3.694,1.94-3.694c0.43,0,0.855,0.071,1.071,0.194v-2.375c-0.25-0.069-0.501-0.069-0.73-0.069 c-1.422,0-2.405,1.421-2.515,2.27h-0.029v-2.063h-2.122v9.066H101.513z M98.67,121.677c-0.75-0.155-1.479-0.33-2.603-0.33 c-1.868,0-3.595,0.859-3.595,2.815c0,3.275,4.15,2.058,4.15,3.837c0,0.88-0.962,1.108-1.568,1.108 c-0.818,0-1.603-0.229-2.353-0.603l-0.145,1.939c0.875,0.227,1.8,0.389,2.707,0.389c1.943,0,3.849-0.847,3.849-2.959 c0-3.271-4.15-2.358-4.15-3.8c0-0.777,0.764-1.005,1.407-1.005c0.875,0,1.41,0.141,2.139,0.389L98.67,121.677z M86.421,127.889 c0,1.799,1.031,2.943,2.902,2.943c0.713,0,1.268-0.073,1.766-0.214l-0.075-1.864C90.766,128.911,90.357,129,89.93,129 c-0.907,0-1.124-0.722-1.124-1.492v-4.226h2.121v-1.727h-2.121v-2.565l-2.385,0.754v1.812h-1.765v1.727h1.765V127.889z M79.087,130.619h2.389v-7.339h2.081v-1.726h-2.081v-1.124c0-0.704,0.248-1.392,1.049-1.392c0.515,0,0.819,0.194,1.032,0.316 l0.196-1.951c-0.463-0.104-1.14-0.196-1.745-0.196c-1.888,0-2.921,1.27-2.921,3.082v1.265h-1.763v1.726h1.763V130.619z M69.511,127.999c0-1.393,1.585-1.566,2.653-1.566h1.032c0,0.703-0.105,1.353-0.499,1.864c-0.374,0.493-0.942,0.811-1.674,0.811 C70.171,129.107,69.511,128.771,69.511,127.999 M68.3,124.056c0.802-0.599,1.817-0.987,2.832-0.987 c1.405,0,2.065,0.494,2.065,1.957h-1.316c-1,0-2.173,0.086-3.083,0.522c-0.908,0.441-1.567,1.235-1.567,2.588 c0,1.726,1.585,2.695,3.205,2.695c1.086,0,2.28-0.563,2.831-1.568h0.037c0.018,0.282,0.018,0.884,0.107,1.354h2.102 c-0.053-0.702-0.089-1.335-0.107-2.021c-0.019-0.671-0.035-1.358-0.035-2.271v-1.162c0-2.676-1.157-3.817-3.952-3.817 c-1.018,0-2.264,0.262-3.19,0.685L68.3,124.056z M56.444,130.619h2.387v-4.436c0-1.156,0.375-3.008,2.1-3.008 c1.533,0,1.552,1.497,1.552,2.606v4.837h2.386v-5.72c0-2.043-0.943-3.553-3.116-3.553c-1.247,0-2.28,0.561-2.887,1.446h-0.034 v-5.374h-2.387V130.619z M54.205,121.644c-0.661-0.194-1.355-0.298-2.312-0.298c-2.869,0-4.438,2.071-4.438,4.698 c0,2.763,1.515,4.788,4.525,4.788c0.979,0,1.692-0.092,2.388-0.3l-0.109-1.952C53.85,128.755,53.102,129,52.423,129 c-1.672,0-2.475-1.284-2.475-2.954c0-1.71,0.942-2.87,2.424-2.87c0.729,0,1.191,0.141,1.619,0.337L54.205,121.644z M45.252,121.677c-0.748-0.155-1.477-0.33-2.599-0.33c-1.871,0-3.599,0.859-3.599,2.815c0,3.275,4.151,2.058,4.151,3.837 c0,0.88-0.964,1.108-1.567,1.108c-0.821,0-1.604-0.229-2.352-0.603l-0.144,1.939c0.873,0.227,1.8,0.389,2.707,0.389 c1.942,0,3.848-0.847,3.848-2.959c0-3.271-4.147-2.358-4.147-3.8c0-0.777,0.762-1.005,1.404-1.005c0.872,0,1.41,0.141,2.138,0.389 L45.252,121.677z M33.002,127.889c0,1.799,1.034,2.943,2.905,2.943c0.711,0,1.263-0.073,1.761-0.214l-0.07-1.864 c-0.25,0.156-0.657,0.245-1.084,0.245c-0.911,0-1.123-0.722-1.123-1.492v-4.226h2.121v-1.727H35.39v-2.565l-2.387,0.754v1.812 h-1.765v1.727h1.763V127.889z M24.85,130.619h2.387v-3.328c0-1.299,0-3.694,1.941-3.694c0.427,0,0.853,0.071,1.068,0.194v-2.375 c-0.251-0.069-0.499-0.069-0.732-0.069c-1.422,0-2.401,1.421-2.509,2.27H26.97v-2.063h-2.12V130.619z M19.402,130.619h2.387 v-9.064h-2.387V130.619z M19.402,119.901h2.387v-2.254h-2.387V119.901z M3.292,130.619h3.225l2.209-9.819h0.036l2.244,9.819h3.205 l3.241-12.284h-2.421l-2.332,9.822h-0.038l-2.191-9.822H7.089l-2.12,9.822H4.933l-2.313-9.822h-2.621L3.292,130.619z M110.475,80.219h-4.108v1.737h1.932v4.276c-0.519,0.127-1.124,0.209-1.932,0.209c-2.98,0-4.272-2.515-4.272-5.645 c0-3.279,1.532-5.311,4.35-5.311c1.45,0,2.742,0.289,3.791,0.993l-0.164-2.157c-0.963-0.56-2.013-0.831-3.706-0.831 c-4.677,0-6.693,3.342-6.693,7.386c0,4.105,2.28,7.388,6.535,7.388c1.408,0,3.837-0.447,4.104-0.837 C110.583,87.049,110.475,80.219,110.475,80.219 M98.395,87.98l-4.209-6.038c2.317-0.741,3.096-2.228,3.096-4.152 c0-2.832-2.492-4.026-5.349-4.026H88.74v14.299h2.323V75.487h0.87c1.975,0,3.036,0.903,3.036,2.382c0,1.646-0.72,2.877-3.57,3.203 h-0.101v0.166l4.546,6.824h2.551V87.98z M86.249,86.331h-6.225V81.65h4.864v-1.726h-4.864v-4.436h5.585l-0.314-1.724h-7.589 v14.298h8.304L86.249,86.331z M74.691,83.956c0-1.359-0.84-2.794-2.338-3.496c0.979-0.783,1.54-1.727,1.54-3.002 c0-2.282-1.72-3.692-5.029-3.692h-3.593v14.298h4.233C72.613,88.063,74.691,86.618,74.691,83.956 M61.839,73.765h-2.074v9.182 l-7.661-9.182h-0.48v14.298h2.08v-9.43l7.659,9.43h0.477V73.765L61.839,73.765z M49.288,87.98l-4.21-6.038 c2.321-0.741,3.095-2.228,3.095-4.152c0-2.832-2.493-4.026-5.35-4.026H39.63v14.299h2.317V75.487h0.875 c1.98,0,3.036,0.903,3.036,2.382c0,1.646-0.717,2.877-3.575,3.203h-0.097v0.166l4.554,6.824h2.548V87.98z M36.149,73.765h-2.078 v8.945c0,2.39-0.697,3.786-3.274,3.786c-2.394,0-3.271-1.576-3.271-3.696v-9.037h-2.312v9.198c0,3.6,2.195,5.265,5.507,5.265 s5.43-1.686,5.43-5.345v-9.116H36.149z M21.728,73.765h-2.081v9.182l-7.657-9.182h-0.479v14.298h2.075v-9.43l7.661,9.43h0.481 V73.765z M27.417,70.586c0,0.863,0.517,1.316,1.194,1.316c0.676,0,1.192-0.453,1.192-1.316c0-0.86-0.516-1.313-1.192-1.313 C27.932,69.273,27.417,69.725,27.417,70.586 M31.481,70.586c0,0.863,0.517,1.316,1.198,1.316c0.674,0,1.194-0.453,1.194-1.316 c0-0.86-0.52-1.313-1.194-1.313C32,69.273,31.481,69.725,31.481,70.586 M160.188,47.12v50.972H1.378V0h158.81v39.735l-2.356,3.691 c0,0-0.196,0.351-0.357-0.021l-5.837-13.23c0,0-0.162-0.368-0.326,0.004l-6.092,14.304c0,0-0.155,0.37-0.416,0.059l-2.397-2.875 c0,0-0.252-0.309-0.394,0.07l-1.97,5.451c0,0-0.131,0.382-0.131,0.78v8.052c0,0,0,0.4,0.26,0.706l1.893,2.171 c0,0,0.268,0.303,0.268,0.705v6.308c0,0,0,0.399-0.409,0.399l-12.066,0.005c0,0-0.409,0-0.409-0.396l-0.008-7.094 c0,0,0-0.402-0.275-0.694l-6.133-6.659c0,0-0.281-0.295-0.684-0.295l-5.658,0.017c0,0-0.405,0-0.681,0.299l-2.869,3.069 c0,0-0.279,0.289-0.279-0.107V48.92c0,0,0-0.404,0.203-0.746l1.269-2.12c0,0,0.204-0.345,0.204-0.751l0.03-7.797 c0,0,0-0.402-0.281-0.691l-4.312-4.516c0,0-0.278-0.288-0.278-0.688l0.004-3.037c0,0,0-0.401-0.213-0.742l-5.144-8.112 c0,0-0.22-0.343-0.433,0l-5.193,8.214c0,0-0.213,0.341-0.213,0.741v2.782c0,0,0,0.402-0.297,0.679l-4.493,4.248 c0,0-0.298,0.278-0.298,0.678l-0.004,8.206c0,0,0,0.406,0.248,0.724l1.351,1.765c0,0,0.248,0.319,0.248,0.723l0.005,8.427 c0,0,0,0.402-0.399,0.402c0,0-82.786,0.434-83.003,0.434c-0.214,0-0.404,0.151-0.404,0.358v0.391c0,0.207-0.049,0.346,0.408,0.346 h84.812c0,0,0.405,0,0.405-0.399V47.688c0,0,0-0.401-0.244-0.719l-1.162-1.505c0,0-0.245-0.322-0.245-0.724v-6.902 c0,0,0-0.405,0.294-0.679l4.45-4.19c0,0,0.292-0.271,0.292-0.674v-2.652c0,0,0-0.4,0.213-0.741l3.238-5.261 c0,0,0.205-0.344,0.412,0.004l3.116,5.253c0,0,0.203,0.345,0.203,0.745v2.782c0,0,0,0.401,0.278,0.69l3.819,4.027 c0,0,0.274,0.294,0.274,0.698v7.012c0,0,0,0.402-0.202,0.751l-1.132,1.981c0,0-0.204,0.351-0.204,0.751l-0.008,11.816 c0,0,0,0.396,0.286,0.107l5.883-6.083c0,0,0.278-0.291,0.684-0.291h3.723c0,0,0.413,0,0.686,0.298l4.729,5.034 c0,0,0.278,0.289,0.278,0.698v8.627c0,0,0,0.405,0.409,0.405h17.437c0,0,0.409,0,0.409-0.405l0.018-10.422 c0,0,0-0.404-0.255-0.713l-1.442-1.738c0,0-0.251-0.308-0.251-0.712v-6.765c0,0,0-0.396,0.251-0.086l2.261,2.872 c0,0,0.248,0.318,0.403-0.055l5.12-11.93c0,0,0.162-0.367,0.318,0l5.135,11.938c0,0,0.153,0.378,0.405,0.05L160.188,47.12z M71.575,77.625c0-1.478-0.995-2.136-2.874-2.136l0,0h-1.116v4.518h3.111C71.418,79.266,71.575,78.451,71.575,77.625 M72.294,83.784c0,1.727-1.018,2.542-2.875,2.542h-1.835V81.65h1.92C71.174,81.65,72.294,82.225,72.294,83.784"/></svg></svg>