<?xml version="1.0" encoding="utf-8"?><!DOCTYPE svg PUBLIC "-//W3C//DTD SVG 1.1//EN" "http://www.w3.org/Graphics/SVG/1.1/DTD/svg11.dtd"><svg xmlns="http://www.w3.org/2000/svg" width="350" height="52.51" viewBox="633.324 417.193 350 52.51"><path d="M983.324,463.977c0-3.072-2.514-5.516-5.59-5.516c-3.001,0-5.374,2.443-5.374,5.516c0,3.143,2.447,5.726,5.516,5.726	C980.811,469.703,983.324,467.12,983.324,463.977 M963.699,468.656v-26.395c0-6.497-3.768-9.776-9.216-9.776	c-3.772,0-7.053,1.673-10.82,4.891c0-1.889-0.421-3.428-1.258-5.031l-6.985,1.955c0.978,2.517,1.331,4.678,1.331,8.379v25.977h7.537	v-25.625c2.308-2.311,5.521-3.978,7.755-3.978c2.933,0,4.046,1.324,4.046,6.139v23.463H963.699z M921.038,447.429h-13.06	c0-5.726,2.378-9.151,6.708-9.151C918.524,438.279,921.038,441.703,921.038,447.429 M928.999,453.085v-1.606	c0-8.24-1.54-12.566-4.613-15.361c-3.002-2.723-6.214-3.63-9.7-3.63c-4.471,0-7.965,1.461-10.827,4.749	c-3.071,3.485-4.401,7.61-4.401,13.824c0,11.316,6.286,18.503,16.271,18.503c4.749,0,9.01-1.531,12.707-4.678l-3.002-4.68	c-2.648,2.308-5.511,3.496-8.793,3.496c-6.914,0-8.732-5.172-8.732-10.057v-0.56H928.999L928.999,453.085z M885.669,447.429h-13.06	c0-5.726,2.378-9.151,6.705-9.151C883.156,438.279,885.669,441.703,885.669,447.429 M893.626,453.085v-1.606	c0-8.24-1.531-12.566-4.608-15.361c-3.001-2.723-6.214-3.63-9.703-3.63c-4.468,0-7.963,1.461-10.822,4.749	c-3.073,3.485-4.401,7.61-4.401,13.824c0,11.316,6.284,18.503,16.275,18.503c4.745,0,9.005-1.531,12.702-4.678l-3.002-4.68	c-2.655,2.307-5.515,3.495-8.795,3.495c-6.918,0-8.732-5.172-8.732-10.058v-0.558H893.626L893.626,453.085L893.626,453.085z M861.999,432.905c-0.91-0.418-1.606-0.56-2.724-0.56c-3.426,0-6.218,1.813-9.005,5.656c0-1.958-0.493-3.979-1.329-5.586	l-7.061,1.813c0.775,2.165,1.26,5.031,1.26,9.497v24.929h7.684v-23.879c0.702-2.861,3.425-5.238,6.637-5.238	c0.837,0,1.396,0.207,2.162,0.489L861.999,432.905L861.999,432.905z M837.035,464.885l-3.631-4.68	c-2.305,2.307-4.683,3.495-7.121,3.495c-1.893,0-3.564-0.77-4.683-2.025c-1.607-1.746-2.373-4.819-2.373-9.639	c0-4.4,0.421-7.679,1.468-9.844c1.116-2.306,3.141-3.56,5.588-3.56c2.024,0,3.838,0.836,5.933,2.724l3.838-5.097	c-3.139-2.936-5.933-3.842-9.771-3.842c-7.896,0-15.572,6.145-15.572,18.991c0,11.386,5.379,18.155,15.008,18.155	C830.469,469.562,833.823,468.097,837.035,464.885 M805.078,457.621c0-4.118-1.886-8.027-9.006-9.844l-4.397-1.117	c-3.562-0.908-4.751-2.025-4.751-4.186c0-2.729,2.095-4.538,5.374-4.538c2.799,0,5.387,0.835,8.666,2.579l2.514-5.308	c-3.006-1.607-6.849-3.067-11.663-3.067c-7.818,0-13.128,4.604-13.128,11.24c0,4.956,3.143,8.586,8.451,9.705l4.26,0.905	c3.979,0.843,5.726,2.237,5.726,4.958c0,2.935-2.376,4.959-5.726,4.959c-3.981,0-8.312-1.885-11.451-3.701l-2.723,5.52	c4.538,2.514,9.217,3.908,13.548,3.908C799.285,469.635,805.078,464.743,805.078,457.621 M762.767,459.646	c-1.049,1.747-3.354,3.354-6.215,3.354c-5.796,0-7.334-3.912-7.334-11.729c0-8.521,2.235-12.434,7.122-12.434	c2.583,0,4.678,0.982,6.428,2.866V459.646z M771.492,468.656c-0.7-1.742-1.117-5.308-1.117-12.288v-37.992l-7.608-1.184v12.917	c0,3.072,0.207,5.797,0.207,5.797c-2.164-2.236-4.611-3.209-7.611-3.209c-8.519,0-14.666,7.54-14.666,18.64	c0,11.038,5.449,18.085,14.458,18.085c3.488,0,6.283-1.113,8.658-3.487c0.207,1.463,0.279,1.956,0.627,2.721H771.492	L771.492,468.656z M733.215,468.656v-26.395c0-6.497-3.772-9.776-9.22-9.776c-3.767,0-7.049,1.673-10.821,4.891	c0-1.889-0.42-3.428-1.258-5.031l-6.98,1.955c0.977,2.517,1.324,4.678,1.324,8.379v25.977h7.54v-25.625	c2.308-2.311,5.517-3.978,7.752-3.978c2.933,0,4.052,1.324,4.052,6.139v23.463H733.215z M696.429,468.656v-36.169l-7.751,1.395	v34.774H696.429z M692.518,428.086c2.861,0,5.169-2.302,5.169-5.097c0-2.936-2.308-5.17-5.031-5.17c-2.861,0-5.097,2.311-5.097,5.17	C687.56,425.783,689.723,428.086,692.518,428.086 M679.133,468.656v-25.835c0-7.332-3.421-10.334-9.217-10.334	c-3.771,0-7.125,1.673-10.545,5.167c-2.583-4.124-5.305-5.167-8.451-5.167c-3.281,0-6.562,1.603-9.356,4.467	c-0.141-1.955-0.56-3.424-1.256-4.538l-6.982,1.954c0.838,1.889,1.258,4.542,1.258,8.939v25.347h7.471v-26.183	c2.583-2.376,5.097-3.495,7.259-3.495c2.937,0,3.841,1.325,3.841,5.449v24.229h7.333v-25.7c2.442-2.302,4.892-4.045,7.473-4.045	c2.722,0,3.634,1.184,3.634,5.304v24.44H679.133L679.133,468.656z"/></svg>