<?xml version="1.0" encoding="utf-8"?><!DOCTYPE svg PUBLIC "-//W3C//DTD SVG 1.1//EN" "http://www.w3.org/Graphics/SVG/1.1/DTD/svg11.dtd"><svg xmlns="http://www.w3.org/2000/svg" width="300" height="85.785" viewBox="0 0 300 85.785"><path fill="#010202" d="M0 0H300V85.785H0z"/><path fill="#FFF" d="M286.531,61.575c-0.586,0.164-1.081,0.255-1.576,0.255c-1.755,0-2.58-0.75-2.58-2.91V42.615 c0-8.564-6.825-12.734-14.895-12.734c-6.165,0-9.48,0.75-16.065,3.405l-1.47,8.64l8.564,0.915l1.215-4.23 c1.756-0.915,3.496-1.08,5.745-1.08c6.075,0,6.165,4.576,6.165,8.401v1.245c-1.92-0.256-4.079-0.331-6.165-0.331 c-8.564,0-17.475,2.16-17.475,11.4c0,7.814,6.149,10.74,11.565,10.74c6.075,0,9.9-3.66,12.06-7.485 c0.495,4.575,3.24,7.485,8.235,7.485c2.324,0,4.74-0.66,6.734-1.755L286.531,61.575z M263.49,61.335c-3.24,0-4.41-1.92-4.41-4.335 c0-4.08,3.33-5.16,7.155-5.16c1.739,0,3.659,0.255,5.414,0.495C271.396,58.59,267.315,61.335,263.49,61.335z M249.074,10.905 L232.845,68.16H222.27l16.23-57.255H249.074z M227.28,10.905L211.05,68.16h-10.56l16.229-57.255H227.28z M182.22,30.63h11.235 v13.471H182.22V30.63z M182.22,54.676h11.235V68.16H182.22V54.676z M165.87,54.18l8.49,0.825l-2.325,13.155h-32.79l-1.08-5.655 l20.639-23.715h-11.73l-1.664,5.821l-7.741-0.841l1.335-13.155h32.956l0.84,5.655L151.98,60h12.149L165.87,54.18z M112.095,29.88 c-13.485,0-20.145,9.075-20.145,20.054c0,11.985,7.995,19.051,19.56,19.051c11.985,0,20.64-7.575,20.64-19.561 C132.15,38.94,125.565,29.88,112.095,29.88z M111.84,60.75c-5.82,0-8.82-4.995-8.82-11.49c0-7.08,3.405-11.145,8.91-11.145 c5.07,0,9.15,3.405,9.15,10.98C121.08,56.25,117.42,60.75,111.84,60.75z M82.291,60h4.995v8.16H71.55V47.025 c0-6.495-2.16-8.985-6.404-8.985c-5.16,0-7.246,3.66-7.246,8.91V60h4.995v8.16h-15.72V47.025c0-6.495-2.16-8.985-6.404-8.985 c-5.16,0-7.246,3.66-7.246,8.91V60h7.155v8.16H17.805V60H22.8V38.775h-4.995v-8.16h15.72v5.655c2.25-3.989,6.166-6.405,11.4-6.405 c5.416,0,10.396,2.58,12.24,8.07c2.085-4.995,6.33-8.07,12.24-8.07c6.735,0,12.9,4.08,12.9,12.975V60H82.291z"/></svg>