<?xml version="1.0" encoding="utf-8"?><!DOCTYPE svg PUBLIC "-//W3C//DTD SVG 1.1//EN" "http://www.w3.org/Graphics/SVG/1.1/DTD/svg11.dtd"><svg xmlns="http://www.w3.org/2000/svg" width="300" height="71.068" viewBox="0 0 300 71.068"><g fill="#78BDE8"><path d="M95.552 21.015c0 .283.282.452.508.452.338 0 .621-.113.79-.113.226 0 .396.113.396.396 0 .789-1.468.959-1.468 1.749 0 .17.113.339.282.339.226 0 .395-.169.621-.169.169 0 .226.169.226.282 0 .282-.678.395-.678.621 0 .226.114.394.396.394.338 0 .621-.282 1.016-.282.225 0 .282.17.282.339 0 .226-1.186.734-3.894 2.54-3.16 2.088-11.286 9.028-11.286 12.132 0 .791 1.016 1.298 1.694 1.298 1.071 0 5.586-1.523 8.182-1.523 1.411 0 2.934 2.539 3.047 3.16.113.451.169 1.242.169 1.918 0 10.778-19.976 23.362-21.217 23.362-.96 0-1.072-.902-1.072-1.411 0-1.185 1.297-1.185 1.297-1.918 0-.17-.057-.339-.057-.509 0-.225.17-.282.17-.62 0-.169-.282-.226-.395-.226-.226 0-.395.112-.508.112-.226 0-.282-.112-.338-.338 0-1.071 1.58-1.637 1.58-1.975 0-.114-.056-.227-.225-.227-.226 0-.565.396-.79.396-.113 0-.564-.113-.564-.62 0-1.242 2.257-2.145 5.926-4.629.846-.563 7.73-5.924 7.73-8.578 0-.394-.226-.619-1.073-.619-1.128 0-3.216 1.017-5.135 1.017-3.781 0-5.53-3.557-5.53-6.829 0-9.085 12.697-19.411 19.693-22.684.621-.282 1.017-.396 1.524-.396.734 0 .96.452.96 1.129C97.81 19.999 95.552 20.168 95.552 21.015M99.334 43.249c.338-1.354 1.185-3.781 1.523-4.854.169-.564.564-1.015.789-1.015.396 0 .622.394.622.903 0 .282-.17 1.128-.17 1.466 0 .17.057.452.226.452.395 0 .508-2.031 1.806-2.031 1.185 0 .903 1.637 1.468 1.637.564 0 .733-1.468 1.298-1.468.338 0 .451.283.451.621 0 .621-2.822 10.271-3.16 11.286-.621 1.806-1.016 3.669-1.016 4.29 0 .507.112.902.395.902 1.185 0 4.401-3.048 4.514-3.048.112 0 .226 0 .226.169 0 .226-1.129 1.298-1.129 1.638 0 .169.112.169.226.169.226 0 .451-.339.62-.339.113 0 .226.057.226.227 0 .169-.903.733-.903 1.128 0 .227.452.227.564.282.112.057.056.508.225.678.17.112.226.169.226.451 0 .79-5.756 6.771-7.675 6.771-1.467 0-3.611-2.145-3.611-5.53 0-3.047.056-6.434.508-8.126L99.334 43.249zM103.735 32.752c0-.226.113-.395.113-.677 0-.17 0-.678-.282-.678-.565 0-.621.621-.621 1.072-.056.283-.338.565-.621.565-.564 0-.903-1.242-.903-2.032 0-.846.113-1.862.282-2.878.169-1.127 1.016-3.835 2.708-3.835.621 0 1.128.282 1.128.789 0 .396-.113.847-.113 1.128 0 .226.056.339.226.339.339 0 .733-1.636 1.073-1.636 1.072 0 1.466 1.297 1.466 2.143 0 2.483-.394 6.376-3.555 6.376C103.904 33.429 103.735 33.035 103.735 32.752M119.591 59.838c0-1.637.282-2.877.282-4.176 0-.903.113-3.499-.677-3.499-.903 0-5.304 10.496-6.941 10.496-1.016 0-1.242-1.75-1.242-3.047 0-.058 0-.451-.282-.451-.395 0-.282 1.862-.338 2.145-1.298-.113-1.354-3.218-1.354-5.53 0-9.029 2.765-19.863 3.555-19.863.903 0 .903.338.903.958 0 .339 0 .96.169.96.226 0 .395-.113.564-.113.734 0 .283 1.071.621 1.071.564 0 .395-1.354 1.186-1.354.338 0 .79.169.903.508.169.622.959 1.073.959 1.863 0 1.128-2.371 8.633-2.371 9.48 0 .225.057.507.283.507.677 0 7.166-11.286 8.069-11.286 1.412 0 .96.96 1.806 1.412 1.017.621 1.298 1.072 1.298 3.273 0 2.369-.62 5.529-.62 6.207 0 .621.056 1.072.282 1.072.621 0 5.7-10.271 7.223-10.271 1.073 0 2.483 2.145 3.104 3.894.283.79.226 1.467.226 2.314 0 2.03-.169 3.047-.169 6.207 0 1.298.226 1.637.507 1.637 1.072 0 2.766-2.54 3.047-2.54.17 0 .283.113.283.283 0 .451-1.186 1.691-1.186 2.029 0 .282.114.282.17.282.113 0 .339-.111.452-.111.112 0 .169.111.169.111 0 .396-.565.734-.565.903 0 .17.114.282.283.339.169.113.62.339.62.564 0 .281-5.868 8.014-6.828 8.014-1.354 0-1.975-.791-1.975-1.58 0-.396.169-.678.169-1.017 0-.225-.056-.451-.226-.451-.225 0-.225 1.016-.903 1.016-.338 0-.451-1.298-.451-2.709 0-1.467.339-3.667.339-5.19 0-.96-.226-1.976-.734-1.976-.734 0-4.515 9.48-8.013 9.48C120.325 61.701 119.591 61.193 119.591 59.838M150.572 62.04c-.79 0-1.411-.452-1.806-.452-.169 0-.282.17-.282.282 0 .226.959.282 1.411.564-.564.113-1.185.227-2.596.227-1.016 0-2.708-.96-4.006-2.653-1.299-1.692-1.863-2.765-1.863-5.304 0-7.506 3.555-12.979 9.762-17.042.508.112 1.58.564 1.976.564.112 0 .112-.056.112-.112 0-.282-1.072-.847-1.241-.96.733-.621 1.975-1.241 2.427-1.241 2.144 0 4.175 2.257 5.134 3.78 1.468 2.256 1.468 4.797 1.468 6.433C161.067 53.123 153.9 62.04 150.572 62.04M154.127 44.207c-.564-.676-1.411-1.467-1.976-1.467-2.652 0-4.289 6.433-4.289 8.577 0 1.806.226 5.305 2.766 5.305 3.499 0 4.345-6.771 4.345-9.255C154.974 46.182 154.804 44.998 154.127 44.207M165.244 35.912c.452 0 .62.565.62 1.241v.564c0 .847.17 1.186.339 1.186.339 0 .396-1.298 1.128-1.298.848 0 1.13.282 1.13 1.411 0 .395-.113.677-.113.903 0 .169.113.339.226.339.17 0 .451-1.242 1.072-1.242.395 0 .733.508.733 1.073 0 1.185-2.539 8.803-2.539 9.987 0 .282.056.451.282.451.282 0 .621-.733 1.128-1.523 3.048-4.966 6.038-10.213 6.489-10.213.734 0 .847.565 1.523.902.621.283.282.678.621 1.017 1.072.395 1.692 1.409 1.692 2.539 0 3.385-.958 6.433-.958 9.649 0 .395.338.507.677.507.733 0 2.031-2.539 2.426-2.539.17 0 .282.112.282.282 0 .339-.621.621-.621 1.129 0 .226 0 .452.171.621.112-.114.338-.282.45-.282.171 0 .226.168.226.282 0 .169-.732 1.071-.732 1.523 0 .226.169.226.169.451 0 .451-.564.846-.564 1.071 0 .114.056.283.226.283.282 0 .621-.678.902-.678.113 0 .227.113.227.339 0 .677-5.248 6.151-5.587 6.546-.451.451-.903.564-1.24.564-1.299 0-3.104-3.725-3.104-4.91 0-1.806.339-4.626.281-5.529 0-.451-.112-.79-.338-.79-.733 0-5.19 10.326-6.489 10.326-1.016 0-2.427-1.637-2.822-2.313-.79-1.354-1.41-2.652-1.41-3.78C161.745 53.405 163.269 35.912 165.244 35.912M183.641 57.976c-.395-.79-.508-2.427-.508-4.458 0-6.32 6.264-17.041 13.092-17.041 1.354 0 4.4 2.99 4.4 6.207 0 5.642-4.005 7.223-11.397 9.593.056 2.258.79 3.95 3.385 3.95 1.75 0 6.659-2.652 7.28-3.611.169-.227.339-.396.564-.396.168 0 .395.112.395.281 0 .509-1.241 1.524-1.241 1.751 0 .112.169.169.282.169.169 0 .564-.565.732-.565.114 0 .171.113.171.282 0 .396-1.073 1.411-1.073 1.806 0 .114.057.114.17.114.169 0 .396-.451.621-.451.111 0 .282.112.282.395 0 .395-.113.902-5.305 4.571-.395.281-4.176 2.426-5.306 2.426C187.195 62.999 184.713 60.121 183.641 57.976M192.839 42.232c-1.523 0-3.611 7.562-3.611 9.029.282-.057 1.749-.451 1.749-.79 0-.508-1.072-.227-1.072-.621 0-.508 1.975-.902 1.975-1.298 0-.169-.452-.169-.79-.169-.395 0-.564-.113-.564-.339 0-.79 4.007-1.636 4.007-2.991C194.531 44.038 193.741 42.232 192.839 42.232M228.445 48.497c0-.227-.17-.282-.339-.282-.733 0-6.49 1.918-7.336 1.918-.339 0-.508-.112-.508-.451 0-.452.451-.395.451-.678 0-.168-.17-.282-.338-.282-.396 0-1.073.17-1.354.17-.169 0-.283-.113-.34-.17-.056-.282.057-.507.057-.789-.057-.734-.677-1.129-1.354-1.129-.395 0-.62.169-.903.169-.564 0-.508-.96-.508-1.016.056-.281.395-.508.902-.678 5.361-1.806 10.215-3.047 11.795-3.611.395-.112 1.015-.225 1.129-.789.339-1.298.395-3.047.507-4.683.113-1.3.847-4.854.847-7.337 0-.451-.056-.564-.508-.564-1.241 0-9.479 2.426-10.325 2.426-.396 0-.847-.057-.847-.394 0-.339.45-.396.45-.847 0-.226-.169-.451-.396-.451-.226 0-.902.338-1.523.338-.394 0-.563-.17-.563-.452 0-.282.281-.903.281-1.297 0-.283-.281-.283-.563-.283-1.016 0-1.468-.508-1.468-1.186 0-.564.338-.958.734-1.072 4.569-1.523 20.991-5.303 23.981-5.53 1.13-.113 4.402-1.128 5.417-1.128.452 0 .735.733.735 1.128 0 1.072-1.017.79-1.017 1.467 0 .396.79.168.79 1.129 0 1.297-1.129 1.128-1.129 1.918 0 .509 1.241.113 1.241.791 0 .507-1.071.845-4.344 1.185-.903.057-2.483.226-2.879.621-.282.282-.564.902-.621 1.411-.111.846-1.523 10.1-1.523 10.496 0 .394 0 .507.452.507.678 0 7.899-3.385 8.973-3.385.394 0 .677.564.677.903 0 1.467-1.411.959-1.298 1.693 0 .451 1.186.451 1.186 1.467 0 1.129-1.129.902-1.129 1.354 0 .451.395.451.789.451.227 0 .396.17.396.563 0 .34-.563.509-1.016.621-.903.17-2.2.733-8.803 3.048-1.073.339-1.299.621-1.412.902-.394 1.016-3.046 15.292-3.384 18.565-.058.79-.283 1.523-.679 2.089-.225.395-.282 1.522-.282 2.2 0 .677-.338 1.523-1.071 1.523-.282 0-.677-.282-.677-.733s.112-1.241.112-1.636c0-.396 0-.848-.508-.848-.395 0-.678.396-.959.396-.678 0-.733-.848-.733-1.354 0-.283.168-1.13-.396-1.13-.563 0-.676.621-1.128.621-.339 0-.508-.395-.508-.677 0-2.484 1.411-7.167 1.636-9.594C227.43 54.535 228.445 49.342 228.445 48.497M256.548 38.169c2.144-1.298 4.006-2.258 4.628-2.258.563 0 1.297.226 1.297.79 0 .734-.959 1.412-.959 1.524 0 .113.057.169.112.169.17 0 .339-.169.565-.169.281 0 .847.282.847.791 0 .507-.678.621-.678.959 0 .169.057.226.112.226.451 0 .791-.339 1.241-.339.227 0 .395.227.395.564 0 .678-8.689 5.022-12.47 12.584-.508 1.016-.904 1.919-.904 2.991 0 .395.452.563 1.018.563 1.128 0 3.78-2.709 9.141-10.947.339-.563.621-.902 1.072-.902.79 0 1.129.96 1.354 1.354.339.677 1.579 1.636 1.579 2.087 0 1.693-1.014 4.515-1.014 6.265 0 .451.111.62.507.62.169 0 2.201-1.806 3.047-3.442.113-.169.169-.282.226-.282.17 0 .282.058.282.227 0 .338-.678 1.41-2.032 2.821.058.112.17.17.227.17.113 0 .959-.679 1.072-.679.169 0 .283.113.283.282 0 .396-1.355 1.411-1.355 1.693 0 .112.113.227.226.227.339 0 1.298-1.186 1.58-1.186.113 0 .226.057.226.169-.056.396-.847 1.072-.847 1.299 0 .056.057.112.171.112.168 0 .338-.17.62-.17.112 0 .169.058.169.17 0 .677-5.756 6.546-7.393 6.546-1.185-.113-3.104-2.709-3.104-4.684 0-.733.283-1.354.283-1.862 0-.339-.056-.621-.339-.621-.338 0-5.248 7.167-7.618 7.167-1.974-.169-4.458-2.709-4.458-7.562C245.656 47.706 252.823 40.483 256.548 38.169M276.299 40.201c5.361-3.442 6.15-4.288 6.941-4.288.337 0 .563.338.563.734 0 .62-1.297 1.297-1.297 1.467 0 .225.055.339.225.339.227 0 .451-.169.621-.169.225 0 .508.112.508.451 0 .564-1.919.903-1.919 1.467 0 .226.339.282.62.282.396 0 .733.057.733.282 0 .339-.169.508-.169 1.016 0 .62.509-.056.509 1.129s-8.973 6.038-8.973 7.561c0 .227.396.396.847.396.507 0 2.99-.451 4.119-.451 2.427 0 3.33 2.088 3.33 3.781 0 6.714-10.327 12.188-13.995 12.188-.507 0-.678-.733-.678-1.467.057-.564 1.862-.96 1.862-1.185 0-.114-.057-.17-.112-.17-.112 0-.395.056-.677.056-.621 0-1.017-.338-1.017-.733 0-1.185.282-1.241.282-1.637 0-.225-.112-.563-.112-.902 0-.733 6.658-2.37 6.658-4.063 0-.676-5.926 0-6.264-.902-.227-.621-.339-2.539-.339-4.966C268.567 46.578 274.888 41.104 276.299 40.201M292.438 40.201c5.36-3.442 6.15-4.288 6.94-4.288.337 0 .564.338.564.734 0 .62-1.298 1.297-1.298 1.467 0 .225.056.339.226.339.226 0 .451-.169.62-.169.225 0 .509.112.509.451 0 .564-1.92.903-1.92 1.467 0 .226.339.282.621.282.396 0 .733.057.733.282 0 .339-.169.508-.169 1.016 0 .62.508-.056.508 1.129s-8.973 6.038-8.973 7.561c0 .227.396.396.847.396.509 0 2.991-.451 4.12-.451 2.427 0 3.329 2.088 3.329 3.781 0 6.714-10.327 12.188-13.994 12.188-.509 0-.678-.733-.678-1.467.057-.564 1.862-.96 1.862-1.185 0-.114-.057-.17-.113-.17-.113 0-.395.056-.677.056-.621 0-1.016-.338-1.016-.733 0-1.185.282-1.241.282-1.637 0-.225-.112-.563-.112-.902 0-.733 6.657-2.37 6.657-4.063 0-.676-5.924 0-6.263-.902-.227-.621-.339-2.539-.339-4.966C284.707 46.578 291.026 41.104 292.438 40.201M70.68 9.098c-.431-.426-1.174-.486-1.855-.249-.067.011-.136.028-.26.075 0 0-.07.037-.108.057l-.067.034c-.046.024-.072.051-.069.042L44.635 20.303 32.571 32.458c2.535-6.009 6.521-14.929 11.224-24.067-1-3.664-4.303-5.941-6.395-6.463-2.048 13.264-6.364 28.447-6.364 28.447s-5.456-16.501-8.415-30.164c-4.751-1.087-7.47 2.347-8.45 3.022C21.704 14.954 28.809 31.33 28.809 31.33S15.41 23.446 4.153 13.379C1.279 16.989.572 18.85 0 23.008c14.194 3.55 28.059 10.863 28.059 10.863s-14.521 2.014-27.224 4.477c.911 3.513 2.018 6.355 4.476 8.49 7.743-4.85 19.568-9.576 24.282-11.38l-16.773 16.9-.175.151c-.592.601-.905 1.442-.901 2.437.014 2.462 1.971 5.857 5.239 9.083 3.187 3.146 6.597 5.023 9.123 5.023.994 0 1.807-.288 2.421-.858 0 0 10.549-10.634 18.878-19.033 6.194-6.241 10.657-10.76 12.911-13.07.106-.111.181-.236.22-.366.012-.041.021-.077.03-.129L70.854 11.08C71.188 10.218 71.128 9.551 70.68 9.098zM45.83 22.076c.328-.106 1.026-.573 1.994-.573.872 0 1.64.187 2.281.554 1.174.675 1.956 1.99 2.329 3.906-1.108 1.181-4.278 4.408-9.43 9.602-7.007 7.063-15.877 15.945-19.564 19.631-2.668-2.816-5.101-3.446-7.24-3.389L45.83 22.076zM27.462 67.433c-1.402.771-3.863 1.118-9.517-4.106-2.778-2.922-4.784-5.982-4.796-8.029-.003-.597.155-1.06.51-1.418 0 0 0-.003.001-.004 1.352-1.258 5.813-.4 9.731 3.806C27.373 61.955 29.623 65.918 27.462 67.433zM58.553 34.987C56.177 37.416 29.691 63.99 29.691 63.99c-1.3-3.854-3.228-5.962-5.179-7.554l28.444-28.927C54.872 27.119 60.388 28.534 58.553 34.987zM60.397 33.463c.648-5.648-3.049-7.263-6.14-7.806.043-3.312-3.386-5.776-7.219-5.104l10.757-4.381c.013.034.04.057.051.096-.406.438-.567 2.035 1.039 1.806 2.694-.889 2.428-.22 1.634.76-.439.683-.206 1.435.717 1.192 2.62-1.28 1.933-.031 1.413 1.368-.347.924.367 1.559 1.162 1.667L60.397 33.463z"/></g></svg>