<?xml version="1.0" encoding="utf-8"?><!DOCTYPE svg PUBLIC "-//W3C//DTD SVG 1.1//EN" "http://www.w3.org/Graphics/SVG/1.1/DTD/svg11.dtd"><svg xmlns="http://www.w3.org/2000/svg" width="300" height="68.214" viewBox="-2.398 215.851 300 68.214"><path d="M7.466 256.283c-6.364 0-9.664-3.415-9.839-10.299 0-.345.115-.581.465-.636l4.86-.81c.266-.074.542.08.616.346.015.049.021.102.019.154.176 4.165 1.39 5.79 4.05 5.79 2.5 0 3.704-1.331 3.704-5.616s-.81-5.614-3.88-6.829l-2.375-.926c-5.438-2.139-7.059-5-7.059-11.108 0-6.769 3.07-10.5 9.55-10.5 6.479 0 9.32 3.47 9.664 9.605 0 .345-.175.5-.5.634l-4.628.695c-.345.055-.636-.114-.636-.465-.114-3.239-1.16-5.035-3.704-5.035-2.431 0-3.591 1.5-3.591 4.745 0 3.646.695 4.744 3.82 5.96l2.375.924c5.149 2.024 7.175 4.804 7.175 11.499C17.535 252.229 14.935 256.283 7.466 256.283zM19.39 216.987c-.021-.3.207-.56.508-.581.023-.001.048-.001.071 0h5.035c.301-.02.56.207.58.508.002.025.002.048 0 .073v38.196c.021.301-.207.56-.506.581-.025.001-.048.001-.073 0h-5.035c-.301.02-.56-.207-.579-.508-.003-.025-.003-.049 0-.073V216.987zM28.809 216.987c-.02-.3.207-.56.508-.581.024-.001.048-.001.073 0h6.134c.383-.055.739.202.81.581l7.29 27.197h.29v-27.197c-.02-.3.207-.56.508-.581.023-.001.048-.001.072 0h4.315c.3-.02.56.207.581.508.001.025.001.048 0 .073v38.196c.02.301-.207.56-.508.581-.025.001-.048.001-.073 0h-5.75c-.381.055-.738-.202-.81-.581l-7.639-27.197h-.345v27.197c.02.301-.207.56-.508.581-.024.001-.048.001-.073 0h-4.285c-.3.02-.56-.207-.58-.508-.001-.025-.001-.049 0-.073L28.809 216.987zM52.608 216.987c-.021-.3.207-.56.506-.581.025-.001.049-.001.073 0h6.12c.381-.055.739.202.81.581l7.29 27.197h.29v-27.197c-.022-.3.205-.561.504-.583.035-.002.07-.001.105.002h4.285c.301-.02.56.207.581.508.001.025.001.048 0 .073v38.196c.02.301-.208.56-.508.581-.025.001-.048.001-.073 0h-5.75c-.382.055-.738-.202-.81-.581l-7.639-27.197h-.345v27.197c.02.301-.208.56-.508.581-.024.001-.048.001-.073 0h-4.285c-.299.02-.56-.207-.58-.508-.001-.025-.001-.049 0-.073v-38.196H52.608zM76.391 216.987c-.021-.3.207-.56.506-.581.025-.001.048-.001.073 0h16.143c.301-.02.56.207.581.508.001.025.001.048 0 .073v4.454c.017.301-.212.559-.513.576-.022.001-.045.001-.067 0H82.929c-.167-.025-.32.091-.345.259-.004.027-.004.057 0 .086v10.358c-.023.167.093.321.259.345.029.004.057.004.086 0h8.795c.299-.02.56.207.579.508.001.023.001.048 0 .073v4.454c.021.301-.207.56-.508.579-.023.003-.048.003-.071 0h-8.795c-.167-.023-.32.093-.345.259-.004.029-.004.057 0 .086v10.765c-.023.167.093.322.259.345.029.004.057.004.086 0h10.184c.301-.02.56.207.581.508.001.023.001.048 0 .071v4.455c.02.3-.207.561-.508.58-.025.001-.048.001-.073 0H76.97c-.301.021-.56-.207-.58-.508-.002-.023-.002-.049 0-.072V216.987zM111.633 255.758c-.282.038-.551-.134-.635-.404l-4.804-15.684h-2.95c-.167-.023-.322.093-.345.259-.004.029-.004.057 0 .086v15.163c.021.301-.207.561-.508.58-.023.002-.048.002-.071 0h-5.016c-.299.02-.56-.207-.579-.508-.001-.023-.001-.048 0-.072v-38.191c-.021-.3.207-.56.508-.581.023-.001.048-.001.071 0h7.929c7 0 11.225 3.065 11.225 11.689 0 5.149-1.734 8.39-4.69 10.069l5.556 16.999c.114.29 0 .579-.291.579h-5.399V255.758zM110.242 228.095c0-4.63-1.5-6.074-5-6.074h-2.024c-.167-.025-.321.091-.345.258-.004.028-.004.059 0 .087v11.459c-.023.167.092.321.259.345.029.004.057.004.086 0h2.024C108.737 234.176 110.242 232.785 110.242 228.095zM128.761 256.283c-6.365 0-9.665-3.415-9.835-10.299 0-.345.116-.581.465-.636l4.86-.81c.266-.074.542.08.616.346.014.049.021.102.02.154.174 4.165 1.389 5.79 4.049 5.79 2.5 0 3.704-1.331 3.704-5.616s-.81-5.614-3.879-6.829l-2.371-.926c-5.44-2.139-7.06-5-7.06-11.108 0-6.769 3.065-10.5 9.55-10.5 6.483 0 9.314 3.47 9.663 9.605 0 .345-.174.5-.5.634l-4.628.695c-.345.055-.635-.114-.635-.465-.115-3.239-1.16-5.035-3.706-5.035-2.43 0-3.59 1.5-3.59 4.745 0 3.646.695 4.744 3.82 5.96l2.375.924c5.149 2.024 7.174 4.804 7.174 11.499C138.83 252.229 136.226 256.283 128.761 256.283zM141.145 236.084c0-10.938.23-12.559.75-14.179 1.215-3.759 4.11-6 8.91-6 5.613 0 9.144 2.896 9.499 9.434.06.345-.06.636-.405.695l-4.689.81c-.266.076-.542-.08-.616-.346-.014-.05-.021-.102-.02-.154-.174-3.359-1.329-4.804-3.589-4.804-1.734 0-2.66.75-3.125 2.2-.289.924-.405 1.734-.405 12.383s.116 11.458.405 12.384c.465 1.445 1.391 2.199 3.125 2.199 2.255 0 3.415-1.444 3.589-4.805-.009-.276.206-.508.482-.518.052-.001.104.004.153.018l4.689.81c.346.06.465.345.405.695-.345 6.54-3.875 9.434-9.499 9.434-4.805 0-7.695-2.255-8.91-6C141.375 248.644 141.145 247.014 141.145 236.084zM163.659 216.987c-.021-.3.207-.56.508-.581.023-.001.048-.001.071 0h5.034c.301-.02.561.207.58.508.002.025.002.048 0 .073v15.499c-.023.167.092.32.259.345.028.004.059.004.086 0h6.654c.168.023.321-.092.345-.259.006-.029.006-.057 0-.086v-15.499c-.021-.3.206-.561.507-.582.031-.003.063-.001.094.001h5c.301-.02.56.207.58.508.002.025.002.048 0 .073v38.196c.02.301-.207.56-.508.581-.024.001-.048.001-.072 0h-5c-.3.02-.56-.207-.579-.508-.002-.025-.002-.049 0-.073v-16.379c.023-.167-.093-.32-.26-.345-.028-.004-.057-.004-.086 0h-6.679c-.167-.023-.321.092-.345.259-.004.029-.004.059 0 .086v16.379c.02.301-.209.56-.508.581-.025.001-.049.001-.073 0h-5.035c-.299.02-.56-.207-.579-.508-.001-.025-.001-.049 0-.073L163.659 216.987zM201.56 255.758c-.282.038-.551-.134-.636-.404l-4.799-15.684h-2.95c-.167-.027-.323.086-.349.253-.006.03-.006.061-.002.092v15.163c.021.301-.207.561-.507.58-.023.002-.049.002-.072 0h-5.034c-.301.02-.561-.207-.58-.508-.002-.023-.002-.048 0-.072v-38.191c-.021-.3.207-.56.507-.581.024-.001.048-.001.073 0h7.929c6.999 0 11.225 3.065 11.225 11.689 0 5.149-1.734 8.39-4.69 10.069l5.555 16.999c.116.29 0 .579-.289.579h-5.38V255.758zM200.17 228.095c0-4.63-1.5-6.074-4.999-6.074h-2c-.166-.027-.323.086-.35.252-.005.03-.005.061-.001.092v11.459c-.023.167.093.321.259.345.03.005.062.005.092 0h2C198.665 234.176 200.17 232.785 200.17 228.095zM217.413 216.987c.116-.345.291-.581.636-.581h4.86c.331-.004.608.25.634.581l8.336 38.196c.075.234-.054.485-.287.562-.059.018-.118.024-.18.02h-4.919c-.328.021-.611-.227-.634-.554 0-.009-.001-.019-.001-.027l-1.565-7.929h-7.804l-1.56 7.929c-.008.329-.28.589-.608.582-.009 0-.019-.001-.027-.001h-4.919c-.245.021-.462-.158-.485-.402-.006-.061.001-.12.021-.179L217.413 216.987zM223.293 242.045l-2.779-14.645h-.175l-2.896 14.645H223.293zM233.908 216.987c-.021-.3.207-.56.507-.581.024-.001.048-.001.072 0h9.084c5.149 0 8.16 2.086 9.55 6.31.694 2.14 1 4.806 1 13.369 0 8.564-.29 11.229-1 13.37-1.39 4.224-4.4 6.31-9.55 6.31h-9.084c-.301.02-.56-.207-.579-.508-.003-.025-.003-.049 0-.073V216.987zM240.447 250.148h2.499c2.2 0 3.476-.87 4.165-2.834.465-1.445.695-3.355.695-11.229s-.23-9.779-.695-11.229c-.695-1.97-1.965-2.834-4.165-2.834h-2.499c-.167-.025-.32.091-.346.258-.004.028-.004.059 0 .087v27.433c-.025.166.088.322.254.349C240.385 250.154 240.417 250.154 240.447 250.148zM256.651 216.987c-.021-.3.207-.56.508-.581.023-.001.048-.001.071 0h16.145c.3-.02.56.207.579.508.002.025.002.048 0 .073v4.454c.018.301-.212.559-.513.576-.022.001-.044.001-.066 0h-10.186c-.165-.027-.321.086-.349.252-.005.03-.005.062 0 .093v10.358c-.024.167.091.321.258.346.03.004.062.004.091-.001h8.795c.301-.02.561.207.58.508.002.023.002.048 0 .073v4.454c.021.301-.207.56-.507.579-.024.003-.048.003-.073 0h-8.795c-.165-.026-.321.087-.349.254-.005.03-.005.062 0 .091v10.765c-.024.167.091.322.258.345.03.005.062.005.091 0h10.186c.3-.02.56.207.579.508.002.023.002.048 0 .071v4.455c.02.3-.207.561-.508.58-.023.001-.048.001-.071 0H257.23c-.3.021-.56-.207-.579-.508-.001-.023-.001-.049 0-.072V216.987zM291.893 255.758c-.283.038-.55-.134-.636-.404l-4.805-15.684h-2.95c-.166-.023-.32.093-.345.259-.004.029-.004.057 0 .086v15.163c.021.301-.207.561-.507.58-.024.002-.049.002-.072 0h-5.04c-.3.02-.561-.207-.58-.508-.001-.023-.001-.048 0-.072v-38.191c-.021-.3.207-.56.508-.581.023-.001.049-.001.072 0h7.929c7 0 11.225 3.065 11.225 11.689 0 5.149-1.734 8.39-4.689 10.069l5.555 16.999c.115.29 0 .579-.29.579h-5.374V255.758zM290.503 228.095c0-4.63-1.5-6.074-5-6.074h-2.024c-.167-.025-.321.091-.345.258-.004.028-.004.059 0 .087v11.459c-.023.167.092.321.259.345.028.004.058.004.086 0h2.024C288.999 234.176 290.503 232.785 290.503 228.095zM-2.393 267.462h4.655c3.139 0 5.729 1.375 5.729 4.79v.09c0 3.499-2.614 4.834-5.729 4.834h-2.66v6.67h-2L-2.393 267.462zM2.397 275.602c2.34 0 3.599-1.146 3.599-3.255v-.09c0-2.315-1.375-3.185-3.599-3.185h-2.795v6.534L2.397 275.602zM9.525 280.512c0-2.774 2.935-3.715 6-3.715h1.72v-.871c0-1.904-.734-2.704-2.568-2.704-1.651 0-2.57.69-2.75 2.154h-1.905c.25-2.729 2.43-3.733 4.744-3.733 2.315 0 4.38.938 4.38 4.283v7.909H17.24v-1.5c-.874 1.168-2.279 1.814-3.734 1.721C11.31 284.061 9.525 282.982 9.525 280.512zM17.25 279.642v-1.5H15.6c-2.405 0-4.174.595-4.174 2.359 0 1.239.595 2 2.27 2 2.019.045 3.554-.989 3.554-2.845V279.642zM22.73 271.863h1.905v2.149c.755-1.355 1.791-2.295 3.945-2.36v1.79c-2.405.115-3.945.87-3.945 3.829v6.58H22.73V271.863zM31.714 280.852v-7.385h-1.72v-1.604h1.72v-2.73h1.905v2.73h2.795v1.604h-2.795v7.199c0 1.17.526 1.739 1.5 1.739.5.011.998-.074 1.465-.249v1.604c-.523.183-1.075.268-1.629.25C32.769 284.011 31.714 282.732 31.714 280.852zM44.307 277.961v-.185c0-3.601 2.5-6.12 5.89-6.12 3.389 0 5.889 2.5 5.889 6.101v.185c0 3.619-2.5 6.119-5.914 6.119C46.758 284.061 44.307 281.471 44.307 277.961zM54.116 277.961v-.16c0-2.774-1.535-4.56-3.919-4.56-2.385 0-3.92 1.79-3.92 4.54v.185c0 2.73 1.5 4.5 3.92 4.5 2.419 0 3.91-1.8 3.91-4.505H54.116zM59.306 273.467h-1.72v-1.604h1.72v-1.95c0-2.43 1.19-3.85 3.575-3.85.483-.014.965.064 1.419.229v1.604c-.432-.165-.891-.251-1.354-.25-1.241 0-1.741.851-1.741 2.065v2.154h2.936v1.605h-2.936v10.385h-1.899V273.467zM77.095 267.462h2.615l5.55 16.389h-1.956l-1.604-4.725h-6.779l-1.581 4.725h-1.885L77.095 267.462zM75.465 277.551h5.689l-2.85-8.438L75.465 277.551zM86.609 277.987v-.186c0-3.669 2.616-6.145 5.825-6.145 2.5 0 4.839 1.145 5.205 4.195h-1.88c-.301-1.904-1.676-2.614-3.325-2.614-2.18 0-3.85 1.739-3.85 4.56v.185c0 2.935 1.605 4.5 3.92 4.5 1.695 0 3.234-1 3.44-2.935h1.764c-.25 2.59-2.34 4.499-5.225 4.499C89.129 284.061 86.609 281.697 86.609 277.987zM99.514 277.987v-.186c0-3.669 2.614-6.145 5.824-6.145 2.5 0 4.839 1.145 5.206 4.195h-1.88c-.301-1.904-1.675-2.614-3.325-2.614-2.18 0-3.85 1.739-3.85 4.56v.185c0 2.935 1.605 4.5 3.92 4.5 1.695 0 3.234-1 3.44-2.935h1.764c-.25 2.59-2.34 4.499-5.224 4.499C102.038 284.061 99.514 281.697 99.514 277.987zM112.418 277.987v-.186c0-3.619 2.314-6.145 5.614-6.145 2.774 0 5.389 1.675 5.389 5.96v.62h-9.029c.09 2.729 1.401 4.239 3.85 4.239 1.855 0 2.935-.689 3.185-2.084h1.905c-.414 2.404-2.404 3.669-5.114 3.669C114.802 284.061 112.418 281.676 112.418 277.987zM121.472 276.702c-.185-2.5-1.465-3.461-3.44-3.461s-3.255 1.33-3.575 3.461H121.472zM126.171 271.863h1.905v1.905c.551-1.125 1.88-2.111 3.85-2.111 2.5 0 4.22 1.355 4.22 4.835v7.359h-1.905v-7.499c0-2.11-.895-3.051-2.82-3.051-1.764 0-3.345 1.125-3.345 3.28v7.27h-1.905V271.863zM140.131 280.852v-7.385h-1.72v-1.604h1.72v-2.73h1.905v2.73h2.794v1.604h-2.794v7.199c0 1.17.53 1.739 1.5 1.739.5.011.996-.074 1.465-.249v1.604c-.522.182-1.073.266-1.625.25C141.185 284.011 140.131 282.732 140.131 280.852zM147.579 279.451v-7.589h1.905v7.499c0 2.109.896 3.05 2.776 3.05 1.739.082 3.218-1.263 3.298-3.004.006-.093.006-.184.002-.276v-7.269h1.904v11.999h-1.904v-1.906c-.55 1.125-1.881 2.11-3.805 2.11C149.369 284.061 147.579 282.751 147.579 279.451zM161.148 271.863h1.905v2.149c.755-1.355 1.79-2.295 3.944-2.36v1.79c-2.404.115-3.944.87-3.944 3.829v6.58h-1.905V271.863zM168.373 277.987v-.186c0-3.619 2.315-6.145 5.614-6.145 2.774 0 5.385 1.675 5.385 5.96v.62h-9.029c.09 2.729 1.4 4.239 3.851 4.239 1.854 0 2.935-.689 3.185-2.084h1.919c-.414 2.404-2.405 3.669-5.109 3.669C170.798 284.061 168.373 281.676 168.373 277.987zM177.427 276.702c-.185-2.5-1.464-3.461-3.439-3.461-1.975 0-3.255 1.33-3.574 3.461H177.427zM188.296 267.462h2v16.389h-2V267.462zM194.225 271.863h1.906v1.905c.549-1.125 1.878-2.111 3.849-2.111 2.499 0 4.22 1.355 4.22 4.835v7.359h-1.905v-7.499c0-2.11-.895-3.051-2.82-3.051-1.764 0-3.343 1.125-3.343 3.28v7.27h-1.906V271.863zM208.185 280.852v-7.385h-1.721v-1.604h1.721v-2.73h1.904v2.73h2.794v1.604h-2.794v7.199c0 1.17.53 1.739 1.5 1.739.5.011.997-.074 1.465-.249v1.604c-.522.182-1.073.266-1.625.25C209.239 284.011 208.185 282.732 208.185 280.852zM214.853 277.987v-.186c0-3.619 2.315-6.145 5.615-6.145 2.775 0 5.384 1.675 5.384 5.96v.62h-9.023c.09 2.729 1.399 4.239 3.85 4.239 1.855 0 2.935-.689 3.185-2.084h1.93c-.414 2.404-2.41 3.669-5.109 3.669C217.263 284.061 214.853 281.676 214.853 277.987zM223.909 276.702c-.187-2.5-1.466-3.461-3.44-3.461s-3.255 1.33-3.575 3.461H223.909zM228.607 271.863h1.905v2.149c.755-1.355 1.79-2.295 3.945-2.36v1.79c-2.405.115-3.945.87-3.945 3.829v6.58h-1.905V271.863zM235.968 280.512c0-2.774 2.935-3.715 6-3.715h1.72v-.871c0-1.904-.735-2.704-2.57-2.704-1.649 0-2.57.69-2.75 2.154h-1.904c.25-2.729 2.43-3.733 4.744-3.733 2.315 0 4.38.938 4.38 4.283v7.909h-1.896v-1.5c-.874 1.168-2.278 1.814-3.734 1.721C237.732 284.061 235.968 282.982 235.968 280.512zM243.691 279.642v-1.5h-1.649c-2.405 0-4.169.595-4.169 2.359 0 1.239.595 2 2.27 2 2.015.045 3.549-.989 3.549-2.845V279.642zM248.291 277.987v-.186c0-3.669 2.616-6.145 5.825-6.145 2.5 0 4.834 1.145 5.204 4.195h-1.88c-.3-1.904-1.675-2.614-3.324-2.614-2.18 0-3.85 1.739-3.85 4.56v.185c0 2.935 1.605 4.5 3.92 4.5 1.694 0 3.229-1 3.439-2.935h1.765c-.25 2.59-2.34 4.499-5.225 4.499C250.791 284.061 248.291 281.697 248.291 277.987zM262.485 280.852v-7.385h-1.695v-1.604h1.72v-2.73h1.905v2.73h2.795v1.604h-2.819v7.199c0 1.17.529 1.739 1.499 1.739.5.011.998-.074 1.465-.249v1.604c-.521.182-1.072.266-1.625.25C263.54 284.011 262.485 282.732 262.485 280.852zM269.754 268.103c0-.697.565-1.261 1.261-1.261s1.261.563 1.261 1.261c0 .695-.565 1.26-1.261 1.26C270.32 269.357 269.76 268.796 269.754 268.103zM270.099 271.863h1.904v11.999h-1.904V271.863zM274.384 271.863h2.065l3.555 10.063 3.499-10.063h1.97l-4.31 11.999h-2.424L274.384 271.863zM286.578 277.987v-.186c0-3.619 2.315-6.145 5.614-6.145 2.774 0 5.385 1.675 5.385 5.96v.62h-9.028c.09 2.729 1.399 4.239 3.85 4.239 1.854 0 2.935-.689 3.185-2.084h1.904c-.415 2.404-2.404 3.669-5.109 3.669C288.983 284.061 286.578 281.676 286.578 277.987zM295.633 276.702c-.186-2.5-1.465-3.461-3.44-3.461-1.975 0-3.255 1.33-3.573 3.461H295.633z"/></svg>