<?xml version="1.0" encoding="utf-8"?><!DOCTYPE svg PUBLIC "-//W3C//DTD SVG 1.1//EN" "http://www.w3.org/Graphics/SVG/1.1/DTD/svg11.dtd"><svg xmlns="http://www.w3.org/2000/svg" width="294.803" height="90.851" viewBox="0 0 294.803 90.851"><path d="M89 15.988H91.931V42.159H89zM94.694 12.639H97.626V42.107H94.694zM100.388 12.639H103.319V42.107H100.388zM106.081 12.639H109.012V42.107H106.081zM111.774 12.639H114.706V42.107H111.774zM117.469 12.639H120.39999999999999V42.107H117.469zM123.162 5.688H126.093V42.108000000000004H123.162zM128.855 2.717H131.78699999999998V42.108H128.855zM134.549 0H137.48000000000002V42.107H134.549zM140.243 0H143.174V42.107H140.243zM145.936 0H148.868V42.107H145.936zM151.63 0H154.561V42.107H151.63zM157.323 0H160.256V42.107H157.323zM163.017 2.717H165.948V42.108H163.017zM168.711 5.688H171.64200000000002V42.108000000000004H168.711zM174.403 12.639H177.33599999999998V42.107H174.403zM180.098 12.639H183.02900000000002V42.107H180.098zM185.791 12.639H188.722V42.107H185.791zM191.484 12.639H194.417V42.107H191.484zM197.178 12.639H200.109V42.107H197.178zM202.872 15.988H205.80300000000003V42.159H202.872zM102.481 57.135L98.575 57.135 100.798 54.793 104.527 54.793zM149.354 57.135L145.448 57.135 145.538 54.793 149.266 54.793zM157.167 57.135L153.261 57.135 152.994 54.793 156.722 54.793zM92.131 52.656L88.565 52.656 91.021 50.697 94.438 50.697zM106.394 52.656L102.828 52.656 104.689 50.697 108.105 50.697zM120.658 52.656L117.092 52.656 118.356 50.697 121.773 50.697zM134.921 52.656L131.355 52.656 132.025 50.697 135.442 50.697zM142.053 52.656L138.486 52.656 138.858 50.697 142.275 50.697zM149.185 52.656L145.618 52.656 145.693 50.697 149.11 50.697zM156.316 52.656L152.75 52.656 152.527 50.697 155.944 50.697zM163.448 52.656L159.882 52.656 159.36 50.697 162.777 50.697zM177.711 52.656L174.146 52.656 173.029 50.697 176.446 50.697zM180.604 57.135L176.697 57.135 175.363 54.793 179.091 54.793zM184.843 52.656L181.277 52.656 179.863 50.697 183.28 50.697zM206.238 52.656L202.672 52.656 200.365 50.697 203.782 50.697zM89.999 48.894L86.719 48.894 89.057 47.231 92.21 47.231zM96.56 48.894L93.279 48.894 95.364 47.231 98.518 47.231zM103.12 48.894L99.84 48.894 101.672 47.231 104.826 47.231zM109.68 48.894L106.4 48.894 107.979 47.231 111.133 47.231zM116.24 48.894L112.96 48.894 114.287 47.231 117.44 47.231zM122.8 48.894L119.521 48.894 120.594 47.231 123.749 47.231zM129.361 48.894L126.081 48.894 126.902 47.231 130.056 47.231zM135.921 48.894L132.641 48.894 133.21 47.231 136.363 47.231zM142.481 48.894L139.201 48.894 139.517 47.231 142.67 47.231zM149.041 48.894L145.761 48.894 145.824 47.231 148.979 47.231zM155.602 48.894L152.321 48.894 152.132 47.231 155.286 47.231zM162.162 48.894L158.882 48.894 158.439 47.231 161.593 47.231zM168.723 48.894L165.442 48.894 164.747 47.231 167.901 47.231zM175.282 48.894L172.002 48.894 171.055 47.231 174.208 47.231zM181.843 48.894L178.563 48.894 177.362 47.231 180.516 47.231zM194.963 48.894L191.684 48.894 189.978 47.231 193.131 47.231zM201.523 48.894L198.243 48.894 196.285 47.231 199.438 47.231zM208.084 48.894L204.804 48.894 202.593 47.231 205.747 47.231zM88.184 45.691L85.147 45.691 87.374 44.261 90.302 44.261zM94.257 45.691L91.221 45.691 93.23 44.261 96.159 44.261zM100.331 45.691L97.294 45.691 99.086 44.261 102.014 44.261zM106.405 45.691L103.368 45.691 104.943 44.261 107.871 44.261zM112.479 45.691L109.441 45.691 110.799 44.261 113.727 44.261zM118.552 45.691L115.515 45.691 116.656 44.261 119.584 44.261zM124.625 45.691L121.588 45.691 122.513 44.261 125.44 44.261zM130.699 45.691L127.662 45.691 128.368 44.261 131.296 44.261zM136.772 45.691L133.736 45.691 134.225 44.261 137.153 44.261zM142.846 45.691L139.809 45.691 140.081 44.261 143.009 44.261zM148.92 45.691L145.883 45.691 145.938 44.261 148.866 44.261zM154.993 45.691L151.956 45.691 151.793 44.261 154.722 44.261zM161.067 45.691L158.03 45.691 157.65 44.261 160.578 44.261zM167.141 45.691L164.104 45.691 163.507 44.261 166.435 44.261zM173.214 45.691L170.177 45.691 169.363 44.261 172.291 44.261zM179.288 45.691L176.251 45.691 175.22 44.261 178.147 44.261zM185.361 45.691L182.324 45.691 181.075 44.261 184.003 44.261zM191.435 45.691L188.398 45.691 186.932 44.261 189.86 44.261zM197.509 45.691L194.472 45.691 192.789 44.261 195.717 44.261zM203.582 45.691L200.545 45.691 198.646 44.261 201.573 44.261zM209.656 45.691L206.619 45.691 204.501 44.261 207.429 44.261zM0 88.193l1.629-2.255c1.151 1.229 2.957 2.306 5.287 2.306 2.404 0 3.356-1.179 3.356-2.28 0-3.508-9.747-1.327-9.747-7.49 0-2.758 2.432-4.888 6.09-4.888 2.605 0 4.711.827 6.264 2.33L11.2 78.097c-1.304-1.304-3.082-1.904-4.835-1.904-1.729 0-2.832.826-2.832 2.079 0 3.106 9.722 1.178 9.722 7.417 0 2.781-1.954 5.161-6.465 5.161C3.708 90.85 1.478 89.772 0 88.193M34.533 79.073c0-1.604-1.202-2.656-2.856-2.656h-4.009v5.313h4.009C33.331 81.729 34.533 80.677 34.533 79.073M24.736 90.549V73.837h7.343c3.507 0 5.462 2.405 5.462 5.236 0 2.832-1.98 5.237-5.462 5.237h-4.41v6.237L24.736 90.549 24.736 90.549zM58.543 79.073c0-1.604-1.203-2.656-2.857-2.656h-4.009v5.313h4.009C57.34 81.729 58.543 80.677 58.543 79.073M58.292 90.549l-3.708-6.237h-2.907v6.237h-2.932V73.837h7.342c3.307 0 5.462 2.154 5.462 5.236 0 2.981-1.954 4.585-3.958 4.911l4.083 6.563L58.292 90.549 58.292 90.549zM73.256 90.549L73.256 73.837 84.708 73.837 84.708 76.417 76.188 76.417 76.188 80.752 84.532 80.752 84.532 83.333 76.188 83.333 76.188 87.969 84.708 87.969 84.708 90.549zM96.489 90.549L96.489 73.837 107.94 73.837 107.94 76.417 99.421 76.417 99.421 80.752 107.765 80.752 107.765 83.333 99.421 83.333 99.421 87.969 107.94 87.969 107.94 90.549zM118.644 88.193l1.629-2.255c1.152 1.229 2.957 2.306 5.287 2.306 2.405 0 3.357-1.179 3.357-2.28 0-3.508-9.747-1.327-9.747-7.49 0-2.758 2.431-4.888 6.089-4.888 2.605 0 4.711.827 6.264 2.33l-1.679 2.182c-1.303-1.304-3.082-1.904-4.836-1.904-1.729 0-2.831.826-2.831 2.079 0 3.106 9.722 1.178 9.722 7.417 0 2.781-1.954 5.161-6.465 5.161C122.352 90.85 120.122 89.772 118.644 88.193M153.177 79.073c0-1.604-1.202-2.656-2.855-2.656h-4.009v5.313h4.009C151.975 81.729 153.177 80.677 153.177 79.073M143.38 90.549V73.837h7.342c3.508 0 5.462 2.405 5.462 5.236 0 2.832-1.979 5.237-5.462 5.237h-4.41v6.237L143.38 90.549 143.38 90.549zM167.39 90.549L167.39 73.837 178.841 73.837 178.841 76.417 170.321 76.417 170.321 80.752 178.665 80.752 178.665 83.333 170.321 83.333 170.321 87.969 178.841 87.969 178.841 90.549zM191.475 73.837H194.406V90.549H191.475zM205.134 82.206c0-5.138 3.834-8.646 8.77-8.646 3.383 0 5.463 1.754 6.717 3.759l-2.507 1.278c-.802-1.379-2.404-2.432-4.21-2.432-3.307 0-5.763 2.53-5.763 6.039 0 3.508 2.456 6.038 5.763 6.038 1.806 0 3.408-1.027 4.21-2.431l2.507 1.277c-1.278 2.006-3.334 3.759-6.717 3.759C208.968 90.85 205.134 87.342 205.134 82.206M243.376 90.549L243.376 83.257 234.683 83.257 234.683 90.549 231.749 90.549 231.749 73.837 234.683 73.837 234.683 80.677 243.376 80.677 243.376 73.837 246.308 73.837 246.308 90.549zM258.641 90.549L258.641 73.837 270.091 73.837 270.091 76.417 261.572 76.417 261.572 80.752 269.916 80.752 269.916 83.333 261.572 83.333 261.572 87.969 270.091 87.969 270.091 90.549zM291.671 79.073c0-1.604-1.203-2.656-2.856-2.656h-4.009v5.313h4.009C290.468 81.729 291.671 80.677 291.671 79.073M291.42 90.549l-3.708-6.237h-2.906v6.237h-2.932V73.837h7.341c3.307 0 5.463 2.154 5.463 5.236 0 2.981-1.955 4.585-3.959 4.911l4.084 6.563L291.42 90.549 291.42 90.549z"/></svg>