<?xml version="1.0" encoding="utf-8"?><!DOCTYPE svg PUBLIC "-//W3C//DTD SVG 1.1//EN" "http://www.w3.org/Graphics/SVG/1.1/DTD/svg11.dtd"><svg xmlns="http://www.w3.org/2000/svg" width="420" height="79.54" viewBox="-139 -25.694 420 79.54"><g><path fill="#575786" d="M-115.63,53.525c3.965,0,7.075-0.857,9.968-2.361v-7.072 c-2.893,1.393-5.251,1.931-8.039,1.931c-5.575,0-9.328-2.465-9.328-9.223V4.428h17.581v-7.29h-17.581v-16.723h-8.254v16.723 H-139v7.29h7.717v33.447C-131.283,49.129-124.529,53.525-115.63,53.525L-115.63,53.525z M-74.36,53.741 c9.755,0,16.187-4.508,20.046-9.544v8.362h7.933V18.686c0-7.075-1.929-12.436-5.682-16.187 c-4.072-4.074-10.076-6.11-17.901-6.11c-8.04,0-14.043,1.822-20.153,4.609l2.466,6.753c5.146-2.358,10.29-4.074,16.83-4.074 c10.397,0,16.508,5.146,16.508,15.115v1.932c-4.932-1.4-9.97-2.36-17.045-2.36c-14.042,0-23.691,6.215-23.691,17.9v0.215 C-95.05,47.843-84.651,53.741-74.36,53.741L-74.36,53.741z M-72.752,47.201c-7.504,0-13.936-4.075-13.936-11.042v-0.214 c0-6.97,5.789-11.47,16.188-11.47c6.753,0,12.22,1.178,16.294,2.355v5.361C-54.207,40.98-62.568,47.201-72.752,47.201 L-72.752,47.201z M-28.051,52.56h8.254v-78.253h-8.254V52.56z M23.619,53.846c10.506,0,17.259-4.183,22.833-10.399l-5.145-4.605 c-4.501,4.717-9.862,7.822-17.472,7.822c-9.862,0-18.332-6.752-19.511-18.756h43.952c0.106-0.966,0.106-1.611,0.106-2.683 c0-16.188-9.434-29.261-25.834-29.261c-15.33,0-26.585,12.862-26.585,28.837v0.213C-4.038,42.16,8.397,53.846,23.619,53.846 L23.619,53.846z M4.323,21.795C5.395,10.966,12.685,2.928,22.332,2.928c11.041,0,16.831,8.791,17.689,18.867H4.323z M62.854,52.56h8.254V20.828c0-10.396,7.074-17.364,16.611-17.364c9.761,0,15.332,6.431,15.332,16.723V52.56h8.252V18.147 c0-13.183-7.824-22.187-21.226-22.187c-9.539,0-15.328,4.823-18.973,10.826v-9.648h-8.254V52.56H62.854z M147.432,53.525 c3.968,0,7.075-0.857,9.97-2.361v-7.072c-2.895,1.393-5.253,1.931-8.037,1.931c-5.578,0-9.329-2.465-9.329-9.223V4.428h17.581 v-7.29h-17.581v-16.723h-8.25v16.723h-7.721v7.29h7.717v33.447C131.781,49.129,138.534,53.525,147.432,53.525L147.432,53.525z M171.231,52.56h9.864V41.306h-9.864V52.56z"/><linearGradient id="na" gradientUnits="userSpaceOnUse" x1="-1385.127" y1="257.198" x2="-1387.845" y2="259.423" gradientTransform="matrix(27.648 0 0 26.172 38562.352 -6744.395)"><stop offset="0" stop-color="#ffd427"/><stop offset="1" stop-color="#fc9301"/></linearGradient><path fill="url(#na)" d="M251.95,53.846c16.727,0,29.05-13.289,29.05-28.942V24.69 c0-15.653-12.22-28.727-28.835-28.727c-16.721,0-28.944,13.292-28.944,28.943v0.215 C223.221,40.768,235.333,53.846,251.95,53.846z M252.165,46.448c-11.685,0-20.477-9.646-20.477-21.545V24.69 c0-11.687,8.257-21.441,20.262-21.441c11.684,0,20.582,9.754,20.582,21.654v0.214C272.532,36.802,264.172,46.448,252.165,46.448 z M199.211,52.56h8.253V-2.861h-8.253V52.56z M198.673-14.975h9.434v-9.11h-9.434V-14.975z"/></g></svg>