<?xml version="1.0" encoding="utf-8"?>
<!-- Generator: Adobe Illustrator 15.1.0, SVG Export Plug-In . SVG Version: 6.00 Build 0)  -->
<!DOCTYPE svg PUBLIC "-//W3C//DTD SVG 1.0//EN" "http://www.w3.org/TR/2001/REC-SVG-20010904/DTD/svg10.dtd">
<svg version="1.0" id="Ebene_1" xmlns="http://www.w3.org/2000/svg" xmlns:xlink="http://www.w3.org/1999/xlink" x="0px" y="0px"
	 width="200px" height="200.001px" viewBox="0 0 200 200.001" enable-background="new 0 0 200 200.001" xml:space="preserve">
<g>
	<circle fill="#F07E1B" cx="100" cy="100" r="100"/>
	<g>
		<circle fill="#FFFFFF" cx="100" cy="35.819" r="14.926"/>
		<path fill="#FFFFFF" d="M164.772,50.731c-0.832-4.037-4.778-6.636-8.815-5.803L100,56.465L44.043,44.928
			c-4.037-0.835-7.983,1.765-8.815,5.803c-0.833,4.036,1.765,7.983,5.803,8.815l41.805,8.62v45.563l-11.782,56.387
			c-0.843,4.034,1.743,7.989,5.778,8.831c0.515,0.108,1.028,0.159,1.535,0.159c3.458,0,6.562-2.418,7.297-5.937l12.015-57.499
			c0.224-1.189,1.086-2.239,2.323-2.239s2.123,1.05,2.323,2.239l12.015,57.499c0.735,3.519,3.838,5.937,7.297,5.937
			c0.505,0,1.02-0.051,1.535-0.159c4.035-0.842,6.622-4.797,5.778-8.831l-11.783-56.391V68.166l41.806-8.62
			C163.008,58.714,165.604,54.767,164.772,50.731z"/>
	</g>
</g>
</svg>
